G04 #@! TF.GenerationSoftware,KiCad,Pcbnew,8.0.9-8.0.9-0~ubuntu24.04.1*
G04 #@! TF.CreationDate,2025-06-07T19:12:40-04:00*
G04 #@! TF.ProjectId,Sensor Board,53656e73-6f72-4204-926f-6172642e6b69,rev?*
G04 #@! TF.SameCoordinates,Original*
G04 #@! TF.FileFunction,Copper,L1,Top*
G04 #@! TF.FilePolarity,Positive*
%FSLAX46Y46*%
G04 Gerber Fmt 4.6, Leading zero omitted, Abs format (unit mm)*
G04 Created by KiCad (PCBNEW 8.0.9-8.0.9-0~ubuntu24.04.1) date 2025-06-07 19:12:40*
%MOMM*%
%LPD*%
G01*
G04 APERTURE LIST*
G04 Aperture macros list*
%AMRoundRect*
0 Rectangle with rounded corners*
0 $1 Rounding radius*
0 $2 $3 $4 $5 $6 $7 $8 $9 X,Y pos of 4 corners*
0 Add a 4 corners polygon primitive as box body*
4,1,4,$2,$3,$4,$5,$6,$7,$8,$9,$2,$3,0*
0 Add four circle primitives for the rounded corners*
1,1,$1+$1,$2,$3*
1,1,$1+$1,$4,$5*
1,1,$1+$1,$6,$7*
1,1,$1+$1,$8,$9*
0 Add four rect primitives between the rounded corners*
20,1,$1+$1,$2,$3,$4,$5,0*
20,1,$1+$1,$4,$5,$6,$7,0*
20,1,$1+$1,$6,$7,$8,$9,0*
20,1,$1+$1,$8,$9,$2,$3,0*%
G04 Aperture macros list end*
G04 #@! TA.AperFunction,SMDPad,CuDef*
%ADD10RoundRect,0.250000X-0.475000X0.337500X-0.475000X-0.337500X0.475000X-0.337500X0.475000X0.337500X0*%
G04 #@! TD*
G04 #@! TA.AperFunction,SMDPad,CuDef*
%ADD11RoundRect,0.250000X-0.450000X0.350000X-0.450000X-0.350000X0.450000X-0.350000X0.450000X0.350000X0*%
G04 #@! TD*
G04 #@! TA.AperFunction,SMDPad,CuDef*
%ADD12RoundRect,0.150000X0.150000X-0.512500X0.150000X0.512500X-0.150000X0.512500X-0.150000X-0.512500X0*%
G04 #@! TD*
G04 #@! TA.AperFunction,SMDPad,CuDef*
%ADD13R,1.000000X2.000000*%
G04 #@! TD*
G04 #@! TA.AperFunction,SMDPad,CuDef*
%ADD14RoundRect,0.250000X0.337500X0.475000X-0.337500X0.475000X-0.337500X-0.475000X0.337500X-0.475000X0*%
G04 #@! TD*
G04 #@! TA.AperFunction,SMDPad,CuDef*
%ADD15RoundRect,0.250000X0.350000X0.450000X-0.350000X0.450000X-0.350000X-0.450000X0.350000X-0.450000X0*%
G04 #@! TD*
G04 #@! TA.AperFunction,SMDPad,CuDef*
%ADD16R,1.500000X1.500000*%
G04 #@! TD*
G04 #@! TA.AperFunction,ComponentPad*
%ADD17C,3.800000*%
G04 #@! TD*
G04 #@! TA.AperFunction,ComponentPad*
%ADD18C,1.000000*%
G04 #@! TD*
G04 #@! TA.AperFunction,SMDPad,CuDef*
%ADD19RoundRect,0.250000X0.475000X-0.337500X0.475000X0.337500X-0.475000X0.337500X-0.475000X-0.337500X0*%
G04 #@! TD*
G04 #@! TA.AperFunction,SMDPad,CuDef*
%ADD20RoundRect,0.250000X-0.350000X-0.450000X0.350000X-0.450000X0.350000X0.450000X-0.350000X0.450000X0*%
G04 #@! TD*
G04 #@! TA.AperFunction,SMDPad,CuDef*
%ADD21RoundRect,0.150000X-0.825000X-0.150000X0.825000X-0.150000X0.825000X0.150000X-0.825000X0.150000X0*%
G04 #@! TD*
G04 #@! TA.AperFunction,SMDPad,CuDef*
%ADD22RoundRect,0.250001X0.462499X0.624999X-0.462499X0.624999X-0.462499X-0.624999X0.462499X-0.624999X0*%
G04 #@! TD*
G04 #@! TA.AperFunction,ComponentPad*
%ADD23C,5.600000*%
G04 #@! TD*
G04 #@! TA.AperFunction,SMDPad,CuDef*
%ADD24R,3.100000X1.300000*%
G04 #@! TD*
G04 #@! TA.AperFunction,SMDPad,CuDef*
%ADD25RoundRect,0.250000X-0.337500X-0.475000X0.337500X-0.475000X0.337500X0.475000X-0.337500X0.475000X0*%
G04 #@! TD*
G04 #@! TA.AperFunction,SMDPad,CuDef*
%ADD26RoundRect,0.100000X-0.100000X0.637500X-0.100000X-0.637500X0.100000X-0.637500X0.100000X0.637500X0*%
G04 #@! TD*
G04 #@! TA.AperFunction,ComponentPad*
%ADD27C,1.500000*%
G04 #@! TD*
G04 #@! TA.AperFunction,SMDPad,CuDef*
%ADD28RoundRect,0.150000X-0.750000X-0.150000X0.750000X-0.150000X0.750000X0.150000X-0.750000X0.150000X0*%
G04 #@! TD*
G04 #@! TA.AperFunction,ViaPad*
%ADD29C,0.600000*%
G04 #@! TD*
G04 #@! TA.AperFunction,ViaPad*
%ADD30C,0.762000*%
G04 #@! TD*
G04 #@! TA.AperFunction,Conductor*
%ADD31C,0.203200*%
G04 #@! TD*
G04 #@! TA.AperFunction,Conductor*
%ADD32C,0.381000*%
G04 #@! TD*
G04 #@! TA.AperFunction,Conductor*
%ADD33C,0.508000*%
G04 #@! TD*
G04 #@! TA.AperFunction,Conductor*
%ADD34C,0.500000*%
G04 #@! TD*
G04 APERTURE END LIST*
D10*
X185420000Y-90297000D03*
X185420000Y-92372000D03*
D11*
X205384400Y-63008000D03*
X205384400Y-65008000D03*
D12*
X209616000Y-63925000D03*
X210566000Y-63925000D03*
X211516000Y-63925000D03*
X211516000Y-61650000D03*
X209616000Y-61650000D03*
D13*
X190500000Y-65887500D03*
X193040000Y-65887500D03*
X195580000Y-65887500D03*
X198120000Y-65887500D03*
X200660000Y-65887500D03*
D14*
X204110500Y-98044000D03*
X202035500Y-98044000D03*
D10*
X193548000Y-72608500D03*
X193548000Y-74683500D03*
X204216000Y-69408500D03*
X204216000Y-71483500D03*
X206502000Y-88243500D03*
X206502000Y-90318500D03*
D15*
X214360000Y-77343000D03*
X212360000Y-77343000D03*
D16*
X221996000Y-77724000D03*
D17*
X216789000Y-92342000D03*
X216789000Y-82042000D03*
D18*
X216789000Y-85942000D03*
X216789000Y-87192000D03*
X216789000Y-88442000D03*
X218039000Y-85942000D03*
X218039000Y-87192000D03*
X218039000Y-88442000D03*
D16*
X221996000Y-75184000D03*
D19*
X214680000Y-75179000D03*
X214680000Y-73104000D03*
D20*
X188865000Y-73279000D03*
X190865000Y-73279000D03*
D21*
X196661000Y-69158500D03*
X196661000Y-70428500D03*
X196661000Y-71698500D03*
X196661000Y-72968500D03*
X201611000Y-72968500D03*
X201611000Y-71698500D03*
X201611000Y-70428500D03*
X201611000Y-69158500D03*
D11*
X215900000Y-61738000D03*
X215900000Y-63738000D03*
D10*
X206451200Y-97616100D03*
X206451200Y-99691100D03*
D11*
X218186000Y-62500000D03*
X218186000Y-64500000D03*
D22*
X186272500Y-79629000D03*
X183297500Y-79629000D03*
D20*
X188799500Y-76708000D03*
X190799500Y-76708000D03*
D21*
X209361000Y-96668500D03*
X209361000Y-97938500D03*
X209361000Y-99208500D03*
X209361000Y-100478500D03*
X214311000Y-100478500D03*
X214311000Y-99208500D03*
X214311000Y-97938500D03*
X214311000Y-96668500D03*
D19*
X217170000Y-75184000D03*
X217170000Y-73109000D03*
X207772000Y-60727500D03*
X207772000Y-58652500D03*
D20*
X188738000Y-80010000D03*
X190738000Y-80010000D03*
D23*
X219964000Y-58674000D03*
X185420000Y-58420000D03*
D15*
X201930000Y-100076000D03*
X199930000Y-100076000D03*
D23*
X185420000Y-100330000D03*
D24*
X210779600Y-57924800D03*
X210779600Y-59724800D03*
D25*
X212097800Y-102717600D03*
X214172800Y-102717600D03*
D19*
X185420000Y-88159500D03*
X185420000Y-86084500D03*
X202692000Y-67331500D03*
X202692000Y-65256500D03*
D22*
X186272500Y-75819000D03*
X183297500Y-75819000D03*
D26*
X212300000Y-68523500D03*
X211650000Y-68523500D03*
X211000000Y-68523500D03*
X210350000Y-68523500D03*
X209700000Y-68523500D03*
X209050000Y-68523500D03*
X208400000Y-68523500D03*
X207750000Y-68523500D03*
X207100000Y-68523500D03*
X206450000Y-68523500D03*
X206450000Y-74248500D03*
X207100000Y-74248500D03*
X207750000Y-74248500D03*
X208400000Y-74248500D03*
X209050000Y-74248500D03*
X209700000Y-74248500D03*
X210350000Y-74248500D03*
X211000000Y-74248500D03*
X211650000Y-74248500D03*
X212300000Y-74248500D03*
D19*
X217170000Y-70660000D03*
X217170000Y-68585000D03*
D23*
X219964000Y-100330000D03*
D20*
X183404000Y-68072000D03*
X185404000Y-68072000D03*
D19*
X214630000Y-70655000D03*
X214630000Y-68580000D03*
D22*
X186399500Y-72263000D03*
X183424500Y-72263000D03*
D15*
X214775000Y-66040000D03*
X212775000Y-66040000D03*
D10*
X193548000Y-68558500D03*
X193548000Y-70633500D03*
D27*
X189720000Y-86831500D03*
X189720000Y-91711500D03*
D10*
X213614000Y-61700500D03*
X213614000Y-63775500D03*
X207518000Y-62970500D03*
X207518000Y-65045500D03*
D16*
X221996000Y-72644000D03*
D28*
X194300000Y-78486000D03*
X194300000Y-79756000D03*
X194300000Y-81026000D03*
X194300000Y-82296000D03*
X194300000Y-83566000D03*
X194300000Y-84836000D03*
X194300000Y-86106000D03*
X194300000Y-87376000D03*
X194300000Y-88646000D03*
X194300000Y-89916000D03*
X194300000Y-91186000D03*
X194300000Y-92456000D03*
X194300000Y-93726000D03*
X194300000Y-94996000D03*
X203900000Y-94996000D03*
X203900000Y-93726000D03*
X203900000Y-92456000D03*
X203900000Y-91186000D03*
X203900000Y-89916000D03*
X203900000Y-88646000D03*
X203900000Y-87376000D03*
X203900000Y-86106000D03*
X203900000Y-84836000D03*
X203900000Y-83566000D03*
X203900000Y-82296000D03*
X203900000Y-81026000D03*
X203900000Y-79756000D03*
X203900000Y-78486000D03*
D29*
X205282800Y-82854800D03*
X215138000Y-101346000D03*
X213487000Y-76327000D03*
D30*
X183404000Y-66564000D03*
D29*
X191516000Y-102870000D03*
X205232000Y-88646000D03*
X202184000Y-96774000D03*
D30*
X189738000Y-60706000D03*
D29*
X222123000Y-76454000D03*
X220675200Y-75184000D03*
D30*
X183134000Y-77724000D03*
D29*
X215696800Y-84705200D03*
D30*
X183134000Y-70612000D03*
D29*
X207772000Y-99208500D03*
D30*
X183134000Y-74168000D03*
D29*
X186944000Y-68072000D03*
X200660000Y-64008000D03*
X192913000Y-78486000D03*
X202438000Y-79756000D03*
X190500000Y-64135000D03*
X202438000Y-78486000D03*
X193040000Y-64135000D03*
X202565000Y-92456000D03*
X215773000Y-60579000D03*
X210566000Y-61595000D03*
X210693000Y-71120000D03*
X213543208Y-64871600D03*
X204216000Y-72517000D03*
X208584800Y-57404000D03*
X200660000Y-62230000D03*
X213487000Y-70358000D03*
X213309200Y-67462400D03*
X203073000Y-72898000D03*
X192278000Y-74676000D03*
X210439000Y-67183000D03*
X210794600Y-56337200D03*
X202692000Y-64008000D03*
X212344000Y-61595000D03*
X209042000Y-65405000D03*
X213487000Y-69596000D03*
X205486000Y-71501000D03*
X193040000Y-55880000D03*
X206451200Y-58724800D03*
X210439000Y-66294000D03*
X209778600Y-56337200D03*
X212953600Y-59131200D03*
X212217000Y-69977000D03*
X215900000Y-55880000D03*
X209042000Y-66294000D03*
X196723000Y-73914000D03*
X208635600Y-56337200D03*
X198120000Y-70358000D03*
X192151000Y-70612000D03*
X209042000Y-67183000D03*
X207518000Y-57404000D03*
X212953600Y-57251600D03*
X213487000Y-60452000D03*
X212953600Y-56337200D03*
X211695200Y-67183000D03*
X212953600Y-58115200D03*
X198247000Y-72898000D03*
X199898000Y-72898000D03*
X210439000Y-65405000D03*
X215773000Y-70612000D03*
X214757000Y-61722000D03*
X194945000Y-74676000D03*
X213487000Y-71374000D03*
X200660000Y-55880000D03*
X211810600Y-56337200D03*
X199898000Y-71628000D03*
X205130400Y-81026000D03*
X194945000Y-69158500D03*
X222504000Y-68580000D03*
X219456000Y-62500000D03*
X206451200Y-60727500D03*
X220472000Y-70612000D03*
X218440000Y-66548000D03*
X222504000Y-64516000D03*
X220472000Y-64516000D03*
X221742000Y-71374000D03*
X222504000Y-70612000D03*
X216014300Y-65290700D03*
X220472000Y-66548000D03*
X218440000Y-70612000D03*
X218440000Y-68580000D03*
X194945000Y-71698500D03*
X222504000Y-66548000D03*
X217805000Y-71755000D03*
X220472000Y-68580000D03*
X195732400Y-95427800D03*
X205308000Y-95758000D03*
X202565000Y-94234000D03*
X202412600Y-82296000D03*
X196596000Y-80360800D03*
X183388000Y-96520000D03*
X199136000Y-102616000D03*
X205292812Y-90182559D03*
X206502000Y-96266000D03*
X183388000Y-82296000D03*
X219202000Y-72898000D03*
X185420000Y-63500000D03*
X208310200Y-77673200D03*
X211175600Y-80060800D03*
X187452000Y-82296000D03*
X206248000Y-78613000D03*
X210566000Y-92964000D03*
X186690000Y-92456000D03*
X183388000Y-89408000D03*
D30*
X189738000Y-62230000D03*
D29*
X200660000Y-74930000D03*
X183388000Y-92964000D03*
X211074000Y-75692000D03*
X199898000Y-91948000D03*
X183388000Y-85852000D03*
X198882000Y-82804000D03*
X191342341Y-82469659D03*
X202438000Y-89916000D03*
X203200000Y-76708000D03*
X204216000Y-102616000D03*
X207772000Y-97536000D03*
X209361000Y-97938500D03*
X186690000Y-86106000D03*
X208026000Y-75946000D03*
X204216000Y-96520000D03*
X193548000Y-99060000D03*
X213055200Y-86309200D03*
X191008000Y-96520000D03*
X196342000Y-87376000D03*
X196342000Y-81788000D03*
X187452000Y-96520000D03*
X206502000Y-91440000D03*
X211429600Y-91084400D03*
X210820000Y-102870000D03*
X196596000Y-92456000D03*
X209550000Y-95504000D03*
D31*
X189720000Y-86831500D02*
X189720000Y-88247000D01*
X189720000Y-88247000D02*
X189720000Y-88374000D01*
X189992000Y-88646000D02*
X194300000Y-88646000D01*
X189720000Y-88410000D02*
X189484000Y-88646000D01*
X189484000Y-88646000D02*
X185420000Y-88646000D01*
X189720000Y-88374000D02*
X189992000Y-88646000D01*
X185420000Y-88646000D02*
X185420000Y-88159500D01*
X189720000Y-88247000D02*
X189720000Y-88410000D01*
X189720000Y-91711500D02*
X189720000Y-90188000D01*
X189992000Y-89789000D02*
X194173000Y-89789000D01*
X189720000Y-90061000D02*
X189448000Y-89789000D01*
X189720000Y-90061000D02*
X189992000Y-89789000D01*
X185420000Y-89789000D02*
X185420000Y-90402500D01*
X189448000Y-89789000D02*
X185420000Y-89789000D01*
X189720000Y-90188000D02*
X189720000Y-90061000D01*
X194173000Y-89789000D02*
X194300000Y-89916000D01*
X222123000Y-76454000D02*
X221742000Y-76835000D01*
X214397500Y-102086500D02*
X215138000Y-101346000D01*
X203900000Y-88646000D02*
X205232000Y-88646000D01*
X192938500Y-60706000D02*
X189738000Y-60706000D01*
X198120000Y-65887500D02*
X192938500Y-60706000D01*
X214311000Y-100519000D02*
X215138000Y-101346000D01*
X221742000Y-76835000D02*
X221742000Y-77724000D01*
D32*
X202035500Y-98044000D02*
X202035500Y-99970500D01*
D31*
X202168000Y-96790000D02*
X202184000Y-96774000D01*
X214360000Y-77200000D02*
X214360000Y-77343000D01*
D32*
X202035500Y-98176500D02*
X202168000Y-98044000D01*
D31*
X202168000Y-98044000D02*
X202168000Y-96790000D01*
D32*
X202035500Y-99970500D02*
X201930000Y-100076000D01*
D31*
X206502000Y-88243500D02*
X205634500Y-88243500D01*
X183404000Y-68072000D02*
X183404000Y-66564000D01*
X214311000Y-100478500D02*
X214311000Y-100519000D01*
X213487000Y-76327000D02*
X214360000Y-77200000D01*
X214397500Y-102616000D02*
X214397500Y-102086500D01*
X205634500Y-88243500D02*
X205232000Y-88646000D01*
X207518000Y-65045500D02*
X208495500Y-65045500D01*
X209700000Y-64009000D02*
X209700000Y-68523500D01*
X205384400Y-65008000D02*
X207143000Y-65008000D01*
X208495500Y-65045500D02*
X209616000Y-63925000D01*
X209616000Y-63925000D02*
X209700000Y-64009000D01*
X209616000Y-64582000D02*
X209616000Y-63925000D01*
X183424500Y-70902500D02*
X183424500Y-72263000D01*
X221742000Y-75184000D02*
X220675200Y-75184000D01*
X206451200Y-99691100D02*
X206933800Y-99208500D01*
X183134000Y-70612000D02*
X183424500Y-70902500D01*
X206933800Y-99208500D02*
X207772000Y-99208500D01*
X183297500Y-74331500D02*
X183297500Y-75819000D01*
X183297500Y-77887500D02*
X183297500Y-79629000D01*
X183134000Y-77724000D02*
X183297500Y-77887500D01*
X183134000Y-74168000D02*
X183297500Y-74331500D01*
X207772000Y-99208500D02*
X209361000Y-99208500D01*
X186272500Y-75819000D02*
X187452000Y-75819000D01*
X188341000Y-76708000D02*
X188799500Y-76708000D01*
X187452000Y-75819000D02*
X188341000Y-76708000D01*
X186272500Y-79629000D02*
X188357000Y-79629000D01*
X188357000Y-79629000D02*
X188738000Y-80010000D01*
X209260658Y-62970500D02*
X205421900Y-62970500D01*
X210943100Y-62970500D02*
X210930300Y-62957700D01*
X210930300Y-62957700D02*
X209273458Y-62957700D01*
D33*
X211516000Y-61650000D02*
X211516000Y-60461200D01*
D31*
X209273458Y-62957700D02*
X209260658Y-62970500D01*
X205421900Y-62970500D02*
X205384400Y-63008000D01*
X211516000Y-61650000D02*
X211516000Y-62397600D01*
X210318000Y-59452000D02*
X210590800Y-59724800D01*
X211516000Y-62397600D02*
X210943100Y-62970500D01*
X210590800Y-59724800D02*
X210779600Y-59724800D01*
D33*
X211516000Y-60461200D02*
X210779600Y-59724800D01*
D31*
X200660000Y-65887500D02*
X200660000Y-64008000D01*
X194300000Y-78486000D02*
X192913000Y-78486000D01*
X185404000Y-68072000D02*
X186944000Y-68072000D01*
X203900000Y-79756000D02*
X202438000Y-79756000D01*
X190500000Y-65887500D02*
X190500000Y-64135000D01*
X202438000Y-78486000D02*
X202311000Y-78486000D01*
X203900000Y-78486000D02*
X202438000Y-78486000D01*
X193040000Y-65887500D02*
X193040000Y-64135000D01*
X202565000Y-92456000D02*
X203900000Y-92456000D01*
X190881000Y-73295000D02*
X190865000Y-73279000D01*
X192049200Y-76366166D02*
X190881000Y-75197966D01*
X193400001Y-82296000D02*
X192049200Y-80945199D01*
X194300000Y-82296000D02*
X193400001Y-82296000D01*
X190881000Y-75197966D02*
X190881000Y-73295000D01*
X192049200Y-80945199D02*
X192049200Y-76366166D01*
X207750000Y-74985999D02*
X207043999Y-75692000D01*
X197866000Y-84836000D02*
X196596000Y-86106000D01*
X207750000Y-74248500D02*
X207750000Y-74985999D01*
X203200000Y-75692000D02*
X197866000Y-81026000D01*
X207043999Y-75692000D02*
X203200000Y-75692000D01*
X197866000Y-81026000D02*
X197866000Y-84836000D01*
X196596000Y-86106000D02*
X194300000Y-86106000D01*
X211650000Y-69410000D02*
X211650000Y-68523500D01*
X211000000Y-69776000D02*
X211074000Y-69850000D01*
X212217000Y-69977000D02*
X211650000Y-69410000D01*
X209050000Y-67191000D02*
X209042000Y-67183000D01*
D34*
X210566000Y-63925000D02*
X210566000Y-66167000D01*
D31*
X211000000Y-67744000D02*
X210439000Y-67183000D01*
X211650000Y-67228200D02*
X211695200Y-67183000D01*
X211650000Y-68523500D02*
X211650000Y-67228200D01*
X211000000Y-68523500D02*
X211000000Y-69776000D01*
X211000000Y-68523500D02*
X211000000Y-67744000D01*
D34*
X210566000Y-66167000D02*
X210439000Y-66294000D01*
D31*
X209050000Y-68523500D02*
X209050000Y-67191000D01*
X217424000Y-63738000D02*
X215900000Y-63738000D01*
X218186000Y-64500000D02*
X217424000Y-63738000D01*
X211516000Y-63925000D02*
X215713000Y-63925000D01*
X215713000Y-63925000D02*
X215900000Y-63738000D01*
X192688800Y-91537200D02*
X192688800Y-96430020D01*
X194300000Y-91186000D02*
X193040000Y-91186000D01*
X208559400Y-101981000D02*
X209361000Y-101179400D01*
X192688800Y-96430020D02*
X198239780Y-101981000D01*
X209361000Y-101179400D02*
X209361000Y-100478500D01*
X193040000Y-91186000D02*
X192688800Y-91537200D01*
X198239780Y-101981000D02*
X208559400Y-101981000D01*
X206578200Y-101473000D02*
X198306516Y-101473000D01*
X210335999Y-96668500D02*
X210640800Y-96973301D01*
X193294000Y-92456000D02*
X194300000Y-92456000D01*
X209361000Y-96668500D02*
X210335999Y-96668500D01*
X210640800Y-96973301D02*
X210640800Y-99551042D01*
X193095200Y-96261684D02*
X193095200Y-92654800D01*
X210640800Y-99551042D02*
X210369842Y-99822000D01*
X198306516Y-101473000D02*
X193095200Y-96261684D01*
X208229200Y-99822000D02*
X206578200Y-101473000D01*
X210369842Y-99822000D02*
X208229200Y-99822000D01*
X193095200Y-92654800D02*
X193294000Y-92456000D01*
X187849000Y-72263000D02*
X188865000Y-73279000D01*
X186399500Y-72263000D02*
X187849000Y-72263000D01*
X212300000Y-66515000D02*
X212775000Y-66040000D01*
X217108500Y-68523500D02*
X217170000Y-68585000D01*
X212300000Y-68523500D02*
X217108500Y-68523500D01*
X212300000Y-68523500D02*
X212300000Y-66515000D01*
X212300000Y-74248500D02*
X212300000Y-76775000D01*
X217170000Y-75184000D02*
X213235500Y-75184000D01*
X213235500Y-75184000D02*
X212300000Y-74248500D01*
X205130400Y-81026000D02*
X203900000Y-81026000D01*
D32*
X214311000Y-99208500D02*
X213508500Y-99208500D01*
X216775117Y-87192000D02*
X216789000Y-87192000D01*
X213508500Y-99208500D02*
X212358099Y-98058099D01*
X212358099Y-91609018D02*
X216775117Y-87192000D01*
X212358099Y-98058099D02*
X212358099Y-91609018D01*
X213336001Y-97938500D02*
X212942300Y-97544799D01*
X214311000Y-97938500D02*
X213336001Y-97938500D01*
X212942300Y-97544799D02*
X212942300Y-92288700D01*
X212942300Y-92288700D02*
X216789000Y-88442000D01*
D31*
X194945000Y-71698500D02*
X194458000Y-71698500D01*
X208693500Y-60727500D02*
X207772000Y-60727500D01*
X196661000Y-71698500D02*
X194945000Y-71698500D01*
X194458000Y-71698500D02*
X193548000Y-72608500D01*
X196661000Y-69158500D02*
X194945000Y-69158500D01*
X219567000Y-62500000D02*
X219583000Y-62484000D01*
X209616000Y-61650000D02*
X208693500Y-60727500D01*
D32*
X215265000Y-66040000D02*
X214775000Y-66040000D01*
D31*
X221742000Y-71374000D02*
X221742000Y-72644000D01*
X194148000Y-69158500D02*
X193548000Y-68558500D01*
D32*
X216014300Y-65290700D02*
X215265000Y-66040000D01*
D31*
X219456000Y-62500000D02*
X219567000Y-62500000D01*
X218186000Y-62500000D02*
X219456000Y-62500000D01*
X207772000Y-60727500D02*
X206451200Y-60727500D01*
X194945000Y-69158500D02*
X194148000Y-69158500D01*
X201611000Y-69158500D02*
X202692000Y-68077500D01*
X202692000Y-68077500D02*
X202692000Y-67331500D01*
X210350000Y-69260999D02*
X210350000Y-68523500D01*
X201611000Y-70428500D02*
X201611000Y-69158500D01*
X203966000Y-69158500D02*
X204216000Y-69408500D01*
X204216000Y-69408500D02*
X204530500Y-69723000D01*
X204530500Y-69723000D02*
X209887999Y-69723000D01*
X201611000Y-69158500D02*
X203966000Y-69158500D01*
X209887999Y-69723000D02*
X210350000Y-69260999D01*
X194300000Y-83566000D02*
X193995736Y-83566000D01*
X191642800Y-77551300D02*
X190799500Y-76708000D01*
X193995736Y-83566000D02*
X191642800Y-81213064D01*
X191642800Y-81213064D02*
X191642800Y-77551300D01*
X190738000Y-81010000D02*
X190738000Y-80010000D01*
X194300000Y-84836000D02*
X194022658Y-84836000D01*
X192913000Y-83726342D02*
X192913000Y-83185000D01*
X194022658Y-84836000D02*
X192913000Y-83726342D01*
X192913000Y-83185000D02*
X190738000Y-81010000D01*
X195300600Y-94996000D02*
X195732400Y-95427800D01*
X195961000Y-94996000D02*
X194300000Y-94996000D01*
X208400000Y-74248500D02*
X208400000Y-74911246D01*
X206740900Y-93106100D02*
X197850900Y-93106100D01*
X194300000Y-94996000D02*
X195300600Y-94996000D01*
X208915000Y-90932000D02*
X206740900Y-93106100D01*
X197850900Y-93106100D02*
X195961000Y-94996000D01*
X208915000Y-75426246D02*
X208915000Y-90932000D01*
X208400000Y-74911246D02*
X208915000Y-75426246D01*
X206233754Y-73152000D02*
X204455754Y-74930000D01*
X203073000Y-74930000D02*
X196977000Y-81026000D01*
X210350000Y-73511001D02*
X209990999Y-73152000D01*
X204455754Y-74930000D02*
X203073000Y-74930000D01*
X209990999Y-73152000D02*
X206233754Y-73152000D01*
X196977000Y-81026000D02*
X194300000Y-81026000D01*
X210350000Y-74248500D02*
X210350000Y-73511001D01*
X209677000Y-74271500D02*
X209700000Y-74248500D01*
X204546000Y-94996000D02*
X205308000Y-95758000D01*
X207391000Y-94996000D02*
X203900000Y-94996000D01*
X209700000Y-74248500D02*
X209700000Y-74986510D01*
X203900000Y-94996000D02*
X204546000Y-94996000D01*
X209700000Y-74986510D02*
X210439000Y-75725510D01*
X210439000Y-75725510D02*
X210439000Y-91948000D01*
X210439000Y-91948000D02*
X207391000Y-94996000D01*
X209677000Y-91440000D02*
X207391000Y-93726000D01*
X199930000Y-96869000D02*
X202565000Y-94234000D01*
X203073000Y-93726000D02*
X202565000Y-94234000D01*
X209050000Y-74248500D02*
X209050000Y-74911246D01*
X199930000Y-100076000D02*
X199930000Y-96869000D01*
X203900000Y-93726000D02*
X203073000Y-93726000D01*
X209677000Y-75538246D02*
X209677000Y-91440000D01*
X207391000Y-93726000D02*
X203900000Y-93726000D01*
X209050000Y-74911246D02*
X209677000Y-75538246D01*
X211000000Y-73078000D02*
X211000000Y-74248500D01*
X196596000Y-80200500D02*
X202374500Y-74422000D01*
X204089000Y-74422000D02*
X205765400Y-72745600D01*
X202374500Y-74422000D02*
X204089000Y-74422000D01*
X196596000Y-80360800D02*
X196596000Y-80200500D01*
X205765400Y-72745600D02*
X210667600Y-72745600D01*
X210667600Y-72745600D02*
X211000000Y-73078000D01*
D32*
X203900000Y-82296000D02*
X202412600Y-82296000D01*
D31*
X186690000Y-86106000D02*
X186668500Y-86084500D01*
D33*
X203900000Y-89916000D02*
X205026253Y-89916000D01*
D31*
X211650000Y-73084000D02*
X211836000Y-72898000D01*
D33*
X205026253Y-89916000D02*
X205292812Y-90182559D01*
X206502000Y-90318500D02*
X205428753Y-90318500D01*
D31*
X211650000Y-74248500D02*
X211650000Y-75116000D01*
X186668500Y-86084500D02*
X185420000Y-86084500D01*
X195580000Y-65887500D02*
X195580000Y-65387500D01*
X211650000Y-74248500D02*
X211650000Y-73084000D01*
X186690000Y-92456000D02*
X186606000Y-92372000D01*
X211650000Y-75116000D02*
X211074000Y-75692000D01*
X186606000Y-92372000D02*
X185420000Y-92372000D01*
D33*
X205428753Y-90318500D02*
X205292812Y-90182559D01*
D31*
X192422500Y-62230000D02*
X189738000Y-62230000D01*
X195580000Y-65387500D02*
X192422500Y-62230000D01*
G04 #@! TA.AperFunction,Conductor*
G36*
X190445539Y-54884185D02*
G01*
X190491294Y-54936989D01*
X190502500Y-54988500D01*
X190502500Y-59928483D01*
X190482815Y-59995522D01*
X190430011Y-60041277D01*
X190360853Y-60051221D01*
X190305615Y-60028801D01*
X190181182Y-59938395D01*
X190181179Y-59938393D01*
X190181178Y-59938393D01*
X190136085Y-59918316D01*
X190011904Y-59863026D01*
X190011896Y-59863024D01*
X189830649Y-59824500D01*
X189645351Y-59824500D01*
X189464103Y-59863024D01*
X189464095Y-59863026D01*
X189294822Y-59938392D01*
X189144909Y-60047311D01*
X189144906Y-60047313D01*
X189020922Y-60185014D01*
X188928274Y-60345485D01*
X188871014Y-60521711D01*
X188871013Y-60521713D01*
X188851644Y-60706000D01*
X188871013Y-60890286D01*
X188871014Y-60890288D01*
X188928274Y-61066514D01*
X188979587Y-61155390D01*
X189020923Y-61226987D01*
X189064112Y-61274954D01*
X189144906Y-61364686D01*
X189144909Y-61364688D01*
X189144912Y-61364691D01*
X189237693Y-61432100D01*
X189294822Y-61473607D01*
X189464095Y-61548973D01*
X189464098Y-61548973D01*
X189464101Y-61548975D01*
X189645351Y-61587500D01*
X189830649Y-61587500D01*
X190011899Y-61548975D01*
X190011902Y-61548973D01*
X190011904Y-61548973D01*
X190068922Y-61523586D01*
X190181178Y-61473607D01*
X190305616Y-61383197D01*
X190371420Y-61359718D01*
X190439474Y-61375543D01*
X190488169Y-61425649D01*
X190502500Y-61483516D01*
X190502500Y-61503900D01*
X190502501Y-61503909D01*
X190514052Y-61611350D01*
X190514054Y-61611362D01*
X190525260Y-61662872D01*
X190559383Y-61765397D01*
X190559386Y-61765403D01*
X190637171Y-61886437D01*
X190637179Y-61886448D01*
X190682923Y-61939240D01*
X190682926Y-61939243D01*
X190682930Y-61939247D01*
X190791664Y-62033467D01*
X190791667Y-62033468D01*
X190791668Y-62033469D01*
X190922542Y-62093239D01*
X190926685Y-62094784D01*
X190925969Y-62096703D01*
X190977702Y-62129940D01*
X191006735Y-62193492D01*
X191008000Y-62211156D01*
X191008000Y-62248304D01*
X190988315Y-62315343D01*
X190935511Y-62361098D01*
X190923159Y-62365958D01*
X190870502Y-62383483D01*
X190870496Y-62383486D01*
X190749462Y-62461271D01*
X190749451Y-62461279D01*
X190696659Y-62507023D01*
X190602433Y-62615764D01*
X190602430Y-62615768D01*
X190542664Y-62746634D01*
X190522976Y-62813682D01*
X190502500Y-62956101D01*
X190502500Y-63218339D01*
X190482815Y-63285378D01*
X190430011Y-63331133D01*
X190392385Y-63341559D01*
X190320748Y-63349631D01*
X190320745Y-63349631D01*
X190150476Y-63409211D01*
X189997737Y-63505184D01*
X189870184Y-63632737D01*
X189774211Y-63785476D01*
X189714631Y-63955745D01*
X189714630Y-63955750D01*
X189694435Y-64134996D01*
X189694435Y-64135003D01*
X189714630Y-64314249D01*
X189714632Y-64314257D01*
X189729448Y-64356598D01*
X189733009Y-64426376D01*
X189698280Y-64487004D01*
X189686718Y-64496818D01*
X189642452Y-64529955D01*
X189556206Y-64645164D01*
X189556202Y-64645171D01*
X189505908Y-64780017D01*
X189499501Y-64839616D01*
X189499500Y-64839635D01*
X189499500Y-66935370D01*
X189499501Y-66935376D01*
X189505908Y-66994983D01*
X189556202Y-67129828D01*
X189556206Y-67129835D01*
X189642452Y-67245044D01*
X189642455Y-67245047D01*
X189757664Y-67331293D01*
X189757671Y-67331297D01*
X189797658Y-67346211D01*
X189892517Y-67381591D01*
X189952127Y-67388000D01*
X190378500Y-67387999D01*
X190445539Y-67407683D01*
X190491294Y-67460487D01*
X190502500Y-67511999D01*
X190502500Y-71954500D01*
X190502582Y-71956042D01*
X190502500Y-71956388D01*
X190502500Y-71957821D01*
X190502161Y-71957821D01*
X190486506Y-72024037D01*
X190436221Y-72072547D01*
X190391362Y-72086022D01*
X190362202Y-72089001D01*
X190362200Y-72089001D01*
X190195668Y-72144185D01*
X190195663Y-72144187D01*
X190046342Y-72236289D01*
X189952681Y-72329951D01*
X189891358Y-72363436D01*
X189821666Y-72358452D01*
X189777319Y-72329951D01*
X189683657Y-72236289D01*
X189683656Y-72236288D01*
X189534334Y-72144186D01*
X189367797Y-72089001D01*
X189367795Y-72089000D01*
X189265016Y-72078500D01*
X189265009Y-72078500D01*
X188567360Y-72078500D01*
X188500321Y-72058815D01*
X188479679Y-72042181D01*
X188218701Y-71781202D01*
X188218693Y-71781196D01*
X188215654Y-71779441D01*
X188215654Y-71779442D01*
X188081402Y-71701933D01*
X188081403Y-71701933D01*
X188030357Y-71688255D01*
X187928268Y-71660900D01*
X187928266Y-71660900D01*
X187731926Y-71660900D01*
X187664887Y-71641215D01*
X187619132Y-71588411D01*
X187608568Y-71549503D01*
X187601999Y-71485204D01*
X187601999Y-71485203D01*
X187546814Y-71318666D01*
X187458121Y-71174874D01*
X187454713Y-71169348D01*
X187454710Y-71169344D01*
X187330655Y-71045289D01*
X187330651Y-71045286D01*
X187181337Y-70953187D01*
X187181335Y-70953186D01*
X187085078Y-70921290D01*
X187014797Y-70898001D01*
X187014795Y-70898000D01*
X186912015Y-70887500D01*
X186912008Y-70887500D01*
X185886992Y-70887500D01*
X185886984Y-70887500D01*
X185784204Y-70898000D01*
X185784203Y-70898001D01*
X185617664Y-70953186D01*
X185617662Y-70953187D01*
X185468348Y-71045286D01*
X185468344Y-71045289D01*
X185344289Y-71169344D01*
X185344286Y-71169348D01*
X185252187Y-71318662D01*
X185252186Y-71318664D01*
X185197001Y-71485203D01*
X185197000Y-71485204D01*
X185186500Y-71587984D01*
X185186500Y-72938015D01*
X185197000Y-73040795D01*
X185197001Y-73040797D01*
X185208206Y-73074610D01*
X185252186Y-73207335D01*
X185252187Y-73207337D01*
X185344286Y-73356651D01*
X185344289Y-73356655D01*
X185468344Y-73480710D01*
X185468348Y-73480713D01*
X185617662Y-73572812D01*
X185617664Y-73572813D01*
X185617666Y-73572814D01*
X185784203Y-73627999D01*
X185886992Y-73638500D01*
X185886997Y-73638500D01*
X186912003Y-73638500D01*
X186912008Y-73638500D01*
X187014797Y-73627999D01*
X187181334Y-73572814D01*
X187330655Y-73480711D01*
X187454711Y-73356655D01*
X187534963Y-73226547D01*
X187586909Y-73179824D01*
X187655872Y-73168603D01*
X187719954Y-73196446D01*
X187758810Y-73254515D01*
X187764500Y-73291646D01*
X187764500Y-73779001D01*
X187764501Y-73779019D01*
X187775000Y-73881796D01*
X187775001Y-73881799D01*
X187828517Y-74043298D01*
X187830186Y-74048334D01*
X187922288Y-74197656D01*
X188046344Y-74321712D01*
X188195666Y-74413814D01*
X188362203Y-74468999D01*
X188464991Y-74479500D01*
X189265008Y-74479499D01*
X189265016Y-74479498D01*
X189265019Y-74479498D01*
X189357547Y-74470046D01*
X189367797Y-74468999D01*
X189534334Y-74413814D01*
X189683656Y-74321712D01*
X189777319Y-74228049D01*
X189838642Y-74194564D01*
X189908334Y-74199548D01*
X189952681Y-74228049D01*
X190046344Y-74321712D01*
X190195666Y-74413814D01*
X190195670Y-74413815D01*
X190202209Y-74416864D01*
X190201461Y-74418466D01*
X190251340Y-74452990D01*
X190278170Y-74517503D01*
X190278900Y-74530935D01*
X190278900Y-75277234D01*
X190301950Y-75363255D01*
X190309326Y-75390783D01*
X190307663Y-75460633D01*
X190268501Y-75518496D01*
X190228555Y-75540583D01*
X190130168Y-75573185D01*
X190130163Y-75573187D01*
X189980842Y-75665289D01*
X189887181Y-75758951D01*
X189825858Y-75792436D01*
X189756166Y-75787452D01*
X189711819Y-75758951D01*
X189618157Y-75665289D01*
X189618156Y-75665288D01*
X189468834Y-75573186D01*
X189302297Y-75518001D01*
X189302295Y-75518000D01*
X189199510Y-75507500D01*
X188399498Y-75507500D01*
X188399480Y-75507501D01*
X188296703Y-75518000D01*
X188296700Y-75518001D01*
X188148326Y-75567168D01*
X188078498Y-75569570D01*
X188021641Y-75537143D01*
X187821697Y-75337199D01*
X187812431Y-75331850D01*
X187803166Y-75326500D01*
X187684408Y-75257936D01*
X187684403Y-75257933D01*
X187646669Y-75247822D01*
X187574443Y-75228469D01*
X187514785Y-75192104D01*
X187484256Y-75129257D01*
X187483181Y-75121297D01*
X187474999Y-75041205D01*
X187474999Y-75041204D01*
X187474999Y-75041203D01*
X187419814Y-74874666D01*
X187395024Y-74834476D01*
X187327713Y-74725348D01*
X187327710Y-74725344D01*
X187203655Y-74601289D01*
X187203651Y-74601286D01*
X187054337Y-74509187D01*
X187054335Y-74509186D01*
X186958908Y-74477565D01*
X186887797Y-74454001D01*
X186887795Y-74454000D01*
X186785015Y-74443500D01*
X186785008Y-74443500D01*
X185759992Y-74443500D01*
X185759984Y-74443500D01*
X185657204Y-74454000D01*
X185657203Y-74454001D01*
X185490664Y-74509186D01*
X185490662Y-74509187D01*
X185341348Y-74601286D01*
X185341344Y-74601289D01*
X185217289Y-74725344D01*
X185217286Y-74725348D01*
X185125187Y-74874662D01*
X185125186Y-74874664D01*
X185070001Y-75041203D01*
X185070000Y-75041204D01*
X185059500Y-75143984D01*
X185059500Y-76494015D01*
X185070000Y-76596795D01*
X185070001Y-76596796D01*
X185125186Y-76763335D01*
X185125187Y-76763337D01*
X185217286Y-76912651D01*
X185217289Y-76912655D01*
X185341344Y-77036710D01*
X185341348Y-77036713D01*
X185490662Y-77128812D01*
X185490664Y-77128813D01*
X185490666Y-77128814D01*
X185657203Y-77183999D01*
X185759992Y-77194500D01*
X185759997Y-77194500D01*
X186785003Y-77194500D01*
X186785008Y-77194500D01*
X186887797Y-77183999D01*
X187054334Y-77128814D01*
X187203655Y-77036711D01*
X187327711Y-76912655D01*
X187385182Y-76819479D01*
X187437128Y-76772758D01*
X187506091Y-76761535D01*
X187570173Y-76789379D01*
X187578400Y-76796898D01*
X187662681Y-76881179D01*
X187696166Y-76942502D01*
X187699000Y-76968859D01*
X187699000Y-77208000D01*
X187699001Y-77208019D01*
X187709500Y-77310796D01*
X187709501Y-77310799D01*
X187764685Y-77477331D01*
X187764686Y-77477334D01*
X187856788Y-77626656D01*
X187980844Y-77750712D01*
X188130166Y-77842814D01*
X188296703Y-77897999D01*
X188399491Y-77908500D01*
X189199508Y-77908499D01*
X189199516Y-77908498D01*
X189199519Y-77908498D01*
X189275797Y-77900706D01*
X189302297Y-77897999D01*
X189468834Y-77842814D01*
X189618156Y-77750712D01*
X189711819Y-77657049D01*
X189773142Y-77623564D01*
X189842834Y-77628548D01*
X189887181Y-77657049D01*
X189980844Y-77750712D01*
X190130166Y-77842814D01*
X190296703Y-77897999D01*
X190399491Y-77908500D01*
X190916700Y-77908499D01*
X190983739Y-77928183D01*
X191029494Y-77980987D01*
X191040700Y-78032499D01*
X191040700Y-78685500D01*
X191021015Y-78752539D01*
X190968211Y-78798294D01*
X190916700Y-78809500D01*
X190337998Y-78809500D01*
X190337980Y-78809501D01*
X190235203Y-78820000D01*
X190235200Y-78820001D01*
X190068668Y-78875185D01*
X190068663Y-78875187D01*
X189919342Y-78967289D01*
X189825681Y-79060951D01*
X189764358Y-79094436D01*
X189694666Y-79089452D01*
X189650319Y-79060951D01*
X189556657Y-78967289D01*
X189556656Y-78967288D01*
X189407334Y-78875186D01*
X189240797Y-78820001D01*
X189240795Y-78820000D01*
X189138010Y-78809500D01*
X188337998Y-78809500D01*
X188337980Y-78809501D01*
X188235203Y-78820000D01*
X188235200Y-78820001D01*
X188068668Y-78875185D01*
X188068663Y-78875187D01*
X187919342Y-78967289D01*
X187896051Y-78990581D01*
X187834728Y-79024066D01*
X187808370Y-79026900D01*
X187604926Y-79026900D01*
X187537887Y-79007215D01*
X187492132Y-78954411D01*
X187481568Y-78915503D01*
X187474999Y-78851204D01*
X187474999Y-78851203D01*
X187419814Y-78684666D01*
X187407840Y-78665254D01*
X187327713Y-78535348D01*
X187327710Y-78535344D01*
X187203655Y-78411289D01*
X187203651Y-78411286D01*
X187054337Y-78319187D01*
X187054335Y-78319186D01*
X186906845Y-78270313D01*
X186887797Y-78264001D01*
X186887795Y-78264000D01*
X186785015Y-78253500D01*
X186785008Y-78253500D01*
X185759992Y-78253500D01*
X185759984Y-78253500D01*
X185657204Y-78264000D01*
X185657203Y-78264001D01*
X185490664Y-78319186D01*
X185490662Y-78319187D01*
X185341348Y-78411286D01*
X185341344Y-78411289D01*
X185217289Y-78535344D01*
X185217286Y-78535348D01*
X185125187Y-78684662D01*
X185125186Y-78684664D01*
X185070001Y-78851203D01*
X185070000Y-78851204D01*
X185059500Y-78953984D01*
X185059500Y-80304015D01*
X185070000Y-80406795D01*
X185070001Y-80406797D01*
X185092315Y-80474135D01*
X185125186Y-80573335D01*
X185125187Y-80573337D01*
X185217286Y-80722651D01*
X185217289Y-80722655D01*
X185341344Y-80846710D01*
X185341348Y-80846713D01*
X185490662Y-80938812D01*
X185490664Y-80938813D01*
X185490666Y-80938814D01*
X185657203Y-80993999D01*
X185759992Y-81004500D01*
X185759997Y-81004500D01*
X186785003Y-81004500D01*
X186785008Y-81004500D01*
X186887797Y-80993999D01*
X187054334Y-80938814D01*
X187203655Y-80846711D01*
X187327711Y-80722655D01*
X187419814Y-80573334D01*
X187419815Y-80573330D01*
X187420798Y-80571737D01*
X187472746Y-80525012D01*
X187541709Y-80513791D01*
X187605791Y-80541634D01*
X187644647Y-80599703D01*
X187647590Y-80610880D01*
X187647999Y-80612793D01*
X187703185Y-80779331D01*
X187703187Y-80779336D01*
X187737999Y-80835776D01*
X187795288Y-80928656D01*
X187919344Y-81052712D01*
X188068666Y-81144814D01*
X188235203Y-81199999D01*
X188337991Y-81210500D01*
X189138008Y-81210499D01*
X189138016Y-81210498D01*
X189138019Y-81210498D01*
X189194302Y-81204748D01*
X189240797Y-81199999D01*
X189407334Y-81144814D01*
X189556656Y-81052712D01*
X189650319Y-80959049D01*
X189711642Y-80925564D01*
X189781334Y-80930548D01*
X189825681Y-80959049D01*
X189919344Y-81052712D01*
X190068666Y-81144814D01*
X190068669Y-81144815D01*
X190068671Y-81144816D01*
X190095317Y-81153646D01*
X190152763Y-81193417D01*
X190176087Y-81239249D01*
X190176930Y-81242396D01*
X190176933Y-81242403D01*
X190182945Y-81252816D01*
X190186170Y-81258401D01*
X190225637Y-81326760D01*
X190256199Y-81379697D01*
X191468821Y-82592319D01*
X191502306Y-82653642D01*
X191497322Y-82723334D01*
X191455450Y-82779267D01*
X191389986Y-82803684D01*
X191381140Y-82804000D01*
X183896000Y-82804000D01*
X183896000Y-96012000D01*
X191962700Y-96012000D01*
X192029739Y-96031685D01*
X192075494Y-96084489D01*
X192086700Y-96136000D01*
X192086700Y-96509288D01*
X192127733Y-96662422D01*
X192173041Y-96740899D01*
X192207000Y-96799718D01*
X197757980Y-102350698D01*
X197870082Y-102462800D01*
X198007378Y-102542067D01*
X198160512Y-102583100D01*
X198160514Y-102583100D01*
X208638666Y-102583100D01*
X208638668Y-102583100D01*
X208791802Y-102542067D01*
X208929098Y-102462800D01*
X209041200Y-102350698D01*
X209199285Y-102192613D01*
X211010300Y-102192613D01*
X211010300Y-102467600D01*
X211847800Y-102467600D01*
X211847800Y-101492600D01*
X211710327Y-101492600D01*
X211710312Y-101492601D01*
X211607602Y-101503094D01*
X211441180Y-101558241D01*
X211441175Y-101558243D01*
X211291954Y-101650284D01*
X211167984Y-101774254D01*
X211075943Y-101923475D01*
X211075941Y-101923480D01*
X211020794Y-102089902D01*
X211020793Y-102089909D01*
X211010300Y-102192613D01*
X209199285Y-102192613D01*
X209842800Y-101549098D01*
X209922068Y-101411801D01*
X209933025Y-101370905D01*
X209969390Y-101311246D01*
X210032237Y-101280717D01*
X210052800Y-101279000D01*
X210251686Y-101279000D01*
X210251694Y-101279000D01*
X210288569Y-101276098D01*
X210288571Y-101276097D01*
X210288573Y-101276097D01*
X210335036Y-101262598D01*
X210446398Y-101230244D01*
X210587865Y-101146581D01*
X210704081Y-101030365D01*
X210787744Y-100888898D01*
X210833598Y-100731069D01*
X210836500Y-100694194D01*
X210836500Y-100262806D01*
X210836500Y-100260371D01*
X210837213Y-100260371D01*
X210853552Y-100195389D01*
X210872733Y-100170606D01*
X211122600Y-99920740D01*
X211201867Y-99783444D01*
X211242900Y-99630310D01*
X211242900Y-99471774D01*
X211242900Y-96894033D01*
X211231977Y-96853268D01*
X211201868Y-96740900D01*
X211122600Y-96603603D01*
X210812590Y-96293593D01*
X210792656Y-96264260D01*
X210791715Y-96264817D01*
X210773114Y-96233365D01*
X210704081Y-96116635D01*
X210704079Y-96116633D01*
X210704076Y-96116629D01*
X210587870Y-96000423D01*
X210587862Y-96000417D01*
X210452729Y-95920500D01*
X210446398Y-95916756D01*
X210446397Y-95916755D01*
X210446396Y-95916755D01*
X210446393Y-95916754D01*
X210288573Y-95870902D01*
X210288567Y-95870901D01*
X210251701Y-95868000D01*
X210251694Y-95868000D01*
X208470306Y-95868000D01*
X208470298Y-95868000D01*
X208433432Y-95870901D01*
X208433426Y-95870902D01*
X208275606Y-95916754D01*
X208275603Y-95916755D01*
X208134137Y-96000417D01*
X208134129Y-96000423D01*
X208017923Y-96116629D01*
X208017917Y-96116637D01*
X207934255Y-96258103D01*
X207934254Y-96258106D01*
X207888402Y-96415926D01*
X207888401Y-96415932D01*
X207885500Y-96452798D01*
X207885500Y-96884201D01*
X207888401Y-96921067D01*
X207888402Y-96921073D01*
X207934254Y-97078893D01*
X207934255Y-97078896D01*
X207934256Y-97078898D01*
X207950144Y-97105763D01*
X208017917Y-97220362D01*
X208022702Y-97226531D01*
X208020369Y-97228340D01*
X208047210Y-97277495D01*
X208042226Y-97347187D01*
X208021470Y-97379521D01*
X208023097Y-97380783D01*
X208018313Y-97386949D01*
X207934717Y-97528303D01*
X207934716Y-97528306D01*
X207888900Y-97686004D01*
X207888899Y-97686010D01*
X207886000Y-97722850D01*
X207886000Y-97776538D01*
X207866315Y-97843577D01*
X207813511Y-97889332D01*
X207744353Y-97899276D01*
X207680797Y-97870251D01*
X207676339Y-97866100D01*
X206575200Y-97866100D01*
X206508161Y-97846415D01*
X206462406Y-97793611D01*
X206451200Y-97742100D01*
X206451200Y-97616100D01*
X206325200Y-97616100D01*
X206258161Y-97596415D01*
X206212406Y-97543611D01*
X206201200Y-97492100D01*
X206201200Y-97366100D01*
X206701200Y-97366100D01*
X207676199Y-97366100D01*
X207676199Y-97228628D01*
X207676198Y-97228613D01*
X207665705Y-97125902D01*
X207610558Y-96959480D01*
X207610556Y-96959475D01*
X207518515Y-96810254D01*
X207394545Y-96686284D01*
X207245324Y-96594243D01*
X207245319Y-96594241D01*
X207078897Y-96539094D01*
X207078890Y-96539093D01*
X206976186Y-96528600D01*
X206701200Y-96528600D01*
X206701200Y-97366100D01*
X206201200Y-97366100D01*
X206201200Y-96528600D01*
X205968839Y-96528600D01*
X205901800Y-96508915D01*
X205856045Y-96456111D01*
X205846101Y-96386953D01*
X205875126Y-96323397D01*
X205881131Y-96316946D01*
X205937816Y-96260262D01*
X206033789Y-96107522D01*
X206093368Y-95937255D01*
X206094179Y-95930062D01*
X206107009Y-95816185D01*
X206113565Y-95758000D01*
X206111084Y-95735981D01*
X206123140Y-95667160D01*
X206170490Y-95615781D01*
X206234305Y-95598100D01*
X207470266Y-95598100D01*
X207470268Y-95598100D01*
X207623402Y-95557067D01*
X207760698Y-95477800D01*
X207872800Y-95365698D01*
X210920800Y-92317698D01*
X210946856Y-92272567D01*
X211000067Y-92180402D01*
X211041100Y-92027268D01*
X211041100Y-78023444D01*
X211060785Y-77956405D01*
X211113589Y-77910650D01*
X211182747Y-77900706D01*
X211246303Y-77929731D01*
X211282806Y-77984440D01*
X211325186Y-78112334D01*
X211417288Y-78261656D01*
X211541344Y-78385712D01*
X211690666Y-78477814D01*
X211857203Y-78532999D01*
X211959991Y-78543500D01*
X212760008Y-78543499D01*
X212760016Y-78543498D01*
X212760019Y-78543498D01*
X212816302Y-78537748D01*
X212862797Y-78532999D01*
X213029334Y-78477814D01*
X213178656Y-78385712D01*
X213272319Y-78292049D01*
X213333642Y-78258564D01*
X213403334Y-78263548D01*
X213447681Y-78292049D01*
X213541344Y-78385712D01*
X213690666Y-78477814D01*
X213857203Y-78532999D01*
X213959991Y-78543500D01*
X214760008Y-78543499D01*
X214760016Y-78543498D01*
X214760019Y-78543498D01*
X214816302Y-78537748D01*
X214862797Y-78532999D01*
X215029334Y-78477814D01*
X215178656Y-78385712D01*
X215302712Y-78261656D01*
X215394814Y-78112334D01*
X215449999Y-77945797D01*
X215460500Y-77843009D01*
X215460499Y-76842992D01*
X215459223Y-76830505D01*
X215449999Y-76740203D01*
X215449998Y-76740200D01*
X215445283Y-76725971D01*
X215394814Y-76573666D01*
X215302712Y-76424344D01*
X215302709Y-76424341D01*
X215299943Y-76419856D01*
X215281503Y-76352463D01*
X215302426Y-76285800D01*
X215356068Y-76241030D01*
X215366465Y-76237058D01*
X215474334Y-76201314D01*
X215623656Y-76109212D01*
X215747712Y-75985156D01*
X215817921Y-75871328D01*
X215869865Y-75824606D01*
X215938827Y-75813383D01*
X216002910Y-75841226D01*
X216028995Y-75871329D01*
X216102288Y-75990156D01*
X216226344Y-76114212D01*
X216375666Y-76206314D01*
X216542203Y-76261499D01*
X216644991Y-76272000D01*
X217695008Y-76271999D01*
X217695016Y-76271998D01*
X217695019Y-76271998D01*
X217751302Y-76266248D01*
X217797797Y-76261499D01*
X217964334Y-76206314D01*
X218113656Y-76114212D01*
X218237712Y-75990156D01*
X218329814Y-75840834D01*
X218384999Y-75674297D01*
X218395500Y-75571509D01*
X218395499Y-74796492D01*
X218384999Y-74693703D01*
X218329814Y-74527166D01*
X218237712Y-74377844D01*
X218113656Y-74253788D01*
X218110342Y-74251743D01*
X218108546Y-74249748D01*
X218107989Y-74249307D01*
X218108064Y-74249211D01*
X218063618Y-74199797D01*
X218052397Y-74130834D01*
X218080240Y-74066752D01*
X218110348Y-74040665D01*
X218113342Y-74038818D01*
X218237315Y-73914845D01*
X218329356Y-73765624D01*
X218329358Y-73765619D01*
X218384505Y-73599197D01*
X218384506Y-73599190D01*
X218394999Y-73496486D01*
X218395000Y-73496473D01*
X218395000Y-73359000D01*
X215871362Y-73359000D01*
X215854334Y-73354000D01*
X213455001Y-73354000D01*
X213455001Y-73491486D01*
X213465494Y-73594197D01*
X213520641Y-73760619D01*
X213520643Y-73760624D01*
X213612684Y-73909845D01*
X213736655Y-74033816D01*
X213736659Y-74033819D01*
X213739656Y-74035668D01*
X213741279Y-74037472D01*
X213742323Y-74038298D01*
X213742181Y-74038476D01*
X213786381Y-74087616D01*
X213797602Y-74156579D01*
X213769759Y-74220661D01*
X213739661Y-74246741D01*
X213736349Y-74248783D01*
X213736343Y-74248788D01*
X213612289Y-74372842D01*
X213612288Y-74372844D01*
X213568708Y-74443500D01*
X213566264Y-74447462D01*
X213514316Y-74494186D01*
X213445354Y-74505409D01*
X213381271Y-74477565D01*
X213373044Y-74470046D01*
X213036818Y-74133820D01*
X213003333Y-74072497D01*
X213000499Y-74046139D01*
X213000499Y-73571636D01*
X212985046Y-73454246D01*
X212985044Y-73454241D01*
X212985044Y-73454238D01*
X212924536Y-73308159D01*
X212828282Y-73182718D01*
X212702841Y-73086464D01*
X212592586Y-73040795D01*
X212556762Y-73025956D01*
X212556760Y-73025955D01*
X212439361Y-73010500D01*
X212160636Y-73010500D01*
X212043241Y-73025954D01*
X212043239Y-73025955D01*
X212021796Y-73034837D01*
X211952327Y-73042304D01*
X211926895Y-73034837D01*
X211906631Y-73026444D01*
X211849999Y-73018987D01*
X211838474Y-73029095D01*
X211830315Y-73056883D01*
X211777511Y-73102638D01*
X211708353Y-73112582D01*
X211644797Y-73083557D01*
X211607023Y-73024779D01*
X211603061Y-73006032D01*
X211602100Y-72998738D01*
X211602100Y-72998732D01*
X211589452Y-72951530D01*
X211561068Y-72845599D01*
X211550617Y-72827498D01*
X211534147Y-72759598D01*
X211557000Y-72693572D01*
X211611921Y-72650382D01*
X211658006Y-72641500D01*
X213331000Y-72641500D01*
X213398039Y-72661185D01*
X213443794Y-72713989D01*
X213455000Y-72765500D01*
X213455000Y-72854000D01*
X215978638Y-72854000D01*
X215995666Y-72859000D01*
X218394999Y-72859000D01*
X218394999Y-72740534D01*
X218414684Y-72673495D01*
X218467488Y-72627740D01*
X218536646Y-72617796D01*
X218548999Y-72620484D01*
X218549013Y-72620414D01*
X218549630Y-72620535D01*
X218549662Y-72620410D01*
X218552111Y-72621021D01*
X218552117Y-72621023D01*
X218552121Y-72621024D01*
X218694537Y-72641500D01*
X218694540Y-72641500D01*
X218934892Y-72641500D01*
X218934893Y-72641500D01*
X218934894Y-72641499D01*
X218934910Y-72641499D01*
X218965690Y-72638902D01*
X219019561Y-72634359D01*
X219060516Y-72627401D01*
X219123178Y-72611235D01*
X219140248Y-72608089D01*
X219188117Y-72602695D01*
X219215871Y-72602695D01*
X219263765Y-72608091D01*
X219280820Y-72611236D01*
X219343484Y-72627401D01*
X219343498Y-72627403D01*
X219343501Y-72627404D01*
X219345479Y-72627740D01*
X219384439Y-72634359D01*
X219432323Y-72638397D01*
X219469089Y-72641499D01*
X219469105Y-72641499D01*
X219469107Y-72641500D01*
X219469108Y-72641500D01*
X220621500Y-72641500D01*
X220688539Y-72661185D01*
X220734294Y-72713989D01*
X220745500Y-72765500D01*
X220745500Y-73441870D01*
X220745501Y-73441876D01*
X220751908Y-73501483D01*
X220802202Y-73636328D01*
X220802206Y-73636335D01*
X220888452Y-73751544D01*
X220888455Y-73751547D01*
X220972861Y-73814734D01*
X221014732Y-73870668D01*
X221019716Y-73940359D01*
X220986230Y-74001682D01*
X220972861Y-74013266D01*
X220888455Y-74076452D01*
X220888452Y-74076455D01*
X220802206Y-74191664D01*
X220802203Y-74191669D01*
X220761675Y-74300331D01*
X220719803Y-74356264D01*
X220659377Y-74380217D01*
X220495949Y-74398630D01*
X220495945Y-74398631D01*
X220325676Y-74458211D01*
X220172937Y-74554184D01*
X220045384Y-74681737D01*
X219949411Y-74834476D01*
X219889831Y-75004745D01*
X219889830Y-75004750D01*
X219869635Y-75183996D01*
X219869635Y-75184003D01*
X219889830Y-75363249D01*
X219889831Y-75363254D01*
X219949411Y-75533523D01*
X220020238Y-75646242D01*
X220045384Y-75686262D01*
X220172938Y-75813816D01*
X220215932Y-75840831D01*
X220264472Y-75871331D01*
X220325678Y-75909789D01*
X220482948Y-75964820D01*
X220495945Y-75969368D01*
X220495950Y-75969369D01*
X220634075Y-75984931D01*
X220659376Y-75987782D01*
X220723790Y-76014848D01*
X220761675Y-76067669D01*
X220802202Y-76176328D01*
X220802206Y-76176335D01*
X220888452Y-76291544D01*
X220888455Y-76291547D01*
X220972861Y-76354734D01*
X221014732Y-76410668D01*
X221019716Y-76480359D01*
X220986230Y-76541682D01*
X220972861Y-76553266D01*
X220888455Y-76616452D01*
X220888452Y-76616455D01*
X220802206Y-76731664D01*
X220802202Y-76731671D01*
X220751908Y-76866517D01*
X220745501Y-76926116D01*
X220745500Y-76926135D01*
X220745500Y-78521870D01*
X220745501Y-78521876D01*
X220751908Y-78581483D01*
X220802202Y-78716328D01*
X220802206Y-78716335D01*
X220888452Y-78831544D01*
X220888455Y-78831547D01*
X221003664Y-78917793D01*
X221003671Y-78917797D01*
X221138517Y-78968091D01*
X221138516Y-78968091D01*
X221145444Y-78968835D01*
X221198127Y-78974500D01*
X222793872Y-78974499D01*
X222853483Y-78968091D01*
X222988331Y-78917796D01*
X222988336Y-78917791D01*
X222996003Y-78913606D01*
X223064275Y-78898750D01*
X223129741Y-78923164D01*
X223171615Y-78979095D01*
X223179436Y-79022435D01*
X223179436Y-98851206D01*
X223159751Y-98918245D01*
X223106947Y-98964000D01*
X223037789Y-98973944D01*
X222974233Y-98944919D01*
X222945881Y-98909289D01*
X222795781Y-98626172D01*
X222594966Y-98329992D01*
X222467557Y-98179995D01*
X222467556Y-98179994D01*
X221258250Y-99389299D01*
X221184412Y-99287670D01*
X221006330Y-99109588D01*
X220904697Y-99035747D01*
X222116743Y-97823703D01*
X222116742Y-97823702D01*
X222103514Y-97811171D01*
X222103513Y-97811170D01*
X221818632Y-97594611D01*
X221818629Y-97594609D01*
X221512009Y-97410123D01*
X221187260Y-97259877D01*
X221187255Y-97259876D01*
X220848144Y-97145616D01*
X220498660Y-97068688D01*
X220142924Y-97030000D01*
X219785075Y-97030000D01*
X219429339Y-97068688D01*
X219079855Y-97145616D01*
X218740744Y-97259876D01*
X218740739Y-97259877D01*
X218415990Y-97410123D01*
X218109370Y-97594609D01*
X218109367Y-97594611D01*
X217824491Y-97811166D01*
X217811256Y-97823703D01*
X217811255Y-97823703D01*
X219023301Y-99035748D01*
X218921670Y-99109588D01*
X218743588Y-99287670D01*
X218669748Y-99389301D01*
X217460442Y-98179994D01*
X217460441Y-98179995D01*
X217333040Y-98329983D01*
X217333033Y-98329993D01*
X217132218Y-98626172D01*
X216964606Y-98942322D01*
X216964597Y-98942340D01*
X216832149Y-99274760D01*
X216832147Y-99274767D01*
X216736421Y-99619542D01*
X216736415Y-99619568D01*
X216678527Y-99972668D01*
X216678526Y-99972685D01*
X216659153Y-100329997D01*
X216659153Y-100330002D01*
X216678526Y-100687314D01*
X216678527Y-100687331D01*
X216736415Y-101040431D01*
X216736421Y-101040457D01*
X216832147Y-101385232D01*
X216832149Y-101385239D01*
X216964597Y-101717659D01*
X216964606Y-101717677D01*
X217132218Y-102033827D01*
X217333033Y-102330007D01*
X217460441Y-102480003D01*
X217460442Y-102480004D01*
X218669748Y-101270698D01*
X218743588Y-101372330D01*
X218921670Y-101550412D01*
X219023300Y-101624251D01*
X217811255Y-102836295D01*
X217811256Y-102836296D01*
X217824485Y-102848828D01*
X217824486Y-102848829D01*
X218109367Y-103065388D01*
X218109370Y-103065390D01*
X218415990Y-103249876D01*
X218740739Y-103400122D01*
X218740744Y-103400123D01*
X219079855Y-103514383D01*
X219429339Y-103591311D01*
X219785075Y-103629999D01*
X219785085Y-103630000D01*
X220142915Y-103630000D01*
X220142924Y-103629999D01*
X220498660Y-103591311D01*
X220848144Y-103514383D01*
X221187255Y-103400123D01*
X221187260Y-103400122D01*
X221512009Y-103249876D01*
X221818629Y-103065390D01*
X221818632Y-103065388D01*
X222103504Y-102848836D01*
X222116742Y-102836294D01*
X220904698Y-101624251D01*
X221006330Y-101550412D01*
X221184412Y-101372330D01*
X221258251Y-101270698D01*
X222467556Y-102480003D01*
X222515729Y-102478045D01*
X222583512Y-102494991D01*
X222631374Y-102545893D01*
X222644118Y-102614591D01*
X222621895Y-102673698D01*
X222546302Y-102780238D01*
X222537634Y-102791107D01*
X222497252Y-102836296D01*
X222328682Y-103024927D01*
X222318850Y-103034759D01*
X222172379Y-103165655D01*
X222085030Y-103243715D01*
X222074163Y-103252382D01*
X221818414Y-103433848D01*
X221806640Y-103441246D01*
X221532193Y-103592930D01*
X221519665Y-103598964D01*
X221229943Y-103718974D01*
X221216818Y-103723566D01*
X220915504Y-103810376D01*
X220901947Y-103813471D01*
X220592791Y-103866002D01*
X220578973Y-103867559D01*
X220263046Y-103885305D01*
X220256092Y-103885500D01*
X215178130Y-103885500D01*
X215111091Y-103865815D01*
X215065336Y-103813011D01*
X215055392Y-103743853D01*
X215084417Y-103680297D01*
X215090449Y-103673819D01*
X215103012Y-103661256D01*
X215195114Y-103511934D01*
X215250299Y-103345397D01*
X215260800Y-103242609D01*
X215260799Y-102239105D01*
X215280483Y-102172067D01*
X215333287Y-102126312D01*
X215343844Y-102122064D01*
X215344710Y-102121761D01*
X215487522Y-102071789D01*
X215640262Y-101975816D01*
X215767816Y-101848262D01*
X215863789Y-101695522D01*
X215923368Y-101525255D01*
X215925865Y-101503093D01*
X215943565Y-101346003D01*
X215943565Y-101345996D01*
X215923369Y-101166750D01*
X215923368Y-101166745D01*
X215875648Y-101030370D01*
X215863789Y-100996478D01*
X215785832Y-100872411D01*
X215766833Y-100805176D01*
X215771750Y-100771847D01*
X215783598Y-100731069D01*
X215786500Y-100694194D01*
X215786500Y-100262806D01*
X215783598Y-100225931D01*
X215779953Y-100213386D01*
X215749836Y-100109724D01*
X215737744Y-100068102D01*
X215654081Y-99926635D01*
X215654078Y-99926632D01*
X215649298Y-99920469D01*
X215651750Y-99918566D01*
X215625155Y-99869921D01*
X215630104Y-99800226D01*
X215650940Y-99767804D01*
X215649298Y-99766531D01*
X215654075Y-99760370D01*
X215654081Y-99760365D01*
X215737744Y-99618898D01*
X215774781Y-99491417D01*
X215783597Y-99461073D01*
X215783598Y-99461067D01*
X215786499Y-99424201D01*
X215786500Y-99424194D01*
X215786500Y-98992806D01*
X215783598Y-98955931D01*
X215779649Y-98942340D01*
X215737745Y-98798106D01*
X215737744Y-98798103D01*
X215737744Y-98798102D01*
X215654081Y-98656635D01*
X215654078Y-98656632D01*
X215649298Y-98650469D01*
X215651750Y-98648566D01*
X215625155Y-98599921D01*
X215630104Y-98530226D01*
X215650940Y-98497804D01*
X215649298Y-98496531D01*
X215654075Y-98490370D01*
X215654081Y-98490365D01*
X215737744Y-98348898D01*
X215783598Y-98191069D01*
X215786500Y-98154194D01*
X215786500Y-97722806D01*
X215783598Y-97685931D01*
X215737744Y-97528102D01*
X215654081Y-97386635D01*
X215654078Y-97386632D01*
X215649298Y-97380469D01*
X215651635Y-97378655D01*
X215624798Y-97329550D01*
X215629756Y-97259856D01*
X215650554Y-97227498D01*
X215648903Y-97226217D01*
X215653686Y-97220050D01*
X215737281Y-97078698D01*
X215783100Y-96920986D01*
X215783295Y-96918501D01*
X215783295Y-96918500D01*
X214435000Y-96918500D01*
X214367961Y-96898815D01*
X214322206Y-96846011D01*
X214311000Y-96794500D01*
X214311000Y-96668500D01*
X214185000Y-96668500D01*
X214117961Y-96648815D01*
X214072206Y-96596011D01*
X214061000Y-96544500D01*
X214061000Y-96418500D01*
X214561000Y-96418500D01*
X215783295Y-96418500D01*
X215783295Y-96418498D01*
X215783100Y-96416013D01*
X215737281Y-96258301D01*
X215653685Y-96116947D01*
X215653678Y-96116938D01*
X215537561Y-96000821D01*
X215537552Y-96000814D01*
X215396196Y-95917217D01*
X215396193Y-95917216D01*
X215238495Y-95871400D01*
X215238489Y-95871399D01*
X215201649Y-95868500D01*
X214561000Y-95868500D01*
X214561000Y-96418500D01*
X214061000Y-96418500D01*
X214061000Y-95868500D01*
X213757300Y-95868500D01*
X213690261Y-95848815D01*
X213644506Y-95796011D01*
X213633300Y-95744500D01*
X213633300Y-92626283D01*
X213652985Y-92559244D01*
X213669615Y-92538606D01*
X214186460Y-92021760D01*
X214247781Y-91988277D01*
X214317472Y-91993261D01*
X214373406Y-92035132D01*
X214397823Y-92100597D01*
X214397894Y-92117228D01*
X214383754Y-92341993D01*
X214383754Y-92342005D01*
X214402718Y-92643446D01*
X214402719Y-92643453D01*
X214459320Y-92940164D01*
X214552659Y-93227431D01*
X214552661Y-93227436D01*
X214681265Y-93500732D01*
X214681268Y-93500738D01*
X214843111Y-93755763D01*
X214843114Y-93755767D01*
X214843115Y-93755768D01*
X215027430Y-93978567D01*
X215035652Y-93988505D01*
X215255836Y-94195272D01*
X215255846Y-94195280D01*
X215500193Y-94372808D01*
X215500198Y-94372810D01*
X215500205Y-94372816D01*
X215764896Y-94518332D01*
X215764901Y-94518334D01*
X215764903Y-94518335D01*
X215764904Y-94518336D01*
X216045734Y-94629524D01*
X216045737Y-94629525D01*
X216143259Y-94654564D01*
X216338302Y-94704642D01*
X216485039Y-94723179D01*
X216637963Y-94742499D01*
X216637969Y-94742499D01*
X216637973Y-94742500D01*
X216637975Y-94742500D01*
X216940025Y-94742500D01*
X216940027Y-94742500D01*
X216940032Y-94742499D01*
X216940036Y-94742499D01*
X217019591Y-94732448D01*
X217239698Y-94704642D01*
X217532262Y-94629525D01*
X217532265Y-94629524D01*
X217813095Y-94518336D01*
X217813096Y-94518335D01*
X217813094Y-94518335D01*
X217813104Y-94518332D01*
X218077795Y-94372816D01*
X218322162Y-94195274D01*
X218542349Y-93988504D01*
X218734885Y-93755768D01*
X218896733Y-93500736D01*
X219025341Y-93227430D01*
X219118681Y-92940160D01*
X219175280Y-92643457D01*
X219175281Y-92643446D01*
X219194246Y-92342005D01*
X219194246Y-92341994D01*
X219175281Y-92040553D01*
X219175280Y-92040546D01*
X219175280Y-92040543D01*
X219118681Y-91743840D01*
X219025341Y-91456570D01*
X219016872Y-91438573D01*
X218943057Y-91281707D01*
X218896733Y-91183264D01*
X218764642Y-90975121D01*
X218734888Y-90928236D01*
X218635991Y-90808690D01*
X218542349Y-90695496D01*
X218322162Y-90488726D01*
X218322159Y-90488724D01*
X218322153Y-90488719D01*
X218077806Y-90311191D01*
X218077799Y-90311186D01*
X218077795Y-90311184D01*
X217813104Y-90165668D01*
X217813101Y-90165666D01*
X217813096Y-90165664D01*
X217813095Y-90165663D01*
X217532265Y-90054475D01*
X217532262Y-90054474D01*
X217239695Y-89979357D01*
X216940036Y-89941500D01*
X216940027Y-89941500D01*
X216637973Y-89941500D01*
X216637971Y-89941500D01*
X216637958Y-89941501D01*
X216572356Y-89949788D01*
X216503378Y-89938661D01*
X216451367Y-89892007D01*
X216432834Y-89824640D01*
X216453665Y-89757948D01*
X216469130Y-89739090D01*
X216726436Y-89481784D01*
X216787757Y-89448301D01*
X216801952Y-89446065D01*
X216985132Y-89428024D01*
X217173727Y-89370814D01*
X217347538Y-89277910D01*
X217347540Y-89277908D01*
X217352910Y-89275038D01*
X217353851Y-89276799D01*
X217411765Y-89258654D01*
X217474634Y-89275889D01*
X217475090Y-89275038D01*
X217478840Y-89277042D01*
X217479148Y-89277127D01*
X217479888Y-89277602D01*
X217480457Y-89277906D01*
X217480462Y-89277910D01*
X217654273Y-89370814D01*
X217842868Y-89428024D01*
X218039000Y-89447341D01*
X218235132Y-89428024D01*
X218423727Y-89370814D01*
X218597538Y-89277910D01*
X218749883Y-89152883D01*
X218874910Y-89000538D01*
X218928472Y-88900331D01*
X218967811Y-88826733D01*
X218967811Y-88826732D01*
X218967814Y-88826727D01*
X219025024Y-88638132D01*
X219044341Y-88442000D01*
X219025024Y-88245868D01*
X218967814Y-88057273D01*
X218874910Y-87883462D01*
X218874908Y-87883459D01*
X218872038Y-87878090D01*
X218873799Y-87877148D01*
X218855654Y-87819235D01*
X218872889Y-87756365D01*
X218872038Y-87755910D01*
X218874042Y-87752159D01*
X218874127Y-87751852D01*
X218874602Y-87751111D01*
X218874905Y-87750544D01*
X218874910Y-87750538D01*
X218967814Y-87576727D01*
X219025024Y-87388132D01*
X219044341Y-87192000D01*
X219025024Y-86995868D01*
X218967814Y-86807273D01*
X218967811Y-86807269D01*
X218967811Y-86807266D01*
X218872039Y-86628089D01*
X218873661Y-86627221D01*
X218855353Y-86568780D01*
X218872533Y-86506119D01*
X218871622Y-86505632D01*
X218873767Y-86501618D01*
X218873828Y-86501397D01*
X218874170Y-86500863D01*
X218967348Y-86326539D01*
X219024531Y-86138032D01*
X219043838Y-85942000D01*
X219024531Y-85745967D01*
X218967348Y-85557462D01*
X218901075Y-85433476D01*
X218333855Y-86000696D01*
X218339000Y-85981496D01*
X218339000Y-85902504D01*
X218318556Y-85826204D01*
X218279060Y-85757795D01*
X218223205Y-85701940D01*
X218154796Y-85662444D01*
X218078496Y-85642000D01*
X217999504Y-85642000D01*
X217980300Y-85647145D01*
X218547523Y-85079922D01*
X218423539Y-85013651D01*
X218235030Y-84956468D01*
X218235034Y-84956468D01*
X218039000Y-84937161D01*
X217842967Y-84956468D01*
X217654460Y-85013651D01*
X217475369Y-85109378D01*
X217474402Y-85107570D01*
X217416652Y-85125646D01*
X217353288Y-85108255D01*
X217352911Y-85108961D01*
X217349800Y-85107298D01*
X217349274Y-85107154D01*
X217348006Y-85106339D01*
X217173733Y-85013188D01*
X217173727Y-85013186D01*
X216985132Y-84955976D01*
X216985129Y-84955975D01*
X216789000Y-84936659D01*
X216788999Y-84936659D01*
X216625311Y-84952780D01*
X216556665Y-84939761D01*
X216505955Y-84891696D01*
X216489281Y-84823845D01*
X216489938Y-84815493D01*
X216502365Y-84705202D01*
X216502365Y-84705196D01*
X216488033Y-84577993D01*
X216500088Y-84509171D01*
X216547437Y-84457792D01*
X216615047Y-84440168D01*
X216626794Y-84441087D01*
X216637973Y-84442500D01*
X216637975Y-84442500D01*
X216940025Y-84442500D01*
X216940027Y-84442500D01*
X216940032Y-84442499D01*
X216940036Y-84442499D01*
X217019591Y-84432448D01*
X217239698Y-84404642D01*
X217532262Y-84329525D01*
X217532265Y-84329524D01*
X217813095Y-84218336D01*
X217813096Y-84218335D01*
X217813094Y-84218335D01*
X217813104Y-84218332D01*
X218077795Y-84072816D01*
X218322162Y-83895274D01*
X218542349Y-83688504D01*
X218734885Y-83455768D01*
X218896733Y-83200736D01*
X219025341Y-82927430D01*
X219118681Y-82640160D01*
X219175280Y-82343457D01*
X219189543Y-82116750D01*
X219194246Y-82042005D01*
X219194246Y-82041994D01*
X219175281Y-81740553D01*
X219175280Y-81740546D01*
X219175280Y-81740543D01*
X219118681Y-81443840D01*
X219025341Y-81156570D01*
X218896733Y-80883264D01*
X218840462Y-80794595D01*
X218734888Y-80628236D01*
X218724437Y-80615603D01*
X218542349Y-80395496D01*
X218444924Y-80304008D01*
X218322163Y-80188727D01*
X218322153Y-80188719D01*
X218077806Y-80011191D01*
X218077799Y-80011186D01*
X218077795Y-80011184D01*
X217813104Y-79865668D01*
X217813101Y-79865666D01*
X217813096Y-79865664D01*
X217813095Y-79865663D01*
X217532265Y-79754475D01*
X217532262Y-79754474D01*
X217239695Y-79679357D01*
X216940036Y-79641500D01*
X216940027Y-79641500D01*
X216637973Y-79641500D01*
X216637963Y-79641500D01*
X216338304Y-79679357D01*
X216045737Y-79754474D01*
X216045734Y-79754475D01*
X215764904Y-79865663D01*
X215764903Y-79865664D01*
X215500205Y-80011184D01*
X215500193Y-80011191D01*
X215255846Y-80188719D01*
X215255836Y-80188727D01*
X215035652Y-80395494D01*
X214843111Y-80628236D01*
X214681268Y-80883261D01*
X214681265Y-80883267D01*
X214552661Y-81156563D01*
X214552659Y-81156568D01*
X214459320Y-81443835D01*
X214402719Y-81740546D01*
X214402718Y-81740553D01*
X214383754Y-82041994D01*
X214383754Y-82042005D01*
X214402718Y-82343446D01*
X214402719Y-82343453D01*
X214459320Y-82640164D01*
X214552659Y-82927431D01*
X214552661Y-82927436D01*
X214681265Y-83200732D01*
X214681268Y-83200738D01*
X214843111Y-83455763D01*
X214843114Y-83455767D01*
X214843115Y-83455768D01*
X215035651Y-83688504D01*
X215134895Y-83781701D01*
X215229099Y-83870164D01*
X215264494Y-83930405D01*
X215261701Y-84000219D01*
X215221607Y-84057440D01*
X215210192Y-84065547D01*
X215194538Y-84075383D01*
X215066984Y-84202937D01*
X214971011Y-84355676D01*
X214911431Y-84525945D01*
X214911430Y-84525950D01*
X214891235Y-84705196D01*
X214891235Y-84705203D01*
X214911430Y-84884449D01*
X214911431Y-84884454D01*
X214971011Y-85054723D01*
X215065873Y-85205694D01*
X215066984Y-85207462D01*
X215194538Y-85335016D01*
X215347278Y-85430989D01*
X215451852Y-85467581D01*
X215517545Y-85490568D01*
X215517550Y-85490569D01*
X215696796Y-85510765D01*
X215703764Y-85510765D01*
X215703764Y-85512988D01*
X215762125Y-85523195D01*
X215813518Y-85570530D01*
X215831160Y-85638135D01*
X215825878Y-85670370D01*
X215802975Y-85745869D01*
X215783659Y-85942000D01*
X215802975Y-86138129D01*
X215802976Y-86138132D01*
X215858661Y-86321701D01*
X215860188Y-86326733D01*
X215955961Y-86505911D01*
X215954205Y-86506849D01*
X215972344Y-86564797D01*
X215955101Y-86627629D01*
X215955961Y-86628089D01*
X215953935Y-86631877D01*
X215953854Y-86632176D01*
X215953393Y-86632892D01*
X215860188Y-86807266D01*
X215802975Y-86995870D01*
X215786452Y-87163637D01*
X215760291Y-87228424D01*
X215750730Y-87239164D01*
X211821368Y-91168525D01*
X211821365Y-91168528D01*
X211782154Y-91227211D01*
X211782155Y-91227212D01*
X211745741Y-91281710D01*
X211693655Y-91407456D01*
X211693652Y-91407466D01*
X211667099Y-91540957D01*
X211667099Y-91540960D01*
X211667099Y-98126157D01*
X211667099Y-98126159D01*
X211667098Y-98126159D01*
X211693652Y-98259650D01*
X211693655Y-98259660D01*
X211745741Y-98385408D01*
X211745743Y-98385411D01*
X211821362Y-98498584D01*
X211821368Y-98498591D01*
X212838229Y-99515450D01*
X212869624Y-99568536D01*
X212884254Y-99618893D01*
X212884255Y-99618896D01*
X212967917Y-99760362D01*
X212972702Y-99766531D01*
X212970256Y-99768427D01*
X212996857Y-99817142D01*
X212991873Y-99886834D01*
X212971069Y-99919203D01*
X212972702Y-99920469D01*
X212967917Y-99926637D01*
X212884255Y-100068103D01*
X212884254Y-100068106D01*
X212838402Y-100225926D01*
X212838401Y-100225932D01*
X212835500Y-100262798D01*
X212835500Y-100694201D01*
X212838401Y-100731067D01*
X212838402Y-100731073D01*
X212884254Y-100888893D01*
X212884255Y-100888896D01*
X212967917Y-101030362D01*
X212967923Y-101030370D01*
X213084129Y-101146576D01*
X213084133Y-101146579D01*
X213084135Y-101146581D01*
X213225602Y-101230244D01*
X213249727Y-101237253D01*
X213383426Y-101276097D01*
X213383429Y-101276097D01*
X213383431Y-101276098D01*
X213420306Y-101279000D01*
X213588862Y-101279000D01*
X213655901Y-101298685D01*
X213701656Y-101351489D01*
X213711600Y-101420647D01*
X213682575Y-101484203D01*
X213627866Y-101520706D01*
X213515968Y-101557785D01*
X213515963Y-101557787D01*
X213366642Y-101649889D01*
X213242588Y-101773943D01*
X213242583Y-101773949D01*
X213240541Y-101777261D01*
X213238547Y-101779053D01*
X213238107Y-101779611D01*
X213238011Y-101779535D01*
X213188591Y-101823983D01*
X213119628Y-101835202D01*
X213055547Y-101807355D01*
X213029468Y-101777256D01*
X213027619Y-101774259D01*
X213027616Y-101774255D01*
X212903645Y-101650284D01*
X212754424Y-101558243D01*
X212754419Y-101558241D01*
X212587997Y-101503094D01*
X212587990Y-101503093D01*
X212485286Y-101492600D01*
X212347800Y-101492600D01*
X212347800Y-102593600D01*
X212328115Y-102660639D01*
X212275311Y-102706394D01*
X212223800Y-102717600D01*
X212097800Y-102717600D01*
X212097800Y-102843600D01*
X212078115Y-102910639D01*
X212025311Y-102956394D01*
X211973800Y-102967600D01*
X211010301Y-102967600D01*
X211010301Y-103242586D01*
X211020794Y-103345297D01*
X211075941Y-103511719D01*
X211075943Y-103511724D01*
X211167984Y-103660945D01*
X211180858Y-103673819D01*
X211214343Y-103735142D01*
X211209359Y-103804834D01*
X211167487Y-103860767D01*
X211102023Y-103885184D01*
X211093177Y-103885500D01*
X191767389Y-103885500D01*
X191700350Y-103865815D01*
X191654595Y-103813011D01*
X191644651Y-103743853D01*
X191673676Y-103680297D01*
X191726434Y-103644458D01*
X191727272Y-103644164D01*
X191865522Y-103595789D01*
X192018262Y-103499816D01*
X192145816Y-103372262D01*
X192241789Y-103219522D01*
X192301368Y-103049255D01*
X192301369Y-103049249D01*
X192321565Y-102870003D01*
X192321565Y-102869996D01*
X192301369Y-102690750D01*
X192301368Y-102690745D01*
X192290833Y-102660639D01*
X192241789Y-102520478D01*
X192240740Y-102518809D01*
X192145815Y-102367737D01*
X192018262Y-102240184D01*
X191865523Y-102144211D01*
X191695254Y-102084631D01*
X191695249Y-102084630D01*
X191516004Y-102064435D01*
X191515996Y-102064435D01*
X191336750Y-102084630D01*
X191336745Y-102084631D01*
X191166476Y-102144211D01*
X191013737Y-102240184D01*
X190886184Y-102367737D01*
X190790211Y-102520476D01*
X190730631Y-102690745D01*
X190730630Y-102690750D01*
X190710435Y-102869996D01*
X190710435Y-102870003D01*
X190730630Y-103049249D01*
X190730631Y-103049254D01*
X190790211Y-103219523D01*
X190886184Y-103372262D01*
X191013738Y-103499816D01*
X191166478Y-103595789D01*
X191303763Y-103643827D01*
X191305566Y-103644458D01*
X191362342Y-103685180D01*
X191388089Y-103750133D01*
X191374633Y-103818694D01*
X191326246Y-103869097D01*
X191264611Y-103885500D01*
X184915481Y-103885500D01*
X184908528Y-103885305D01*
X184591959Y-103867527D01*
X184578141Y-103865970D01*
X184268996Y-103813443D01*
X184255439Y-103810349D01*
X183954108Y-103723537D01*
X183940984Y-103718944D01*
X183651278Y-103598945D01*
X183638749Y-103592912D01*
X183364295Y-103441226D01*
X183352521Y-103433828D01*
X183096772Y-103252365D01*
X183085900Y-103243694D01*
X182852087Y-103034744D01*
X182842255Y-103024912D01*
X182633305Y-102791099D01*
X182624634Y-102780227D01*
X182443171Y-102524478D01*
X182435773Y-102512704D01*
X182334800Y-102330007D01*
X182284083Y-102238243D01*
X182278054Y-102225721D01*
X182158055Y-101936015D01*
X182153462Y-101922891D01*
X182066650Y-101621560D01*
X182063556Y-101608003D01*
X182039907Y-101468819D01*
X182016658Y-101331985D01*
X182024835Y-101262598D01*
X182069228Y-101208644D01*
X182135744Y-101187256D01*
X182203264Y-101205225D01*
X182250350Y-101256845D01*
X182258386Y-101278042D01*
X182288148Y-101385237D01*
X182288149Y-101385239D01*
X182420597Y-101717659D01*
X182420606Y-101717677D01*
X182588218Y-102033827D01*
X182789033Y-102330007D01*
X182916441Y-102480003D01*
X182916442Y-102480004D01*
X184125748Y-101270698D01*
X184199588Y-101372330D01*
X184377670Y-101550412D01*
X184479300Y-101624251D01*
X183267255Y-102836295D01*
X183267256Y-102836296D01*
X183280485Y-102848828D01*
X183280486Y-102848829D01*
X183565367Y-103065388D01*
X183565370Y-103065390D01*
X183871990Y-103249876D01*
X184196739Y-103400122D01*
X184196744Y-103400123D01*
X184535855Y-103514383D01*
X184885339Y-103591311D01*
X185241075Y-103629999D01*
X185241085Y-103630000D01*
X185598915Y-103630000D01*
X185598924Y-103629999D01*
X185954660Y-103591311D01*
X186304144Y-103514383D01*
X186643255Y-103400123D01*
X186643260Y-103400122D01*
X186968009Y-103249876D01*
X187274629Y-103065390D01*
X187274632Y-103065388D01*
X187559504Y-102848836D01*
X187572742Y-102836294D01*
X186360698Y-101624251D01*
X186462330Y-101550412D01*
X186640412Y-101372330D01*
X186714251Y-101270698D01*
X187923556Y-102480003D01*
X188050964Y-102330008D01*
X188050975Y-102329994D01*
X188251781Y-102033827D01*
X188419393Y-101717677D01*
X188419402Y-101717659D01*
X188551850Y-101385239D01*
X188551852Y-101385232D01*
X188647578Y-101040457D01*
X188647584Y-101040431D01*
X188705472Y-100687331D01*
X188705473Y-100687314D01*
X188724847Y-100330002D01*
X188724847Y-100329997D01*
X188705473Y-99972685D01*
X188705472Y-99972668D01*
X188647584Y-99619568D01*
X188647578Y-99619542D01*
X188551852Y-99274767D01*
X188551850Y-99274760D01*
X188419402Y-98942340D01*
X188419393Y-98942322D01*
X188251781Y-98626172D01*
X188050966Y-98329992D01*
X187923557Y-98179995D01*
X187923556Y-98179994D01*
X186714250Y-99389300D01*
X186640412Y-99287670D01*
X186462330Y-99109588D01*
X186360697Y-99035747D01*
X187572743Y-97823703D01*
X187572742Y-97823702D01*
X187559514Y-97811171D01*
X187559513Y-97811170D01*
X187274632Y-97594611D01*
X187274629Y-97594609D01*
X186968009Y-97410123D01*
X186643260Y-97259877D01*
X186643255Y-97259876D01*
X186304144Y-97145616D01*
X185954660Y-97068688D01*
X185598924Y-97030000D01*
X185241075Y-97030000D01*
X184885339Y-97068688D01*
X184535855Y-97145616D01*
X184196744Y-97259876D01*
X184196739Y-97259877D01*
X183871990Y-97410123D01*
X183565370Y-97594609D01*
X183565367Y-97594611D01*
X183280491Y-97811166D01*
X183267256Y-97823703D01*
X183267255Y-97823703D01*
X184479301Y-99035748D01*
X184377670Y-99109588D01*
X184199588Y-99287670D01*
X184125748Y-99389301D01*
X182916442Y-98179994D01*
X182916441Y-98179995D01*
X182789040Y-98329983D01*
X182789033Y-98329993D01*
X182588218Y-98626172D01*
X182420606Y-98942322D01*
X182420597Y-98942340D01*
X182288149Y-99274760D01*
X182288148Y-99274762D01*
X182234980Y-99466260D01*
X182198078Y-99525589D01*
X182134958Y-99555550D01*
X182065660Y-99546629D01*
X182012186Y-99501659D01*
X181991514Y-99434918D01*
X181991500Y-99433086D01*
X181991500Y-80753299D01*
X182011185Y-80686260D01*
X182063989Y-80640505D01*
X182133147Y-80630561D01*
X182196703Y-80659586D01*
X182221039Y-80688203D01*
X182242288Y-80722654D01*
X182366344Y-80846710D01*
X182366348Y-80846713D01*
X182515662Y-80938812D01*
X182515664Y-80938813D01*
X182515666Y-80938814D01*
X182682203Y-80993999D01*
X182784992Y-81004500D01*
X182784997Y-81004500D01*
X183810003Y-81004500D01*
X183810008Y-81004500D01*
X183912797Y-80993999D01*
X184079334Y-80938814D01*
X184228655Y-80846711D01*
X184352711Y-80722655D01*
X184444814Y-80573334D01*
X184499999Y-80406797D01*
X184510500Y-80304008D01*
X184510500Y-78953992D01*
X184499999Y-78851203D01*
X184444814Y-78684666D01*
X184432840Y-78665254D01*
X184352713Y-78535348D01*
X184352710Y-78535344D01*
X184228655Y-78411289D01*
X184228651Y-78411286D01*
X184079337Y-78319187D01*
X183996264Y-78291659D01*
X183938820Y-78251886D01*
X183911997Y-78187370D01*
X183924312Y-78118594D01*
X183927865Y-78111983D01*
X183943726Y-78084513D01*
X184000987Y-77908284D01*
X184020356Y-77724000D01*
X184000987Y-77539716D01*
X183943726Y-77363487D01*
X183943725Y-77363485D01*
X183927883Y-77336045D01*
X183911410Y-77268145D01*
X183934263Y-77202118D01*
X183989184Y-77158927D01*
X183996245Y-77156346D01*
X184079334Y-77128814D01*
X184228655Y-77036711D01*
X184352711Y-76912655D01*
X184444814Y-76763334D01*
X184499999Y-76596797D01*
X184510500Y-76494008D01*
X184510500Y-75143992D01*
X184499999Y-75041203D01*
X184444814Y-74874666D01*
X184420024Y-74834476D01*
X184352713Y-74725348D01*
X184352710Y-74725344D01*
X184228655Y-74601289D01*
X184228651Y-74601286D01*
X184079337Y-74509187D01*
X184072789Y-74506134D01*
X184073344Y-74504943D01*
X184022152Y-74469498D01*
X183995332Y-74404981D01*
X184000106Y-74358746D01*
X183999635Y-74358646D01*
X184000572Y-74354233D01*
X184000675Y-74353243D01*
X184000987Y-74352284D01*
X184020356Y-74168000D01*
X184000987Y-73983716D01*
X183943726Y-73807487D01*
X183943724Y-73807483D01*
X183941101Y-73801591D01*
X183931815Y-73732341D01*
X183961443Y-73669064D01*
X184020578Y-73631850D01*
X184033178Y-73629441D01*
X184033173Y-73629417D01*
X184039786Y-73628000D01*
X184039797Y-73627999D01*
X184206334Y-73572814D01*
X184355655Y-73480711D01*
X184479711Y-73356655D01*
X184571814Y-73207334D01*
X184626999Y-73040797D01*
X184637500Y-72938008D01*
X184637500Y-71587992D01*
X184626999Y-71485203D01*
X184571814Y-71318666D01*
X184483121Y-71174874D01*
X184479713Y-71169348D01*
X184479710Y-71169344D01*
X184355655Y-71045289D01*
X184355651Y-71045286D01*
X184206337Y-70953187D01*
X184206334Y-70953186D01*
X184110079Y-70921290D01*
X184052634Y-70881517D01*
X184030762Y-70830532D01*
X184028704Y-70831084D01*
X184012117Y-70769185D01*
X184008570Y-70724127D01*
X184013096Y-70681069D01*
X184020356Y-70612000D01*
X184000987Y-70427716D01*
X183943726Y-70251487D01*
X183851077Y-70091013D01*
X183785428Y-70018102D01*
X183727093Y-69953313D01*
X183727090Y-69953311D01*
X183727089Y-69953310D01*
X183727088Y-69953309D01*
X183577178Y-69844393D01*
X183577177Y-69844392D01*
X183407904Y-69769026D01*
X183407896Y-69769024D01*
X183226649Y-69730500D01*
X183041351Y-69730500D01*
X182860103Y-69769024D01*
X182860095Y-69769026D01*
X182690822Y-69844392D01*
X182540909Y-69953311D01*
X182540906Y-69953313D01*
X182416922Y-70091014D01*
X182324274Y-70251485D01*
X182267014Y-70427711D01*
X182267013Y-70427713D01*
X182247644Y-70612000D01*
X182267013Y-70796286D01*
X182267014Y-70796288D01*
X182324273Y-70972512D01*
X182367727Y-71047778D01*
X182384198Y-71115678D01*
X182365878Y-71174874D01*
X182277185Y-71318667D01*
X182233206Y-71451389D01*
X182193433Y-71508834D01*
X182128918Y-71535657D01*
X182060142Y-71523342D01*
X182008942Y-71475799D01*
X181991500Y-71412385D01*
X181991500Y-67571983D01*
X182303500Y-67571983D01*
X182303500Y-68572001D01*
X182303501Y-68572019D01*
X182314000Y-68674796D01*
X182314001Y-68674799D01*
X182354942Y-68798348D01*
X182369186Y-68841334D01*
X182461288Y-68990656D01*
X182585344Y-69114712D01*
X182734666Y-69206814D01*
X182901203Y-69261999D01*
X183003991Y-69272500D01*
X183804008Y-69272499D01*
X183804016Y-69272498D01*
X183804019Y-69272498D01*
X183860302Y-69266748D01*
X183906797Y-69261999D01*
X184073334Y-69206814D01*
X184222656Y-69114712D01*
X184316319Y-69021049D01*
X184377642Y-68987564D01*
X184447334Y-68992548D01*
X184491681Y-69021049D01*
X184585344Y-69114712D01*
X184734666Y-69206814D01*
X184901203Y-69261999D01*
X185003991Y-69272500D01*
X185804008Y-69272499D01*
X185804016Y-69272498D01*
X185804019Y-69272498D01*
X185860302Y-69266748D01*
X185906797Y-69261999D01*
X186073334Y-69206814D01*
X186222656Y-69114712D01*
X186346712Y-68990656D01*
X186436508Y-68845071D01*
X186488454Y-68798348D01*
X186557417Y-68787125D01*
X186587708Y-68796051D01*
X186587905Y-68795489D01*
X186764745Y-68857368D01*
X186764750Y-68857369D01*
X186943996Y-68877565D01*
X186944000Y-68877565D01*
X186944004Y-68877565D01*
X187123249Y-68857369D01*
X187123252Y-68857368D01*
X187123255Y-68857368D01*
X187293522Y-68797789D01*
X187446262Y-68701816D01*
X187573816Y-68574262D01*
X187669789Y-68421522D01*
X187729368Y-68251255D01*
X187749565Y-68072000D01*
X187729368Y-67892745D01*
X187669789Y-67722478D01*
X187573816Y-67569738D01*
X187446262Y-67442184D01*
X187380395Y-67400797D01*
X187293523Y-67346211D01*
X187123254Y-67286631D01*
X187123249Y-67286630D01*
X186944004Y-67266435D01*
X186943996Y-67266435D01*
X186764750Y-67286630D01*
X186764737Y-67286633D01*
X186587906Y-67348510D01*
X186587360Y-67346952D01*
X186526883Y-67356899D01*
X186462754Y-67329165D01*
X186436507Y-67298926D01*
X186428923Y-67286631D01*
X186346712Y-67153344D01*
X186222656Y-67029288D01*
X186073334Y-66937186D01*
X185906797Y-66882001D01*
X185906795Y-66882000D01*
X185804010Y-66871500D01*
X185003998Y-66871500D01*
X185003980Y-66871501D01*
X184901203Y-66882000D01*
X184901200Y-66882001D01*
X184734668Y-66937185D01*
X184734663Y-66937187D01*
X184585342Y-67029289D01*
X184491681Y-67122951D01*
X184430358Y-67156436D01*
X184360666Y-67151452D01*
X184316319Y-67122951D01*
X184243952Y-67050584D01*
X184210467Y-66989261D01*
X184213702Y-66924584D01*
X184213723Y-66924516D01*
X184213726Y-66924513D01*
X184270987Y-66748284D01*
X184290356Y-66564000D01*
X184270987Y-66379716D01*
X184213726Y-66203487D01*
X184121077Y-66043013D01*
X184072514Y-65989078D01*
X183997093Y-65905313D01*
X183997090Y-65905311D01*
X183997089Y-65905310D01*
X183997088Y-65905309D01*
X183847178Y-65796393D01*
X183847177Y-65796392D01*
X183677904Y-65721026D01*
X183677896Y-65721024D01*
X183496649Y-65682500D01*
X183311351Y-65682500D01*
X183130103Y-65721024D01*
X183130095Y-65721026D01*
X182960822Y-65796392D01*
X182810909Y-65905311D01*
X182810906Y-65905313D01*
X182686922Y-66043014D01*
X182594274Y-66203485D01*
X182537014Y-66379711D01*
X182537013Y-66379713D01*
X182517644Y-66564000D01*
X182537013Y-66748286D01*
X182537014Y-66748288D01*
X182594297Y-66924585D01*
X182596292Y-66994426D01*
X182564048Y-67050584D01*
X182461287Y-67153345D01*
X182369187Y-67302663D01*
X182369185Y-67302668D01*
X182354511Y-67346952D01*
X182314001Y-67469203D01*
X182314001Y-67469204D01*
X182314000Y-67469204D01*
X182303500Y-67571983D01*
X181991500Y-67571983D01*
X181991500Y-59316913D01*
X182011185Y-59249874D01*
X182063989Y-59204119D01*
X182133147Y-59194175D01*
X182196703Y-59223200D01*
X182234477Y-59281978D01*
X182234980Y-59283740D01*
X182288147Y-59475232D01*
X182288149Y-59475239D01*
X182420597Y-59807659D01*
X182420606Y-59807677D01*
X182588218Y-60123827D01*
X182789033Y-60420007D01*
X182916441Y-60570003D01*
X182916442Y-60570004D01*
X184125748Y-59360698D01*
X184199588Y-59462330D01*
X184377670Y-59640412D01*
X184479300Y-59714251D01*
X183267255Y-60926295D01*
X183267256Y-60926296D01*
X183280485Y-60938828D01*
X183280486Y-60938829D01*
X183565367Y-61155388D01*
X183565370Y-61155390D01*
X183871990Y-61339876D01*
X184196739Y-61490122D01*
X184196744Y-61490123D01*
X184535855Y-61604383D01*
X184885339Y-61681311D01*
X185241075Y-61719999D01*
X185241085Y-61720000D01*
X185598915Y-61720000D01*
X185598924Y-61719999D01*
X185954660Y-61681311D01*
X186304144Y-61604383D01*
X186643255Y-61490123D01*
X186643260Y-61490122D01*
X186968009Y-61339876D01*
X187274629Y-61155390D01*
X187274632Y-61155388D01*
X187559504Y-60938836D01*
X187572742Y-60926294D01*
X186360698Y-59714251D01*
X186462330Y-59640412D01*
X186640412Y-59462330D01*
X186714251Y-59360698D01*
X187923556Y-60570003D01*
X188050964Y-60420008D01*
X188050975Y-60419994D01*
X188251781Y-60123827D01*
X188419393Y-59807677D01*
X188419402Y-59807659D01*
X188551850Y-59475239D01*
X188551852Y-59475232D01*
X188647578Y-59130457D01*
X188647584Y-59130431D01*
X188705472Y-58777331D01*
X188705473Y-58777314D01*
X188724847Y-58420002D01*
X188724847Y-58419997D01*
X188705473Y-58062685D01*
X188705472Y-58062668D01*
X188647584Y-57709568D01*
X188647578Y-57709542D01*
X188551852Y-57364767D01*
X188551850Y-57364760D01*
X188419402Y-57032340D01*
X188419393Y-57032322D01*
X188251781Y-56716172D01*
X188050966Y-56419992D01*
X187923557Y-56269995D01*
X187923556Y-56269994D01*
X186714250Y-57479300D01*
X186640412Y-57377670D01*
X186462330Y-57199588D01*
X186360697Y-57125747D01*
X187572743Y-55913703D01*
X187572742Y-55913702D01*
X187559514Y-55901171D01*
X187559513Y-55901170D01*
X187274632Y-55684611D01*
X187274629Y-55684609D01*
X186968009Y-55500123D01*
X186643260Y-55349877D01*
X186643255Y-55349876D01*
X186304144Y-55235616D01*
X185954660Y-55158688D01*
X185598924Y-55120000D01*
X185241075Y-55120000D01*
X184885339Y-55158688D01*
X184535855Y-55235616D01*
X184196744Y-55349876D01*
X184196739Y-55349877D01*
X183871990Y-55500123D01*
X183565370Y-55684609D01*
X183565367Y-55684611D01*
X183280491Y-55901166D01*
X183267256Y-55913703D01*
X183267255Y-55913703D01*
X184479301Y-57125748D01*
X184377670Y-57199588D01*
X184199588Y-57377670D01*
X184125748Y-57479301D01*
X182916442Y-56269994D01*
X182916441Y-56269995D01*
X182789040Y-56419983D01*
X182789033Y-56419993D01*
X182588218Y-56716172D01*
X182420606Y-57032322D01*
X182420597Y-57032340D01*
X182288149Y-57364760D01*
X182288148Y-57364763D01*
X182258386Y-57471957D01*
X182221484Y-57531287D01*
X182158364Y-57561247D01*
X182089066Y-57552326D01*
X182035592Y-57507356D01*
X182014920Y-57440614D01*
X182016657Y-57418019D01*
X182063556Y-57141994D01*
X182066650Y-57128439D01*
X182153462Y-56827108D01*
X182158055Y-56813984D01*
X182198570Y-56716172D01*
X182278057Y-56524269D01*
X182284079Y-56511763D01*
X182435776Y-56237289D01*
X182443171Y-56225521D01*
X182624643Y-55969759D01*
X182633294Y-55958912D01*
X182842256Y-55725085D01*
X182852087Y-55715255D01*
X183085912Y-55506294D01*
X183096759Y-55497643D01*
X183352526Y-55316167D01*
X183364289Y-55308776D01*
X183638763Y-55157079D01*
X183651269Y-55151057D01*
X183940984Y-55031055D01*
X183954104Y-55026463D01*
X184255440Y-54939649D01*
X184268996Y-54936556D01*
X184578154Y-54884027D01*
X184591949Y-54882473D01*
X184871843Y-54866755D01*
X184908529Y-54864695D01*
X184915481Y-54864500D01*
X184956875Y-54864500D01*
X190378500Y-54864500D01*
X190445539Y-54884185D01*
G37*
G04 #@! TD.AperFunction*
G04 #@! TA.AperFunction,Conductor*
G36*
X202462537Y-95290474D02*
G01*
X202518470Y-95332346D01*
X202538279Y-95372060D01*
X202548254Y-95406394D01*
X202548255Y-95406396D01*
X202631917Y-95547862D01*
X202631923Y-95547870D01*
X202748129Y-95664076D01*
X202748133Y-95664079D01*
X202748135Y-95664081D01*
X202889602Y-95747744D01*
X202924903Y-95758000D01*
X203047426Y-95793597D01*
X203047429Y-95793597D01*
X203047431Y-95793598D01*
X203084306Y-95796500D01*
X204395959Y-95796500D01*
X204462998Y-95816185D01*
X204508753Y-95868989D01*
X204519179Y-95906616D01*
X204522630Y-95937249D01*
X204582210Y-96107521D01*
X204587933Y-96116629D01*
X204678184Y-96260262D01*
X204805738Y-96387816D01*
X204958478Y-96483789D01*
X205091396Y-96530299D01*
X205128745Y-96543368D01*
X205128750Y-96543369D01*
X205218372Y-96553466D01*
X205308000Y-96563565D01*
X205319389Y-96562281D01*
X205388208Y-96574333D01*
X205439590Y-96621680D01*
X205457217Y-96689289D01*
X205435494Y-96755696D01*
X205420957Y-96773181D01*
X205383884Y-96810254D01*
X205291843Y-96959475D01*
X205291842Y-96959478D01*
X205256932Y-97064829D01*
X205217159Y-97122273D01*
X205152643Y-97149096D01*
X205083867Y-97136781D01*
X205045542Y-97105644D01*
X205045424Y-97105763D01*
X205044274Y-97104613D01*
X205041955Y-97102729D01*
X205040312Y-97100651D01*
X204916345Y-96976684D01*
X204767124Y-96884643D01*
X204767119Y-96884641D01*
X204600697Y-96829494D01*
X204600690Y-96829493D01*
X204497986Y-96819000D01*
X204360500Y-96819000D01*
X204360500Y-99268999D01*
X204497972Y-99268999D01*
X204497986Y-99268998D01*
X204600697Y-99258505D01*
X204767119Y-99203358D01*
X204767124Y-99203356D01*
X204916345Y-99111315D01*
X205040317Y-98987343D01*
X205059500Y-98956243D01*
X205111447Y-98909518D01*
X205150429Y-98903174D01*
X205140395Y-98888178D01*
X205139102Y-98818320D01*
X205140999Y-98812043D01*
X205187505Y-98671697D01*
X205187506Y-98671690D01*
X205197999Y-98568986D01*
X205197999Y-98535425D01*
X205217682Y-98468385D01*
X205270484Y-98422629D01*
X205339643Y-98412684D01*
X205403199Y-98441707D01*
X205409680Y-98447741D01*
X205507855Y-98545916D01*
X205507859Y-98545919D01*
X205510856Y-98547768D01*
X205512479Y-98549572D01*
X205513523Y-98550398D01*
X205513381Y-98550576D01*
X205557581Y-98599716D01*
X205568802Y-98668679D01*
X205540959Y-98732761D01*
X205510861Y-98758841D01*
X205507549Y-98760883D01*
X205507543Y-98760888D01*
X205383488Y-98884943D01*
X205383485Y-98884947D01*
X205364243Y-98916144D01*
X205312295Y-98962869D01*
X205273314Y-98969211D01*
X205283349Y-98984207D01*
X205284643Y-99054064D01*
X205282745Y-99060340D01*
X205260999Y-99125969D01*
X205236201Y-99200803D01*
X205236200Y-99200804D01*
X205225700Y-99303583D01*
X205225700Y-100078601D01*
X205225701Y-100078619D01*
X205236200Y-100181396D01*
X205236201Y-100181399D01*
X205291385Y-100347931D01*
X205291387Y-100347936D01*
X205383489Y-100497257D01*
X205507544Y-100621312D01*
X205540049Y-100641361D01*
X205586774Y-100693308D01*
X205597997Y-100762271D01*
X205570154Y-100826353D01*
X205512085Y-100865210D01*
X205474953Y-100870900D01*
X203128062Y-100870900D01*
X203061023Y-100851215D01*
X203015268Y-100798411D01*
X203005324Y-100729253D01*
X203010356Y-100707897D01*
X203019999Y-100678797D01*
X203030500Y-100576009D01*
X203030499Y-99575992D01*
X203029737Y-99568536D01*
X203019999Y-99473203D01*
X203019998Y-99473200D01*
X203017698Y-99466260D01*
X202964814Y-99306666D01*
X202894924Y-99193357D01*
X202876486Y-99125969D01*
X202897408Y-99059305D01*
X202912780Y-99040587D01*
X202965712Y-98987656D01*
X202967752Y-98984347D01*
X202969745Y-98982555D01*
X202970193Y-98981989D01*
X202970289Y-98982065D01*
X203019694Y-98937623D01*
X203088656Y-98926395D01*
X203152740Y-98954234D01*
X203178829Y-98984339D01*
X203180681Y-98987341D01*
X203180683Y-98987344D01*
X203304654Y-99111315D01*
X203453875Y-99203356D01*
X203453880Y-99203358D01*
X203620302Y-99258505D01*
X203620309Y-99258506D01*
X203723019Y-99268999D01*
X203860499Y-99268999D01*
X203860500Y-99268998D01*
X203860500Y-96819000D01*
X203723027Y-96819000D01*
X203723012Y-96819001D01*
X203620302Y-96829494D01*
X203453880Y-96884641D01*
X203453875Y-96884643D01*
X203304654Y-96976684D01*
X203180683Y-97100655D01*
X203180679Y-97100660D01*
X203178826Y-97103665D01*
X203177018Y-97105290D01*
X203176202Y-97106323D01*
X203176025Y-97106183D01*
X203126874Y-97150385D01*
X203057911Y-97161601D01*
X202993831Y-97133752D01*
X202967747Y-97103644D01*
X202966214Y-97101158D01*
X202947782Y-97033764D01*
X202954719Y-96995117D01*
X202961170Y-96976684D01*
X202969368Y-96953255D01*
X202972994Y-96921073D01*
X202989565Y-96774003D01*
X202989565Y-96773996D01*
X202969369Y-96594750D01*
X202969368Y-96594745D01*
X202964242Y-96580097D01*
X202909789Y-96424478D01*
X202905705Y-96417979D01*
X202870582Y-96362080D01*
X202813816Y-96271738D01*
X202686262Y-96144184D01*
X202642915Y-96116947D01*
X202533523Y-96048211D01*
X202363254Y-95988631D01*
X202363249Y-95988630D01*
X202184004Y-95968435D01*
X202183996Y-95968435D01*
X202004750Y-95988630D01*
X202004735Y-95988634D01*
X201990097Y-95993756D01*
X201920318Y-95997317D01*
X201859692Y-95962587D01*
X201827466Y-95900592D01*
X201833872Y-95831017D01*
X201861462Y-95789035D01*
X202331524Y-95318973D01*
X202392845Y-95285490D01*
X202462537Y-95290474D01*
G37*
G04 #@! TD.AperFunction*
G04 #@! TA.AperFunction,Conductor*
G36*
X201560481Y-78285530D02*
G01*
X201616414Y-78327402D01*
X201640831Y-78392866D01*
X201640367Y-78415595D01*
X201632435Y-78485996D01*
X201632435Y-78486003D01*
X201652630Y-78665249D01*
X201652631Y-78665254D01*
X201712211Y-78835523D01*
X201808184Y-78988262D01*
X201808185Y-78988263D01*
X201853241Y-79033320D01*
X201886725Y-79094643D01*
X201881740Y-79164335D01*
X201853241Y-79208680D01*
X201808184Y-79253737D01*
X201712211Y-79406476D01*
X201652631Y-79576745D01*
X201652630Y-79576750D01*
X201632435Y-79755996D01*
X201632435Y-79756003D01*
X201652630Y-79935249D01*
X201652631Y-79935254D01*
X201712211Y-80105523D01*
X201791117Y-80231100D01*
X201808184Y-80258262D01*
X201935738Y-80385816D01*
X201969129Y-80406797D01*
X202076296Y-80474135D01*
X202088478Y-80481789D01*
X202212002Y-80525012D01*
X202258745Y-80541368D01*
X202258750Y-80541369D01*
X202413707Y-80558828D01*
X202478121Y-80585894D01*
X202517676Y-80643489D01*
X202519814Y-80713326D01*
X202518900Y-80716643D01*
X202502402Y-80773426D01*
X202502401Y-80773432D01*
X202499500Y-80810298D01*
X202499500Y-81241701D01*
X202502401Y-81278567D01*
X202518095Y-81332586D01*
X202517895Y-81402456D01*
X202479952Y-81461125D01*
X202416313Y-81489968D01*
X202412902Y-81490400D01*
X202233349Y-81510630D01*
X202233345Y-81510631D01*
X202063076Y-81570211D01*
X201910337Y-81666184D01*
X201782784Y-81793737D01*
X201686811Y-81946476D01*
X201627231Y-82116745D01*
X201627230Y-82116750D01*
X201607035Y-82295996D01*
X201607035Y-82296003D01*
X201627230Y-82475249D01*
X201627231Y-82475254D01*
X201686811Y-82645523D01*
X201770849Y-82779267D01*
X201782784Y-82798262D01*
X201910338Y-82925816D01*
X201960637Y-82957421D01*
X202050896Y-83014135D01*
X202063078Y-83021789D01*
X202232962Y-83081234D01*
X202233345Y-83081368D01*
X202233350Y-83081369D01*
X202412902Y-83101599D01*
X202477316Y-83128665D01*
X202516871Y-83186260D01*
X202519009Y-83256097D01*
X202518095Y-83259414D01*
X202502402Y-83313426D01*
X202502401Y-83313432D01*
X202499500Y-83350298D01*
X202499500Y-83781701D01*
X202502401Y-83818567D01*
X202502402Y-83818573D01*
X202548254Y-83976393D01*
X202548255Y-83976396D01*
X202631917Y-84117862D01*
X202636702Y-84124031D01*
X202634256Y-84125927D01*
X202660857Y-84174642D01*
X202655873Y-84244334D01*
X202635069Y-84276703D01*
X202636702Y-84277969D01*
X202631917Y-84284137D01*
X202548255Y-84425603D01*
X202548254Y-84425606D01*
X202502402Y-84583426D01*
X202502401Y-84583432D01*
X202499500Y-84620298D01*
X202499500Y-85051701D01*
X202502401Y-85088567D01*
X202502402Y-85088573D01*
X202548254Y-85246393D01*
X202548255Y-85246396D01*
X202631917Y-85387862D01*
X202636702Y-85394031D01*
X202634256Y-85395927D01*
X202660857Y-85444642D01*
X202655873Y-85514334D01*
X202635069Y-85546703D01*
X202636702Y-85547969D01*
X202631917Y-85554137D01*
X202548255Y-85695603D01*
X202548254Y-85695606D01*
X202502402Y-85853426D01*
X202502401Y-85853432D01*
X202499500Y-85890298D01*
X202499500Y-86321701D01*
X202502401Y-86358567D01*
X202502402Y-86358573D01*
X202548254Y-86516393D01*
X202548255Y-86516396D01*
X202548256Y-86516398D01*
X202585681Y-86579681D01*
X202631917Y-86657862D01*
X202636702Y-86664031D01*
X202634256Y-86665927D01*
X202660857Y-86714642D01*
X202655873Y-86784334D01*
X202635069Y-86816703D01*
X202636702Y-86817969D01*
X202631917Y-86824137D01*
X202548255Y-86965603D01*
X202548254Y-86965606D01*
X202502402Y-87123426D01*
X202502401Y-87123432D01*
X202499500Y-87160298D01*
X202499500Y-87591701D01*
X202502401Y-87628567D01*
X202502402Y-87628573D01*
X202548254Y-87786393D01*
X202548255Y-87786396D01*
X202631917Y-87927862D01*
X202636702Y-87934031D01*
X202634256Y-87935927D01*
X202660857Y-87984642D01*
X202655873Y-88054334D01*
X202635069Y-88086703D01*
X202636702Y-88087969D01*
X202631917Y-88094137D01*
X202548255Y-88235603D01*
X202548254Y-88235606D01*
X202502402Y-88393426D01*
X202502401Y-88393432D01*
X202499500Y-88430298D01*
X202499500Y-88861701D01*
X202502401Y-88898567D01*
X202502402Y-88898573D01*
X202548254Y-89056393D01*
X202548255Y-89056396D01*
X202631917Y-89197862D01*
X202636702Y-89204031D01*
X202634369Y-89205840D01*
X202661210Y-89254995D01*
X202656226Y-89324687D01*
X202635470Y-89357021D01*
X202637097Y-89358283D01*
X202632313Y-89364449D01*
X202548718Y-89505801D01*
X202502899Y-89663513D01*
X202502704Y-89665998D01*
X202502705Y-89666000D01*
X203776000Y-89666000D01*
X203843039Y-89685685D01*
X203888794Y-89738489D01*
X203900000Y-89790000D01*
X203900000Y-90042000D01*
X203880315Y-90109039D01*
X203827511Y-90154794D01*
X203776000Y-90166000D01*
X202502705Y-90166000D01*
X202502704Y-90166001D01*
X202502899Y-90168486D01*
X202548718Y-90326198D01*
X202632314Y-90467552D01*
X202637100Y-90473722D01*
X202634640Y-90475629D01*
X202661210Y-90524288D01*
X202656226Y-90593980D01*
X202635162Y-90626781D01*
X202636699Y-90627974D01*
X202631915Y-90634140D01*
X202548255Y-90775603D01*
X202548254Y-90775606D01*
X202502402Y-90933426D01*
X202502401Y-90933432D01*
X202499500Y-90970298D01*
X202499500Y-91401701D01*
X202502401Y-91438565D01*
X202502402Y-91438567D01*
X202502402Y-91438569D01*
X202507630Y-91456563D01*
X202522926Y-91509212D01*
X202522726Y-91579082D01*
X202484783Y-91637752D01*
X202421145Y-91666595D01*
X202417733Y-91667027D01*
X202385749Y-91670630D01*
X202385745Y-91670631D01*
X202215476Y-91730211D01*
X202062737Y-91826184D01*
X201935184Y-91953737D01*
X201839211Y-92106476D01*
X201779631Y-92276745D01*
X201779630Y-92276749D01*
X201766433Y-92393884D01*
X201739366Y-92458298D01*
X201681772Y-92497853D01*
X201643213Y-92504000D01*
X197771632Y-92504000D01*
X197695065Y-92524516D01*
X197618496Y-92545033D01*
X197618491Y-92545036D01*
X197501090Y-92612817D01*
X197501090Y-92612818D01*
X197481202Y-92624299D01*
X195863281Y-94242220D01*
X195801958Y-94275705D01*
X195732266Y-94270721D01*
X195676333Y-94228849D01*
X195651916Y-94163385D01*
X195656523Y-94119946D01*
X195697598Y-93978569D01*
X195700500Y-93941694D01*
X195700500Y-93510306D01*
X195697598Y-93473431D01*
X195651744Y-93315602D01*
X195568081Y-93174135D01*
X195568078Y-93174132D01*
X195563298Y-93167969D01*
X195565750Y-93166066D01*
X195539155Y-93117421D01*
X195544104Y-93047726D01*
X195564940Y-93015304D01*
X195563298Y-93014031D01*
X195568075Y-93007870D01*
X195568081Y-93007865D01*
X195651744Y-92866398D01*
X195697598Y-92708569D01*
X195700500Y-92671694D01*
X195700500Y-92240306D01*
X195697598Y-92203431D01*
X195690907Y-92180402D01*
X195651745Y-92045606D01*
X195651744Y-92045603D01*
X195651744Y-92045602D01*
X195568081Y-91904135D01*
X195568078Y-91904132D01*
X195563298Y-91897969D01*
X195565750Y-91896066D01*
X195539155Y-91847421D01*
X195544104Y-91777726D01*
X195564940Y-91745304D01*
X195563298Y-91744031D01*
X195568075Y-91737870D01*
X195568081Y-91737865D01*
X195651744Y-91596398D01*
X195697598Y-91438569D01*
X195700500Y-91401694D01*
X195700500Y-91056000D01*
X195720185Y-90988961D01*
X195772989Y-90943206D01*
X195824500Y-90932000D01*
X195834000Y-90932000D01*
X195834000Y-87757000D01*
X195821128Y-87757000D01*
X195754089Y-87737315D01*
X195708334Y-87684511D01*
X195698156Y-87626932D01*
X195697295Y-87626000D01*
X194424000Y-87626000D01*
X194356961Y-87606315D01*
X194311206Y-87553511D01*
X194300000Y-87502000D01*
X194300000Y-87250000D01*
X194319685Y-87182961D01*
X194372489Y-87137206D01*
X194424000Y-87126000D01*
X195697295Y-87126000D01*
X195697295Y-87125998D01*
X195697100Y-87123513D01*
X195651281Y-86965801D01*
X195609540Y-86895221D01*
X195592357Y-86827498D01*
X195614517Y-86761235D01*
X195668983Y-86717471D01*
X195716272Y-86708100D01*
X196675266Y-86708100D01*
X196675268Y-86708100D01*
X196828402Y-86667067D01*
X196965698Y-86587800D01*
X197077800Y-86475698D01*
X198347800Y-85205698D01*
X198405308Y-85106090D01*
X198427067Y-85068402D01*
X198468100Y-84915268D01*
X198468100Y-81326760D01*
X198487785Y-81259721D01*
X198504419Y-81239079D01*
X199892541Y-79850957D01*
X201429468Y-78314029D01*
X201490789Y-78280546D01*
X201560481Y-78285530D01*
G37*
G04 #@! TD.AperFunction*
G04 #@! TA.AperFunction,Conductor*
G36*
X208155709Y-75534300D02*
G01*
X208200057Y-75562801D01*
X208276581Y-75639325D01*
X208310066Y-75700648D01*
X208312900Y-75727006D01*
X208312900Y-90631240D01*
X208293215Y-90698279D01*
X208276581Y-90718921D01*
X207833612Y-91161889D01*
X207772289Y-91195374D01*
X207702597Y-91190390D01*
X207646664Y-91148518D01*
X207622247Y-91083054D01*
X207637099Y-91014781D01*
X207640393Y-91009109D01*
X207661357Y-90975121D01*
X207661358Y-90975119D01*
X207716505Y-90808697D01*
X207716506Y-90808690D01*
X207726999Y-90705986D01*
X207727000Y-90705973D01*
X207727000Y-90568500D01*
X206752000Y-90568500D01*
X206752000Y-91405999D01*
X207026972Y-91405999D01*
X207026986Y-91405998D01*
X207129697Y-91395505D01*
X207296119Y-91340358D01*
X207296121Y-91340357D01*
X207330109Y-91319393D01*
X207397502Y-91300952D01*
X207464165Y-91321873D01*
X207508936Y-91375515D01*
X207517598Y-91444845D01*
X207487403Y-91507853D01*
X207482889Y-91512612D01*
X206527821Y-92467681D01*
X206466498Y-92501166D01*
X206440140Y-92504000D01*
X205424500Y-92504000D01*
X205357461Y-92484315D01*
X205311706Y-92431511D01*
X205300500Y-92380000D01*
X205300500Y-92240313D01*
X205300499Y-92240298D01*
X205297598Y-92203432D01*
X205297597Y-92203426D01*
X205251745Y-92045606D01*
X205251744Y-92045603D01*
X205251744Y-92045602D01*
X205168081Y-91904135D01*
X205168078Y-91904132D01*
X205163298Y-91897969D01*
X205165750Y-91896066D01*
X205139155Y-91847421D01*
X205144104Y-91777726D01*
X205164940Y-91745304D01*
X205163298Y-91744031D01*
X205168075Y-91737870D01*
X205168081Y-91737865D01*
X205251744Y-91596398D01*
X205297598Y-91438569D01*
X205300500Y-91401694D01*
X205300500Y-91289523D01*
X205320185Y-91222484D01*
X205372989Y-91176729D01*
X205442147Y-91166785D01*
X205505703Y-91195810D01*
X205512181Y-91201842D01*
X205558654Y-91248315D01*
X205707875Y-91340356D01*
X205707880Y-91340358D01*
X205874302Y-91395505D01*
X205874309Y-91395506D01*
X205977019Y-91405999D01*
X206251999Y-91405999D01*
X206252000Y-91405998D01*
X206252000Y-90442500D01*
X206271685Y-90375461D01*
X206324489Y-90329706D01*
X206376000Y-90318500D01*
X206502000Y-90318500D01*
X206502000Y-90192500D01*
X206521685Y-90125461D01*
X206574489Y-90079706D01*
X206626000Y-90068500D01*
X207726999Y-90068500D01*
X207726999Y-89931028D01*
X207726998Y-89931013D01*
X207716505Y-89828302D01*
X207661358Y-89661880D01*
X207661356Y-89661875D01*
X207569315Y-89512654D01*
X207445344Y-89388683D01*
X207445341Y-89388681D01*
X207442339Y-89386829D01*
X207440713Y-89385021D01*
X207439677Y-89384202D01*
X207439817Y-89384024D01*
X207395617Y-89334880D01*
X207384397Y-89265917D01*
X207412243Y-89201836D01*
X207442344Y-89175754D01*
X207445656Y-89173712D01*
X207569712Y-89049656D01*
X207661814Y-88900334D01*
X207716999Y-88733797D01*
X207727500Y-88631009D01*
X207727499Y-87855992D01*
X207716999Y-87753203D01*
X207661814Y-87586666D01*
X207569712Y-87437344D01*
X207445656Y-87313288D01*
X207296334Y-87221186D01*
X207129797Y-87166001D01*
X207129795Y-87166000D01*
X207027010Y-87155500D01*
X205976998Y-87155500D01*
X205976980Y-87155501D01*
X205874203Y-87166000D01*
X205874200Y-87166001D01*
X205707668Y-87221185D01*
X205707663Y-87221187D01*
X205558342Y-87313289D01*
X205512181Y-87359451D01*
X205450858Y-87392936D01*
X205381166Y-87387952D01*
X205325233Y-87346080D01*
X205300816Y-87280616D01*
X205300500Y-87271770D01*
X205300500Y-87160313D01*
X205300499Y-87160298D01*
X205300121Y-87155500D01*
X205297598Y-87123431D01*
X205251744Y-86965602D01*
X205168081Y-86824135D01*
X205168078Y-86824132D01*
X205163298Y-86817969D01*
X205165750Y-86816066D01*
X205139155Y-86767421D01*
X205144104Y-86697726D01*
X205164940Y-86665304D01*
X205163298Y-86664031D01*
X205168075Y-86657870D01*
X205168081Y-86657865D01*
X205251744Y-86516398D01*
X205297598Y-86358569D01*
X205300500Y-86321694D01*
X205300500Y-85890306D01*
X205297598Y-85853431D01*
X205251744Y-85695602D01*
X205168081Y-85554135D01*
X205168078Y-85554132D01*
X205163298Y-85547969D01*
X205165750Y-85546066D01*
X205139155Y-85497421D01*
X205144104Y-85427726D01*
X205164940Y-85395304D01*
X205163298Y-85394031D01*
X205168075Y-85387870D01*
X205168081Y-85387865D01*
X205251744Y-85246398D01*
X205297598Y-85088569D01*
X205300500Y-85051694D01*
X205300500Y-84620306D01*
X205297598Y-84583431D01*
X205296018Y-84577993D01*
X205251745Y-84425606D01*
X205251744Y-84425603D01*
X205251744Y-84425602D01*
X205168081Y-84284135D01*
X205168078Y-84284132D01*
X205163298Y-84277969D01*
X205165750Y-84276066D01*
X205139155Y-84227421D01*
X205144104Y-84157726D01*
X205164940Y-84125304D01*
X205163298Y-84124031D01*
X205168075Y-84117870D01*
X205168081Y-84117865D01*
X205251744Y-83976398D01*
X205297598Y-83818569D01*
X205300500Y-83781694D01*
X205300500Y-83769183D01*
X205320185Y-83702144D01*
X205372989Y-83656389D01*
X205410611Y-83645963D01*
X205462055Y-83640168D01*
X205632322Y-83580589D01*
X205785062Y-83484616D01*
X205912616Y-83357062D01*
X206008589Y-83204322D01*
X206068168Y-83034055D01*
X206069550Y-83021788D01*
X206088365Y-82854803D01*
X206088365Y-82854796D01*
X206068169Y-82675550D01*
X206068168Y-82675545D01*
X206039046Y-82592319D01*
X206008589Y-82505278D01*
X205912616Y-82352538D01*
X205785062Y-82224984D01*
X205632321Y-82129010D01*
X205462052Y-82069431D01*
X205462047Y-82069430D01*
X205381974Y-82060408D01*
X205317560Y-82033341D01*
X205278005Y-81975746D01*
X205276781Y-81971780D01*
X205270291Y-81949439D01*
X205270492Y-81879569D01*
X205308436Y-81820900D01*
X205348411Y-81797806D01*
X205479922Y-81751789D01*
X205632662Y-81655816D01*
X205760216Y-81528262D01*
X205856189Y-81375522D01*
X205915768Y-81205255D01*
X205915769Y-81205249D01*
X205935965Y-81026003D01*
X205935965Y-81025996D01*
X205915769Y-80846750D01*
X205915768Y-80846745D01*
X205894109Y-80784848D01*
X205856189Y-80676478D01*
X205852619Y-80670797D01*
X205783984Y-80561565D01*
X205760216Y-80523738D01*
X205632662Y-80396184D01*
X205624412Y-80391000D01*
X205479923Y-80300211D01*
X205348413Y-80254194D01*
X205291637Y-80213472D01*
X205265890Y-80148519D01*
X205270292Y-80102557D01*
X205297597Y-80008573D01*
X205297598Y-80008567D01*
X205300500Y-79971694D01*
X205300500Y-79540306D01*
X205297598Y-79503431D01*
X205251744Y-79345602D01*
X205168081Y-79204135D01*
X205168078Y-79204132D01*
X205163298Y-79197969D01*
X205165750Y-79196066D01*
X205139155Y-79147421D01*
X205144104Y-79077726D01*
X205164940Y-79045304D01*
X205163298Y-79044031D01*
X205168075Y-79037870D01*
X205168081Y-79037865D01*
X205251744Y-78896398D01*
X205297598Y-78738569D01*
X205300500Y-78701694D01*
X205300500Y-78270306D01*
X205297598Y-78233431D01*
X205251744Y-78075602D01*
X205168081Y-77934135D01*
X205168079Y-77934133D01*
X205168076Y-77934129D01*
X205051870Y-77817923D01*
X205051862Y-77817917D01*
X204926281Y-77743649D01*
X204910398Y-77734256D01*
X204910397Y-77734255D01*
X204910396Y-77734255D01*
X204910393Y-77734254D01*
X204752573Y-77688402D01*
X204752567Y-77688401D01*
X204715701Y-77685500D01*
X204715694Y-77685500D01*
X203084306Y-77685500D01*
X203084298Y-77685500D01*
X203047432Y-77688401D01*
X203047426Y-77688402D01*
X202889607Y-77734254D01*
X202889600Y-77734257D01*
X202873718Y-77743649D01*
X202805993Y-77760828D01*
X202769646Y-77753956D01*
X202617254Y-77700631D01*
X202617249Y-77700630D01*
X202438004Y-77680435D01*
X202437996Y-77680435D01*
X202367595Y-77688367D01*
X202298773Y-77676312D01*
X202247394Y-77628963D01*
X202229770Y-77561353D01*
X202251497Y-77494947D01*
X202266026Y-77477471D01*
X203413079Y-76330419D01*
X203474402Y-76296934D01*
X203500760Y-76294100D01*
X207123265Y-76294100D01*
X207123267Y-76294100D01*
X207276401Y-76253067D01*
X207413697Y-76173800D01*
X207525799Y-76061698D01*
X208024695Y-75562800D01*
X208086018Y-75529316D01*
X208155709Y-75534300D01*
G37*
G04 #@! TD.AperFunction*
G04 #@! TA.AperFunction,Conductor*
G36*
X197177654Y-81615951D02*
G01*
X197235518Y-81655113D01*
X197263023Y-81719341D01*
X197263900Y-81734064D01*
X197263900Y-84535240D01*
X197244215Y-84602279D01*
X197227581Y-84622921D01*
X196382921Y-85467581D01*
X196321598Y-85501066D01*
X196295240Y-85503900D01*
X195716853Y-85503900D01*
X195649814Y-85484215D01*
X195604059Y-85431411D01*
X195594115Y-85362253D01*
X195610121Y-85316779D01*
X195611249Y-85314871D01*
X195651744Y-85246398D01*
X195697598Y-85088569D01*
X195700500Y-85051694D01*
X195700500Y-84620306D01*
X195697598Y-84583431D01*
X195696018Y-84577993D01*
X195651745Y-84425606D01*
X195651744Y-84425603D01*
X195651744Y-84425602D01*
X195568081Y-84284135D01*
X195568078Y-84284132D01*
X195563298Y-84277969D01*
X195565750Y-84276066D01*
X195539155Y-84227421D01*
X195544104Y-84157726D01*
X195564940Y-84125304D01*
X195563298Y-84124031D01*
X195568075Y-84117870D01*
X195568081Y-84117865D01*
X195651744Y-83976398D01*
X195697598Y-83818569D01*
X195700500Y-83781694D01*
X195700500Y-83350306D01*
X195697598Y-83313431D01*
X195681904Y-83259414D01*
X195651745Y-83155606D01*
X195651744Y-83155603D01*
X195651744Y-83155602D01*
X195568081Y-83014135D01*
X195568078Y-83014132D01*
X195563298Y-83007969D01*
X195565750Y-83006066D01*
X195539155Y-82957421D01*
X195544104Y-82887726D01*
X195564940Y-82855304D01*
X195563298Y-82854031D01*
X195568075Y-82847870D01*
X195568081Y-82847865D01*
X195651744Y-82706398D01*
X195697598Y-82548569D01*
X195700500Y-82511694D01*
X195700500Y-82080306D01*
X195697598Y-82043431D01*
X195697182Y-82042000D01*
X195651745Y-81885606D01*
X195651744Y-81885603D01*
X195651744Y-81885602D01*
X195610121Y-81815221D01*
X195592938Y-81747497D01*
X195615098Y-81681234D01*
X195669564Y-81637471D01*
X195716853Y-81628100D01*
X197056267Y-81628100D01*
X197056268Y-81628100D01*
X197107806Y-81614290D01*
X197177654Y-81615951D01*
G37*
G04 #@! TD.AperFunction*
G04 #@! TA.AperFunction,Conductor*
G36*
X211624738Y-75421182D02*
G01*
X211677814Y-75466621D01*
X211697898Y-75533542D01*
X211697900Y-75534281D01*
X211697900Y-76134517D01*
X211678215Y-76201556D01*
X211638998Y-76240054D01*
X211572655Y-76280975D01*
X211541342Y-76300289D01*
X211417289Y-76424342D01*
X211325187Y-76573663D01*
X211325186Y-76573666D01*
X211284779Y-76695608D01*
X211282806Y-76701561D01*
X211243033Y-76759006D01*
X211178517Y-76785829D01*
X211109742Y-76773514D01*
X211058542Y-76725971D01*
X211041100Y-76662557D01*
X211041100Y-75646243D01*
X211041100Y-75646242D01*
X211039700Y-75641017D01*
X211041359Y-75571170D01*
X211080518Y-75513305D01*
X211143287Y-75485981D01*
X211256762Y-75471044D01*
X211278200Y-75462163D01*
X211347668Y-75454694D01*
X211373106Y-75462163D01*
X211393365Y-75470554D01*
X211393377Y-75470558D01*
X211449999Y-75478011D01*
X211492140Y-75441054D01*
X211555521Y-75411651D01*
X211624738Y-75421182D01*
G37*
G04 #@! TD.AperFunction*
G04 #@! TA.AperFunction,Conductor*
G36*
X201925679Y-73806685D02*
G01*
X201971434Y-73859489D01*
X201981378Y-73928647D01*
X201952353Y-73992203D01*
X201946321Y-73998681D01*
X199980181Y-75964820D01*
X199918858Y-75998305D01*
X199849166Y-75993321D01*
X199793233Y-75951449D01*
X199768816Y-75885985D01*
X199768500Y-75877139D01*
X199768500Y-74416500D01*
X199788185Y-74349461D01*
X199840989Y-74303706D01*
X199892500Y-74292500D01*
X200235917Y-74292500D01*
X200253899Y-74292179D01*
X200253909Y-74292178D01*
X200253944Y-74292178D01*
X200262790Y-74291862D01*
X200280807Y-74290896D01*
X200421399Y-74260312D01*
X200486863Y-74235895D01*
X200613138Y-74166944D01*
X200714878Y-74065207D01*
X200756750Y-74009274D01*
X200756756Y-74009266D01*
X200825709Y-73882985D01*
X200825710Y-73882980D01*
X200828807Y-73874678D01*
X200830454Y-73875292D01*
X200858827Y-73823325D01*
X200920148Y-73789836D01*
X200946514Y-73787000D01*
X201858640Y-73787000D01*
X201925679Y-73806685D01*
G37*
G04 #@! TD.AperFunction*
G04 #@! TA.AperFunction,Conductor*
G36*
X220262404Y-54864694D02*
G01*
X220578975Y-54882476D01*
X220592781Y-54884032D01*
X220901942Y-54936563D01*
X220915493Y-54939657D01*
X221216811Y-55026468D01*
X221229928Y-55031057D01*
X221460866Y-55126718D01*
X221519650Y-55151068D01*
X221532178Y-55157102D01*
X221683719Y-55240857D01*
X221806621Y-55308783D01*
X221818393Y-55316180D01*
X222048039Y-55479125D01*
X222074136Y-55497642D01*
X222085007Y-55506312D01*
X222318823Y-55715265D01*
X222328656Y-55725098D01*
X222537607Y-55958917D01*
X222546277Y-55969788D01*
X222727734Y-56225530D01*
X222735132Y-56237304D01*
X222886817Y-56511760D01*
X222892850Y-56524289D01*
X223012847Y-56813990D01*
X223017440Y-56827114D01*
X223041006Y-56908913D01*
X223040649Y-56978782D01*
X223002576Y-57037367D01*
X222938873Y-57066067D01*
X222869766Y-57055771D01*
X222817196Y-57009748D01*
X222812296Y-57001323D01*
X222795779Y-56970168D01*
X222594966Y-56673992D01*
X222467557Y-56523995D01*
X222467556Y-56523994D01*
X221258250Y-57733299D01*
X221184412Y-57631670D01*
X221006330Y-57453588D01*
X220904697Y-57379747D01*
X222116743Y-56167703D01*
X222116742Y-56167702D01*
X222103514Y-56155171D01*
X222103513Y-56155170D01*
X221818632Y-55938611D01*
X221818629Y-55938609D01*
X221512009Y-55754123D01*
X221187260Y-55603877D01*
X221187255Y-55603876D01*
X220848144Y-55489616D01*
X220498660Y-55412688D01*
X220142924Y-55374000D01*
X219785075Y-55374000D01*
X219429339Y-55412688D01*
X219079855Y-55489616D01*
X218740744Y-55603876D01*
X218740739Y-55603877D01*
X218415990Y-55754123D01*
X218109370Y-55938609D01*
X218109367Y-55938611D01*
X217824491Y-56155166D01*
X217811256Y-56167703D01*
X217811255Y-56167703D01*
X219023301Y-57379748D01*
X218921670Y-57453588D01*
X218743588Y-57631670D01*
X218669748Y-57733301D01*
X217460442Y-56523994D01*
X217460441Y-56523995D01*
X217333040Y-56673983D01*
X217333033Y-56673993D01*
X217132218Y-56970172D01*
X216964606Y-57286322D01*
X216964597Y-57286340D01*
X216832149Y-57618760D01*
X216832147Y-57618767D01*
X216736421Y-57963542D01*
X216736415Y-57963568D01*
X216678527Y-58316668D01*
X216678526Y-58316685D01*
X216659153Y-58673997D01*
X216659153Y-58674002D01*
X216678526Y-59031314D01*
X216678527Y-59031331D01*
X216736415Y-59384431D01*
X216736421Y-59384457D01*
X216832147Y-59729232D01*
X216832149Y-59729239D01*
X216964597Y-60061659D01*
X216964606Y-60061677D01*
X217132218Y-60377827D01*
X217333033Y-60674007D01*
X217460441Y-60824003D01*
X217460442Y-60824004D01*
X218669748Y-59614698D01*
X218743588Y-59716330D01*
X218921670Y-59894412D01*
X219023300Y-59968251D01*
X217811255Y-61180295D01*
X217811256Y-61180296D01*
X217816725Y-61185477D01*
X217851858Y-61245871D01*
X217848762Y-61315672D01*
X217808421Y-61372719D01*
X217743642Y-61398899D01*
X217731453Y-61399500D01*
X217686000Y-61399500D01*
X217685980Y-61399501D01*
X217583203Y-61410000D01*
X217583200Y-61410001D01*
X217416668Y-61465185D01*
X217416659Y-61465189D01*
X217289095Y-61543871D01*
X217221703Y-61562311D01*
X217155039Y-61541388D01*
X217110270Y-61487746D01*
X217099999Y-61438332D01*
X217099999Y-61338028D01*
X217099998Y-61338013D01*
X217089505Y-61235302D01*
X217034358Y-61068880D01*
X217034356Y-61068875D01*
X216942315Y-60919654D01*
X216818345Y-60795684D01*
X216669124Y-60703643D01*
X216669119Y-60703641D01*
X216502697Y-60648494D01*
X216502690Y-60648493D01*
X216399986Y-60638000D01*
X216150000Y-60638000D01*
X216150000Y-61614000D01*
X216130315Y-61681039D01*
X216077511Y-61726794D01*
X216026000Y-61738000D01*
X215900000Y-61738000D01*
X215900000Y-61864000D01*
X215880315Y-61931039D01*
X215827511Y-61976794D01*
X215776000Y-61988000D01*
X214658862Y-61988000D01*
X214591823Y-61968315D01*
X214571181Y-61951681D01*
X214570000Y-61950500D01*
X213738000Y-61950500D01*
X213670961Y-61930815D01*
X213625206Y-61878011D01*
X213614000Y-61826500D01*
X213614000Y-61700500D01*
X213488000Y-61700500D01*
X213420961Y-61680815D01*
X213375206Y-61628011D01*
X213364000Y-61576500D01*
X213364000Y-61450500D01*
X213864000Y-61450500D01*
X214880138Y-61450500D01*
X214947177Y-61470185D01*
X214967819Y-61486819D01*
X214969000Y-61488000D01*
X215650000Y-61488000D01*
X215650000Y-60638000D01*
X215400029Y-60638000D01*
X215400012Y-60638001D01*
X215297302Y-60648494D01*
X215130880Y-60703641D01*
X215130875Y-60703643D01*
X214981657Y-60795682D01*
X214868758Y-60908581D01*
X214807435Y-60942065D01*
X214737743Y-60937081D01*
X214686452Y-60899734D01*
X214686424Y-60899763D01*
X214686239Y-60899578D01*
X214683812Y-60897811D01*
X214681317Y-60894656D01*
X214557345Y-60770684D01*
X214408124Y-60678643D01*
X214408119Y-60678641D01*
X214241697Y-60623494D01*
X214241690Y-60623493D01*
X214138986Y-60613000D01*
X213864000Y-60613000D01*
X213864000Y-61450500D01*
X213364000Y-61450500D01*
X213364000Y-60613000D01*
X213089029Y-60613000D01*
X213089012Y-60613001D01*
X212986300Y-60623494D01*
X212984403Y-60624123D01*
X212983163Y-60624165D01*
X212979681Y-60624911D01*
X212979548Y-60624289D01*
X212914575Y-60626523D01*
X212854534Y-60590789D01*
X212823344Y-60528268D01*
X212824390Y-60490160D01*
X212822862Y-60489996D01*
X212824625Y-60473598D01*
X212830100Y-60422673D01*
X212830099Y-59026928D01*
X212823691Y-58967317D01*
X212786430Y-58867417D01*
X212781447Y-58797727D01*
X212786431Y-58780751D01*
X212823197Y-58682176D01*
X212823198Y-58682172D01*
X212829599Y-58622644D01*
X212829600Y-58622627D01*
X212829600Y-57226972D01*
X212829599Y-57226955D01*
X212823198Y-57167427D01*
X212823196Y-57167420D01*
X212772954Y-57032713D01*
X212772950Y-57032706D01*
X212686790Y-56917612D01*
X212686787Y-56917609D01*
X212571693Y-56831449D01*
X212571686Y-56831445D01*
X212436979Y-56781203D01*
X212436972Y-56781201D01*
X212377444Y-56774800D01*
X212189599Y-56774800D01*
X212181588Y-56794138D01*
X212182178Y-56795218D01*
X212177194Y-56864910D01*
X212148693Y-56909257D01*
X211044056Y-58013894D01*
X210982733Y-58047379D01*
X210913041Y-58042395D01*
X210868694Y-58013894D01*
X210779600Y-57924800D01*
X210690505Y-58013895D01*
X210629182Y-58047380D01*
X210559490Y-58042396D01*
X210515143Y-58013895D01*
X209410505Y-56909257D01*
X209377020Y-56847934D01*
X209380387Y-56800844D01*
X209369600Y-56774800D01*
X209983151Y-56774800D01*
X210779599Y-57571247D01*
X211576047Y-56774800D01*
X209983151Y-56774800D01*
X209369600Y-56774800D01*
X209181755Y-56774800D01*
X209122227Y-56781201D01*
X209122220Y-56781203D01*
X208987513Y-56831445D01*
X208987506Y-56831449D01*
X208872412Y-56917609D01*
X208872409Y-56917612D01*
X208786249Y-57032706D01*
X208786245Y-57032713D01*
X208736003Y-57167420D01*
X208736001Y-57167427D01*
X208729600Y-57226955D01*
X208729600Y-57513093D01*
X208709915Y-57580132D01*
X208657111Y-57625887D01*
X208587953Y-57635831D01*
X208566596Y-57630799D01*
X208399697Y-57575494D01*
X208399690Y-57575493D01*
X208296986Y-57565000D01*
X208022000Y-57565000D01*
X208022000Y-58528500D01*
X208002315Y-58595539D01*
X207949511Y-58641294D01*
X207898000Y-58652500D01*
X207772000Y-58652500D01*
X207772000Y-58778500D01*
X207752315Y-58845539D01*
X207699511Y-58891294D01*
X207648000Y-58902500D01*
X206547001Y-58902500D01*
X206547001Y-59039986D01*
X206557494Y-59142697D01*
X206612641Y-59309119D01*
X206612643Y-59309124D01*
X206704684Y-59458345D01*
X206828655Y-59582316D01*
X206828659Y-59582319D01*
X206831656Y-59584168D01*
X206833279Y-59585972D01*
X206834323Y-59586798D01*
X206834181Y-59586976D01*
X206878381Y-59636116D01*
X206889602Y-59705079D01*
X206861759Y-59769161D01*
X206831661Y-59795241D01*
X206828349Y-59797283D01*
X206828343Y-59797288D01*
X206720352Y-59905278D01*
X206659029Y-59938762D01*
X206618789Y-59940816D01*
X206451204Y-59921935D01*
X206451196Y-59921935D01*
X206271950Y-59942130D01*
X206271945Y-59942131D01*
X206101676Y-60001711D01*
X205948937Y-60097684D01*
X205821384Y-60225237D01*
X205725411Y-60377976D01*
X205665831Y-60548245D01*
X205665830Y-60548250D01*
X205645635Y-60727496D01*
X205645635Y-60727503D01*
X205665830Y-60906749D01*
X205665831Y-60906754D01*
X205725411Y-61077023D01*
X205798182Y-61192836D01*
X205821384Y-61229762D01*
X205948938Y-61357316D01*
X206101678Y-61453289D01*
X206246316Y-61503900D01*
X206271945Y-61512868D01*
X206271950Y-61512869D01*
X206451196Y-61533065D01*
X206451200Y-61533065D01*
X206451204Y-61533065D01*
X206618790Y-61514183D01*
X206687612Y-61526238D01*
X206720354Y-61549722D01*
X206828344Y-61657712D01*
X206866163Y-61681039D01*
X206871783Y-61684505D01*
X206918508Y-61736452D01*
X206929731Y-61805415D01*
X206901888Y-61869497D01*
X206845692Y-61907750D01*
X206723666Y-61948186D01*
X206723663Y-61948187D01*
X206574344Y-62040288D01*
X206513879Y-62100752D01*
X206452555Y-62134236D01*
X206382864Y-62129250D01*
X206338518Y-62100750D01*
X206303057Y-62065289D01*
X206303056Y-62065288D01*
X206193539Y-61997738D01*
X206153736Y-61973187D01*
X206153731Y-61973185D01*
X206139034Y-61968315D01*
X205987197Y-61918001D01*
X205987195Y-61918000D01*
X205884410Y-61907500D01*
X204884398Y-61907500D01*
X204884380Y-61907501D01*
X204781603Y-61918000D01*
X204781600Y-61918001D01*
X204615068Y-61973185D01*
X204615063Y-61973187D01*
X204465742Y-62065289D01*
X204341689Y-62189342D01*
X204249587Y-62338663D01*
X204249585Y-62338668D01*
X204239839Y-62368079D01*
X204194401Y-62505203D01*
X204194401Y-62505204D01*
X204194400Y-62505204D01*
X204183900Y-62607983D01*
X204183900Y-63408001D01*
X204183901Y-63408019D01*
X204194400Y-63510796D01*
X204194401Y-63510799D01*
X204234808Y-63632737D01*
X204249586Y-63677334D01*
X204316289Y-63785478D01*
X204341689Y-63826657D01*
X204435351Y-63920319D01*
X204468836Y-63981642D01*
X204463852Y-64051334D01*
X204435351Y-64095681D01*
X204341689Y-64189342D01*
X204249587Y-64338663D01*
X204249585Y-64338668D01*
X204228286Y-64402946D01*
X204194401Y-64505203D01*
X204194401Y-64505204D01*
X204194400Y-64505204D01*
X204183900Y-64607983D01*
X204183900Y-65408001D01*
X204183901Y-65408019D01*
X204194400Y-65510796D01*
X204194401Y-65510799D01*
X204240137Y-65648818D01*
X204249586Y-65677334D01*
X204341688Y-65826656D01*
X204465744Y-65950712D01*
X204615066Y-66042814D01*
X204781603Y-66097999D01*
X204884391Y-66108500D01*
X205884408Y-66108499D01*
X205884416Y-66108498D01*
X205884419Y-66108498D01*
X205940702Y-66102748D01*
X205987197Y-66097999D01*
X206153734Y-66042814D01*
X206303056Y-65950712D01*
X206338519Y-65915248D01*
X206399839Y-65881764D01*
X206469531Y-65886748D01*
X206513880Y-65915248D01*
X206574344Y-65975712D01*
X206723666Y-66067814D01*
X206890203Y-66122999D01*
X206992991Y-66133500D01*
X208043008Y-66133499D01*
X208043016Y-66133498D01*
X208043019Y-66133498D01*
X208099302Y-66127748D01*
X208145797Y-66122999D01*
X208312334Y-66067814D01*
X208461656Y-65975712D01*
X208585712Y-65851656D01*
X208677814Y-65702334D01*
X208690363Y-65664462D01*
X208730133Y-65607018D01*
X208746062Y-65596082D01*
X208865198Y-65527300D01*
X208886219Y-65506279D01*
X208947542Y-65472794D01*
X209017234Y-65477778D01*
X209073167Y-65519650D01*
X209097584Y-65585114D01*
X209097900Y-65593960D01*
X209097900Y-67237716D01*
X209078215Y-67304755D01*
X209025411Y-67350510D01*
X208956253Y-67360454D01*
X208892697Y-67331429D01*
X208892142Y-67330945D01*
X208850000Y-67293987D01*
X208793370Y-67301443D01*
X208773103Y-67309838D01*
X208703633Y-67317304D01*
X208678203Y-67309837D01*
X208656762Y-67300956D01*
X208656760Y-67300955D01*
X208539361Y-67285500D01*
X208260636Y-67285500D01*
X208143246Y-67300953D01*
X208143234Y-67300957D01*
X208122450Y-67309566D01*
X208052981Y-67317033D01*
X208027550Y-67309566D01*
X208006765Y-67300957D01*
X208006760Y-67300955D01*
X207889361Y-67285500D01*
X207610636Y-67285500D01*
X207493246Y-67300953D01*
X207493234Y-67300957D01*
X207472450Y-67309566D01*
X207402981Y-67317033D01*
X207377550Y-67309566D01*
X207356765Y-67300957D01*
X207356760Y-67300955D01*
X207239361Y-67285500D01*
X206960636Y-67285500D01*
X206843246Y-67300953D01*
X206843234Y-67300957D01*
X206822450Y-67309566D01*
X206752981Y-67317033D01*
X206727550Y-67309566D01*
X206706765Y-67300957D01*
X206706760Y-67300955D01*
X206589361Y-67285500D01*
X206310636Y-67285500D01*
X206193246Y-67300953D01*
X206193237Y-67300956D01*
X206047160Y-67361463D01*
X205921718Y-67457718D01*
X205825463Y-67583160D01*
X205764956Y-67729237D01*
X205764955Y-67729239D01*
X205752770Y-67821797D01*
X205749500Y-67846639D01*
X205749500Y-68483668D01*
X205749501Y-68996900D01*
X205729816Y-69063939D01*
X205677013Y-69109694D01*
X205625501Y-69120900D01*
X205563683Y-69120900D01*
X205496644Y-69101215D01*
X205450889Y-69048411D01*
X205440325Y-69009501D01*
X205433839Y-68946008D01*
X205430999Y-68918203D01*
X205375814Y-68751666D01*
X205283712Y-68602344D01*
X205159656Y-68478288D01*
X205047320Y-68408999D01*
X205010336Y-68386187D01*
X205010331Y-68386185D01*
X205008862Y-68385698D01*
X204843797Y-68331001D01*
X204843795Y-68331000D01*
X204741016Y-68320500D01*
X203869106Y-68320500D01*
X203802067Y-68300815D01*
X203756312Y-68248011D01*
X203746368Y-68178853D01*
X203763566Y-68131406D01*
X203851814Y-67988334D01*
X203906999Y-67821797D01*
X203917500Y-67719009D01*
X203917499Y-66943992D01*
X203916618Y-66935372D01*
X203906999Y-66841203D01*
X203906998Y-66841200D01*
X203869238Y-66727249D01*
X203851814Y-66674666D01*
X203759712Y-66525344D01*
X203635656Y-66401288D01*
X203632342Y-66399243D01*
X203630546Y-66397248D01*
X203629989Y-66396807D01*
X203630064Y-66396711D01*
X203585618Y-66347297D01*
X203574397Y-66278334D01*
X203602240Y-66214252D01*
X203632348Y-66188165D01*
X203635342Y-66186318D01*
X203759315Y-66062345D01*
X203851356Y-65913124D01*
X203851358Y-65913119D01*
X203906505Y-65746697D01*
X203906506Y-65746690D01*
X203916999Y-65643986D01*
X203917000Y-65643973D01*
X203917000Y-65506500D01*
X202816000Y-65506500D01*
X202748961Y-65486815D01*
X202703206Y-65434011D01*
X202692000Y-65382500D01*
X202692000Y-65256500D01*
X202566000Y-65256500D01*
X202498961Y-65236815D01*
X202453206Y-65184011D01*
X202442000Y-65132500D01*
X202442000Y-65006500D01*
X202942000Y-65006500D01*
X203916999Y-65006500D01*
X203916999Y-64869028D01*
X203916998Y-64869013D01*
X203906505Y-64766302D01*
X203851358Y-64599880D01*
X203851356Y-64599875D01*
X203759315Y-64450654D01*
X203635345Y-64326684D01*
X203486124Y-64234643D01*
X203486119Y-64234641D01*
X203319697Y-64179494D01*
X203319690Y-64179493D01*
X203216986Y-64169000D01*
X202942000Y-64169000D01*
X202942000Y-65006500D01*
X202442000Y-65006500D01*
X202442000Y-64169000D01*
X202167029Y-64169000D01*
X202167012Y-64169001D01*
X202064302Y-64179494D01*
X201897880Y-64234641D01*
X201897875Y-64234643D01*
X201748654Y-64326684D01*
X201624680Y-64450658D01*
X201620356Y-64456127D01*
X201563332Y-64496501D01*
X201493532Y-64499636D01*
X201448779Y-64478474D01*
X201438064Y-64470452D01*
X201396195Y-64414517D01*
X201391214Y-64344825D01*
X201395338Y-64330234D01*
X201445366Y-64187262D01*
X201445369Y-64187249D01*
X201465565Y-64008003D01*
X201465565Y-64007996D01*
X201445369Y-63828750D01*
X201445368Y-63828745D01*
X201430228Y-63785478D01*
X201385789Y-63658478D01*
X201369615Y-63632738D01*
X201292996Y-63510799D01*
X201289816Y-63505738D01*
X201162262Y-63378184D01*
X201097570Y-63337535D01*
X201009523Y-63282211D01*
X200839254Y-63222631D01*
X200839249Y-63222630D01*
X200660004Y-63202435D01*
X200659996Y-63202435D01*
X200480750Y-63222630D01*
X200480745Y-63222631D01*
X200310476Y-63282211D01*
X200157737Y-63378184D01*
X200030184Y-63505737D01*
X199934211Y-63658476D01*
X199874631Y-63828745D01*
X199874630Y-63828750D01*
X199854435Y-64007996D01*
X199854435Y-64008003D01*
X199874630Y-64187249D01*
X199874633Y-64187262D01*
X199924662Y-64330234D01*
X199928224Y-64400013D01*
X199893496Y-64460640D01*
X199881933Y-64470455D01*
X199802452Y-64529955D01*
X199716206Y-64645164D01*
X199716202Y-64645171D01*
X199665908Y-64780017D01*
X199659501Y-64839616D01*
X199659501Y-64839623D01*
X199659500Y-64839635D01*
X199659500Y-66935370D01*
X199659501Y-66935376D01*
X199665908Y-66994983D01*
X199716202Y-67129828D01*
X199716206Y-67129835D01*
X199802452Y-67245044D01*
X199802455Y-67245047D01*
X199917664Y-67331293D01*
X199917671Y-67331297D01*
X200052517Y-67381591D01*
X200052516Y-67381591D01*
X200059444Y-67382335D01*
X200112127Y-67388000D01*
X201207872Y-67387999D01*
X201267483Y-67381591D01*
X201299166Y-67369773D01*
X201368856Y-67364788D01*
X201430180Y-67398272D01*
X201463666Y-67459595D01*
X201466500Y-67485954D01*
X201466500Y-67719000D01*
X201466501Y-67719019D01*
X201477000Y-67821796D01*
X201477001Y-67821799D01*
X201532185Y-67988331D01*
X201532187Y-67988336D01*
X201599925Y-68098157D01*
X201624288Y-68137656D01*
X201624292Y-68137660D01*
X201624748Y-68138236D01*
X201624940Y-68138712D01*
X201628080Y-68143803D01*
X201627210Y-68144339D01*
X201650892Y-68203030D01*
X201637856Y-68271673D01*
X201615170Y-68302832D01*
X201596321Y-68321680D01*
X201535001Y-68355166D01*
X201508640Y-68358000D01*
X200720298Y-68358000D01*
X200683432Y-68360901D01*
X200683426Y-68360902D01*
X200525606Y-68406754D01*
X200525603Y-68406755D01*
X200384137Y-68490417D01*
X200384129Y-68490423D01*
X200267923Y-68606629D01*
X200267917Y-68606637D01*
X200184255Y-68748103D01*
X200184254Y-68748106D01*
X200138402Y-68905926D01*
X200138401Y-68905932D01*
X200135500Y-68942798D01*
X200135500Y-69374201D01*
X200138401Y-69411067D01*
X200138402Y-69411073D01*
X200184254Y-69568893D01*
X200184255Y-69568896D01*
X200184256Y-69568898D01*
X200196311Y-69589282D01*
X200267917Y-69710362D01*
X200272702Y-69716531D01*
X200270256Y-69718427D01*
X200296857Y-69767142D01*
X200291873Y-69836834D01*
X200271069Y-69869203D01*
X200272702Y-69870469D01*
X200267917Y-69876637D01*
X200184255Y-70018103D01*
X200184254Y-70018106D01*
X200138402Y-70175926D01*
X200138401Y-70175932D01*
X200135500Y-70212798D01*
X200135500Y-70644201D01*
X200138401Y-70681067D01*
X200138402Y-70681073D01*
X200184254Y-70838893D01*
X200184255Y-70838896D01*
X200267917Y-70980362D01*
X200272702Y-70986531D01*
X200270369Y-70988340D01*
X200297210Y-71037495D01*
X200292226Y-71107187D01*
X200271470Y-71139521D01*
X200273097Y-71140783D01*
X200268313Y-71146949D01*
X200184718Y-71288301D01*
X200138899Y-71446013D01*
X200138704Y-71448498D01*
X200138705Y-71448500D01*
X202861000Y-71448500D01*
X202861000Y-71357500D01*
X202880685Y-71290461D01*
X202933489Y-71244706D01*
X202985000Y-71233500D01*
X205440999Y-71233500D01*
X205440999Y-71096028D01*
X205440998Y-71096013D01*
X205435530Y-71042486D01*
X213405001Y-71042486D01*
X213415494Y-71145197D01*
X213470641Y-71311619D01*
X213470643Y-71311624D01*
X213562684Y-71460845D01*
X213686654Y-71584815D01*
X213835875Y-71676856D01*
X213835880Y-71676858D01*
X214002302Y-71732005D01*
X214002309Y-71732006D01*
X214105019Y-71742499D01*
X214379999Y-71742499D01*
X214380000Y-71742498D01*
X214380000Y-70905000D01*
X213405001Y-70905000D01*
X213405001Y-71042486D01*
X205435530Y-71042486D01*
X205430505Y-70993302D01*
X205375358Y-70826880D01*
X205375356Y-70826875D01*
X205283315Y-70677654D01*
X205159344Y-70553683D01*
X205153677Y-70549202D01*
X205154765Y-70547825D01*
X205114169Y-70502692D01*
X205102946Y-70433730D01*
X205130789Y-70369647D01*
X205188857Y-70330790D01*
X205225990Y-70325100D01*
X209967265Y-70325100D01*
X209967267Y-70325100D01*
X210120401Y-70284067D01*
X210257697Y-70204800D01*
X210369799Y-70092698D01*
X210676780Y-69785716D01*
X210738098Y-69752235D01*
X210780641Y-69750462D01*
X210799999Y-69753010D01*
X210800000Y-69753010D01*
X210800000Y-69713859D01*
X210819685Y-69646820D01*
X210827235Y-69637453D01*
X210826846Y-69637154D01*
X210832582Y-69629677D01*
X210855480Y-69606777D01*
X210878282Y-69589282D01*
X210951940Y-69493289D01*
X210977624Y-69459817D01*
X211034052Y-69418614D01*
X211103798Y-69414459D01*
X211164718Y-69448671D01*
X211197471Y-69510388D01*
X211200000Y-69535303D01*
X211200000Y-69753010D01*
X211200001Y-69753011D01*
X211256622Y-69745558D01*
X211256631Y-69745555D01*
X211277547Y-69736892D01*
X211347017Y-69729423D01*
X211372453Y-69736892D01*
X211393368Y-69745555D01*
X211393377Y-69745558D01*
X211449998Y-69753011D01*
X211450000Y-69753010D01*
X211450000Y-69535302D01*
X211469685Y-69468263D01*
X211522489Y-69422508D01*
X211591647Y-69412564D01*
X211655203Y-69441589D01*
X211672376Y-69459816D01*
X211675463Y-69463839D01*
X211675464Y-69463841D01*
X211771718Y-69589282D01*
X211801485Y-69612123D01*
X211842688Y-69668548D01*
X211850000Y-69710499D01*
X211850000Y-69753010D01*
X211906631Y-69745555D01*
X211926887Y-69737165D01*
X211996356Y-69729693D01*
X212021798Y-69737163D01*
X212043238Y-69746044D01*
X212160639Y-69761500D01*
X212439360Y-69761499D01*
X212439363Y-69761499D01*
X212556753Y-69746046D01*
X212556757Y-69746044D01*
X212556762Y-69746044D01*
X212702841Y-69685536D01*
X212828282Y-69589282D01*
X212924536Y-69463841D01*
X212985044Y-69317762D01*
X212995698Y-69236836D01*
X212996149Y-69233414D01*
X213024416Y-69169518D01*
X213082741Y-69131047D01*
X213119088Y-69125600D01*
X213343786Y-69125600D01*
X213410825Y-69145285D01*
X213456580Y-69198089D01*
X213461489Y-69210590D01*
X213470186Y-69236834D01*
X213562288Y-69386156D01*
X213686344Y-69510212D01*
X213689628Y-69512237D01*
X213689653Y-69512253D01*
X213691445Y-69514246D01*
X213692011Y-69514693D01*
X213691934Y-69514789D01*
X213736379Y-69564199D01*
X213747603Y-69633161D01*
X213719761Y-69697244D01*
X213689665Y-69723326D01*
X213686660Y-69725179D01*
X213686655Y-69725183D01*
X213562684Y-69849154D01*
X213470643Y-69998375D01*
X213470641Y-69998380D01*
X213415494Y-70164802D01*
X213415493Y-70164809D01*
X213405000Y-70267513D01*
X213405000Y-70405000D01*
X215928638Y-70405000D01*
X215945666Y-70410000D01*
X217046000Y-70410000D01*
X217113039Y-70429685D01*
X217158794Y-70482489D01*
X217170000Y-70534000D01*
X217170000Y-70786000D01*
X217150315Y-70853039D01*
X217097511Y-70898794D01*
X217046000Y-70910000D01*
X215871362Y-70910000D01*
X215854334Y-70905000D01*
X214880000Y-70905000D01*
X214880000Y-71742499D01*
X215154972Y-71742499D01*
X215154986Y-71742498D01*
X215257697Y-71732005D01*
X215424119Y-71676858D01*
X215424124Y-71676856D01*
X215573345Y-71584815D01*
X215697315Y-71460845D01*
X215793149Y-71305475D01*
X215795891Y-71307166D01*
X215832509Y-71265487D01*
X215899681Y-71246261D01*
X215966585Y-71266403D01*
X216005525Y-71311292D01*
X216006851Y-71310475D01*
X216102684Y-71465845D01*
X216226654Y-71589815D01*
X216375875Y-71681856D01*
X216375880Y-71681858D01*
X216542302Y-71737005D01*
X216542309Y-71737006D01*
X216645019Y-71747499D01*
X216887775Y-71747499D01*
X216954815Y-71767183D01*
X217000570Y-71819987D01*
X217010996Y-71857617D01*
X217013869Y-71883118D01*
X217001814Y-71951939D01*
X216954464Y-72003318D01*
X216890649Y-72021000D01*
X216644999Y-72021000D01*
X216644980Y-72021001D01*
X216542203Y-72031500D01*
X216542200Y-72031501D01*
X216375668Y-72086685D01*
X216375659Y-72086690D01*
X216325644Y-72117539D01*
X216260548Y-72136000D01*
X215597558Y-72136000D01*
X215532462Y-72117539D01*
X215474340Y-72081689D01*
X215474335Y-72081687D01*
X215474334Y-72081686D01*
X215307797Y-72026501D01*
X215307795Y-72026500D01*
X215205010Y-72016000D01*
X214154998Y-72016000D01*
X214154980Y-72016001D01*
X214052203Y-72026500D01*
X214052200Y-72026501D01*
X213885668Y-72081685D01*
X213885659Y-72081689D01*
X213827538Y-72117539D01*
X213762442Y-72136000D01*
X205548443Y-72136000D01*
X205481404Y-72116315D01*
X205435649Y-72063511D01*
X205425705Y-71994353D01*
X205429839Y-71976809D01*
X205430506Y-71973694D01*
X205440999Y-71870986D01*
X205441000Y-71870973D01*
X205441000Y-71733500D01*
X204466000Y-71733500D01*
X204466000Y-72570999D01*
X204497638Y-72570999D01*
X204564677Y-72590684D01*
X204610432Y-72643488D01*
X204620376Y-72712646D01*
X204591351Y-72776202D01*
X204585319Y-72782680D01*
X203617319Y-73750681D01*
X203555996Y-73784166D01*
X203529638Y-73787000D01*
X202986102Y-73787000D01*
X202919063Y-73767315D01*
X202873308Y-73714511D01*
X202863364Y-73645353D01*
X202892389Y-73581797D01*
X202898421Y-73575319D01*
X202953678Y-73520061D01*
X202953685Y-73520052D01*
X203037281Y-73378698D01*
X203083100Y-73220986D01*
X203083295Y-73218501D01*
X203083295Y-73218500D01*
X200138705Y-73218500D01*
X200138704Y-73218501D01*
X200138899Y-73220986D01*
X200184718Y-73378698D01*
X200268314Y-73520052D01*
X200268321Y-73520061D01*
X200323579Y-73575319D01*
X200357064Y-73636642D01*
X200352080Y-73706334D01*
X200310208Y-73762267D01*
X200244744Y-73786684D01*
X200235898Y-73787000D01*
X199263000Y-73787000D01*
X199263000Y-76076000D01*
X199243315Y-76143039D01*
X199190511Y-76188794D01*
X199139000Y-76200000D01*
X192720100Y-76200000D01*
X192653061Y-76180315D01*
X192612713Y-76137999D01*
X192531004Y-75996474D01*
X192530998Y-75996466D01*
X191605518Y-75070986D01*
X192323001Y-75070986D01*
X192333494Y-75173697D01*
X192388641Y-75340119D01*
X192388643Y-75340124D01*
X192480684Y-75489345D01*
X192604654Y-75613315D01*
X192753875Y-75705356D01*
X192753880Y-75705358D01*
X192920302Y-75760505D01*
X192920309Y-75760506D01*
X193023019Y-75770999D01*
X193297999Y-75770999D01*
X193798000Y-75770999D01*
X194072972Y-75770999D01*
X194072986Y-75770998D01*
X194175697Y-75760505D01*
X194342119Y-75705358D01*
X194342124Y-75705356D01*
X194491345Y-75613315D01*
X194615315Y-75489345D01*
X194707356Y-75340124D01*
X194707358Y-75340119D01*
X194762505Y-75173697D01*
X194762506Y-75173690D01*
X194772999Y-75070986D01*
X194773000Y-75070973D01*
X194773000Y-74933500D01*
X193798000Y-74933500D01*
X193798000Y-75770999D01*
X193297999Y-75770999D01*
X193298000Y-75770998D01*
X193298000Y-74933500D01*
X192323001Y-74933500D01*
X192323001Y-75070986D01*
X191605518Y-75070986D01*
X191519419Y-74984887D01*
X191485934Y-74923564D01*
X191483100Y-74897206D01*
X191483100Y-74514622D01*
X191502785Y-74447583D01*
X191542004Y-74409083D01*
X191579222Y-74386127D01*
X191683656Y-74321712D01*
X191807712Y-74197656D01*
X191899814Y-74048334D01*
X191954999Y-73881797D01*
X191965500Y-73779009D01*
X191965499Y-72778992D01*
X191959319Y-72718498D01*
X191954999Y-72676203D01*
X191954998Y-72676200D01*
X191935945Y-72618703D01*
X191899814Y-72509666D01*
X191807712Y-72360344D01*
X191683656Y-72236288D01*
X191658842Y-72220983D01*
X192322500Y-72220983D01*
X192322500Y-72996001D01*
X192322501Y-72996019D01*
X192333000Y-73098796D01*
X192333001Y-73098799D01*
X192388185Y-73265331D01*
X192388187Y-73265336D01*
X192423069Y-73321888D01*
X192480288Y-73414656D01*
X192604344Y-73538712D01*
X192607628Y-73540737D01*
X192607653Y-73540753D01*
X192609445Y-73542746D01*
X192610011Y-73543193D01*
X192609934Y-73543289D01*
X192654379Y-73592699D01*
X192665603Y-73661661D01*
X192637761Y-73725744D01*
X192607665Y-73751826D01*
X192604660Y-73753679D01*
X192604655Y-73753683D01*
X192480684Y-73877654D01*
X192388643Y-74026875D01*
X192388641Y-74026880D01*
X192333494Y-74193302D01*
X192333493Y-74193309D01*
X192323000Y-74296013D01*
X192323000Y-74433500D01*
X194772999Y-74433500D01*
X194772999Y-74296028D01*
X194772998Y-74296013D01*
X194762505Y-74193302D01*
X194707358Y-74026880D01*
X194707356Y-74026875D01*
X194615315Y-73877654D01*
X194491344Y-73753683D01*
X194491341Y-73753681D01*
X194488339Y-73751829D01*
X194486713Y-73750021D01*
X194485677Y-73749202D01*
X194485817Y-73749024D01*
X194441617Y-73699880D01*
X194430397Y-73630917D01*
X194458243Y-73566836D01*
X194488344Y-73540754D01*
X194491656Y-73538712D01*
X194615712Y-73414656D01*
X194707814Y-73265334D01*
X194723333Y-73218501D01*
X195188704Y-73218501D01*
X195188899Y-73220986D01*
X195234718Y-73378698D01*
X195318314Y-73520052D01*
X195318321Y-73520061D01*
X195434438Y-73636178D01*
X195434447Y-73636185D01*
X195575803Y-73719782D01*
X195575806Y-73719783D01*
X195733504Y-73765599D01*
X195733510Y-73765600D01*
X195770350Y-73768499D01*
X195770366Y-73768500D01*
X196411000Y-73768500D01*
X196911000Y-73768500D01*
X197551634Y-73768500D01*
X197551649Y-73768499D01*
X197588489Y-73765600D01*
X197588495Y-73765599D01*
X197746193Y-73719783D01*
X197746196Y-73719782D01*
X197887552Y-73636185D01*
X197887561Y-73636178D01*
X198003678Y-73520061D01*
X198003685Y-73520052D01*
X198087281Y-73378698D01*
X198133100Y-73220986D01*
X198133295Y-73218501D01*
X198133295Y-73218500D01*
X196911000Y-73218500D01*
X196911000Y-73768500D01*
X196411000Y-73768500D01*
X196411000Y-73218500D01*
X195188705Y-73218500D01*
X195188704Y-73218501D01*
X194723333Y-73218501D01*
X194762999Y-73098797D01*
X194773500Y-72996009D01*
X194773499Y-72623496D01*
X194793183Y-72556458D01*
X194845987Y-72510703D01*
X194911382Y-72500277D01*
X194935656Y-72503012D01*
X194944999Y-72504065D01*
X194945000Y-72504065D01*
X194945002Y-72504065D01*
X194985512Y-72499500D01*
X195075952Y-72489310D01*
X195144773Y-72501364D01*
X195196152Y-72548713D01*
X195213777Y-72616323D01*
X195208912Y-72647123D01*
X195188900Y-72716008D01*
X195188899Y-72716011D01*
X195188704Y-72718498D01*
X195188705Y-72718500D01*
X198133295Y-72718500D01*
X198133295Y-72718498D01*
X198133100Y-72716013D01*
X198087281Y-72558301D01*
X198003685Y-72416947D01*
X197998900Y-72410778D01*
X198001366Y-72408864D01*
X197974802Y-72360276D01*
X197979749Y-72290582D01*
X198000856Y-72257732D01*
X197999301Y-72256526D01*
X198004077Y-72250368D01*
X198004081Y-72250365D01*
X198087744Y-72108898D01*
X198133425Y-71951666D01*
X198133597Y-71951073D01*
X198133598Y-71951067D01*
X198133800Y-71948501D01*
X200138704Y-71948501D01*
X200138899Y-71950986D01*
X200184718Y-72108698D01*
X200268314Y-72250052D01*
X200273100Y-72256222D01*
X200270753Y-72258042D01*
X200297564Y-72307142D01*
X200292580Y-72376834D01*
X200271541Y-72409569D01*
X200273100Y-72410778D01*
X200268314Y-72416947D01*
X200184718Y-72558301D01*
X200138899Y-72716013D01*
X200138704Y-72718498D01*
X200138705Y-72718500D01*
X201361000Y-72718500D01*
X201361000Y-71948500D01*
X201861000Y-71948500D01*
X201861000Y-72718500D01*
X203083295Y-72718500D01*
X203083295Y-72718498D01*
X203083100Y-72716013D01*
X203037281Y-72558301D01*
X202986415Y-72472291D01*
X202969232Y-72404567D01*
X202991392Y-72338305D01*
X203045858Y-72294541D01*
X203115338Y-72287172D01*
X203177772Y-72318536D01*
X203180828Y-72321489D01*
X203272654Y-72413315D01*
X203421875Y-72505356D01*
X203421880Y-72505358D01*
X203588302Y-72560505D01*
X203588309Y-72560506D01*
X203691019Y-72570999D01*
X203965999Y-72570999D01*
X203966000Y-72570998D01*
X203966000Y-71733500D01*
X203216000Y-71733500D01*
X203216000Y-71824500D01*
X203196315Y-71891539D01*
X203143511Y-71937294D01*
X203092000Y-71948500D01*
X201861000Y-71948500D01*
X201361000Y-71948500D01*
X200138705Y-71948500D01*
X200138704Y-71948501D01*
X198133800Y-71948501D01*
X198136500Y-71914194D01*
X198136500Y-71482806D01*
X198133598Y-71445931D01*
X198123876Y-71412469D01*
X198087745Y-71288106D01*
X198087744Y-71288103D01*
X198087744Y-71288102D01*
X198004081Y-71146635D01*
X198004078Y-71146632D01*
X197999298Y-71140469D01*
X198001635Y-71138655D01*
X197974798Y-71089550D01*
X197979756Y-71019856D01*
X198000554Y-70987498D01*
X197998903Y-70986217D01*
X198003686Y-70980050D01*
X198087281Y-70838698D01*
X198133100Y-70680986D01*
X198133295Y-70678501D01*
X198133295Y-70678500D01*
X195188705Y-70678500D01*
X195188704Y-70678501D01*
X195188899Y-70680988D01*
X195188900Y-70680991D01*
X195208912Y-70749876D01*
X195208711Y-70819745D01*
X195170768Y-70878415D01*
X195107130Y-70907257D01*
X195075952Y-70907689D01*
X194945004Y-70892935D01*
X194944997Y-70892935D01*
X194858236Y-70902710D01*
X194789414Y-70890655D01*
X194779439Y-70883500D01*
X192323001Y-70883500D01*
X192323001Y-71020986D01*
X192333494Y-71123697D01*
X192388641Y-71290119D01*
X192388643Y-71290124D01*
X192480684Y-71439345D01*
X192574304Y-71532965D01*
X192607789Y-71594288D01*
X192602805Y-71663980D01*
X192574305Y-71708327D01*
X192480287Y-71802345D01*
X192388187Y-71951663D01*
X192388185Y-71951668D01*
X192379854Y-71976809D01*
X192333001Y-72118203D01*
X192333001Y-72118204D01*
X192333000Y-72118204D01*
X192322500Y-72220983D01*
X191658842Y-72220983D01*
X191534334Y-72144186D01*
X191367797Y-72089001D01*
X191367795Y-72089000D01*
X191265016Y-72078500D01*
X191132000Y-72078500D01*
X191064961Y-72058815D01*
X191019206Y-72006011D01*
X191008000Y-71954500D01*
X191008000Y-67503212D01*
X191027685Y-67436173D01*
X191080489Y-67390418D01*
X191103492Y-67382534D01*
X191107483Y-67381591D01*
X191164154Y-67360454D01*
X191242331Y-67331296D01*
X191357546Y-67245046D01*
X191443796Y-67129831D01*
X191494091Y-66994983D01*
X191500500Y-66935373D01*
X191500499Y-64839628D01*
X191494091Y-64780017D01*
X191491404Y-64772814D01*
X191443797Y-64645171D01*
X191443793Y-64645164D01*
X191365118Y-64540069D01*
X191357546Y-64529954D01*
X191313279Y-64496816D01*
X191271410Y-64440884D01*
X191266426Y-64371192D01*
X191270544Y-64356618D01*
X191285368Y-64314255D01*
X191294338Y-64234643D01*
X191305565Y-64135003D01*
X191305565Y-64134996D01*
X191285369Y-63955750D01*
X191285368Y-63955745D01*
X191263543Y-63893373D01*
X191225789Y-63785478D01*
X191129816Y-63632738D01*
X191044319Y-63547241D01*
X191010834Y-63485918D01*
X191008000Y-63459560D01*
X191008000Y-62956100D01*
X191027685Y-62889061D01*
X191080489Y-62843306D01*
X191132000Y-62832100D01*
X192121740Y-62832100D01*
X192188779Y-62851785D01*
X192209421Y-62868419D01*
X192617214Y-63276212D01*
X192650699Y-63337535D01*
X192645715Y-63407227D01*
X192603843Y-63463160D01*
X192595512Y-63468881D01*
X192571443Y-63484005D01*
X192537737Y-63505184D01*
X192410184Y-63632737D01*
X192314211Y-63785476D01*
X192254631Y-63955745D01*
X192254630Y-63955750D01*
X192234435Y-64134996D01*
X192234435Y-64135003D01*
X192254630Y-64314249D01*
X192254632Y-64314257D01*
X192269448Y-64356598D01*
X192273009Y-64426376D01*
X192238280Y-64487004D01*
X192226718Y-64496818D01*
X192182452Y-64529955D01*
X192096206Y-64645164D01*
X192096202Y-64645171D01*
X192045908Y-64780017D01*
X192039501Y-64839616D01*
X192039501Y-64839623D01*
X192039500Y-64839635D01*
X192039500Y-66935370D01*
X192039501Y-66935376D01*
X192045908Y-66994983D01*
X192096202Y-67129828D01*
X192096206Y-67129835D01*
X192182452Y-67245044D01*
X192182455Y-67245047D01*
X192297664Y-67331293D01*
X192297671Y-67331297D01*
X192432517Y-67381591D01*
X192432516Y-67381591D01*
X192439444Y-67382335D01*
X192492127Y-67388000D01*
X192556675Y-67387999D01*
X192623712Y-67407683D01*
X192669468Y-67460486D01*
X192679412Y-67529644D01*
X192650388Y-67593200D01*
X192621775Y-67617535D01*
X192604346Y-67628285D01*
X192480289Y-67752342D01*
X192388187Y-67901663D01*
X192388185Y-67901668D01*
X192372109Y-67950184D01*
X192333001Y-68068203D01*
X192333001Y-68068204D01*
X192333000Y-68068204D01*
X192322500Y-68170983D01*
X192322500Y-68946001D01*
X192322501Y-68946019D01*
X192333000Y-69048796D01*
X192333001Y-69048799D01*
X192388185Y-69215331D01*
X192388187Y-69215336D01*
X192399338Y-69233414D01*
X192480288Y-69364656D01*
X192604344Y-69488712D01*
X192607628Y-69490737D01*
X192607653Y-69490753D01*
X192609445Y-69492746D01*
X192610011Y-69493193D01*
X192609934Y-69493289D01*
X192654379Y-69542699D01*
X192665603Y-69611661D01*
X192637761Y-69675744D01*
X192607665Y-69701826D01*
X192604660Y-69703679D01*
X192604655Y-69703683D01*
X192480684Y-69827654D01*
X192388643Y-69976875D01*
X192388641Y-69976880D01*
X192333494Y-70143302D01*
X192333493Y-70143309D01*
X192323000Y-70246013D01*
X192323000Y-70383500D01*
X194772999Y-70383500D01*
X194772999Y-70246028D01*
X194772998Y-70246013D01*
X194762505Y-70143302D01*
X194754675Y-70119671D01*
X194752273Y-70049843D01*
X194788005Y-69989801D01*
X194850525Y-69958608D01*
X194886263Y-69957447D01*
X194915038Y-69960689D01*
X194944998Y-69964065D01*
X194945000Y-69964065D01*
X194945002Y-69964065D01*
X194985512Y-69959500D01*
X195075952Y-69949310D01*
X195144773Y-69961364D01*
X195196152Y-70008713D01*
X195213777Y-70076323D01*
X195208912Y-70107123D01*
X195188900Y-70176008D01*
X195188899Y-70176011D01*
X195188704Y-70178498D01*
X195188705Y-70178500D01*
X198133295Y-70178500D01*
X198133295Y-70178498D01*
X198133100Y-70176013D01*
X198087281Y-70018301D01*
X198003685Y-69876947D01*
X197998900Y-69870778D01*
X198001366Y-69868864D01*
X197974802Y-69820276D01*
X197979749Y-69750582D01*
X198000856Y-69717732D01*
X197999301Y-69716526D01*
X198004077Y-69710368D01*
X198004081Y-69710365D01*
X198087744Y-69568898D01*
X198133598Y-69411069D01*
X198136500Y-69374194D01*
X198136500Y-68942806D01*
X198133598Y-68905931D01*
X198087744Y-68748102D01*
X198004081Y-68606635D01*
X198004079Y-68606633D01*
X198004076Y-68606629D01*
X197887870Y-68490423D01*
X197887862Y-68490417D01*
X197767945Y-68419499D01*
X197746398Y-68406756D01*
X197746397Y-68406755D01*
X197746396Y-68406755D01*
X197746393Y-68406754D01*
X197588573Y-68360902D01*
X197588567Y-68360901D01*
X197551701Y-68358000D01*
X197551694Y-68358000D01*
X195770306Y-68358000D01*
X195770298Y-68358000D01*
X195733432Y-68360901D01*
X195733426Y-68360902D01*
X195575606Y-68406754D01*
X195575605Y-68406754D01*
X195474601Y-68466487D01*
X195406877Y-68483668D01*
X195345510Y-68464748D01*
X195294520Y-68432709D01*
X195124262Y-68373133D01*
X195124249Y-68373130D01*
X194945004Y-68352935D01*
X194944995Y-68352935D01*
X194911381Y-68356722D01*
X194842559Y-68344667D01*
X194791180Y-68297317D01*
X194773499Y-68233502D01*
X194773499Y-68170998D01*
X194773498Y-68170981D01*
X194762999Y-68068203D01*
X194762998Y-68068200D01*
X194707814Y-67901666D01*
X194615712Y-67752344D01*
X194491656Y-67628288D01*
X194342334Y-67536186D01*
X194175797Y-67481001D01*
X194175795Y-67481000D01*
X194073016Y-67470500D01*
X193968934Y-67470500D01*
X193901895Y-67450815D01*
X193856140Y-67398011D01*
X193846196Y-67328853D01*
X193875221Y-67265297D01*
X193894620Y-67247235D01*
X193897546Y-67245046D01*
X193983796Y-67129831D01*
X194034091Y-66994983D01*
X194040500Y-66935373D01*
X194040499Y-64998858D01*
X194060184Y-64931820D01*
X194112987Y-64886065D01*
X194182146Y-64876121D01*
X194245702Y-64905146D01*
X194252180Y-64911178D01*
X194543181Y-65202179D01*
X194576666Y-65263502D01*
X194579500Y-65289860D01*
X194579500Y-66935370D01*
X194579501Y-66935376D01*
X194585908Y-66994983D01*
X194636202Y-67129828D01*
X194636206Y-67129835D01*
X194722452Y-67245044D01*
X194722455Y-67245047D01*
X194837664Y-67331293D01*
X194837671Y-67331297D01*
X194972517Y-67381591D01*
X194972516Y-67381591D01*
X194979444Y-67382335D01*
X195032127Y-67388000D01*
X196127872Y-67387999D01*
X196187483Y-67381591D01*
X196322331Y-67331296D01*
X196437546Y-67245046D01*
X196523796Y-67129831D01*
X196574091Y-66994983D01*
X196580500Y-66935373D01*
X196580499Y-65498858D01*
X196600184Y-65431820D01*
X196652987Y-65386065D01*
X196722146Y-65376121D01*
X196785702Y-65405146D01*
X196792180Y-65411178D01*
X197083181Y-65702179D01*
X197116666Y-65763502D01*
X197119500Y-65789860D01*
X197119500Y-66935370D01*
X197119501Y-66935376D01*
X197125908Y-66994983D01*
X197176202Y-67129828D01*
X197176206Y-67129835D01*
X197262452Y-67245044D01*
X197262455Y-67245047D01*
X197377664Y-67331293D01*
X197377671Y-67331297D01*
X197512517Y-67381591D01*
X197512516Y-67381591D01*
X197519444Y-67382335D01*
X197572127Y-67388000D01*
X198667872Y-67387999D01*
X198727483Y-67381591D01*
X198862331Y-67331296D01*
X198977546Y-67245046D01*
X199063796Y-67129831D01*
X199114091Y-66994983D01*
X199120500Y-66935373D01*
X199120499Y-64839628D01*
X199114091Y-64780017D01*
X199111404Y-64772814D01*
X199063797Y-64645171D01*
X199063793Y-64645164D01*
X198977547Y-64529955D01*
X198977544Y-64529952D01*
X198862335Y-64443706D01*
X198862328Y-64443702D01*
X198727482Y-64393408D01*
X198727483Y-64393408D01*
X198667883Y-64387001D01*
X198667881Y-64387000D01*
X198667873Y-64387000D01*
X198667864Y-64387000D01*
X197572129Y-64387000D01*
X197572123Y-64387001D01*
X197539799Y-64390476D01*
X197471040Y-64378069D01*
X197438865Y-64354867D01*
X193308199Y-60224201D01*
X193308198Y-60224200D01*
X193170902Y-60144933D01*
X193170903Y-60144933D01*
X193119857Y-60131255D01*
X193017768Y-60103900D01*
X191132000Y-60103900D01*
X191064961Y-60084215D01*
X191019206Y-60031411D01*
X191008000Y-59979900D01*
X191008000Y-58265013D01*
X206547000Y-58265013D01*
X206547000Y-58402500D01*
X207522000Y-58402500D01*
X207522000Y-57565000D01*
X207247029Y-57565000D01*
X207247012Y-57565001D01*
X207144302Y-57575494D01*
X206977880Y-57630641D01*
X206977875Y-57630643D01*
X206828654Y-57722684D01*
X206704684Y-57846654D01*
X206612643Y-57995875D01*
X206612641Y-57995880D01*
X206557494Y-58162302D01*
X206557493Y-58162309D01*
X206547000Y-58265013D01*
X191008000Y-58265013D01*
X191008000Y-54988500D01*
X191027685Y-54921461D01*
X191080489Y-54875706D01*
X191132000Y-54864500D01*
X220255451Y-54864500D01*
X220262404Y-54864694D01*
G37*
G04 #@! TD.AperFunction*
G04 #@! TA.AperFunction,Conductor*
G36*
X222467556Y-60824003D02*
G01*
X222594964Y-60674008D01*
X222594975Y-60673994D01*
X222795777Y-60377834D01*
X222945880Y-60094710D01*
X222994674Y-60044701D01*
X223062759Y-60029009D01*
X223128519Y-60052619D01*
X223171076Y-60108032D01*
X223179436Y-60152793D01*
X223179436Y-63770635D01*
X223159751Y-63837674D01*
X223106947Y-63883429D01*
X223037789Y-63893373D01*
X222989464Y-63875629D01*
X222853523Y-63790211D01*
X222683254Y-63730631D01*
X222683249Y-63730630D01*
X222504004Y-63710435D01*
X222503996Y-63710435D01*
X222324750Y-63730630D01*
X222324745Y-63730631D01*
X222154476Y-63790211D01*
X222001737Y-63886184D01*
X221874184Y-64013737D01*
X221778211Y-64166476D01*
X221718631Y-64336745D01*
X221718630Y-64336750D01*
X221698435Y-64515996D01*
X221698435Y-64516003D01*
X221718630Y-64695249D01*
X221718631Y-64695254D01*
X221778211Y-64865523D01*
X221825749Y-64941178D01*
X221874184Y-65018262D01*
X222001738Y-65145816D01*
X222154478Y-65241789D01*
X222324745Y-65301368D01*
X222324750Y-65301369D01*
X222503996Y-65321565D01*
X222504000Y-65321565D01*
X222504004Y-65321565D01*
X222683249Y-65301369D01*
X222683252Y-65301368D01*
X222683255Y-65301368D01*
X222853522Y-65241789D01*
X222989464Y-65156370D01*
X223056700Y-65137370D01*
X223123535Y-65157737D01*
X223168750Y-65211005D01*
X223179436Y-65261364D01*
X223179436Y-65802635D01*
X223159751Y-65869674D01*
X223106947Y-65915429D01*
X223037789Y-65925373D01*
X222989464Y-65907629D01*
X222853523Y-65822211D01*
X222683254Y-65762631D01*
X222683249Y-65762630D01*
X222504004Y-65742435D01*
X222503996Y-65742435D01*
X222324750Y-65762630D01*
X222324745Y-65762631D01*
X222154476Y-65822211D01*
X222001737Y-65918184D01*
X221874184Y-66045737D01*
X221778211Y-66198476D01*
X221718631Y-66368745D01*
X221718630Y-66368750D01*
X221698435Y-66547996D01*
X221698435Y-66548003D01*
X221718630Y-66727249D01*
X221718631Y-66727254D01*
X221778211Y-66897523D01*
X221817813Y-66960548D01*
X221874184Y-67050262D01*
X222001738Y-67177816D01*
X222084785Y-67229998D01*
X222119331Y-67251705D01*
X222154478Y-67273789D01*
X222257500Y-67309838D01*
X222324745Y-67333368D01*
X222324750Y-67333369D01*
X222503996Y-67353565D01*
X222504000Y-67353565D01*
X222504004Y-67353565D01*
X222683249Y-67333369D01*
X222683252Y-67333368D01*
X222683255Y-67333368D01*
X222853522Y-67273789D01*
X222888669Y-67251705D01*
X222923215Y-67229998D01*
X222989464Y-67188370D01*
X223056700Y-67169370D01*
X223123535Y-67189737D01*
X223168750Y-67243005D01*
X223179436Y-67293364D01*
X223179436Y-67834635D01*
X223159751Y-67901674D01*
X223106947Y-67947429D01*
X223037789Y-67957373D01*
X222989464Y-67939629D01*
X222853523Y-67854211D01*
X222683254Y-67794631D01*
X222683249Y-67794630D01*
X222504004Y-67774435D01*
X222503996Y-67774435D01*
X222324750Y-67794630D01*
X222324745Y-67794631D01*
X222154476Y-67854211D01*
X222001737Y-67950184D01*
X221874184Y-68077737D01*
X221778211Y-68230476D01*
X221718631Y-68400745D01*
X221718630Y-68400750D01*
X221698435Y-68579996D01*
X221698435Y-68580003D01*
X221718630Y-68759249D01*
X221718631Y-68759254D01*
X221778211Y-68929523D01*
X221853158Y-69048799D01*
X221874184Y-69082262D01*
X222001738Y-69209816D01*
X222154478Y-69305789D01*
X222318881Y-69363316D01*
X222324745Y-69365368D01*
X222324750Y-69365369D01*
X222503996Y-69385565D01*
X222504000Y-69385565D01*
X222504004Y-69385565D01*
X222683249Y-69365369D01*
X222683252Y-69365368D01*
X222683255Y-69365368D01*
X222853522Y-69305789D01*
X222989464Y-69220370D01*
X223056700Y-69201370D01*
X223123535Y-69221737D01*
X223168750Y-69275005D01*
X223179436Y-69325364D01*
X223179436Y-69866635D01*
X223159751Y-69933674D01*
X223106947Y-69979429D01*
X223037789Y-69989373D01*
X222989464Y-69971629D01*
X222853523Y-69886211D01*
X222683254Y-69826631D01*
X222683249Y-69826630D01*
X222504004Y-69806435D01*
X222503996Y-69806435D01*
X222324750Y-69826630D01*
X222324745Y-69826631D01*
X222154476Y-69886211D01*
X222001737Y-69982184D01*
X221874184Y-70109737D01*
X221778210Y-70262478D01*
X221718630Y-70432750D01*
X221713917Y-70474582D01*
X221686850Y-70538996D01*
X221629254Y-70578550D01*
X221604582Y-70583917D01*
X221562748Y-70588630D01*
X221432612Y-70634166D01*
X221362833Y-70637727D01*
X221302206Y-70602997D01*
X221269980Y-70541004D01*
X221268439Y-70531006D01*
X221257369Y-70432750D01*
X221257368Y-70432745D01*
X221197788Y-70262476D01*
X221158582Y-70200080D01*
X221101816Y-70109738D01*
X220974262Y-69982184D01*
X220936741Y-69958608D01*
X220821523Y-69886211D01*
X220651254Y-69826631D01*
X220651249Y-69826630D01*
X220472004Y-69806435D01*
X220471996Y-69806435D01*
X220292750Y-69826630D01*
X220292745Y-69826631D01*
X220122476Y-69886211D01*
X219969737Y-69982184D01*
X219842184Y-70109737D01*
X219746211Y-70262476D01*
X219686631Y-70432745D01*
X219686630Y-70432750D01*
X219666435Y-70611996D01*
X219666435Y-70612003D01*
X219686630Y-70791249D01*
X219686631Y-70791254D01*
X219746211Y-70961523D01*
X219831074Y-71096581D01*
X219842184Y-71114262D01*
X219969738Y-71241816D01*
X220122478Y-71337789D01*
X220225963Y-71374000D01*
X220292745Y-71397368D01*
X220292750Y-71397369D01*
X220471996Y-71417565D01*
X220472000Y-71417565D01*
X220472004Y-71417565D01*
X220651249Y-71397369D01*
X220651252Y-71397368D01*
X220651255Y-71397368D01*
X220651256Y-71397367D01*
X220651259Y-71397367D01*
X220695905Y-71381743D01*
X220729637Y-71369940D01*
X220799415Y-71366378D01*
X220860043Y-71401107D01*
X220892270Y-71463100D01*
X220885866Y-71532675D01*
X220869859Y-71561293D01*
X220802204Y-71651668D01*
X220802202Y-71651671D01*
X220751908Y-71786517D01*
X220745501Y-71846116D01*
X220745500Y-71846135D01*
X220745500Y-72012000D01*
X220725815Y-72079039D01*
X220673011Y-72124794D01*
X220621500Y-72136000D01*
X219469107Y-72136000D01*
X219428152Y-72129042D01*
X219381254Y-72112631D01*
X219381249Y-72112630D01*
X219202004Y-72092435D01*
X219201996Y-72092435D01*
X219022750Y-72112630D01*
X219022745Y-72112631D01*
X218975848Y-72129042D01*
X218934893Y-72136000D01*
X218694537Y-72136000D01*
X218627498Y-72116315D01*
X218581743Y-72063511D01*
X218571799Y-71994353D01*
X218577495Y-71971046D01*
X218586607Y-71945000D01*
X218590368Y-71934255D01*
X218592628Y-71914201D01*
X218610565Y-71755003D01*
X218610565Y-71754996D01*
X218590369Y-71575753D01*
X218590368Y-71575749D01*
X218590368Y-71575745D01*
X218578864Y-71542870D01*
X218575302Y-71473097D01*
X218610030Y-71412469D01*
X218654952Y-71384877D01*
X218686037Y-71374000D01*
X218789522Y-71337789D01*
X218942262Y-71241816D01*
X219069816Y-71114262D01*
X219165789Y-70961522D01*
X219225368Y-70791255D01*
X219225960Y-70786000D01*
X219245565Y-70612003D01*
X219245565Y-70611996D01*
X219225369Y-70432750D01*
X219225368Y-70432745D01*
X219165788Y-70262476D01*
X219126582Y-70200080D01*
X219069816Y-70109738D01*
X218942262Y-69982184D01*
X218904741Y-69958608D01*
X218789523Y-69886211D01*
X218619254Y-69826631D01*
X218619249Y-69826630D01*
X218440004Y-69806435D01*
X218439996Y-69806435D01*
X218274291Y-69825105D01*
X218205469Y-69813050D01*
X218172727Y-69789566D01*
X218113344Y-69730183D01*
X218113341Y-69730181D01*
X218110339Y-69728329D01*
X218108713Y-69726521D01*
X218107677Y-69725702D01*
X218107817Y-69725524D01*
X218063617Y-69676380D01*
X218052397Y-69607417D01*
X218080243Y-69543336D01*
X218110344Y-69517254D01*
X218113656Y-69515212D01*
X218220996Y-69407872D01*
X218282319Y-69374387D01*
X218322561Y-69372333D01*
X218439997Y-69385565D01*
X218440000Y-69385565D01*
X218440004Y-69385565D01*
X218619249Y-69365369D01*
X218619252Y-69365368D01*
X218619255Y-69365368D01*
X218789522Y-69305789D01*
X218942262Y-69209816D01*
X219069816Y-69082262D01*
X219165789Y-68929522D01*
X219225368Y-68759255D01*
X219226223Y-68751666D01*
X219245565Y-68580003D01*
X219245565Y-68579996D01*
X219666435Y-68579996D01*
X219666435Y-68580003D01*
X219686630Y-68759249D01*
X219686631Y-68759254D01*
X219746211Y-68929523D01*
X219821158Y-69048799D01*
X219842184Y-69082262D01*
X219969738Y-69209816D01*
X220122478Y-69305789D01*
X220286881Y-69363316D01*
X220292745Y-69365368D01*
X220292750Y-69365369D01*
X220471996Y-69385565D01*
X220472000Y-69385565D01*
X220472004Y-69385565D01*
X220651249Y-69365369D01*
X220651252Y-69365368D01*
X220651255Y-69365368D01*
X220821522Y-69305789D01*
X220974262Y-69209816D01*
X221101816Y-69082262D01*
X221197789Y-68929522D01*
X221257368Y-68759255D01*
X221258223Y-68751666D01*
X221277565Y-68580003D01*
X221277565Y-68579996D01*
X221257369Y-68400750D01*
X221257368Y-68400745D01*
X221240946Y-68353814D01*
X221197789Y-68230478D01*
X221101816Y-68077738D01*
X220974262Y-67950184D01*
X220909070Y-67909221D01*
X220821523Y-67854211D01*
X220651254Y-67794631D01*
X220651249Y-67794630D01*
X220472004Y-67774435D01*
X220471996Y-67774435D01*
X220292750Y-67794630D01*
X220292745Y-67794631D01*
X220122476Y-67854211D01*
X219969737Y-67950184D01*
X219842184Y-68077737D01*
X219746211Y-68230476D01*
X219686631Y-68400745D01*
X219686630Y-68400750D01*
X219666435Y-68579996D01*
X219245565Y-68579996D01*
X219225369Y-68400750D01*
X219225368Y-68400745D01*
X219208946Y-68353814D01*
X219165789Y-68230478D01*
X219069816Y-68077738D01*
X218942262Y-67950184D01*
X218877070Y-67909221D01*
X218789523Y-67854211D01*
X218619254Y-67794631D01*
X218619249Y-67794630D01*
X218440004Y-67774435D01*
X218439996Y-67774435D01*
X218313572Y-67788679D01*
X218244750Y-67776624D01*
X218212008Y-67753140D01*
X218113657Y-67654789D01*
X218113656Y-67654788D01*
X217997526Y-67583159D01*
X217964336Y-67562687D01*
X217964331Y-67562685D01*
X217884365Y-67536187D01*
X217797797Y-67507501D01*
X217797795Y-67507500D01*
X217695010Y-67497000D01*
X216644998Y-67497000D01*
X216644980Y-67497001D01*
X216542203Y-67507500D01*
X216542200Y-67507501D01*
X216375668Y-67562685D01*
X216375663Y-67562687D01*
X216226342Y-67654789D01*
X216102289Y-67778842D01*
X216092550Y-67794632D01*
X216055802Y-67854211D01*
X216050691Y-67862497D01*
X215998743Y-67909221D01*
X215945152Y-67921400D01*
X215857932Y-67921400D01*
X215790893Y-67901715D01*
X215752393Y-67862497D01*
X215697712Y-67773844D01*
X215573656Y-67649788D01*
X215432442Y-67562687D01*
X215424336Y-67557687D01*
X215424331Y-67557685D01*
X215359448Y-67536185D01*
X215257797Y-67502501D01*
X215257795Y-67502500D01*
X215155010Y-67492000D01*
X214104998Y-67492000D01*
X214104980Y-67492001D01*
X214002203Y-67502500D01*
X214002200Y-67502501D01*
X213835668Y-67557685D01*
X213835663Y-67557687D01*
X213686342Y-67649789D01*
X213562289Y-67773842D01*
X213549466Y-67794632D01*
X213512718Y-67854211D01*
X213507607Y-67862497D01*
X213455659Y-67909221D01*
X213402068Y-67921400D01*
X213119087Y-67921400D01*
X213052048Y-67901715D01*
X213006293Y-67848911D01*
X212996148Y-67813584D01*
X212985045Y-67729245D01*
X212985044Y-67729244D01*
X212985044Y-67729238D01*
X212924536Y-67583159D01*
X212924534Y-67583156D01*
X212920474Y-67576123D01*
X212922862Y-67574743D01*
X212902529Y-67522137D01*
X212902100Y-67511828D01*
X212902100Y-67364499D01*
X212921785Y-67297460D01*
X212974589Y-67251705D01*
X213026100Y-67240499D01*
X213175002Y-67240499D01*
X213175008Y-67240499D01*
X213277797Y-67229999D01*
X213444334Y-67174814D01*
X213593656Y-67082712D01*
X213687319Y-66989049D01*
X213748642Y-66955564D01*
X213818334Y-66960548D01*
X213862681Y-66989049D01*
X213956344Y-67082712D01*
X214105666Y-67174814D01*
X214272203Y-67229999D01*
X214374991Y-67240500D01*
X215175008Y-67240499D01*
X215175016Y-67240498D01*
X215175019Y-67240498D01*
X215231302Y-67234748D01*
X215277797Y-67229999D01*
X215444334Y-67174814D01*
X215593656Y-67082712D01*
X215717712Y-66958656D01*
X215809814Y-66809334D01*
X215864999Y-66642797D01*
X215875500Y-66540009D01*
X215875499Y-66458082D01*
X215895183Y-66391045D01*
X215911813Y-66370407D01*
X216192923Y-66089297D01*
X216239645Y-66059939D01*
X216363822Y-66016489D01*
X216516562Y-65920516D01*
X216644116Y-65792962D01*
X216740089Y-65640222D01*
X216799668Y-65469955D01*
X216803358Y-65437204D01*
X216819865Y-65290703D01*
X216819865Y-65290697D01*
X216813046Y-65230180D01*
X216825100Y-65161358D01*
X216872449Y-65109979D01*
X216940059Y-65092354D01*
X217006465Y-65114080D01*
X217048649Y-65163892D01*
X217051185Y-65169331D01*
X217051186Y-65169334D01*
X217143288Y-65318656D01*
X217267344Y-65442712D01*
X217416666Y-65534814D01*
X217583203Y-65589999D01*
X217685991Y-65600500D01*
X218012917Y-65600499D01*
X218079954Y-65620183D01*
X218125709Y-65672987D01*
X218135653Y-65742146D01*
X218106628Y-65805701D01*
X218078888Y-65829492D01*
X217937739Y-65918182D01*
X217810184Y-66045737D01*
X217714211Y-66198476D01*
X217654631Y-66368745D01*
X217654630Y-66368750D01*
X217634435Y-66547996D01*
X217634435Y-66548003D01*
X217654630Y-66727249D01*
X217654631Y-66727254D01*
X217714211Y-66897523D01*
X217753813Y-66960548D01*
X217810184Y-67050262D01*
X217937738Y-67177816D01*
X218020785Y-67229998D01*
X218055331Y-67251705D01*
X218090478Y-67273789D01*
X218193500Y-67309838D01*
X218260745Y-67333368D01*
X218260750Y-67333369D01*
X218439996Y-67353565D01*
X218440000Y-67353565D01*
X218440004Y-67353565D01*
X218619249Y-67333369D01*
X218619252Y-67333368D01*
X218619255Y-67333368D01*
X218789522Y-67273789D01*
X218942262Y-67177816D01*
X219069816Y-67050262D01*
X219165789Y-66897522D01*
X219225368Y-66727255D01*
X219228244Y-66701732D01*
X219245565Y-66548003D01*
X219245565Y-66547996D01*
X219666435Y-66547996D01*
X219666435Y-66548003D01*
X219686630Y-66727249D01*
X219686631Y-66727254D01*
X219746211Y-66897523D01*
X219785813Y-66960548D01*
X219842184Y-67050262D01*
X219969738Y-67177816D01*
X220052785Y-67229998D01*
X220087331Y-67251705D01*
X220122478Y-67273789D01*
X220225500Y-67309838D01*
X220292745Y-67333368D01*
X220292750Y-67333369D01*
X220471996Y-67353565D01*
X220472000Y-67353565D01*
X220472004Y-67353565D01*
X220651249Y-67333369D01*
X220651252Y-67333368D01*
X220651255Y-67333368D01*
X220821522Y-67273789D01*
X220974262Y-67177816D01*
X221101816Y-67050262D01*
X221197789Y-66897522D01*
X221257368Y-66727255D01*
X221260244Y-66701732D01*
X221277565Y-66548003D01*
X221277565Y-66547996D01*
X221257369Y-66368750D01*
X221257368Y-66368745D01*
X221213543Y-66243500D01*
X221197789Y-66198478D01*
X221190148Y-66186318D01*
X221150362Y-66122998D01*
X221101816Y-66045738D01*
X220974262Y-65918184D01*
X220897059Y-65869674D01*
X220821523Y-65822211D01*
X220651254Y-65762631D01*
X220651249Y-65762630D01*
X220472004Y-65742435D01*
X220471996Y-65742435D01*
X220292750Y-65762630D01*
X220292745Y-65762631D01*
X220122476Y-65822211D01*
X219969737Y-65918184D01*
X219842184Y-66045737D01*
X219746211Y-66198476D01*
X219686631Y-66368745D01*
X219686630Y-66368750D01*
X219666435Y-66547996D01*
X219245565Y-66547996D01*
X219225369Y-66368750D01*
X219225368Y-66368745D01*
X219181543Y-66243500D01*
X219165789Y-66198478D01*
X219158148Y-66186318D01*
X219118362Y-66122998D01*
X219069816Y-66045738D01*
X218942262Y-65918184D01*
X218836385Y-65851657D01*
X218789516Y-65822207D01*
X218783247Y-65819188D01*
X218784094Y-65817428D01*
X218735165Y-65782333D01*
X218709420Y-65717379D01*
X218722878Y-65648818D01*
X218771267Y-65598417D01*
X218793894Y-65588310D01*
X218803539Y-65585114D01*
X218955334Y-65534814D01*
X219104656Y-65442712D01*
X219228712Y-65318656D01*
X219320814Y-65169334D01*
X219375999Y-65002797D01*
X219386500Y-64900009D01*
X219386500Y-64515996D01*
X219666435Y-64515996D01*
X219666435Y-64516003D01*
X219686630Y-64695249D01*
X219686631Y-64695254D01*
X219746211Y-64865523D01*
X219793749Y-64941178D01*
X219842184Y-65018262D01*
X219969738Y-65145816D01*
X220122478Y-65241789D01*
X220292745Y-65301368D01*
X220292750Y-65301369D01*
X220471996Y-65321565D01*
X220472000Y-65321565D01*
X220472004Y-65321565D01*
X220651249Y-65301369D01*
X220651252Y-65301368D01*
X220651255Y-65301368D01*
X220821522Y-65241789D01*
X220974262Y-65145816D01*
X221101816Y-65018262D01*
X221197789Y-64865522D01*
X221257368Y-64695255D01*
X221263011Y-64645171D01*
X221277565Y-64516003D01*
X221277565Y-64515996D01*
X221257369Y-64336750D01*
X221257368Y-64336745D01*
X221255090Y-64330234D01*
X221197789Y-64166478D01*
X221101816Y-64013738D01*
X220974262Y-63886184D01*
X220957464Y-63875629D01*
X220821523Y-63790211D01*
X220651254Y-63730631D01*
X220651249Y-63730630D01*
X220472004Y-63710435D01*
X220471996Y-63710435D01*
X220292750Y-63730630D01*
X220292745Y-63730631D01*
X220122476Y-63790211D01*
X219969737Y-63886184D01*
X219842184Y-64013737D01*
X219746211Y-64166476D01*
X219686631Y-64336745D01*
X219686630Y-64336750D01*
X219666435Y-64515996D01*
X219386500Y-64515996D01*
X219386499Y-64099992D01*
X219375999Y-63997203D01*
X219320814Y-63830666D01*
X219228712Y-63681344D01*
X219135049Y-63587681D01*
X219101564Y-63526358D01*
X219106548Y-63456666D01*
X219135049Y-63412319D01*
X219221268Y-63326100D01*
X219282591Y-63292615D01*
X219322833Y-63290561D01*
X219455997Y-63305565D01*
X219456000Y-63305565D01*
X219456004Y-63305565D01*
X219635249Y-63285369D01*
X219635252Y-63285368D01*
X219635255Y-63285368D01*
X219805522Y-63225789D01*
X219958262Y-63129816D01*
X220085816Y-63002262D01*
X220181789Y-62849522D01*
X220241368Y-62679255D01*
X220241369Y-62679249D01*
X220261565Y-62500003D01*
X220261565Y-62499996D01*
X220241369Y-62320750D01*
X220241368Y-62320745D01*
X220208983Y-62228194D01*
X220181789Y-62150478D01*
X220180956Y-62149153D01*
X220180679Y-62148171D01*
X220178769Y-62144205D01*
X220179463Y-62143870D01*
X220161953Y-62081919D01*
X220182317Y-62015082D01*
X220235582Y-61969865D01*
X220272541Y-61959903D01*
X220498661Y-61935311D01*
X220848144Y-61858383D01*
X221187255Y-61744123D01*
X221187260Y-61744122D01*
X221512009Y-61593876D01*
X221818629Y-61409390D01*
X221818632Y-61409388D01*
X222103504Y-61192836D01*
X222116742Y-61180294D01*
X220904698Y-59968251D01*
X221006330Y-59894412D01*
X221184412Y-59716330D01*
X221258251Y-59614698D01*
X222467556Y-60824003D01*
G37*
G04 #@! TD.AperFunction*
G04 #@! TA.AperFunction,Conductor*
G36*
X210658539Y-63944685D02*
G01*
X210704294Y-63997489D01*
X210715500Y-64049000D01*
X210715500Y-64503201D01*
X210718401Y-64540067D01*
X210718402Y-64540073D01*
X210764254Y-64697893D01*
X210764255Y-64697896D01*
X210764256Y-64697898D01*
X210798732Y-64756194D01*
X210816000Y-64819314D01*
X210816000Y-65084795D01*
X210816001Y-65084795D01*
X210818486Y-65084600D01*
X210976197Y-65038781D01*
X210977382Y-65038081D01*
X210978436Y-65037813D01*
X210983357Y-65035684D01*
X210983700Y-65036477D01*
X211045105Y-65020895D01*
X211098289Y-65036508D01*
X211098446Y-65036147D01*
X211101371Y-65037413D01*
X211103624Y-65038074D01*
X211105602Y-65039244D01*
X211105604Y-65039244D01*
X211105605Y-65039245D01*
X211263426Y-65085097D01*
X211263429Y-65085097D01*
X211263431Y-65085098D01*
X211300306Y-65088000D01*
X211300314Y-65088000D01*
X211630724Y-65088000D01*
X211697763Y-65107685D01*
X211743518Y-65160489D01*
X211753462Y-65229647D01*
X211743106Y-65264405D01*
X211740186Y-65270665D01*
X211730012Y-65301368D01*
X211685001Y-65437203D01*
X211685001Y-65437204D01*
X211685000Y-65437204D01*
X211674500Y-65539983D01*
X211674500Y-66540001D01*
X211674501Y-66540019D01*
X211685000Y-66642793D01*
X211685000Y-66642795D01*
X211685001Y-66642797D01*
X211691606Y-66662731D01*
X211697900Y-66701732D01*
X211697900Y-67237716D01*
X211678215Y-67304755D01*
X211625411Y-67350510D01*
X211556253Y-67360454D01*
X211492697Y-67331429D01*
X211492142Y-67330945D01*
X211450000Y-67293987D01*
X211393370Y-67301443D01*
X211372449Y-67310109D01*
X211302980Y-67317575D01*
X211277551Y-67310109D01*
X211256629Y-67301443D01*
X211200000Y-67293987D01*
X211200000Y-67511697D01*
X211180315Y-67578736D01*
X211127511Y-67624491D01*
X211058353Y-67634435D01*
X210994797Y-67605410D01*
X210977624Y-67587184D01*
X210974533Y-67583156D01*
X210878282Y-67457718D01*
X210878280Y-67457717D01*
X210878280Y-67457716D01*
X210848511Y-67434873D01*
X210807310Y-67378444D01*
X210800000Y-67336499D01*
X210800000Y-67293987D01*
X210743370Y-67301443D01*
X210723103Y-67309838D01*
X210653633Y-67317304D01*
X210628203Y-67309837D01*
X210606762Y-67300956D01*
X210606760Y-67300955D01*
X210489370Y-67285501D01*
X210489367Y-67285500D01*
X210489361Y-67285500D01*
X210489354Y-67285500D01*
X210426100Y-67285500D01*
X210359061Y-67265815D01*
X210313306Y-67213011D01*
X210302100Y-67161500D01*
X210302100Y-65151883D01*
X210316000Y-65104545D01*
X210316000Y-64819314D01*
X210333268Y-64756193D01*
X210367744Y-64697898D01*
X210413598Y-64540069D01*
X210416500Y-64503194D01*
X210416500Y-64049000D01*
X210436185Y-63981961D01*
X210488989Y-63936206D01*
X210540500Y-63925000D01*
X210591500Y-63925000D01*
X210658539Y-63944685D01*
G37*
G04 #@! TD.AperFunction*
G04 #@! TA.AperFunction,Conductor*
G36*
X210666666Y-60894984D02*
G01*
X210712421Y-60947788D01*
X210722365Y-61016946D01*
X210718703Y-61033896D01*
X210718401Y-61034932D01*
X210715500Y-61071798D01*
X210715500Y-62230629D01*
X210714467Y-62230629D01*
X210698395Y-62294509D01*
X210647421Y-62342294D01*
X210591538Y-62355600D01*
X210540462Y-62355600D01*
X210473423Y-62335915D01*
X210427668Y-62283111D01*
X210417322Y-62230629D01*
X210416500Y-62230629D01*
X210416500Y-61071813D01*
X210416499Y-61071798D01*
X210416269Y-61068880D01*
X210413598Y-61034931D01*
X210413297Y-61033894D01*
X210413298Y-61033292D01*
X210412460Y-61028701D01*
X210413312Y-61028545D01*
X210413495Y-60964027D01*
X210451436Y-60905356D01*
X210515074Y-60876512D01*
X210532373Y-60875299D01*
X210599627Y-60875299D01*
X210666666Y-60894984D01*
G37*
G04 #@! TD.AperFunction*
M02*
