G04 #@! TF.GenerationSoftware,KiCad,Pcbnew,8.0.9-8.0.9-0~ubuntu24.04.1*
G04 #@! TF.CreationDate,2025-06-07T19:12:40-04:00*
G04 #@! TF.ProjectId,Sensor Board,53656e73-6f72-4204-926f-6172642e6b69,rev?*
G04 #@! TF.SameCoordinates,Original*
G04 #@! TF.FileFunction,Legend,Top*
G04 #@! TF.FilePolarity,Positive*
%FSLAX46Y46*%
G04 Gerber Fmt 4.6, Leading zero omitted, Abs format (unit mm)*
G04 Created by KiCad (PCBNEW 8.0.9-8.0.9-0~ubuntu24.04.1) date 2025-06-07 19:12:40*
%MOMM*%
%LPD*%
G01*
G04 APERTURE LIST*
G04 Aperture macros list*
%AMRoundRect*
0 Rectangle with rounded corners*
0 $1 Rounding radius*
0 $2 $3 $4 $5 $6 $7 $8 $9 X,Y pos of 4 corners*
0 Add a 4 corners polygon primitive as box body*
4,1,4,$2,$3,$4,$5,$6,$7,$8,$9,$2,$3,0*
0 Add four circle primitives for the rounded corners*
1,1,$1+$1,$2,$3*
1,1,$1+$1,$4,$5*
1,1,$1+$1,$6,$7*
1,1,$1+$1,$8,$9*
0 Add four rect primitives between the rounded corners*
20,1,$1+$1,$2,$3,$4,$5,0*
20,1,$1+$1,$4,$5,$6,$7,0*
20,1,$1+$1,$6,$7,$8,$9,0*
20,1,$1+$1,$8,$9,$2,$3,0*%
G04 Aperture macros list end*
%ADD10C,0.150000*%
%ADD11C,0.250000*%
%ADD12C,0.125000*%
%ADD13C,0.100000*%
%ADD14C,0.120000*%
%ADD15RoundRect,0.250000X-0.475000X0.337500X-0.475000X-0.337500X0.475000X-0.337500X0.475000X0.337500X0*%
%ADD16RoundRect,0.250000X-0.450000X0.350000X-0.450000X-0.350000X0.450000X-0.350000X0.450000X0.350000X0*%
%ADD17RoundRect,0.150000X0.150000X-0.512500X0.150000X0.512500X-0.150000X0.512500X-0.150000X-0.512500X0*%
%ADD18R,1.000000X2.000000*%
%ADD19RoundRect,0.250000X0.337500X0.475000X-0.337500X0.475000X-0.337500X-0.475000X0.337500X-0.475000X0*%
%ADD20RoundRect,0.250000X0.350000X0.450000X-0.350000X0.450000X-0.350000X-0.450000X0.350000X-0.450000X0*%
%ADD21R,1.500000X1.500000*%
%ADD22C,3.800000*%
%ADD23C,1.000000*%
%ADD24RoundRect,0.250000X0.475000X-0.337500X0.475000X0.337500X-0.475000X0.337500X-0.475000X-0.337500X0*%
%ADD25RoundRect,0.250000X-0.350000X-0.450000X0.350000X-0.450000X0.350000X0.450000X-0.350000X0.450000X0*%
%ADD26RoundRect,0.150000X-0.825000X-0.150000X0.825000X-0.150000X0.825000X0.150000X-0.825000X0.150000X0*%
%ADD27RoundRect,0.250001X0.462499X0.624999X-0.462499X0.624999X-0.462499X-0.624999X0.462499X-0.624999X0*%
%ADD28C,5.600000*%
%ADD29R,3.100000X1.300000*%
%ADD30RoundRect,0.250000X-0.337500X-0.475000X0.337500X-0.475000X0.337500X0.475000X-0.337500X0.475000X0*%
%ADD31RoundRect,0.100000X-0.100000X0.637500X-0.100000X-0.637500X0.100000X-0.637500X0.100000X0.637500X0*%
%ADD32C,1.500000*%
%ADD33RoundRect,0.150000X-0.750000X-0.150000X0.750000X-0.150000X0.750000X0.150000X-0.750000X0.150000X0*%
G04 APERTURE END LIST*
D10*
X214503000Y-67437000D02*
X214503000Y-67818000D01*
X217932000Y-67437000D02*
X214503000Y-67437000D01*
X203831819Y-58591220D02*
X202831819Y-58591220D01*
X202831819Y-58591220D02*
X203546104Y-58257887D01*
X203546104Y-58257887D02*
X202831819Y-57924554D01*
X202831819Y-57924554D02*
X203831819Y-57924554D01*
X203736580Y-56876935D02*
X203784200Y-56924554D01*
X203784200Y-56924554D02*
X203831819Y-57067411D01*
X203831819Y-57067411D02*
X203831819Y-57162649D01*
X203831819Y-57162649D02*
X203784200Y-57305506D01*
X203784200Y-57305506D02*
X203688961Y-57400744D01*
X203688961Y-57400744D02*
X203593723Y-57448363D01*
X203593723Y-57448363D02*
X203403247Y-57495982D01*
X203403247Y-57495982D02*
X203260390Y-57495982D01*
X203260390Y-57495982D02*
X203069914Y-57448363D01*
X203069914Y-57448363D02*
X202974676Y-57400744D01*
X202974676Y-57400744D02*
X202879438Y-57305506D01*
X202879438Y-57305506D02*
X202831819Y-57162649D01*
X202831819Y-57162649D02*
X202831819Y-57067411D01*
X202831819Y-57067411D02*
X202879438Y-56924554D01*
X202879438Y-56924554D02*
X202927057Y-56876935D01*
X203831819Y-55972173D02*
X203831819Y-56448363D01*
X203831819Y-56448363D02*
X202831819Y-56448363D01*
X203831819Y-55067411D02*
X203355628Y-55400744D01*
X203831819Y-55638839D02*
X202831819Y-55638839D01*
X202831819Y-55638839D02*
X202831819Y-55257887D01*
X202831819Y-55257887D02*
X202879438Y-55162649D01*
X202879438Y-55162649D02*
X202927057Y-55115030D01*
X202927057Y-55115030D02*
X203022295Y-55067411D01*
X203022295Y-55067411D02*
X203165152Y-55067411D01*
X203165152Y-55067411D02*
X203260390Y-55115030D01*
X203260390Y-55115030D02*
X203308009Y-55162649D01*
X203308009Y-55162649D02*
X203355628Y-55257887D01*
X203355628Y-55257887D02*
X203355628Y-55638839D01*
X202554200Y-58729316D02*
X202554200Y-54976935D01*
D11*
X189227758Y-97107512D02*
X189584901Y-98607512D01*
X189584901Y-98607512D02*
X189870615Y-97536084D01*
X189870615Y-97536084D02*
X190156330Y-98607512D01*
X190156330Y-98607512D02*
X190513473Y-97107512D01*
X191727759Y-98607512D02*
X191727759Y-97821798D01*
X191727759Y-97821798D02*
X191656330Y-97678941D01*
X191656330Y-97678941D02*
X191513473Y-97607512D01*
X191513473Y-97607512D02*
X191227759Y-97607512D01*
X191227759Y-97607512D02*
X191084901Y-97678941D01*
X191727759Y-98536084D02*
X191584901Y-98607512D01*
X191584901Y-98607512D02*
X191227759Y-98607512D01*
X191227759Y-98607512D02*
X191084901Y-98536084D01*
X191084901Y-98536084D02*
X191013473Y-98393226D01*
X191013473Y-98393226D02*
X191013473Y-98250369D01*
X191013473Y-98250369D02*
X191084901Y-98107512D01*
X191084901Y-98107512D02*
X191227759Y-98036084D01*
X191227759Y-98036084D02*
X191584901Y-98036084D01*
X191584901Y-98036084D02*
X191727759Y-97964655D01*
X192227759Y-97607512D02*
X192799187Y-97607512D01*
X192442044Y-97107512D02*
X192442044Y-98393226D01*
X192442044Y-98393226D02*
X192513473Y-98536084D01*
X192513473Y-98536084D02*
X192656330Y-98607512D01*
X192656330Y-98607512D02*
X192799187Y-98607512D01*
X193870616Y-98536084D02*
X193727759Y-98607512D01*
X193727759Y-98607512D02*
X193442045Y-98607512D01*
X193442045Y-98607512D02*
X193299187Y-98536084D01*
X193299187Y-98536084D02*
X193227759Y-98393226D01*
X193227759Y-98393226D02*
X193227759Y-97821798D01*
X193227759Y-97821798D02*
X193299187Y-97678941D01*
X193299187Y-97678941D02*
X193442045Y-97607512D01*
X193442045Y-97607512D02*
X193727759Y-97607512D01*
X193727759Y-97607512D02*
X193870616Y-97678941D01*
X193870616Y-97678941D02*
X193942045Y-97821798D01*
X193942045Y-97821798D02*
X193942045Y-97964655D01*
X193942045Y-97964655D02*
X193227759Y-98107512D01*
X194584901Y-98607512D02*
X194584901Y-97607512D01*
X194584901Y-97893226D02*
X194656330Y-97750369D01*
X194656330Y-97750369D02*
X194727759Y-97678941D01*
X194727759Y-97678941D02*
X194870616Y-97607512D01*
X194870616Y-97607512D02*
X195013473Y-97607512D01*
X195727758Y-98607512D02*
X195584901Y-98536084D01*
X195584901Y-98536084D02*
X195513472Y-98393226D01*
X195513472Y-98393226D02*
X195513472Y-97107512D01*
X196513472Y-98607512D02*
X196370615Y-98536084D01*
X196370615Y-98536084D02*
X196299186Y-98464655D01*
X196299186Y-98464655D02*
X196227758Y-98321798D01*
X196227758Y-98321798D02*
X196227758Y-97893226D01*
X196227758Y-97893226D02*
X196299186Y-97750369D01*
X196299186Y-97750369D02*
X196370615Y-97678941D01*
X196370615Y-97678941D02*
X196513472Y-97607512D01*
X196513472Y-97607512D02*
X196727758Y-97607512D01*
X196727758Y-97607512D02*
X196870615Y-97678941D01*
X196870615Y-97678941D02*
X196942044Y-97750369D01*
X196942044Y-97750369D02*
X197013472Y-97893226D01*
X197013472Y-97893226D02*
X197013472Y-98321798D01*
X197013472Y-98321798D02*
X196942044Y-98464655D01*
X196942044Y-98464655D02*
X196870615Y-98536084D01*
X196870615Y-98536084D02*
X196727758Y-98607512D01*
X196727758Y-98607512D02*
X196513472Y-98607512D01*
X197870615Y-98607512D02*
X197727758Y-98536084D01*
X197727758Y-98536084D02*
X197656329Y-98464655D01*
X197656329Y-98464655D02*
X197584901Y-98321798D01*
X197584901Y-98321798D02*
X197584901Y-97893226D01*
X197584901Y-97893226D02*
X197656329Y-97750369D01*
X197656329Y-97750369D02*
X197727758Y-97678941D01*
X197727758Y-97678941D02*
X197870615Y-97607512D01*
X197870615Y-97607512D02*
X198084901Y-97607512D01*
X198084901Y-97607512D02*
X198227758Y-97678941D01*
X198227758Y-97678941D02*
X198299187Y-97750369D01*
X198299187Y-97750369D02*
X198370615Y-97893226D01*
X198370615Y-97893226D02*
X198370615Y-98321798D01*
X198370615Y-98321798D02*
X198299187Y-98464655D01*
X198299187Y-98464655D02*
X198227758Y-98536084D01*
X198227758Y-98536084D02*
X198084901Y-98607512D01*
X198084901Y-98607512D02*
X197870615Y-98607512D01*
X190227758Y-101022428D02*
X189727758Y-100308142D01*
X189370615Y-101022428D02*
X189370615Y-99522428D01*
X189370615Y-99522428D02*
X189942044Y-99522428D01*
X189942044Y-99522428D02*
X190084901Y-99593857D01*
X190084901Y-99593857D02*
X190156330Y-99665285D01*
X190156330Y-99665285D02*
X190227758Y-99808142D01*
X190227758Y-99808142D02*
X190227758Y-100022428D01*
X190227758Y-100022428D02*
X190156330Y-100165285D01*
X190156330Y-100165285D02*
X190084901Y-100236714D01*
X190084901Y-100236714D02*
X189942044Y-100308142D01*
X189942044Y-100308142D02*
X189370615Y-100308142D01*
X191084901Y-101022428D02*
X190942044Y-100951000D01*
X190942044Y-100951000D02*
X190870615Y-100879571D01*
X190870615Y-100879571D02*
X190799187Y-100736714D01*
X190799187Y-100736714D02*
X190799187Y-100308142D01*
X190799187Y-100308142D02*
X190870615Y-100165285D01*
X190870615Y-100165285D02*
X190942044Y-100093857D01*
X190942044Y-100093857D02*
X191084901Y-100022428D01*
X191084901Y-100022428D02*
X191299187Y-100022428D01*
X191299187Y-100022428D02*
X191442044Y-100093857D01*
X191442044Y-100093857D02*
X191513473Y-100165285D01*
X191513473Y-100165285D02*
X191584901Y-100308142D01*
X191584901Y-100308142D02*
X191584901Y-100736714D01*
X191584901Y-100736714D02*
X191513473Y-100879571D01*
X191513473Y-100879571D02*
X191442044Y-100951000D01*
X191442044Y-100951000D02*
X191299187Y-101022428D01*
X191299187Y-101022428D02*
X191084901Y-101022428D01*
X192870616Y-100951000D02*
X192727758Y-101022428D01*
X192727758Y-101022428D02*
X192442044Y-101022428D01*
X192442044Y-101022428D02*
X192299187Y-100951000D01*
X192299187Y-100951000D02*
X192227758Y-100879571D01*
X192227758Y-100879571D02*
X192156330Y-100736714D01*
X192156330Y-100736714D02*
X192156330Y-100308142D01*
X192156330Y-100308142D02*
X192227758Y-100165285D01*
X192227758Y-100165285D02*
X192299187Y-100093857D01*
X192299187Y-100093857D02*
X192442044Y-100022428D01*
X192442044Y-100022428D02*
X192727758Y-100022428D01*
X192727758Y-100022428D02*
X192870616Y-100093857D01*
X193513472Y-101022428D02*
X193513472Y-99522428D01*
X193656330Y-100451000D02*
X194084901Y-101022428D01*
X194084901Y-100022428D02*
X193513472Y-100593857D01*
X195299187Y-100951000D02*
X195156330Y-101022428D01*
X195156330Y-101022428D02*
X194870616Y-101022428D01*
X194870616Y-101022428D02*
X194727758Y-100951000D01*
X194727758Y-100951000D02*
X194656330Y-100808142D01*
X194656330Y-100808142D02*
X194656330Y-100236714D01*
X194656330Y-100236714D02*
X194727758Y-100093857D01*
X194727758Y-100093857D02*
X194870616Y-100022428D01*
X194870616Y-100022428D02*
X195156330Y-100022428D01*
X195156330Y-100022428D02*
X195299187Y-100093857D01*
X195299187Y-100093857D02*
X195370616Y-100236714D01*
X195370616Y-100236714D02*
X195370616Y-100379571D01*
X195370616Y-100379571D02*
X194656330Y-100522428D01*
X195799187Y-100022428D02*
X196370615Y-100022428D01*
X196013472Y-99522428D02*
X196013472Y-100808142D01*
X196013472Y-100808142D02*
X196084901Y-100951000D01*
X196084901Y-100951000D02*
X196227758Y-101022428D01*
X196227758Y-101022428D02*
X196370615Y-101022428D01*
X196870615Y-101022428D02*
X196870615Y-100022428D01*
X196870615Y-100308142D02*
X196942044Y-100165285D01*
X196942044Y-100165285D02*
X197013473Y-100093857D01*
X197013473Y-100093857D02*
X197156330Y-100022428D01*
X197156330Y-100022428D02*
X197299187Y-100022428D01*
X197656329Y-100022428D02*
X198013472Y-101022428D01*
X198370615Y-100022428D02*
X198013472Y-101022428D01*
X198013472Y-101022428D02*
X197870615Y-101379571D01*
X197870615Y-101379571D02*
X197799186Y-101451000D01*
X197799186Y-101451000D02*
X197656329Y-101522428D01*
D10*
X183094333Y-91672580D02*
X183046714Y-91720200D01*
X183046714Y-91720200D02*
X182903857Y-91767819D01*
X182903857Y-91767819D02*
X182808619Y-91767819D01*
X182808619Y-91767819D02*
X182665762Y-91720200D01*
X182665762Y-91720200D02*
X182570524Y-91624961D01*
X182570524Y-91624961D02*
X182522905Y-91529723D01*
X182522905Y-91529723D02*
X182475286Y-91339247D01*
X182475286Y-91339247D02*
X182475286Y-91196390D01*
X182475286Y-91196390D02*
X182522905Y-91005914D01*
X182522905Y-91005914D02*
X182570524Y-90910676D01*
X182570524Y-90910676D02*
X182665762Y-90815438D01*
X182665762Y-90815438D02*
X182808619Y-90767819D01*
X182808619Y-90767819D02*
X182903857Y-90767819D01*
X182903857Y-90767819D02*
X183046714Y-90815438D01*
X183046714Y-90815438D02*
X183094333Y-90863057D01*
X183475286Y-90863057D02*
X183522905Y-90815438D01*
X183522905Y-90815438D02*
X183618143Y-90767819D01*
X183618143Y-90767819D02*
X183856238Y-90767819D01*
X183856238Y-90767819D02*
X183951476Y-90815438D01*
X183951476Y-90815438D02*
X183999095Y-90863057D01*
X183999095Y-90863057D02*
X184046714Y-90958295D01*
X184046714Y-90958295D02*
X184046714Y-91053533D01*
X184046714Y-91053533D02*
X183999095Y-91196390D01*
X183999095Y-91196390D02*
X183427667Y-91767819D01*
X183427667Y-91767819D02*
X184046714Y-91767819D01*
X205344733Y-67129819D02*
X205011400Y-66653628D01*
X204773305Y-67129819D02*
X204773305Y-66129819D01*
X204773305Y-66129819D02*
X205154257Y-66129819D01*
X205154257Y-66129819D02*
X205249495Y-66177438D01*
X205249495Y-66177438D02*
X205297114Y-66225057D01*
X205297114Y-66225057D02*
X205344733Y-66320295D01*
X205344733Y-66320295D02*
X205344733Y-66463152D01*
X205344733Y-66463152D02*
X205297114Y-66558390D01*
X205297114Y-66558390D02*
X205249495Y-66606009D01*
X205249495Y-66606009D02*
X205154257Y-66653628D01*
X205154257Y-66653628D02*
X204773305Y-66653628D01*
X206297114Y-67129819D02*
X205725686Y-67129819D01*
X206011400Y-67129819D02*
X206011400Y-66129819D01*
X206011400Y-66129819D02*
X205916162Y-66272676D01*
X205916162Y-66272676D02*
X205820924Y-66367914D01*
X205820924Y-66367914D02*
X205725686Y-66415533D01*
D12*
X210947047Y-65002809D02*
X210947047Y-65407571D01*
X210947047Y-65407571D02*
X210970857Y-65455190D01*
X210970857Y-65455190D02*
X210994666Y-65479000D01*
X210994666Y-65479000D02*
X211042285Y-65502809D01*
X211042285Y-65502809D02*
X211137523Y-65502809D01*
X211137523Y-65502809D02*
X211185142Y-65479000D01*
X211185142Y-65479000D02*
X211208952Y-65455190D01*
X211208952Y-65455190D02*
X211232761Y-65407571D01*
X211232761Y-65407571D02*
X211232761Y-65002809D01*
X211685143Y-65169476D02*
X211685143Y-65502809D01*
X211566095Y-64979000D02*
X211447048Y-65336142D01*
X211447048Y-65336142D02*
X211756571Y-65336142D01*
D10*
X188007666Y-61303819D02*
X188007666Y-62018104D01*
X188007666Y-62018104D02*
X187960047Y-62160961D01*
X187960047Y-62160961D02*
X187864809Y-62256200D01*
X187864809Y-62256200D02*
X187721952Y-62303819D01*
X187721952Y-62303819D02*
X187626714Y-62303819D01*
X189007666Y-62303819D02*
X188436238Y-62303819D01*
X188721952Y-62303819D02*
X188721952Y-61303819D01*
X188721952Y-61303819D02*
X188626714Y-61446676D01*
X188626714Y-61446676D02*
X188531476Y-61541914D01*
X188531476Y-61541914D02*
X188436238Y-61589533D01*
X199858333Y-98403580D02*
X199810714Y-98451200D01*
X199810714Y-98451200D02*
X199667857Y-98498819D01*
X199667857Y-98498819D02*
X199572619Y-98498819D01*
X199572619Y-98498819D02*
X199429762Y-98451200D01*
X199429762Y-98451200D02*
X199334524Y-98355961D01*
X199334524Y-98355961D02*
X199286905Y-98260723D01*
X199286905Y-98260723D02*
X199239286Y-98070247D01*
X199239286Y-98070247D02*
X199239286Y-97927390D01*
X199239286Y-97927390D02*
X199286905Y-97736914D01*
X199286905Y-97736914D02*
X199334524Y-97641676D01*
X199334524Y-97641676D02*
X199429762Y-97546438D01*
X199429762Y-97546438D02*
X199572619Y-97498819D01*
X199572619Y-97498819D02*
X199667857Y-97498819D01*
X199667857Y-97498819D02*
X199810714Y-97546438D01*
X199810714Y-97546438D02*
X199858333Y-97594057D01*
X200191667Y-97498819D02*
X200810714Y-97498819D01*
X200810714Y-97498819D02*
X200477381Y-97879771D01*
X200477381Y-97879771D02*
X200620238Y-97879771D01*
X200620238Y-97879771D02*
X200715476Y-97927390D01*
X200715476Y-97927390D02*
X200763095Y-97975009D01*
X200763095Y-97975009D02*
X200810714Y-98070247D01*
X200810714Y-98070247D02*
X200810714Y-98308342D01*
X200810714Y-98308342D02*
X200763095Y-98403580D01*
X200763095Y-98403580D02*
X200715476Y-98451200D01*
X200715476Y-98451200D02*
X200620238Y-98498819D01*
X200620238Y-98498819D02*
X200334524Y-98498819D01*
X200334524Y-98498819D02*
X200239286Y-98451200D01*
X200239286Y-98451200D02*
X200191667Y-98403580D01*
X192905142Y-76813580D02*
X192857523Y-76861200D01*
X192857523Y-76861200D02*
X192714666Y-76908819D01*
X192714666Y-76908819D02*
X192619428Y-76908819D01*
X192619428Y-76908819D02*
X192476571Y-76861200D01*
X192476571Y-76861200D02*
X192381333Y-76765961D01*
X192381333Y-76765961D02*
X192333714Y-76670723D01*
X192333714Y-76670723D02*
X192286095Y-76480247D01*
X192286095Y-76480247D02*
X192286095Y-76337390D01*
X192286095Y-76337390D02*
X192333714Y-76146914D01*
X192333714Y-76146914D02*
X192381333Y-76051676D01*
X192381333Y-76051676D02*
X192476571Y-75956438D01*
X192476571Y-75956438D02*
X192619428Y-75908819D01*
X192619428Y-75908819D02*
X192714666Y-75908819D01*
X192714666Y-75908819D02*
X192857523Y-75956438D01*
X192857523Y-75956438D02*
X192905142Y-76004057D01*
X193857523Y-76908819D02*
X193286095Y-76908819D01*
X193571809Y-76908819D02*
X193571809Y-75908819D01*
X193571809Y-75908819D02*
X193476571Y-76051676D01*
X193476571Y-76051676D02*
X193381333Y-76146914D01*
X193381333Y-76146914D02*
X193286095Y-76194533D01*
X194428952Y-76337390D02*
X194333714Y-76289771D01*
X194333714Y-76289771D02*
X194286095Y-76242152D01*
X194286095Y-76242152D02*
X194238476Y-76146914D01*
X194238476Y-76146914D02*
X194238476Y-76099295D01*
X194238476Y-76099295D02*
X194286095Y-76004057D01*
X194286095Y-76004057D02*
X194333714Y-75956438D01*
X194333714Y-75956438D02*
X194428952Y-75908819D01*
X194428952Y-75908819D02*
X194619428Y-75908819D01*
X194619428Y-75908819D02*
X194714666Y-75956438D01*
X194714666Y-75956438D02*
X194762285Y-76004057D01*
X194762285Y-76004057D02*
X194809904Y-76099295D01*
X194809904Y-76099295D02*
X194809904Y-76146914D01*
X194809904Y-76146914D02*
X194762285Y-76242152D01*
X194762285Y-76242152D02*
X194714666Y-76289771D01*
X194714666Y-76289771D02*
X194619428Y-76337390D01*
X194619428Y-76337390D02*
X194428952Y-76337390D01*
X194428952Y-76337390D02*
X194333714Y-76385009D01*
X194333714Y-76385009D02*
X194286095Y-76432628D01*
X194286095Y-76432628D02*
X194238476Y-76527866D01*
X194238476Y-76527866D02*
X194238476Y-76718342D01*
X194238476Y-76718342D02*
X194286095Y-76813580D01*
X194286095Y-76813580D02*
X194333714Y-76861200D01*
X194333714Y-76861200D02*
X194428952Y-76908819D01*
X194428952Y-76908819D02*
X194619428Y-76908819D01*
X194619428Y-76908819D02*
X194714666Y-76861200D01*
X194714666Y-76861200D02*
X194762285Y-76813580D01*
X194762285Y-76813580D02*
X194809904Y-76718342D01*
X194809904Y-76718342D02*
X194809904Y-76527866D01*
X194809904Y-76527866D02*
X194762285Y-76432628D01*
X194762285Y-76432628D02*
X194714666Y-76385009D01*
X194714666Y-76385009D02*
X194619428Y-76337390D01*
D12*
X204311314Y-68308604D02*
X204273218Y-68346700D01*
X204273218Y-68346700D02*
X204158933Y-68384795D01*
X204158933Y-68384795D02*
X204082742Y-68384795D01*
X204082742Y-68384795D02*
X203968456Y-68346700D01*
X203968456Y-68346700D02*
X203892266Y-68270509D01*
X203892266Y-68270509D02*
X203854171Y-68194319D01*
X203854171Y-68194319D02*
X203816075Y-68041938D01*
X203816075Y-68041938D02*
X203816075Y-67927652D01*
X203816075Y-67927652D02*
X203854171Y-67775271D01*
X203854171Y-67775271D02*
X203892266Y-67699080D01*
X203892266Y-67699080D02*
X203968456Y-67622890D01*
X203968456Y-67622890D02*
X204082742Y-67584795D01*
X204082742Y-67584795D02*
X204158933Y-67584795D01*
X204158933Y-67584795D02*
X204273218Y-67622890D01*
X204273218Y-67622890D02*
X204311314Y-67660985D01*
X205073218Y-68384795D02*
X204616075Y-68384795D01*
X204844647Y-68384795D02*
X204844647Y-67584795D01*
X204844647Y-67584795D02*
X204768456Y-67699080D01*
X204768456Y-67699080D02*
X204692266Y-67775271D01*
X204692266Y-67775271D02*
X204616075Y-67813366D01*
X205454171Y-68384795D02*
X205606552Y-68384795D01*
X205606552Y-68384795D02*
X205682742Y-68346700D01*
X205682742Y-68346700D02*
X205720838Y-68308604D01*
X205720838Y-68308604D02*
X205797028Y-68194319D01*
X205797028Y-68194319D02*
X205835123Y-68041938D01*
X205835123Y-68041938D02*
X205835123Y-67737176D01*
X205835123Y-67737176D02*
X205797028Y-67660985D01*
X205797028Y-67660985D02*
X205758933Y-67622890D01*
X205758933Y-67622890D02*
X205682742Y-67584795D01*
X205682742Y-67584795D02*
X205530361Y-67584795D01*
X205530361Y-67584795D02*
X205454171Y-67622890D01*
X205454171Y-67622890D02*
X205416076Y-67660985D01*
X205416076Y-67660985D02*
X205377980Y-67737176D01*
X205377980Y-67737176D02*
X205377980Y-67927652D01*
X205377980Y-67927652D02*
X205416076Y-68003842D01*
X205416076Y-68003842D02*
X205454171Y-68041938D01*
X205454171Y-68041938D02*
X205530361Y-68080033D01*
X205530361Y-68080033D02*
X205682742Y-68080033D01*
X205682742Y-68080033D02*
X205758933Y-68041938D01*
X205758933Y-68041938D02*
X205797028Y-68003842D01*
X205797028Y-68003842D02*
X205835123Y-67927652D01*
D10*
X208367333Y-89640580D02*
X208319714Y-89688200D01*
X208319714Y-89688200D02*
X208176857Y-89735819D01*
X208176857Y-89735819D02*
X208081619Y-89735819D01*
X208081619Y-89735819D02*
X207938762Y-89688200D01*
X207938762Y-89688200D02*
X207843524Y-89592961D01*
X207843524Y-89592961D02*
X207795905Y-89497723D01*
X207795905Y-89497723D02*
X207748286Y-89307247D01*
X207748286Y-89307247D02*
X207748286Y-89164390D01*
X207748286Y-89164390D02*
X207795905Y-88973914D01*
X207795905Y-88973914D02*
X207843524Y-88878676D01*
X207843524Y-88878676D02*
X207938762Y-88783438D01*
X207938762Y-88783438D02*
X208081619Y-88735819D01*
X208081619Y-88735819D02*
X208176857Y-88735819D01*
X208176857Y-88735819D02*
X208319714Y-88783438D01*
X208319714Y-88783438D02*
X208367333Y-88831057D01*
X209224476Y-89069152D02*
X209224476Y-89735819D01*
X208986381Y-88688200D02*
X208748286Y-89402485D01*
X208748286Y-89402485D02*
X209367333Y-89402485D01*
X212336142Y-79448819D02*
X212002809Y-78972628D01*
X211764714Y-79448819D02*
X211764714Y-78448819D01*
X211764714Y-78448819D02*
X212145666Y-78448819D01*
X212145666Y-78448819D02*
X212240904Y-78496438D01*
X212240904Y-78496438D02*
X212288523Y-78544057D01*
X212288523Y-78544057D02*
X212336142Y-78639295D01*
X212336142Y-78639295D02*
X212336142Y-78782152D01*
X212336142Y-78782152D02*
X212288523Y-78877390D01*
X212288523Y-78877390D02*
X212240904Y-78925009D01*
X212240904Y-78925009D02*
X212145666Y-78972628D01*
X212145666Y-78972628D02*
X211764714Y-78972628D01*
X213288523Y-79448819D02*
X212717095Y-79448819D01*
X213002809Y-79448819D02*
X213002809Y-78448819D01*
X213002809Y-78448819D02*
X212907571Y-78591676D01*
X212907571Y-78591676D02*
X212812333Y-78686914D01*
X212812333Y-78686914D02*
X212717095Y-78734533D01*
X213621857Y-78448819D02*
X214240904Y-78448819D01*
X214240904Y-78448819D02*
X213907571Y-78829771D01*
X213907571Y-78829771D02*
X214050428Y-78829771D01*
X214050428Y-78829771D02*
X214145666Y-78877390D01*
X214145666Y-78877390D02*
X214193285Y-78925009D01*
X214193285Y-78925009D02*
X214240904Y-79020247D01*
X214240904Y-79020247D02*
X214240904Y-79258342D01*
X214240904Y-79258342D02*
X214193285Y-79353580D01*
X214193285Y-79353580D02*
X214145666Y-79401200D01*
X214145666Y-79401200D02*
X214050428Y-79448819D01*
X214050428Y-79448819D02*
X213764714Y-79448819D01*
X213764714Y-79448819D02*
X213669476Y-79401200D01*
X213669476Y-79401200D02*
X213621857Y-79353580D01*
X219678695Y-79165276D02*
X219678695Y-78670038D01*
X219678695Y-78670038D02*
X219983457Y-78936704D01*
X219983457Y-78936704D02*
X219983457Y-78822419D01*
X219983457Y-78822419D02*
X220021552Y-78746228D01*
X220021552Y-78746228D02*
X220059647Y-78708133D01*
X220059647Y-78708133D02*
X220135838Y-78670038D01*
X220135838Y-78670038D02*
X220326314Y-78670038D01*
X220326314Y-78670038D02*
X220402504Y-78708133D01*
X220402504Y-78708133D02*
X220440600Y-78746228D01*
X220440600Y-78746228D02*
X220478695Y-78822419D01*
X220478695Y-78822419D02*
X220478695Y-79050990D01*
X220478695Y-79050990D02*
X220440600Y-79127181D01*
X220440600Y-79127181D02*
X220402504Y-79165276D01*
X219678695Y-78441466D02*
X220478695Y-78174799D01*
X220478695Y-78174799D02*
X219678695Y-77908133D01*
X219678695Y-77717657D02*
X219678695Y-77222419D01*
X219678695Y-77222419D02*
X219983457Y-77489085D01*
X219983457Y-77489085D02*
X219983457Y-77374800D01*
X219983457Y-77374800D02*
X220021552Y-77298609D01*
X220021552Y-77298609D02*
X220059647Y-77260514D01*
X220059647Y-77260514D02*
X220135838Y-77222419D01*
X220135838Y-77222419D02*
X220326314Y-77222419D01*
X220326314Y-77222419D02*
X220402504Y-77260514D01*
X220402504Y-77260514D02*
X220440600Y-77298609D01*
X220440600Y-77298609D02*
X220478695Y-77374800D01*
X220478695Y-77374800D02*
X220478695Y-77603371D01*
X220478695Y-77603371D02*
X220440600Y-77679562D01*
X220440600Y-77679562D02*
X220402504Y-77717657D01*
X220478695Y-76879561D02*
X219678695Y-76879561D01*
X219678695Y-76879561D02*
X219678695Y-76689085D01*
X219678695Y-76689085D02*
X219716790Y-76574799D01*
X219716790Y-76574799D02*
X219792980Y-76498609D01*
X219792980Y-76498609D02*
X219869171Y-76460514D01*
X219869171Y-76460514D02*
X220021552Y-76422418D01*
X220021552Y-76422418D02*
X220135838Y-76422418D01*
X220135838Y-76422418D02*
X220288219Y-76460514D01*
X220288219Y-76460514D02*
X220364409Y-76498609D01*
X220364409Y-76498609D02*
X220440600Y-76574799D01*
X220440600Y-76574799D02*
X220478695Y-76689085D01*
X220478695Y-76689085D02*
X220478695Y-76879561D01*
D13*
X220277333Y-87841580D02*
X220277333Y-87127295D01*
X220277333Y-87127295D02*
X220324952Y-86984438D01*
X220324952Y-86984438D02*
X220420190Y-86889200D01*
X220420190Y-86889200D02*
X220563047Y-86841580D01*
X220563047Y-86841580D02*
X220658285Y-86841580D01*
X219848761Y-87746342D02*
X219801142Y-87793961D01*
X219801142Y-87793961D02*
X219705904Y-87841580D01*
X219705904Y-87841580D02*
X219467809Y-87841580D01*
X219467809Y-87841580D02*
X219372571Y-87793961D01*
X219372571Y-87793961D02*
X219324952Y-87746342D01*
X219324952Y-87746342D02*
X219277333Y-87651104D01*
X219277333Y-87651104D02*
X219277333Y-87555866D01*
X219277333Y-87555866D02*
X219324952Y-87413009D01*
X219324952Y-87413009D02*
X219896380Y-86841580D01*
X219896380Y-86841580D02*
X219277333Y-86841580D01*
D10*
X219577095Y-75387180D02*
X219577095Y-75768132D01*
X219577095Y-75768132D02*
X219958047Y-75806228D01*
X219958047Y-75806228D02*
X219919952Y-75768132D01*
X219919952Y-75768132D02*
X219881857Y-75691942D01*
X219881857Y-75691942D02*
X219881857Y-75501466D01*
X219881857Y-75501466D02*
X219919952Y-75425275D01*
X219919952Y-75425275D02*
X219958047Y-75387180D01*
X219958047Y-75387180D02*
X220034238Y-75349085D01*
X220034238Y-75349085D02*
X220224714Y-75349085D01*
X220224714Y-75349085D02*
X220300904Y-75387180D01*
X220300904Y-75387180D02*
X220339000Y-75425275D01*
X220339000Y-75425275D02*
X220377095Y-75501466D01*
X220377095Y-75501466D02*
X220377095Y-75691942D01*
X220377095Y-75691942D02*
X220339000Y-75768132D01*
X220339000Y-75768132D02*
X220300904Y-75806228D01*
X219577095Y-75120513D02*
X220377095Y-74853846D01*
X220377095Y-74853846D02*
X219577095Y-74587180D01*
D12*
X213647404Y-74783885D02*
X213685500Y-74821981D01*
X213685500Y-74821981D02*
X213723595Y-74936266D01*
X213723595Y-74936266D02*
X213723595Y-75012457D01*
X213723595Y-75012457D02*
X213685500Y-75126743D01*
X213685500Y-75126743D02*
X213609309Y-75202933D01*
X213609309Y-75202933D02*
X213533119Y-75241028D01*
X213533119Y-75241028D02*
X213380738Y-75279124D01*
X213380738Y-75279124D02*
X213266452Y-75279124D01*
X213266452Y-75279124D02*
X213114071Y-75241028D01*
X213114071Y-75241028D02*
X213037880Y-75202933D01*
X213037880Y-75202933D02*
X212961690Y-75126743D01*
X212961690Y-75126743D02*
X212923595Y-75012457D01*
X212923595Y-75012457D02*
X212923595Y-74936266D01*
X212923595Y-74936266D02*
X212961690Y-74821981D01*
X212961690Y-74821981D02*
X212999785Y-74783885D01*
X213723595Y-74021981D02*
X213723595Y-74479124D01*
X213723595Y-74250552D02*
X212923595Y-74250552D01*
X212923595Y-74250552D02*
X213037880Y-74326743D01*
X213037880Y-74326743D02*
X213114071Y-74402933D01*
X213114071Y-74402933D02*
X213152166Y-74479124D01*
X212923595Y-73336266D02*
X212923595Y-73488647D01*
X212923595Y-73488647D02*
X212961690Y-73564838D01*
X212961690Y-73564838D02*
X212999785Y-73602933D01*
X212999785Y-73602933D02*
X213114071Y-73679123D01*
X213114071Y-73679123D02*
X213266452Y-73717219D01*
X213266452Y-73717219D02*
X213571214Y-73717219D01*
X213571214Y-73717219D02*
X213647404Y-73679123D01*
X213647404Y-73679123D02*
X213685500Y-73641028D01*
X213685500Y-73641028D02*
X213723595Y-73564838D01*
X213723595Y-73564838D02*
X213723595Y-73412457D01*
X213723595Y-73412457D02*
X213685500Y-73336266D01*
X213685500Y-73336266D02*
X213647404Y-73298171D01*
X213647404Y-73298171D02*
X213571214Y-73260076D01*
X213571214Y-73260076D02*
X213380738Y-73260076D01*
X213380738Y-73260076D02*
X213304547Y-73298171D01*
X213304547Y-73298171D02*
X213266452Y-73336266D01*
X213266452Y-73336266D02*
X213228357Y-73412457D01*
X213228357Y-73412457D02*
X213228357Y-73564838D01*
X213228357Y-73564838D02*
X213266452Y-73641028D01*
X213266452Y-73641028D02*
X213304547Y-73679123D01*
X213304547Y-73679123D02*
X213380738Y-73717219D01*
D10*
X189222142Y-72083819D02*
X188888809Y-71607628D01*
X188650714Y-72083819D02*
X188650714Y-71083819D01*
X188650714Y-71083819D02*
X189031666Y-71083819D01*
X189031666Y-71083819D02*
X189126904Y-71131438D01*
X189126904Y-71131438D02*
X189174523Y-71179057D01*
X189174523Y-71179057D02*
X189222142Y-71274295D01*
X189222142Y-71274295D02*
X189222142Y-71417152D01*
X189222142Y-71417152D02*
X189174523Y-71512390D01*
X189174523Y-71512390D02*
X189126904Y-71560009D01*
X189126904Y-71560009D02*
X189031666Y-71607628D01*
X189031666Y-71607628D02*
X188650714Y-71607628D01*
X190174523Y-72083819D02*
X189603095Y-72083819D01*
X189888809Y-72083819D02*
X189888809Y-71083819D01*
X189888809Y-71083819D02*
X189793571Y-71226676D01*
X189793571Y-71226676D02*
X189698333Y-71321914D01*
X189698333Y-71321914D02*
X189603095Y-71369533D01*
X190793571Y-71083819D02*
X190888809Y-71083819D01*
X190888809Y-71083819D02*
X190984047Y-71131438D01*
X190984047Y-71131438D02*
X191031666Y-71179057D01*
X191031666Y-71179057D02*
X191079285Y-71274295D01*
X191079285Y-71274295D02*
X191126904Y-71464771D01*
X191126904Y-71464771D02*
X191126904Y-71702866D01*
X191126904Y-71702866D02*
X191079285Y-71893342D01*
X191079285Y-71893342D02*
X191031666Y-71988580D01*
X191031666Y-71988580D02*
X190984047Y-72036200D01*
X190984047Y-72036200D02*
X190888809Y-72083819D01*
X190888809Y-72083819D02*
X190793571Y-72083819D01*
X190793571Y-72083819D02*
X190698333Y-72036200D01*
X190698333Y-72036200D02*
X190650714Y-71988580D01*
X190650714Y-71988580D02*
X190603095Y-71893342D01*
X190603095Y-71893342D02*
X190555476Y-71702866D01*
X190555476Y-71702866D02*
X190555476Y-71464771D01*
X190555476Y-71464771D02*
X190603095Y-71274295D01*
X190603095Y-71274295D02*
X190650714Y-71179057D01*
X190650714Y-71179057D02*
X190698333Y-71131438D01*
X190698333Y-71131438D02*
X190793571Y-71083819D01*
X198374095Y-67272819D02*
X198374095Y-68082342D01*
X198374095Y-68082342D02*
X198421714Y-68177580D01*
X198421714Y-68177580D02*
X198469333Y-68225200D01*
X198469333Y-68225200D02*
X198564571Y-68272819D01*
X198564571Y-68272819D02*
X198755047Y-68272819D01*
X198755047Y-68272819D02*
X198850285Y-68225200D01*
X198850285Y-68225200D02*
X198897904Y-68177580D01*
X198897904Y-68177580D02*
X198945523Y-68082342D01*
X198945523Y-68082342D02*
X198945523Y-67272819D01*
X199326476Y-67272819D02*
X199993142Y-67272819D01*
X199993142Y-67272819D02*
X199564571Y-68272819D01*
D12*
X215816666Y-60041809D02*
X215650000Y-59803714D01*
X215530952Y-60041809D02*
X215530952Y-59541809D01*
X215530952Y-59541809D02*
X215721428Y-59541809D01*
X215721428Y-59541809D02*
X215769047Y-59565619D01*
X215769047Y-59565619D02*
X215792857Y-59589428D01*
X215792857Y-59589428D02*
X215816666Y-59637047D01*
X215816666Y-59637047D02*
X215816666Y-59708476D01*
X215816666Y-59708476D02*
X215792857Y-59756095D01*
X215792857Y-59756095D02*
X215769047Y-59779904D01*
X215769047Y-59779904D02*
X215721428Y-59803714D01*
X215721428Y-59803714D02*
X215530952Y-59803714D01*
X216054762Y-60041809D02*
X216150000Y-60041809D01*
X216150000Y-60041809D02*
X216197619Y-60018000D01*
X216197619Y-60018000D02*
X216221428Y-59994190D01*
X216221428Y-59994190D02*
X216269047Y-59922761D01*
X216269047Y-59922761D02*
X216292857Y-59827523D01*
X216292857Y-59827523D02*
X216292857Y-59637047D01*
X216292857Y-59637047D02*
X216269047Y-59589428D01*
X216269047Y-59589428D02*
X216245238Y-59565619D01*
X216245238Y-59565619D02*
X216197619Y-59541809D01*
X216197619Y-59541809D02*
X216102381Y-59541809D01*
X216102381Y-59541809D02*
X216054762Y-59565619D01*
X216054762Y-59565619D02*
X216030952Y-59589428D01*
X216030952Y-59589428D02*
X216007143Y-59637047D01*
X216007143Y-59637047D02*
X216007143Y-59756095D01*
X216007143Y-59756095D02*
X216030952Y-59803714D01*
X216030952Y-59803714D02*
X216054762Y-59827523D01*
X216054762Y-59827523D02*
X216102381Y-59851333D01*
X216102381Y-59851333D02*
X216197619Y-59851333D01*
X216197619Y-59851333D02*
X216245238Y-59827523D01*
X216245238Y-59827523D02*
X216269047Y-59803714D01*
X216269047Y-59803714D02*
X216292857Y-59756095D01*
D10*
X206411533Y-101807180D02*
X206363914Y-101854800D01*
X206363914Y-101854800D02*
X206221057Y-101902419D01*
X206221057Y-101902419D02*
X206125819Y-101902419D01*
X206125819Y-101902419D02*
X205982962Y-101854800D01*
X205982962Y-101854800D02*
X205887724Y-101759561D01*
X205887724Y-101759561D02*
X205840105Y-101664323D01*
X205840105Y-101664323D02*
X205792486Y-101473847D01*
X205792486Y-101473847D02*
X205792486Y-101330990D01*
X205792486Y-101330990D02*
X205840105Y-101140514D01*
X205840105Y-101140514D02*
X205887724Y-101045276D01*
X205887724Y-101045276D02*
X205982962Y-100950038D01*
X205982962Y-100950038D02*
X206125819Y-100902419D01*
X206125819Y-100902419D02*
X206221057Y-100902419D01*
X206221057Y-100902419D02*
X206363914Y-100950038D01*
X206363914Y-100950038D02*
X206411533Y-100997657D01*
X207268676Y-100902419D02*
X207078200Y-100902419D01*
X207078200Y-100902419D02*
X206982962Y-100950038D01*
X206982962Y-100950038D02*
X206935343Y-100997657D01*
X206935343Y-100997657D02*
X206840105Y-101140514D01*
X206840105Y-101140514D02*
X206792486Y-101330990D01*
X206792486Y-101330990D02*
X206792486Y-101711942D01*
X206792486Y-101711942D02*
X206840105Y-101807180D01*
X206840105Y-101807180D02*
X206887724Y-101854800D01*
X206887724Y-101854800D02*
X206982962Y-101902419D01*
X206982962Y-101902419D02*
X207173438Y-101902419D01*
X207173438Y-101902419D02*
X207268676Y-101854800D01*
X207268676Y-101854800D02*
X207316295Y-101807180D01*
X207316295Y-101807180D02*
X207363914Y-101711942D01*
X207363914Y-101711942D02*
X207363914Y-101473847D01*
X207363914Y-101473847D02*
X207316295Y-101378609D01*
X207316295Y-101378609D02*
X207268676Y-101330990D01*
X207268676Y-101330990D02*
X207173438Y-101283371D01*
X207173438Y-101283371D02*
X206982962Y-101283371D01*
X206982962Y-101283371D02*
X206887724Y-101330990D01*
X206887724Y-101330990D02*
X206840105Y-101378609D01*
X206840105Y-101378609D02*
X206792486Y-101473847D01*
X219924333Y-63954819D02*
X219591000Y-63478628D01*
X219352905Y-63954819D02*
X219352905Y-62954819D01*
X219352905Y-62954819D02*
X219733857Y-62954819D01*
X219733857Y-62954819D02*
X219829095Y-63002438D01*
X219829095Y-63002438D02*
X219876714Y-63050057D01*
X219876714Y-63050057D02*
X219924333Y-63145295D01*
X219924333Y-63145295D02*
X219924333Y-63288152D01*
X219924333Y-63288152D02*
X219876714Y-63383390D01*
X219876714Y-63383390D02*
X219829095Y-63431009D01*
X219829095Y-63431009D02*
X219733857Y-63478628D01*
X219733857Y-63478628D02*
X219352905Y-63478628D01*
X220829095Y-62954819D02*
X220352905Y-62954819D01*
X220352905Y-62954819D02*
X220305286Y-63431009D01*
X220305286Y-63431009D02*
X220352905Y-63383390D01*
X220352905Y-63383390D02*
X220448143Y-63335771D01*
X220448143Y-63335771D02*
X220686238Y-63335771D01*
X220686238Y-63335771D02*
X220781476Y-63383390D01*
X220781476Y-63383390D02*
X220829095Y-63431009D01*
X220829095Y-63431009D02*
X220876714Y-63526247D01*
X220876714Y-63526247D02*
X220876714Y-63764342D01*
X220876714Y-63764342D02*
X220829095Y-63859580D01*
X220829095Y-63859580D02*
X220781476Y-63907200D01*
X220781476Y-63907200D02*
X220686238Y-63954819D01*
X220686238Y-63954819D02*
X220448143Y-63954819D01*
X220448143Y-63954819D02*
X220352905Y-63907200D01*
X220352905Y-63907200D02*
X220305286Y-63859580D01*
X184046905Y-78178819D02*
X184046905Y-77178819D01*
X184046905Y-77178819D02*
X184285000Y-77178819D01*
X184285000Y-77178819D02*
X184427857Y-77226438D01*
X184427857Y-77226438D02*
X184523095Y-77321676D01*
X184523095Y-77321676D02*
X184570714Y-77416914D01*
X184570714Y-77416914D02*
X184618333Y-77607390D01*
X184618333Y-77607390D02*
X184618333Y-77750247D01*
X184618333Y-77750247D02*
X184570714Y-77940723D01*
X184570714Y-77940723D02*
X184523095Y-78035961D01*
X184523095Y-78035961D02*
X184427857Y-78131200D01*
X184427857Y-78131200D02*
X184285000Y-78178819D01*
X184285000Y-78178819D02*
X184046905Y-78178819D01*
X184951667Y-77178819D02*
X185570714Y-77178819D01*
X185570714Y-77178819D02*
X185237381Y-77559771D01*
X185237381Y-77559771D02*
X185380238Y-77559771D01*
X185380238Y-77559771D02*
X185475476Y-77607390D01*
X185475476Y-77607390D02*
X185523095Y-77655009D01*
X185523095Y-77655009D02*
X185570714Y-77750247D01*
X185570714Y-77750247D02*
X185570714Y-77988342D01*
X185570714Y-77988342D02*
X185523095Y-78083580D01*
X185523095Y-78083580D02*
X185475476Y-78131200D01*
X185475476Y-78131200D02*
X185380238Y-78178819D01*
X185380238Y-78178819D02*
X185094524Y-78178819D01*
X185094524Y-78178819D02*
X184999286Y-78131200D01*
X184999286Y-78131200D02*
X184951667Y-78083580D01*
X189632833Y-75512819D02*
X189299500Y-75036628D01*
X189061405Y-75512819D02*
X189061405Y-74512819D01*
X189061405Y-74512819D02*
X189442357Y-74512819D01*
X189442357Y-74512819D02*
X189537595Y-74560438D01*
X189537595Y-74560438D02*
X189585214Y-74608057D01*
X189585214Y-74608057D02*
X189632833Y-74703295D01*
X189632833Y-74703295D02*
X189632833Y-74846152D01*
X189632833Y-74846152D02*
X189585214Y-74941390D01*
X189585214Y-74941390D02*
X189537595Y-74989009D01*
X189537595Y-74989009D02*
X189442357Y-75036628D01*
X189442357Y-75036628D02*
X189061405Y-75036628D01*
X190489976Y-74512819D02*
X190299500Y-74512819D01*
X190299500Y-74512819D02*
X190204262Y-74560438D01*
X190204262Y-74560438D02*
X190156643Y-74608057D01*
X190156643Y-74608057D02*
X190061405Y-74750914D01*
X190061405Y-74750914D02*
X190013786Y-74941390D01*
X190013786Y-74941390D02*
X190013786Y-75322342D01*
X190013786Y-75322342D02*
X190061405Y-75417580D01*
X190061405Y-75417580D02*
X190109024Y-75465200D01*
X190109024Y-75465200D02*
X190204262Y-75512819D01*
X190204262Y-75512819D02*
X190394738Y-75512819D01*
X190394738Y-75512819D02*
X190489976Y-75465200D01*
X190489976Y-75465200D02*
X190537595Y-75417580D01*
X190537595Y-75417580D02*
X190585214Y-75322342D01*
X190585214Y-75322342D02*
X190585214Y-75084247D01*
X190585214Y-75084247D02*
X190537595Y-74989009D01*
X190537595Y-74989009D02*
X190489976Y-74941390D01*
X190489976Y-74941390D02*
X190394738Y-74893771D01*
X190394738Y-74893771D02*
X190204262Y-74893771D01*
X190204262Y-74893771D02*
X190109024Y-74941390D01*
X190109024Y-74941390D02*
X190061405Y-74989009D01*
X190061405Y-74989009D02*
X190013786Y-75084247D01*
X211074095Y-94628319D02*
X211074095Y-95437842D01*
X211074095Y-95437842D02*
X211121714Y-95533080D01*
X211121714Y-95533080D02*
X211169333Y-95580700D01*
X211169333Y-95580700D02*
X211264571Y-95628319D01*
X211264571Y-95628319D02*
X211455047Y-95628319D01*
X211455047Y-95628319D02*
X211550285Y-95580700D01*
X211550285Y-95580700D02*
X211597904Y-95533080D01*
X211597904Y-95533080D02*
X211645523Y-95437842D01*
X211645523Y-95437842D02*
X211645523Y-94628319D01*
X212026476Y-94628319D02*
X212645523Y-94628319D01*
X212645523Y-94628319D02*
X212312190Y-95009271D01*
X212312190Y-95009271D02*
X212455047Y-95009271D01*
X212455047Y-95009271D02*
X212550285Y-95056890D01*
X212550285Y-95056890D02*
X212597904Y-95104509D01*
X212597904Y-95104509D02*
X212645523Y-95199747D01*
X212645523Y-95199747D02*
X212645523Y-95437842D01*
X212645523Y-95437842D02*
X212597904Y-95533080D01*
X212597904Y-95533080D02*
X212550285Y-95580700D01*
X212550285Y-95580700D02*
X212455047Y-95628319D01*
X212455047Y-95628319D02*
X212169333Y-95628319D01*
X212169333Y-95628319D02*
X212074095Y-95580700D01*
X212074095Y-95580700D02*
X212026476Y-95533080D01*
D12*
X218829004Y-74631485D02*
X218867100Y-74669581D01*
X218867100Y-74669581D02*
X218905195Y-74783866D01*
X218905195Y-74783866D02*
X218905195Y-74860057D01*
X218905195Y-74860057D02*
X218867100Y-74974343D01*
X218867100Y-74974343D02*
X218790909Y-75050533D01*
X218790909Y-75050533D02*
X218714719Y-75088628D01*
X218714719Y-75088628D02*
X218562338Y-75126724D01*
X218562338Y-75126724D02*
X218448052Y-75126724D01*
X218448052Y-75126724D02*
X218295671Y-75088628D01*
X218295671Y-75088628D02*
X218219480Y-75050533D01*
X218219480Y-75050533D02*
X218143290Y-74974343D01*
X218143290Y-74974343D02*
X218105195Y-74860057D01*
X218105195Y-74860057D02*
X218105195Y-74783866D01*
X218105195Y-74783866D02*
X218143290Y-74669581D01*
X218143290Y-74669581D02*
X218181385Y-74631485D01*
X218905195Y-73869581D02*
X218905195Y-74326724D01*
X218905195Y-74098152D02*
X218105195Y-74098152D01*
X218105195Y-74098152D02*
X218219480Y-74174343D01*
X218219480Y-74174343D02*
X218295671Y-74250533D01*
X218295671Y-74250533D02*
X218333766Y-74326724D01*
X218105195Y-73145771D02*
X218105195Y-73526723D01*
X218105195Y-73526723D02*
X218486147Y-73564819D01*
X218486147Y-73564819D02*
X218448052Y-73526723D01*
X218448052Y-73526723D02*
X218409957Y-73450533D01*
X218409957Y-73450533D02*
X218409957Y-73260057D01*
X218409957Y-73260057D02*
X218448052Y-73183866D01*
X218448052Y-73183866D02*
X218486147Y-73145771D01*
X218486147Y-73145771D02*
X218562338Y-73107676D01*
X218562338Y-73107676D02*
X218752814Y-73107676D01*
X218752814Y-73107676D02*
X218829004Y-73145771D01*
X218829004Y-73145771D02*
X218867100Y-73183866D01*
X218867100Y-73183866D02*
X218905195Y-73260057D01*
X218905195Y-73260057D02*
X218905195Y-73450533D01*
X218905195Y-73450533D02*
X218867100Y-73526723D01*
X218867100Y-73526723D02*
X218829004Y-73564819D01*
D10*
X204589142Y-60049580D02*
X204541523Y-60097200D01*
X204541523Y-60097200D02*
X204398666Y-60144819D01*
X204398666Y-60144819D02*
X204303428Y-60144819D01*
X204303428Y-60144819D02*
X204160571Y-60097200D01*
X204160571Y-60097200D02*
X204065333Y-60001961D01*
X204065333Y-60001961D02*
X204017714Y-59906723D01*
X204017714Y-59906723D02*
X203970095Y-59716247D01*
X203970095Y-59716247D02*
X203970095Y-59573390D01*
X203970095Y-59573390D02*
X204017714Y-59382914D01*
X204017714Y-59382914D02*
X204065333Y-59287676D01*
X204065333Y-59287676D02*
X204160571Y-59192438D01*
X204160571Y-59192438D02*
X204303428Y-59144819D01*
X204303428Y-59144819D02*
X204398666Y-59144819D01*
X204398666Y-59144819D02*
X204541523Y-59192438D01*
X204541523Y-59192438D02*
X204589142Y-59240057D01*
X204970095Y-59240057D02*
X205017714Y-59192438D01*
X205017714Y-59192438D02*
X205112952Y-59144819D01*
X205112952Y-59144819D02*
X205351047Y-59144819D01*
X205351047Y-59144819D02*
X205446285Y-59192438D01*
X205446285Y-59192438D02*
X205493904Y-59240057D01*
X205493904Y-59240057D02*
X205541523Y-59335295D01*
X205541523Y-59335295D02*
X205541523Y-59430533D01*
X205541523Y-59430533D02*
X205493904Y-59573390D01*
X205493904Y-59573390D02*
X204922476Y-60144819D01*
X204922476Y-60144819D02*
X205541523Y-60144819D01*
X205874857Y-59144819D02*
X206493904Y-59144819D01*
X206493904Y-59144819D02*
X206160571Y-59525771D01*
X206160571Y-59525771D02*
X206303428Y-59525771D01*
X206303428Y-59525771D02*
X206398666Y-59573390D01*
X206398666Y-59573390D02*
X206446285Y-59621009D01*
X206446285Y-59621009D02*
X206493904Y-59716247D01*
X206493904Y-59716247D02*
X206493904Y-59954342D01*
X206493904Y-59954342D02*
X206446285Y-60049580D01*
X206446285Y-60049580D02*
X206398666Y-60097200D01*
X206398666Y-60097200D02*
X206303428Y-60144819D01*
X206303428Y-60144819D02*
X206017714Y-60144819D01*
X206017714Y-60144819D02*
X205922476Y-60097200D01*
X205922476Y-60097200D02*
X205874857Y-60049580D01*
X189571333Y-78814819D02*
X189238000Y-78338628D01*
X188999905Y-78814819D02*
X188999905Y-77814819D01*
X188999905Y-77814819D02*
X189380857Y-77814819D01*
X189380857Y-77814819D02*
X189476095Y-77862438D01*
X189476095Y-77862438D02*
X189523714Y-77910057D01*
X189523714Y-77910057D02*
X189571333Y-78005295D01*
X189571333Y-78005295D02*
X189571333Y-78148152D01*
X189571333Y-78148152D02*
X189523714Y-78243390D01*
X189523714Y-78243390D02*
X189476095Y-78291009D01*
X189476095Y-78291009D02*
X189380857Y-78338628D01*
X189380857Y-78338628D02*
X188999905Y-78338628D01*
X189904667Y-77814819D02*
X190571333Y-77814819D01*
X190571333Y-77814819D02*
X190142762Y-78814819D01*
X200747333Y-102308819D02*
X200414000Y-101832628D01*
X200175905Y-102308819D02*
X200175905Y-101308819D01*
X200175905Y-101308819D02*
X200556857Y-101308819D01*
X200556857Y-101308819D02*
X200652095Y-101356438D01*
X200652095Y-101356438D02*
X200699714Y-101404057D01*
X200699714Y-101404057D02*
X200747333Y-101499295D01*
X200747333Y-101499295D02*
X200747333Y-101642152D01*
X200747333Y-101642152D02*
X200699714Y-101737390D01*
X200699714Y-101737390D02*
X200652095Y-101785009D01*
X200652095Y-101785009D02*
X200556857Y-101832628D01*
X200556857Y-101832628D02*
X200175905Y-101832628D01*
X201604476Y-101642152D02*
X201604476Y-102308819D01*
X201366381Y-101261200D02*
X201128286Y-101975485D01*
X201128286Y-101975485D02*
X201747333Y-101975485D01*
D13*
X206739505Y-56985219D02*
X206739505Y-55985219D01*
X206739505Y-55985219D02*
X206977600Y-55985219D01*
X206977600Y-55985219D02*
X207120457Y-56032838D01*
X207120457Y-56032838D02*
X207215695Y-56128076D01*
X207215695Y-56128076D02*
X207263314Y-56223314D01*
X207263314Y-56223314D02*
X207310933Y-56413790D01*
X207310933Y-56413790D02*
X207310933Y-56556647D01*
X207310933Y-56556647D02*
X207263314Y-56747123D01*
X207263314Y-56747123D02*
X207215695Y-56842361D01*
X207215695Y-56842361D02*
X207120457Y-56937600D01*
X207120457Y-56937600D02*
X206977600Y-56985219D01*
X206977600Y-56985219D02*
X206739505Y-56985219D01*
X208263314Y-56985219D02*
X207691886Y-56985219D01*
X207977600Y-56985219D02*
X207977600Y-55985219D01*
X207977600Y-55985219D02*
X207882362Y-56128076D01*
X207882362Y-56128076D02*
X207787124Y-56223314D01*
X207787124Y-56223314D02*
X207691886Y-56270933D01*
D10*
X215889633Y-103204180D02*
X215842014Y-103251800D01*
X215842014Y-103251800D02*
X215699157Y-103299419D01*
X215699157Y-103299419D02*
X215603919Y-103299419D01*
X215603919Y-103299419D02*
X215461062Y-103251800D01*
X215461062Y-103251800D02*
X215365824Y-103156561D01*
X215365824Y-103156561D02*
X215318205Y-103061323D01*
X215318205Y-103061323D02*
X215270586Y-102870847D01*
X215270586Y-102870847D02*
X215270586Y-102727990D01*
X215270586Y-102727990D02*
X215318205Y-102537514D01*
X215318205Y-102537514D02*
X215365824Y-102442276D01*
X215365824Y-102442276D02*
X215461062Y-102347038D01*
X215461062Y-102347038D02*
X215603919Y-102299419D01*
X215603919Y-102299419D02*
X215699157Y-102299419D01*
X215699157Y-102299419D02*
X215842014Y-102347038D01*
X215842014Y-102347038D02*
X215889633Y-102394657D01*
X216794395Y-102299419D02*
X216318205Y-102299419D01*
X216318205Y-102299419D02*
X216270586Y-102775609D01*
X216270586Y-102775609D02*
X216318205Y-102727990D01*
X216318205Y-102727990D02*
X216413443Y-102680371D01*
X216413443Y-102680371D02*
X216651538Y-102680371D01*
X216651538Y-102680371D02*
X216746776Y-102727990D01*
X216746776Y-102727990D02*
X216794395Y-102775609D01*
X216794395Y-102775609D02*
X216842014Y-102870847D01*
X216842014Y-102870847D02*
X216842014Y-103108942D01*
X216842014Y-103108942D02*
X216794395Y-103204180D01*
X216794395Y-103204180D02*
X216746776Y-103251800D01*
X216746776Y-103251800D02*
X216651538Y-103299419D01*
X216651538Y-103299419D02*
X216413443Y-103299419D01*
X216413443Y-103299419D02*
X216318205Y-103251800D01*
X216318205Y-103251800D02*
X216270586Y-103204180D01*
X183221333Y-87608580D02*
X183173714Y-87656200D01*
X183173714Y-87656200D02*
X183030857Y-87703819D01*
X183030857Y-87703819D02*
X182935619Y-87703819D01*
X182935619Y-87703819D02*
X182792762Y-87656200D01*
X182792762Y-87656200D02*
X182697524Y-87560961D01*
X182697524Y-87560961D02*
X182649905Y-87465723D01*
X182649905Y-87465723D02*
X182602286Y-87275247D01*
X182602286Y-87275247D02*
X182602286Y-87132390D01*
X182602286Y-87132390D02*
X182649905Y-86941914D01*
X182649905Y-86941914D02*
X182697524Y-86846676D01*
X182697524Y-86846676D02*
X182792762Y-86751438D01*
X182792762Y-86751438D02*
X182935619Y-86703819D01*
X182935619Y-86703819D02*
X183030857Y-86703819D01*
X183030857Y-86703819D02*
X183173714Y-86751438D01*
X183173714Y-86751438D02*
X183221333Y-86799057D01*
X184173714Y-87703819D02*
X183602286Y-87703819D01*
X183888000Y-87703819D02*
X183888000Y-86703819D01*
X183888000Y-86703819D02*
X183792762Y-86846676D01*
X183792762Y-86846676D02*
X183697524Y-86941914D01*
X183697524Y-86941914D02*
X183602286Y-86989533D01*
D12*
X202685714Y-63431804D02*
X202647618Y-63469900D01*
X202647618Y-63469900D02*
X202533333Y-63507995D01*
X202533333Y-63507995D02*
X202457142Y-63507995D01*
X202457142Y-63507995D02*
X202342856Y-63469900D01*
X202342856Y-63469900D02*
X202266666Y-63393709D01*
X202266666Y-63393709D02*
X202228571Y-63317519D01*
X202228571Y-63317519D02*
X202190475Y-63165138D01*
X202190475Y-63165138D02*
X202190475Y-63050852D01*
X202190475Y-63050852D02*
X202228571Y-62898471D01*
X202228571Y-62898471D02*
X202266666Y-62822280D01*
X202266666Y-62822280D02*
X202342856Y-62746090D01*
X202342856Y-62746090D02*
X202457142Y-62707995D01*
X202457142Y-62707995D02*
X202533333Y-62707995D01*
X202533333Y-62707995D02*
X202647618Y-62746090D01*
X202647618Y-62746090D02*
X202685714Y-62784185D01*
X202990475Y-62784185D02*
X203028571Y-62746090D01*
X203028571Y-62746090D02*
X203104761Y-62707995D01*
X203104761Y-62707995D02*
X203295237Y-62707995D01*
X203295237Y-62707995D02*
X203371428Y-62746090D01*
X203371428Y-62746090D02*
X203409523Y-62784185D01*
X203409523Y-62784185D02*
X203447618Y-62860376D01*
X203447618Y-62860376D02*
X203447618Y-62936566D01*
X203447618Y-62936566D02*
X203409523Y-63050852D01*
X203409523Y-63050852D02*
X202952380Y-63507995D01*
X202952380Y-63507995D02*
X203447618Y-63507995D01*
X204133333Y-62974661D02*
X204133333Y-63507995D01*
X203942857Y-62669900D02*
X203752380Y-63241328D01*
X203752380Y-63241328D02*
X204247619Y-63241328D01*
D10*
X184166000Y-74545362D02*
X184166000Y-73545362D01*
X184166000Y-73545362D02*
X184404095Y-73545362D01*
X184404095Y-73545362D02*
X184546952Y-73592981D01*
X184546952Y-73592981D02*
X184642190Y-73688219D01*
X184642190Y-73688219D02*
X184689809Y-73783457D01*
X184689809Y-73783457D02*
X184737428Y-73973933D01*
X184737428Y-73973933D02*
X184737428Y-74116790D01*
X184737428Y-74116790D02*
X184689809Y-74307266D01*
X184689809Y-74307266D02*
X184642190Y-74402504D01*
X184642190Y-74402504D02*
X184546952Y-74497743D01*
X184546952Y-74497743D02*
X184404095Y-74545362D01*
X184404095Y-74545362D02*
X184166000Y-74545362D01*
X185118381Y-73640600D02*
X185166000Y-73592981D01*
X185166000Y-73592981D02*
X185261238Y-73545362D01*
X185261238Y-73545362D02*
X185499333Y-73545362D01*
X185499333Y-73545362D02*
X185594571Y-73592981D01*
X185594571Y-73592981D02*
X185642190Y-73640600D01*
X185642190Y-73640600D02*
X185689809Y-73735838D01*
X185689809Y-73735838D02*
X185689809Y-73831076D01*
X185689809Y-73831076D02*
X185642190Y-73973933D01*
X185642190Y-73973933D02*
X185070762Y-74545362D01*
X185070762Y-74545362D02*
X185689809Y-74545362D01*
X203962095Y-72987819D02*
X203962095Y-73797342D01*
X203962095Y-73797342D02*
X204009714Y-73892580D01*
X204009714Y-73892580D02*
X204057333Y-73940200D01*
X204057333Y-73940200D02*
X204152571Y-73987819D01*
X204152571Y-73987819D02*
X204343047Y-73987819D01*
X204343047Y-73987819D02*
X204438285Y-73940200D01*
X204438285Y-73940200D02*
X204485904Y-73892580D01*
X204485904Y-73892580D02*
X204533523Y-73797342D01*
X204533523Y-73797342D02*
X204533523Y-72987819D01*
X205485904Y-72987819D02*
X205009714Y-72987819D01*
X205009714Y-72987819D02*
X204962095Y-73464009D01*
X204962095Y-73464009D02*
X205009714Y-73416390D01*
X205009714Y-73416390D02*
X205104952Y-73368771D01*
X205104952Y-73368771D02*
X205343047Y-73368771D01*
X205343047Y-73368771D02*
X205438285Y-73416390D01*
X205438285Y-73416390D02*
X205485904Y-73464009D01*
X205485904Y-73464009D02*
X205533523Y-73559247D01*
X205533523Y-73559247D02*
X205533523Y-73797342D01*
X205533523Y-73797342D02*
X205485904Y-73892580D01*
X205485904Y-73892580D02*
X205438285Y-73940200D01*
X205438285Y-73940200D02*
X205343047Y-73987819D01*
X205343047Y-73987819D02*
X205104952Y-73987819D01*
X205104952Y-73987819D02*
X205009714Y-73940200D01*
X205009714Y-73940200D02*
X204962095Y-73892580D01*
X219067142Y-69955580D02*
X219019523Y-70003200D01*
X219019523Y-70003200D02*
X218876666Y-70050819D01*
X218876666Y-70050819D02*
X218781428Y-70050819D01*
X218781428Y-70050819D02*
X218638571Y-70003200D01*
X218638571Y-70003200D02*
X218543333Y-69907961D01*
X218543333Y-69907961D02*
X218495714Y-69812723D01*
X218495714Y-69812723D02*
X218448095Y-69622247D01*
X218448095Y-69622247D02*
X218448095Y-69479390D01*
X218448095Y-69479390D02*
X218495714Y-69288914D01*
X218495714Y-69288914D02*
X218543333Y-69193676D01*
X218543333Y-69193676D02*
X218638571Y-69098438D01*
X218638571Y-69098438D02*
X218781428Y-69050819D01*
X218781428Y-69050819D02*
X218876666Y-69050819D01*
X218876666Y-69050819D02*
X219019523Y-69098438D01*
X219019523Y-69098438D02*
X219067142Y-69146057D01*
X220019523Y-70050819D02*
X219448095Y-70050819D01*
X219733809Y-70050819D02*
X219733809Y-69050819D01*
X219733809Y-69050819D02*
X219638571Y-69193676D01*
X219638571Y-69193676D02*
X219543333Y-69288914D01*
X219543333Y-69288914D02*
X219448095Y-69336533D01*
X220352857Y-69050819D02*
X220971904Y-69050819D01*
X220971904Y-69050819D02*
X220638571Y-69431771D01*
X220638571Y-69431771D02*
X220781428Y-69431771D01*
X220781428Y-69431771D02*
X220876666Y-69479390D01*
X220876666Y-69479390D02*
X220924285Y-69527009D01*
X220924285Y-69527009D02*
X220971904Y-69622247D01*
X220971904Y-69622247D02*
X220971904Y-69860342D01*
X220971904Y-69860342D02*
X220924285Y-69955580D01*
X220924285Y-69955580D02*
X220876666Y-70003200D01*
X220876666Y-70003200D02*
X220781428Y-70050819D01*
X220781428Y-70050819D02*
X220495714Y-70050819D01*
X220495714Y-70050819D02*
X220400476Y-70003200D01*
X220400476Y-70003200D02*
X220352857Y-69955580D01*
X184618333Y-66876819D02*
X184285000Y-66400628D01*
X184046905Y-66876819D02*
X184046905Y-65876819D01*
X184046905Y-65876819D02*
X184427857Y-65876819D01*
X184427857Y-65876819D02*
X184523095Y-65924438D01*
X184523095Y-65924438D02*
X184570714Y-65972057D01*
X184570714Y-65972057D02*
X184618333Y-66067295D01*
X184618333Y-66067295D02*
X184618333Y-66210152D01*
X184618333Y-66210152D02*
X184570714Y-66305390D01*
X184570714Y-66305390D02*
X184523095Y-66353009D01*
X184523095Y-66353009D02*
X184427857Y-66400628D01*
X184427857Y-66400628D02*
X184046905Y-66400628D01*
X185189762Y-66305390D02*
X185094524Y-66257771D01*
X185094524Y-66257771D02*
X185046905Y-66210152D01*
X185046905Y-66210152D02*
X184999286Y-66114914D01*
X184999286Y-66114914D02*
X184999286Y-66067295D01*
X184999286Y-66067295D02*
X185046905Y-65972057D01*
X185046905Y-65972057D02*
X185094524Y-65924438D01*
X185094524Y-65924438D02*
X185189762Y-65876819D01*
X185189762Y-65876819D02*
X185380238Y-65876819D01*
X185380238Y-65876819D02*
X185475476Y-65924438D01*
X185475476Y-65924438D02*
X185523095Y-65972057D01*
X185523095Y-65972057D02*
X185570714Y-66067295D01*
X185570714Y-66067295D02*
X185570714Y-66114914D01*
X185570714Y-66114914D02*
X185523095Y-66210152D01*
X185523095Y-66210152D02*
X185475476Y-66257771D01*
X185475476Y-66257771D02*
X185380238Y-66305390D01*
X185380238Y-66305390D02*
X185189762Y-66305390D01*
X185189762Y-66305390D02*
X185094524Y-66353009D01*
X185094524Y-66353009D02*
X185046905Y-66400628D01*
X185046905Y-66400628D02*
X184999286Y-66495866D01*
X184999286Y-66495866D02*
X184999286Y-66686342D01*
X184999286Y-66686342D02*
X185046905Y-66781580D01*
X185046905Y-66781580D02*
X185094524Y-66829200D01*
X185094524Y-66829200D02*
X185189762Y-66876819D01*
X185189762Y-66876819D02*
X185380238Y-66876819D01*
X185380238Y-66876819D02*
X185475476Y-66829200D01*
X185475476Y-66829200D02*
X185523095Y-66781580D01*
X185523095Y-66781580D02*
X185570714Y-66686342D01*
X185570714Y-66686342D02*
X185570714Y-66495866D01*
X185570714Y-66495866D02*
X185523095Y-66400628D01*
X185523095Y-66400628D02*
X185475476Y-66353009D01*
X185475476Y-66353009D02*
X185380238Y-66305390D01*
X219067142Y-67923580D02*
X219019523Y-67971200D01*
X219019523Y-67971200D02*
X218876666Y-68018819D01*
X218876666Y-68018819D02*
X218781428Y-68018819D01*
X218781428Y-68018819D02*
X218638571Y-67971200D01*
X218638571Y-67971200D02*
X218543333Y-67875961D01*
X218543333Y-67875961D02*
X218495714Y-67780723D01*
X218495714Y-67780723D02*
X218448095Y-67590247D01*
X218448095Y-67590247D02*
X218448095Y-67447390D01*
X218448095Y-67447390D02*
X218495714Y-67256914D01*
X218495714Y-67256914D02*
X218543333Y-67161676D01*
X218543333Y-67161676D02*
X218638571Y-67066438D01*
X218638571Y-67066438D02*
X218781428Y-67018819D01*
X218781428Y-67018819D02*
X218876666Y-67018819D01*
X218876666Y-67018819D02*
X219019523Y-67066438D01*
X219019523Y-67066438D02*
X219067142Y-67114057D01*
X220019523Y-68018819D02*
X219448095Y-68018819D01*
X219733809Y-68018819D02*
X219733809Y-67018819D01*
X219733809Y-67018819D02*
X219638571Y-67161676D01*
X219638571Y-67161676D02*
X219543333Y-67256914D01*
X219543333Y-67256914D02*
X219448095Y-67304533D01*
X220876666Y-67352152D02*
X220876666Y-68018819D01*
X220638571Y-66971200D02*
X220400476Y-67685485D01*
X220400476Y-67685485D02*
X221019523Y-67685485D01*
X184173905Y-70914419D02*
X184173905Y-69914419D01*
X184173905Y-69914419D02*
X184412000Y-69914419D01*
X184412000Y-69914419D02*
X184554857Y-69962038D01*
X184554857Y-69962038D02*
X184650095Y-70057276D01*
X184650095Y-70057276D02*
X184697714Y-70152514D01*
X184697714Y-70152514D02*
X184745333Y-70342990D01*
X184745333Y-70342990D02*
X184745333Y-70485847D01*
X184745333Y-70485847D02*
X184697714Y-70676323D01*
X184697714Y-70676323D02*
X184650095Y-70771561D01*
X184650095Y-70771561D02*
X184554857Y-70866800D01*
X184554857Y-70866800D02*
X184412000Y-70914419D01*
X184412000Y-70914419D02*
X184173905Y-70914419D01*
X185602476Y-70247752D02*
X185602476Y-70914419D01*
X185364381Y-69866800D02*
X185126286Y-70581085D01*
X185126286Y-70581085D02*
X185745333Y-70581085D01*
X216323942Y-67002819D02*
X215990609Y-66526628D01*
X215752514Y-67002819D02*
X215752514Y-66002819D01*
X215752514Y-66002819D02*
X216133466Y-66002819D01*
X216133466Y-66002819D02*
X216228704Y-66050438D01*
X216228704Y-66050438D02*
X216276323Y-66098057D01*
X216276323Y-66098057D02*
X216323942Y-66193295D01*
X216323942Y-66193295D02*
X216323942Y-66336152D01*
X216323942Y-66336152D02*
X216276323Y-66431390D01*
X216276323Y-66431390D02*
X216228704Y-66479009D01*
X216228704Y-66479009D02*
X216133466Y-66526628D01*
X216133466Y-66526628D02*
X215752514Y-66526628D01*
X217276323Y-67002819D02*
X216704895Y-67002819D01*
X216990609Y-67002819D02*
X216990609Y-66002819D01*
X216990609Y-66002819D02*
X216895371Y-66145676D01*
X216895371Y-66145676D02*
X216800133Y-66240914D01*
X216800133Y-66240914D02*
X216704895Y-66288533D01*
X218228704Y-67002819D02*
X217657276Y-67002819D01*
X217942990Y-67002819D02*
X217942990Y-66002819D01*
X217942990Y-66002819D02*
X217847752Y-66145676D01*
X217847752Y-66145676D02*
X217752514Y-66240914D01*
X217752514Y-66240914D02*
X217657276Y-66288533D01*
X190238142Y-70082580D02*
X190190523Y-70130200D01*
X190190523Y-70130200D02*
X190047666Y-70177819D01*
X190047666Y-70177819D02*
X189952428Y-70177819D01*
X189952428Y-70177819D02*
X189809571Y-70130200D01*
X189809571Y-70130200D02*
X189714333Y-70034961D01*
X189714333Y-70034961D02*
X189666714Y-69939723D01*
X189666714Y-69939723D02*
X189619095Y-69749247D01*
X189619095Y-69749247D02*
X189619095Y-69606390D01*
X189619095Y-69606390D02*
X189666714Y-69415914D01*
X189666714Y-69415914D02*
X189714333Y-69320676D01*
X189714333Y-69320676D02*
X189809571Y-69225438D01*
X189809571Y-69225438D02*
X189952428Y-69177819D01*
X189952428Y-69177819D02*
X190047666Y-69177819D01*
X190047666Y-69177819D02*
X190190523Y-69225438D01*
X190190523Y-69225438D02*
X190238142Y-69273057D01*
X191190523Y-70177819D02*
X190619095Y-70177819D01*
X190904809Y-70177819D02*
X190904809Y-69177819D01*
X190904809Y-69177819D02*
X190809571Y-69320676D01*
X190809571Y-69320676D02*
X190714333Y-69415914D01*
X190714333Y-69415914D02*
X190619095Y-69463533D01*
X191523857Y-69177819D02*
X192190523Y-69177819D01*
X192190523Y-69177819D02*
X191761952Y-70177819D01*
X189388809Y-89250128D02*
X189388809Y-89726319D01*
X189055476Y-88726319D02*
X189388809Y-89250128D01*
X189388809Y-89250128D02*
X189722142Y-88726319D01*
X190579285Y-89726319D02*
X190007857Y-89726319D01*
X190293571Y-89726319D02*
X190293571Y-88726319D01*
X190293571Y-88726319D02*
X190198333Y-88869176D01*
X190198333Y-88869176D02*
X190103095Y-88964414D01*
X190103095Y-88964414D02*
X190007857Y-89012033D01*
D12*
X213292571Y-59994190D02*
X213268762Y-60018000D01*
X213268762Y-60018000D02*
X213197333Y-60041809D01*
X213197333Y-60041809D02*
X213149714Y-60041809D01*
X213149714Y-60041809D02*
X213078286Y-60018000D01*
X213078286Y-60018000D02*
X213030667Y-59970380D01*
X213030667Y-59970380D02*
X213006857Y-59922761D01*
X213006857Y-59922761D02*
X212983048Y-59827523D01*
X212983048Y-59827523D02*
X212983048Y-59756095D01*
X212983048Y-59756095D02*
X213006857Y-59660857D01*
X213006857Y-59660857D02*
X213030667Y-59613238D01*
X213030667Y-59613238D02*
X213078286Y-59565619D01*
X213078286Y-59565619D02*
X213149714Y-59541809D01*
X213149714Y-59541809D02*
X213197333Y-59541809D01*
X213197333Y-59541809D02*
X213268762Y-59565619D01*
X213268762Y-59565619D02*
X213292571Y-59589428D01*
X213768762Y-60041809D02*
X213483048Y-60041809D01*
X213625905Y-60041809D02*
X213625905Y-59541809D01*
X213625905Y-59541809D02*
X213578286Y-59613238D01*
X213578286Y-59613238D02*
X213530667Y-59660857D01*
X213530667Y-59660857D02*
X213483048Y-59684666D01*
X213959238Y-59589428D02*
X213983047Y-59565619D01*
X213983047Y-59565619D02*
X214030666Y-59541809D01*
X214030666Y-59541809D02*
X214149714Y-59541809D01*
X214149714Y-59541809D02*
X214197333Y-59565619D01*
X214197333Y-59565619D02*
X214221142Y-59589428D01*
X214221142Y-59589428D02*
X214244952Y-59637047D01*
X214244952Y-59637047D02*
X214244952Y-59684666D01*
X214244952Y-59684666D02*
X214221142Y-59756095D01*
X214221142Y-59756095D02*
X213935428Y-60041809D01*
X213935428Y-60041809D02*
X214244952Y-60041809D01*
D10*
X207351333Y-67034580D02*
X207303714Y-67082200D01*
X207303714Y-67082200D02*
X207160857Y-67129819D01*
X207160857Y-67129819D02*
X207065619Y-67129819D01*
X207065619Y-67129819D02*
X206922762Y-67082200D01*
X206922762Y-67082200D02*
X206827524Y-66986961D01*
X206827524Y-66986961D02*
X206779905Y-66891723D01*
X206779905Y-66891723D02*
X206732286Y-66701247D01*
X206732286Y-66701247D02*
X206732286Y-66558390D01*
X206732286Y-66558390D02*
X206779905Y-66367914D01*
X206779905Y-66367914D02*
X206827524Y-66272676D01*
X206827524Y-66272676D02*
X206922762Y-66177438D01*
X206922762Y-66177438D02*
X207065619Y-66129819D01*
X207065619Y-66129819D02*
X207160857Y-66129819D01*
X207160857Y-66129819D02*
X207303714Y-66177438D01*
X207303714Y-66177438D02*
X207351333Y-66225057D01*
X207684667Y-66129819D02*
X208351333Y-66129819D01*
X208351333Y-66129819D02*
X207922762Y-67129819D01*
X219780295Y-73875733D02*
X219780295Y-73380495D01*
X219780295Y-73380495D02*
X220085057Y-73647161D01*
X220085057Y-73647161D02*
X220085057Y-73532876D01*
X220085057Y-73532876D02*
X220123152Y-73456685D01*
X220123152Y-73456685D02*
X220161247Y-73418590D01*
X220161247Y-73418590D02*
X220237438Y-73380495D01*
X220237438Y-73380495D02*
X220427914Y-73380495D01*
X220427914Y-73380495D02*
X220504104Y-73418590D01*
X220504104Y-73418590D02*
X220542200Y-73456685D01*
X220542200Y-73456685D02*
X220580295Y-73532876D01*
X220580295Y-73532876D02*
X220580295Y-73761447D01*
X220580295Y-73761447D02*
X220542200Y-73837638D01*
X220542200Y-73837638D02*
X220504104Y-73875733D01*
X219780295Y-73151923D02*
X220580295Y-72885256D01*
X220580295Y-72885256D02*
X219780295Y-72618590D01*
X219780295Y-72428114D02*
X219780295Y-71932876D01*
X219780295Y-71932876D02*
X220085057Y-72199542D01*
X220085057Y-72199542D02*
X220085057Y-72085257D01*
X220085057Y-72085257D02*
X220123152Y-72009066D01*
X220123152Y-72009066D02*
X220161247Y-71970971D01*
X220161247Y-71970971D02*
X220237438Y-71932876D01*
X220237438Y-71932876D02*
X220427914Y-71932876D01*
X220427914Y-71932876D02*
X220504104Y-71970971D01*
X220504104Y-71970971D02*
X220542200Y-72009066D01*
X220542200Y-72009066D02*
X220580295Y-72085257D01*
X220580295Y-72085257D02*
X220580295Y-72313828D01*
X220580295Y-72313828D02*
X220542200Y-72390019D01*
X220542200Y-72390019D02*
X220504104Y-72428114D01*
X220351723Y-71628114D02*
X220351723Y-71247161D01*
X220580295Y-71704304D02*
X219780295Y-71437637D01*
X219780295Y-71437637D02*
X220580295Y-71170971D01*
X198338095Y-75895819D02*
X198338095Y-76705342D01*
X198338095Y-76705342D02*
X198385714Y-76800580D01*
X198385714Y-76800580D02*
X198433333Y-76848200D01*
X198433333Y-76848200D02*
X198528571Y-76895819D01*
X198528571Y-76895819D02*
X198719047Y-76895819D01*
X198719047Y-76895819D02*
X198814285Y-76848200D01*
X198814285Y-76848200D02*
X198861904Y-76800580D01*
X198861904Y-76800580D02*
X198909523Y-76705342D01*
X198909523Y-76705342D02*
X198909523Y-75895819D01*
X199909523Y-76895819D02*
X199338095Y-76895819D01*
X199623809Y-76895819D02*
X199623809Y-75895819D01*
X199623809Y-75895819D02*
X199528571Y-76038676D01*
X199528571Y-76038676D02*
X199433333Y-76133914D01*
X199433333Y-76133914D02*
X199338095Y-76181533D01*
D14*
X184685000Y-91073248D02*
X184685000Y-91595752D01*
X186155000Y-91073248D02*
X186155000Y-91595752D01*
X204649400Y-63780936D02*
X204649400Y-64235064D01*
X206119400Y-63780936D02*
X206119400Y-64235064D01*
X209006000Y-62787500D02*
X209006000Y-61987500D01*
X209006000Y-62787500D02*
X209006000Y-63587500D01*
X212126000Y-62787500D02*
X212126000Y-61987500D01*
X212126000Y-62787500D02*
X212126000Y-63587500D01*
X209056000Y-64087500D02*
X208726000Y-64327500D01*
X208726000Y-63847500D01*
X209056000Y-64087500D01*
G36*
X209056000Y-64087500D02*
G01*
X208726000Y-64327500D01*
X208726000Y-63847500D01*
X209056000Y-64087500D01*
G37*
D10*
X189230000Y-54987500D02*
X201930000Y-54987500D01*
X189230000Y-63487500D02*
X189230000Y-54987500D01*
X189230000Y-63487500D02*
X201930000Y-63487500D01*
X191770000Y-63487500D02*
X191770000Y-54987500D01*
X194310000Y-63487500D02*
X194310000Y-54987500D01*
X196850000Y-63487500D02*
X196850000Y-54987500D01*
X199390000Y-63487500D02*
X199390000Y-54987500D01*
X201930000Y-63487500D02*
X201930000Y-54987500D01*
X191719200Y-63423700D02*
X189280800Y-63423700D01*
X189280800Y-55041700D01*
X191719200Y-55041700D01*
X191719200Y-63423700D01*
G36*
X191719200Y-63423700D02*
G01*
X189280800Y-63423700D01*
X189280800Y-55041700D01*
X191719200Y-55041700D01*
X191719200Y-63423700D01*
G37*
D14*
X203334252Y-97309000D02*
X202811748Y-97309000D01*
X203334252Y-98779000D02*
X202811748Y-98779000D01*
X192813000Y-73384748D02*
X192813000Y-73907252D01*
X194283000Y-73384748D02*
X194283000Y-73907252D01*
X203481000Y-70184748D02*
X203481000Y-70707252D01*
X204951000Y-70184748D02*
X204951000Y-70707252D01*
X205767000Y-89019748D02*
X205767000Y-89542252D01*
X207237000Y-89019748D02*
X207237000Y-89542252D01*
X213587064Y-76608000D02*
X213132936Y-76608000D01*
X213587064Y-78078000D02*
X213132936Y-78078000D01*
X221046000Y-76774000D02*
X222946000Y-76774000D01*
X221046000Y-78674000D02*
X221046000Y-76774000D01*
X222946000Y-76774000D02*
X222946000Y-78674000D01*
X222946000Y-78674000D02*
X221046000Y-78674000D01*
D13*
X215289000Y-79572000D02*
X215289000Y-80592000D01*
X215289000Y-79572000D02*
X222989000Y-79572000D01*
X215289000Y-83592000D02*
X215289000Y-90792000D01*
X215289000Y-94812000D02*
X215289000Y-93792000D01*
X222989000Y-79572000D02*
X222989000Y-94812000D01*
X222989000Y-94812000D02*
X215289000Y-94812000D01*
D14*
X221046000Y-74234000D02*
X222946000Y-74234000D01*
X221046000Y-76134000D02*
X221046000Y-74234000D01*
X222946000Y-74234000D02*
X222946000Y-76134000D01*
X222946000Y-76134000D02*
X221046000Y-76134000D01*
X213945000Y-74402752D02*
X213945000Y-73880248D01*
X215415000Y-74402752D02*
X215415000Y-73880248D01*
X189637936Y-72544000D02*
X190092064Y-72544000D01*
X189637936Y-74014000D02*
X190092064Y-74014000D01*
X199136000Y-68503500D02*
X197186000Y-68503500D01*
X199136000Y-68503500D02*
X201086000Y-68503500D01*
X199136000Y-73623500D02*
X197186000Y-73623500D01*
X199136000Y-73623500D02*
X201086000Y-73623500D01*
X196436000Y-68598500D02*
X196196000Y-68268500D01*
X196676000Y-68268500D01*
X196436000Y-68598500D01*
G36*
X196436000Y-68598500D02*
G01*
X196196000Y-68268500D01*
X196676000Y-68268500D01*
X196436000Y-68598500D01*
G37*
X215165000Y-62510936D02*
X215165000Y-62965064D01*
X216635000Y-62510936D02*
X216635000Y-62965064D01*
X205716200Y-98392348D02*
X205716200Y-98914852D01*
X207186200Y-98392348D02*
X207186200Y-98914852D01*
X217451000Y-63272936D02*
X217451000Y-63727064D01*
X218921000Y-63272936D02*
X218921000Y-63727064D01*
X183185000Y-80764000D02*
X187245000Y-80764000D01*
X187245000Y-78494000D02*
X183185000Y-78494000D01*
X187245000Y-80764000D02*
X187245000Y-78494000D01*
X189572436Y-75973000D02*
X190026564Y-75973000D01*
X189572436Y-77443000D02*
X190026564Y-77443000D01*
X211836000Y-96013500D02*
X209886000Y-96013500D01*
X211836000Y-96013500D02*
X213786000Y-96013500D01*
X211836000Y-101133500D02*
X209886000Y-101133500D01*
X211836000Y-101133500D02*
X213786000Y-101133500D01*
X209136000Y-96108500D02*
X208896000Y-95778500D01*
X209376000Y-95778500D01*
X209136000Y-96108500D01*
G36*
X209136000Y-96108500D02*
G01*
X208896000Y-95778500D01*
X209376000Y-95778500D01*
X209136000Y-96108500D01*
G37*
X216435000Y-74407752D02*
X216435000Y-73885248D01*
X217905000Y-74407752D02*
X217905000Y-73885248D01*
X207037000Y-59951252D02*
X207037000Y-59428748D01*
X208507000Y-59951252D02*
X208507000Y-59428748D01*
X189510936Y-79275000D02*
X189965064Y-79275000D01*
X189510936Y-80745000D02*
X189965064Y-80745000D01*
X201157064Y-99341000D02*
X200702936Y-99341000D01*
X201157064Y-100811000D02*
X200702936Y-100811000D01*
D13*
X212579600Y-56724800D02*
X208979600Y-56724800D01*
X212579600Y-57024800D02*
X208979600Y-57024800D01*
X208979600Y-60624800D01*
X212579600Y-60624800D01*
X212579600Y-57024800D01*
D14*
X212874048Y-101982600D02*
X213396552Y-101982600D01*
X212874048Y-103452600D02*
X213396552Y-103452600D01*
X184685000Y-87383252D02*
X184685000Y-86860748D01*
X186155000Y-87383252D02*
X186155000Y-86860748D01*
X201957000Y-66555252D02*
X201957000Y-66032748D01*
X203427000Y-66555252D02*
X203427000Y-66032748D01*
X183185000Y-76954000D02*
X187245000Y-76954000D01*
X187245000Y-74684000D02*
X183185000Y-74684000D01*
X187245000Y-76954000D02*
X187245000Y-74684000D01*
X205990000Y-71386000D02*
X205990000Y-69186000D01*
X205990000Y-71386000D02*
X205990000Y-73586000D01*
X212760000Y-71386000D02*
X212760000Y-69186000D01*
X212760000Y-71386000D02*
X212760000Y-73586000D01*
X212300000Y-67526000D02*
X212060000Y-67196000D01*
X212540000Y-67196000D01*
X212300000Y-67526000D01*
G36*
X212300000Y-67526000D02*
G01*
X212060000Y-67196000D01*
X212540000Y-67196000D01*
X212300000Y-67526000D01*
G37*
X216435000Y-69883752D02*
X216435000Y-69361248D01*
X217905000Y-69883752D02*
X217905000Y-69361248D01*
X184176936Y-67337000D02*
X184631064Y-67337000D01*
X184176936Y-68807000D02*
X184631064Y-68807000D01*
X213895000Y-69878752D02*
X213895000Y-69356248D01*
X215365000Y-69878752D02*
X215365000Y-69356248D01*
X183312000Y-73398000D02*
X187372000Y-73398000D01*
X187372000Y-71128000D02*
X183312000Y-71128000D01*
X187372000Y-73398000D02*
X187372000Y-71128000D01*
X214002064Y-65305000D02*
X213547936Y-65305000D01*
X214002064Y-66775000D02*
X213547936Y-66775000D01*
X192813000Y-69334748D02*
X192813000Y-69857252D01*
X194283000Y-69334748D02*
X194283000Y-69857252D01*
X187195000Y-86071500D02*
X187195000Y-92471500D01*
X192245000Y-86071500D02*
X192245000Y-92471500D01*
X187195000Y-86071500D02*
G75*
G02*
X192245000Y-86071500I2525000J0D01*
G01*
X192245000Y-92471500D02*
G75*
G02*
X187195000Y-92471500I-2525000J0D01*
G01*
X212879000Y-62476748D02*
X212879000Y-62999252D01*
X214349000Y-62476748D02*
X214349000Y-62999252D01*
X206783000Y-63746748D02*
X206783000Y-64269252D01*
X208253000Y-63746748D02*
X208253000Y-64269252D01*
X221046000Y-71694000D02*
X222946000Y-71694000D01*
X221046000Y-73594000D02*
X221046000Y-71694000D01*
X222946000Y-71694000D02*
X222946000Y-73594000D01*
X222946000Y-73594000D02*
X221046000Y-73594000D01*
X195240000Y-77281000D02*
X195240000Y-77926000D01*
X195240000Y-96201000D02*
X195240000Y-95556000D01*
X199100000Y-77281000D02*
X195240000Y-77281000D01*
X199100000Y-77281000D02*
X202960000Y-77281000D01*
X199100000Y-96201000D02*
X195240000Y-96201000D01*
X199100000Y-96201000D02*
X202960000Y-96201000D01*
X202960000Y-77281000D02*
X202960000Y-77926000D01*
X202960000Y-96201000D02*
X202960000Y-95556000D01*
X194375000Y-77926000D02*
X194035000Y-77456000D01*
X194715000Y-77456000D01*
X194375000Y-77926000D01*
G36*
X194375000Y-77926000D02*
G01*
X194035000Y-77456000D01*
X194715000Y-77456000D01*
X194375000Y-77926000D01*
G37*
%LPC*%
D15*
X185420000Y-90297000D03*
X185420000Y-92372000D03*
D16*
X205384400Y-63008000D03*
X205384400Y-65008000D03*
D17*
X209616000Y-63925000D03*
X210566000Y-63925000D03*
X211516000Y-63925000D03*
X211516000Y-61650000D03*
X209616000Y-61650000D03*
D18*
X190500000Y-65887500D03*
X193040000Y-65887500D03*
X195580000Y-65887500D03*
X198120000Y-65887500D03*
X200660000Y-65887500D03*
D19*
X204110500Y-98044000D03*
X202035500Y-98044000D03*
D15*
X193548000Y-72608500D03*
X193548000Y-74683500D03*
X204216000Y-69408500D03*
X204216000Y-71483500D03*
X206502000Y-88243500D03*
X206502000Y-90318500D03*
D20*
X214360000Y-77343000D03*
X212360000Y-77343000D03*
D21*
X221996000Y-77724000D03*
D22*
X216789000Y-92342000D03*
X216789000Y-82042000D03*
D23*
X216789000Y-85942000D03*
X216789000Y-87192000D03*
X216789000Y-88442000D03*
X218039000Y-85942000D03*
X218039000Y-87192000D03*
X218039000Y-88442000D03*
D21*
X221996000Y-75184000D03*
D24*
X214680000Y-75179000D03*
X214680000Y-73104000D03*
D25*
X188865000Y-73279000D03*
X190865000Y-73279000D03*
D26*
X196661000Y-69158500D03*
X196661000Y-70428500D03*
X196661000Y-71698500D03*
X196661000Y-72968500D03*
X201611000Y-72968500D03*
X201611000Y-71698500D03*
X201611000Y-70428500D03*
X201611000Y-69158500D03*
D16*
X215900000Y-61738000D03*
X215900000Y-63738000D03*
D15*
X206451200Y-97616100D03*
X206451200Y-99691100D03*
D16*
X218186000Y-62500000D03*
X218186000Y-64500000D03*
D27*
X186272500Y-79629000D03*
X183297500Y-79629000D03*
D25*
X188799500Y-76708000D03*
X190799500Y-76708000D03*
D26*
X209361000Y-96668500D03*
X209361000Y-97938500D03*
X209361000Y-99208500D03*
X209361000Y-100478500D03*
X214311000Y-100478500D03*
X214311000Y-99208500D03*
X214311000Y-97938500D03*
X214311000Y-96668500D03*
D24*
X217170000Y-75184000D03*
X217170000Y-73109000D03*
X207772000Y-60727500D03*
X207772000Y-58652500D03*
D25*
X188738000Y-80010000D03*
X190738000Y-80010000D03*
D28*
X219964000Y-58674000D03*
X185420000Y-58420000D03*
D20*
X201930000Y-100076000D03*
X199930000Y-100076000D03*
D28*
X185420000Y-100330000D03*
D29*
X210779600Y-57924800D03*
X210779600Y-59724800D03*
D30*
X212097800Y-102717600D03*
X214172800Y-102717600D03*
D24*
X185420000Y-88159500D03*
X185420000Y-86084500D03*
X202692000Y-67331500D03*
X202692000Y-65256500D03*
D27*
X186272500Y-75819000D03*
X183297500Y-75819000D03*
D31*
X212300000Y-68523500D03*
X211650000Y-68523500D03*
X211000000Y-68523500D03*
X210350000Y-68523500D03*
X209700000Y-68523500D03*
X209050000Y-68523500D03*
X208400000Y-68523500D03*
X207750000Y-68523500D03*
X207100000Y-68523500D03*
X206450000Y-68523500D03*
X206450000Y-74248500D03*
X207100000Y-74248500D03*
X207750000Y-74248500D03*
X208400000Y-74248500D03*
X209050000Y-74248500D03*
X209700000Y-74248500D03*
X210350000Y-74248500D03*
X211000000Y-74248500D03*
X211650000Y-74248500D03*
X212300000Y-74248500D03*
D24*
X217170000Y-70660000D03*
X217170000Y-68585000D03*
D28*
X219964000Y-100330000D03*
D25*
X183404000Y-68072000D03*
X185404000Y-68072000D03*
D24*
X214630000Y-70655000D03*
X214630000Y-68580000D03*
D27*
X186399500Y-72263000D03*
X183424500Y-72263000D03*
D20*
X214775000Y-66040000D03*
X212775000Y-66040000D03*
D15*
X193548000Y-68558500D03*
X193548000Y-70633500D03*
D32*
X189720000Y-86831500D03*
X189720000Y-91711500D03*
D15*
X213614000Y-61700500D03*
X213614000Y-63775500D03*
X207518000Y-62970500D03*
X207518000Y-65045500D03*
D21*
X221996000Y-72644000D03*
D33*
X194300000Y-78486000D03*
X194300000Y-79756000D03*
X194300000Y-81026000D03*
X194300000Y-82296000D03*
X194300000Y-83566000D03*
X194300000Y-84836000D03*
X194300000Y-86106000D03*
X194300000Y-87376000D03*
X194300000Y-88646000D03*
X194300000Y-89916000D03*
X194300000Y-91186000D03*
X194300000Y-92456000D03*
X194300000Y-93726000D03*
X194300000Y-94996000D03*
X203900000Y-94996000D03*
X203900000Y-93726000D03*
X203900000Y-92456000D03*
X203900000Y-91186000D03*
X203900000Y-89916000D03*
X203900000Y-88646000D03*
X203900000Y-87376000D03*
X203900000Y-86106000D03*
X203900000Y-84836000D03*
X203900000Y-83566000D03*
X203900000Y-82296000D03*
X203900000Y-81026000D03*
X203900000Y-79756000D03*
X203900000Y-78486000D03*
%LPD*%
M02*
