G04 #@! TF.GenerationSoftware,KiCad,Pcbnew,8.0.9-8.0.9-0~ubuntu24.04.1*
G04 #@! TF.CreationDate,2025-06-07T19:12:40-04:00*
G04 #@! TF.ProjectId,Sensor Board,53656e73-6f72-4204-926f-6172642e6b69,rev?*
G04 #@! TF.SameCoordinates,Original*
G04 #@! TF.FileFunction,Soldermask,Bot*
G04 #@! TF.FilePolarity,Negative*
%FSLAX46Y46*%
G04 Gerber Fmt 4.6, Leading zero omitted, Abs format (unit mm)*
G04 Created by KiCad (PCBNEW 8.0.9-8.0.9-0~ubuntu24.04.1) date 2025-06-07 19:12:40*
%MOMM*%
%LPD*%
G01*
G04 APERTURE LIST*
G04 Aperture macros list*
%AMRoundRect*
0 Rectangle with rounded corners*
0 $1 Rounding radius*
0 $2 $3 $4 $5 $6 $7 $8 $9 X,Y pos of 4 corners*
0 Add a 4 corners polygon primitive as box body*
4,1,4,$2,$3,$4,$5,$6,$7,$8,$9,$2,$3,0*
0 Add four circle primitives for the rounded corners*
1,1,$1+$1,$2,$3*
1,1,$1+$1,$4,$5*
1,1,$1+$1,$6,$7*
1,1,$1+$1,$8,$9*
0 Add four rect primitives between the rounded corners*
20,1,$1+$1,$2,$3,$4,$5,0*
20,1,$1+$1,$4,$5,$6,$7,0*
20,1,$1+$1,$6,$7,$8,$9,0*
20,1,$1+$1,$8,$9,$2,$3,0*%
G04 Aperture macros list end*
%ADD10C,3.800000*%
%ADD11C,1.000000*%
%ADD12C,5.600000*%
%ADD13C,1.500000*%
%ADD14RoundRect,0.162500X-0.162500X0.617500X-0.162500X-0.617500X0.162500X-0.617500X0.162500X0.617500X0*%
%ADD15RoundRect,0.250000X0.337500X0.475000X-0.337500X0.475000X-0.337500X-0.475000X0.337500X-0.475000X0*%
%ADD16RoundRect,0.250000X0.475000X-0.337500X0.475000X0.337500X-0.475000X0.337500X-0.475000X-0.337500X0*%
%ADD17RoundRect,0.250000X0.350000X0.450000X-0.350000X0.450000X-0.350000X-0.450000X0.350000X-0.450000X0*%
%ADD18R,0.800000X1.500000*%
%ADD19R,1.450000X2.000000*%
%ADD20RoundRect,0.250001X0.624999X-0.462499X0.624999X0.462499X-0.624999X0.462499X-0.624999X-0.462499X0*%
%ADD21RoundRect,0.250000X0.450000X-0.350000X0.450000X0.350000X-0.450000X0.350000X-0.450000X-0.350000X0*%
%ADD22RoundRect,0.150000X-0.150000X0.587500X-0.150000X-0.587500X0.150000X-0.587500X0.150000X0.587500X0*%
G04 APERTURE END LIST*
D10*
X216789000Y-92342000D03*
X216789000Y-82042000D03*
D11*
X216789000Y-85942000D03*
X216789000Y-87192000D03*
X216789000Y-88442000D03*
X218039000Y-85942000D03*
X218039000Y-87192000D03*
X218039000Y-88442000D03*
D12*
X219964000Y-58674000D03*
X185420000Y-58420000D03*
X185420000Y-100330000D03*
X219964000Y-100330000D03*
D13*
X189720000Y-86831500D03*
X189720000Y-91711500D03*
D14*
X208117400Y-79650600D03*
X209067400Y-79650600D03*
X210017400Y-79650600D03*
X210017400Y-82350600D03*
X208117400Y-82350600D03*
D15*
X216937500Y-67056000D03*
X214862500Y-67056000D03*
D16*
X212217000Y-73173500D03*
X212217000Y-71098500D03*
X206248000Y-82085100D03*
X206248000Y-80010100D03*
D17*
X213902800Y-101498400D03*
X211902800Y-101498400D03*
D15*
X214012600Y-89611200D03*
X211937600Y-89611200D03*
X210108800Y-84632800D03*
X208033800Y-84632800D03*
D18*
X198708000Y-98156000D03*
X199808000Y-98156000D03*
X200918000Y-98156000D03*
X202008000Y-98156000D03*
X203108000Y-98146000D03*
X204208000Y-98156000D03*
X205308000Y-98156000D03*
X206408000Y-98156000D03*
D19*
X208788000Y-100756000D03*
X208788000Y-92456000D03*
X195038000Y-100756000D03*
X195038000Y-92456000D03*
D15*
X210079500Y-86868000D03*
X208004500Y-86868000D03*
D20*
X219964000Y-87212500D03*
X219964000Y-84237500D03*
D14*
X212105200Y-84705200D03*
X213055200Y-84705200D03*
X214005200Y-84705200D03*
X214005200Y-87405200D03*
X212105200Y-87405200D03*
D21*
X191516000Y-101584000D03*
X191516000Y-99584000D03*
D15*
X216937500Y-69215000D03*
X214862500Y-69215000D03*
D21*
X212471000Y-81915000D03*
X212471000Y-79915000D03*
D22*
X214823000Y-71277000D03*
X216723000Y-71277000D03*
X215773000Y-73152000D03*
M02*
