G04 #@! TF.GenerationSoftware,KiCad,Pcbnew,8.0.9-8.0.9-0~ubuntu24.04.1*
G04 #@! TF.CreationDate,2025-06-07T19:12:40-04:00*
G04 #@! TF.ProjectId,Sensor Board,53656e73-6f72-4204-926f-6172642e6b69,rev?*
G04 #@! TF.SameCoordinates,Original*
G04 #@! TF.FileFunction,Copper,L3,Inr*
G04 #@! TF.FilePolarity,Positive*
%FSLAX46Y46*%
G04 Gerber Fmt 4.6, Leading zero omitted, Abs format (unit mm)*
G04 Created by KiCad (PCBNEW 8.0.9-8.0.9-0~ubuntu24.04.1) date 2025-06-07 19:12:40*
%MOMM*%
%LPD*%
G01*
G04 APERTURE LIST*
G04 #@! TA.AperFunction,ComponentPad*
%ADD10C,3.800000*%
G04 #@! TD*
G04 #@! TA.AperFunction,ComponentPad*
%ADD11C,1.000000*%
G04 #@! TD*
G04 #@! TA.AperFunction,ComponentPad*
%ADD12C,5.600000*%
G04 #@! TD*
G04 #@! TA.AperFunction,ComponentPad*
%ADD13C,1.500000*%
G04 #@! TD*
G04 #@! TA.AperFunction,ViaPad*
%ADD14C,0.600000*%
G04 #@! TD*
G04 #@! TA.AperFunction,ViaPad*
%ADD15C,0.762000*%
G04 #@! TD*
G04 #@! TA.AperFunction,Conductor*
%ADD16C,0.203200*%
G04 #@! TD*
G04 APERTURE END LIST*
D10*
X216789000Y-92342000D03*
X216789000Y-82042000D03*
D11*
X216789000Y-85942000D03*
X216789000Y-87192000D03*
X216789000Y-88442000D03*
X218039000Y-85942000D03*
X218039000Y-87192000D03*
X218039000Y-88442000D03*
D12*
X219964000Y-58674000D03*
X185420000Y-58420000D03*
X185420000Y-100330000D03*
X219964000Y-100330000D03*
D13*
X189720000Y-86831500D03*
X189720000Y-91711500D03*
D14*
X205282800Y-82854800D03*
X215138000Y-101346000D03*
X213487000Y-76327000D03*
D15*
X183404000Y-66564000D03*
D14*
X191516000Y-102870000D03*
X205232000Y-88646000D03*
X202184000Y-96774000D03*
D15*
X189738000Y-60706000D03*
D14*
X222123000Y-76454000D03*
X220675200Y-75184000D03*
D15*
X183134000Y-77724000D03*
D14*
X215696800Y-84705200D03*
D15*
X183134000Y-70612000D03*
D14*
X207772000Y-99208500D03*
D15*
X183134000Y-74168000D03*
D14*
X186944000Y-68072000D03*
X200660000Y-64008000D03*
X192913000Y-78486000D03*
X202438000Y-79756000D03*
X190500000Y-64135000D03*
X202438000Y-78486000D03*
X193040000Y-64135000D03*
X202565000Y-92456000D03*
X215773000Y-60579000D03*
X210566000Y-61595000D03*
X210693000Y-71120000D03*
X213543208Y-64871600D03*
X204216000Y-72517000D03*
X208584800Y-57404000D03*
X200660000Y-62230000D03*
X213487000Y-70358000D03*
X213309200Y-67462400D03*
X203073000Y-72898000D03*
X192278000Y-74676000D03*
X210439000Y-67183000D03*
X210794600Y-56337200D03*
X202692000Y-64008000D03*
X212344000Y-61595000D03*
X209042000Y-65405000D03*
X213487000Y-69596000D03*
X205486000Y-71501000D03*
X193040000Y-55880000D03*
X206451200Y-58724800D03*
X210439000Y-66294000D03*
X209778600Y-56337200D03*
X212953600Y-59131200D03*
X212217000Y-69977000D03*
X215900000Y-55880000D03*
X209042000Y-66294000D03*
X196723000Y-73914000D03*
X208635600Y-56337200D03*
X198120000Y-70358000D03*
X192151000Y-70612000D03*
X209042000Y-67183000D03*
X207518000Y-57404000D03*
X212953600Y-57251600D03*
X213487000Y-60452000D03*
X212953600Y-56337200D03*
X211695200Y-67183000D03*
X212953600Y-58115200D03*
X198247000Y-72898000D03*
X199898000Y-72898000D03*
X210439000Y-65405000D03*
X215773000Y-70612000D03*
X214757000Y-61722000D03*
X194945000Y-74676000D03*
X213487000Y-71374000D03*
X200660000Y-55880000D03*
X211810600Y-56337200D03*
X199898000Y-71628000D03*
X205130400Y-81026000D03*
X194945000Y-69158500D03*
X222504000Y-68580000D03*
X219456000Y-62500000D03*
X206451200Y-60727500D03*
X220472000Y-70612000D03*
X218440000Y-66548000D03*
X222504000Y-64516000D03*
X220472000Y-64516000D03*
X221742000Y-71374000D03*
X222504000Y-70612000D03*
X216014300Y-65290700D03*
X220472000Y-66548000D03*
X218440000Y-70612000D03*
X218440000Y-68580000D03*
X194945000Y-71698500D03*
X222504000Y-66548000D03*
X217805000Y-71755000D03*
X220472000Y-68580000D03*
X195732400Y-95427800D03*
X205308000Y-95758000D03*
X202565000Y-94234000D03*
X202412600Y-82296000D03*
X196596000Y-80360800D03*
X183388000Y-96520000D03*
X199136000Y-102616000D03*
X205292812Y-90182559D03*
X206502000Y-96266000D03*
X183388000Y-82296000D03*
X219202000Y-72898000D03*
X185420000Y-63500000D03*
X208310200Y-77673200D03*
X211175600Y-80060800D03*
X187452000Y-82296000D03*
X206248000Y-78613000D03*
X210566000Y-92964000D03*
X186690000Y-92456000D03*
X183388000Y-89408000D03*
D15*
X189738000Y-62230000D03*
D14*
X200660000Y-74930000D03*
X183388000Y-92964000D03*
X211074000Y-75692000D03*
X199898000Y-91948000D03*
X183388000Y-85852000D03*
X198882000Y-82804000D03*
X191342341Y-82469659D03*
X202438000Y-89916000D03*
X203200000Y-76708000D03*
X204216000Y-102616000D03*
X207772000Y-97536000D03*
X209361000Y-97938500D03*
X186690000Y-86106000D03*
X208026000Y-75946000D03*
X204216000Y-96520000D03*
X193548000Y-99060000D03*
X213055200Y-86309200D03*
X191008000Y-96520000D03*
X196342000Y-87376000D03*
X196342000Y-81788000D03*
X187452000Y-96520000D03*
X206502000Y-91440000D03*
X211429600Y-91084400D03*
X210820000Y-102870000D03*
X196596000Y-92456000D03*
X209550000Y-95504000D03*
D16*
X215696800Y-87426800D02*
X215239600Y-87884000D01*
X183134000Y-78232000D02*
X185928000Y-81026000D01*
X197993000Y-81026000D02*
X204851000Y-87884000D01*
X207772000Y-99208500D02*
X208534000Y-98446500D01*
X204851000Y-87884000D02*
X210566000Y-87884000D01*
X215696800Y-84705200D02*
X215696800Y-87426800D01*
X183134000Y-70612000D02*
X183134000Y-77724000D01*
X208534000Y-98446500D02*
X208534000Y-89916000D01*
X208534000Y-89916000D02*
X210566000Y-87884000D01*
X183134000Y-77724000D02*
X183134000Y-78232000D01*
X215239600Y-87884000D02*
X210566000Y-87884000D01*
X185928000Y-81026000D02*
X197993000Y-81026000D01*
G04 #@! TA.AperFunction,Conductor*
G36*
X192855650Y-54884185D02*
G01*
X192901405Y-54936989D01*
X192911349Y-55006147D01*
X192882324Y-55069703D01*
X192829566Y-55105542D01*
X192690476Y-55154211D01*
X192537737Y-55250184D01*
X192410184Y-55377737D01*
X192314211Y-55530476D01*
X192254631Y-55700745D01*
X192254630Y-55700750D01*
X192234435Y-55879996D01*
X192234435Y-55880003D01*
X192254630Y-56059249D01*
X192254631Y-56059254D01*
X192314211Y-56229523D01*
X192381872Y-56337204D01*
X192410184Y-56382262D01*
X192537738Y-56509816D01*
X192690478Y-56605789D01*
X192845724Y-56660112D01*
X192860745Y-56665368D01*
X192860750Y-56665369D01*
X193039996Y-56685565D01*
X193040000Y-56685565D01*
X193040004Y-56685565D01*
X193219249Y-56665369D01*
X193219252Y-56665368D01*
X193219255Y-56665368D01*
X193389522Y-56605789D01*
X193542262Y-56509816D01*
X193669816Y-56382262D01*
X193765789Y-56229522D01*
X193825368Y-56059255D01*
X193829817Y-56019770D01*
X193845565Y-55880003D01*
X193845565Y-55879996D01*
X193825369Y-55700750D01*
X193825368Y-55700745D01*
X193791309Y-55603410D01*
X193765789Y-55530478D01*
X193750604Y-55506312D01*
X193691466Y-55412194D01*
X193669816Y-55377738D01*
X193542262Y-55250184D01*
X193527418Y-55240857D01*
X193389523Y-55154211D01*
X193250434Y-55105542D01*
X193193658Y-55064820D01*
X193167911Y-54999867D01*
X193181367Y-54931306D01*
X193229754Y-54880903D01*
X193291389Y-54864500D01*
X200408611Y-54864500D01*
X200475650Y-54884185D01*
X200521405Y-54936989D01*
X200531349Y-55006147D01*
X200502324Y-55069703D01*
X200449566Y-55105542D01*
X200310476Y-55154211D01*
X200157737Y-55250184D01*
X200030184Y-55377737D01*
X199934211Y-55530476D01*
X199874631Y-55700745D01*
X199874630Y-55700750D01*
X199854435Y-55879996D01*
X199854435Y-55880003D01*
X199874630Y-56059249D01*
X199874631Y-56059254D01*
X199934211Y-56229523D01*
X200001872Y-56337204D01*
X200030184Y-56382262D01*
X200157738Y-56509816D01*
X200310478Y-56605789D01*
X200465724Y-56660112D01*
X200480745Y-56665368D01*
X200480750Y-56665369D01*
X200659996Y-56685565D01*
X200660000Y-56685565D01*
X200660004Y-56685565D01*
X200839249Y-56665369D01*
X200839252Y-56665368D01*
X200839255Y-56665368D01*
X201009522Y-56605789D01*
X201162262Y-56509816D01*
X201289816Y-56382262D01*
X201385789Y-56229522D01*
X201445368Y-56059255D01*
X201449817Y-56019770D01*
X201465565Y-55880003D01*
X201465565Y-55879996D01*
X201445369Y-55700750D01*
X201445368Y-55700745D01*
X201411309Y-55603410D01*
X201385789Y-55530478D01*
X201370604Y-55506312D01*
X201311466Y-55412194D01*
X201289816Y-55377738D01*
X201162262Y-55250184D01*
X201147418Y-55240857D01*
X201009523Y-55154211D01*
X200870434Y-55105542D01*
X200813658Y-55064820D01*
X200787911Y-54999867D01*
X200801367Y-54931306D01*
X200849754Y-54880903D01*
X200911389Y-54864500D01*
X215648611Y-54864500D01*
X215715650Y-54884185D01*
X215761405Y-54936989D01*
X215771349Y-55006147D01*
X215742324Y-55069703D01*
X215689566Y-55105542D01*
X215550476Y-55154211D01*
X215397737Y-55250184D01*
X215270184Y-55377737D01*
X215174211Y-55530476D01*
X215114631Y-55700745D01*
X215114630Y-55700750D01*
X215094435Y-55879996D01*
X215094435Y-55880003D01*
X215114630Y-56059249D01*
X215114631Y-56059254D01*
X215174211Y-56229523D01*
X215241872Y-56337204D01*
X215270184Y-56382262D01*
X215397738Y-56509816D01*
X215550478Y-56605789D01*
X215705724Y-56660112D01*
X215720745Y-56665368D01*
X215720750Y-56665369D01*
X215899996Y-56685565D01*
X215900000Y-56685565D01*
X215900004Y-56685565D01*
X216079249Y-56665369D01*
X216079252Y-56665368D01*
X216079255Y-56665368D01*
X216249522Y-56605789D01*
X216402262Y-56509816D01*
X216529816Y-56382262D01*
X216625789Y-56229522D01*
X216685368Y-56059255D01*
X216689817Y-56019770D01*
X216705565Y-55880003D01*
X216705565Y-55879996D01*
X216685369Y-55700750D01*
X216685368Y-55700745D01*
X216651309Y-55603410D01*
X216625789Y-55530478D01*
X216610604Y-55506312D01*
X216551466Y-55412194D01*
X216529816Y-55377738D01*
X216402262Y-55250184D01*
X216387418Y-55240857D01*
X216249523Y-55154211D01*
X216110434Y-55105542D01*
X216053658Y-55064820D01*
X216027911Y-54999867D01*
X216041367Y-54931306D01*
X216089754Y-54880903D01*
X216151389Y-54864500D01*
X220255451Y-54864500D01*
X220262404Y-54864694D01*
X220578975Y-54882476D01*
X220592781Y-54884032D01*
X220901942Y-54936563D01*
X220915493Y-54939657D01*
X221216811Y-55026468D01*
X221229928Y-55031057D01*
X221361063Y-55085377D01*
X221519650Y-55151068D01*
X221532178Y-55157102D01*
X221683719Y-55240857D01*
X221806621Y-55308783D01*
X221818393Y-55316180D01*
X221905150Y-55377738D01*
X222074136Y-55497642D01*
X222085007Y-55506312D01*
X222318823Y-55715265D01*
X222328656Y-55725098D01*
X222537607Y-55958917D01*
X222546277Y-55969788D01*
X222727734Y-56225530D01*
X222735132Y-56237304D01*
X222886817Y-56511760D01*
X222892850Y-56524289D01*
X223012847Y-56813990D01*
X223017440Y-56827114D01*
X223040332Y-56906574D01*
X223039975Y-56976443D01*
X223001902Y-57035028D01*
X222938199Y-57063728D01*
X222869092Y-57053432D01*
X222816522Y-57007409D01*
X222811622Y-56998983D01*
X222796215Y-56969922D01*
X222796213Y-56969919D01*
X222796211Y-56969915D01*
X222595365Y-56673689D01*
X222595361Y-56673684D01*
X222595358Y-56673680D01*
X222363668Y-56400914D01*
X222296406Y-56337200D01*
X222103837Y-56154789D01*
X222103830Y-56154783D01*
X222103827Y-56154781D01*
X221978164Y-56059255D01*
X221818919Y-55938200D01*
X221512253Y-55753685D01*
X221512252Y-55753684D01*
X221512248Y-55753682D01*
X221512244Y-55753680D01*
X221187447Y-55603414D01*
X221187441Y-55603411D01*
X221187435Y-55603409D01*
X221017854Y-55546270D01*
X220848273Y-55489131D01*
X220498744Y-55412194D01*
X220142949Y-55373500D01*
X220142948Y-55373500D01*
X219785052Y-55373500D01*
X219785050Y-55373500D01*
X219429255Y-55412194D01*
X219079726Y-55489131D01*
X218823970Y-55575306D01*
X218740565Y-55603409D01*
X218740563Y-55603410D01*
X218740552Y-55603414D01*
X218415755Y-55753680D01*
X218415751Y-55753682D01*
X218230029Y-55865428D01*
X218109081Y-55938200D01*
X218043994Y-55987678D01*
X217824172Y-56154781D01*
X217824163Y-56154789D01*
X217564331Y-56400914D01*
X217332641Y-56673680D01*
X217332634Y-56673690D01*
X217131790Y-56969913D01*
X217131784Y-56969922D01*
X216964151Y-57286111D01*
X216964142Y-57286129D01*
X216831674Y-57618600D01*
X216831672Y-57618607D01*
X216735932Y-57963434D01*
X216735926Y-57963460D01*
X216678029Y-58316614D01*
X216678028Y-58316627D01*
X216678028Y-58316629D01*
X216658652Y-58674000D01*
X216676899Y-59010556D01*
X216678028Y-59031368D01*
X216678029Y-59031385D01*
X216735926Y-59384539D01*
X216735932Y-59384565D01*
X216831672Y-59729392D01*
X216831674Y-59729399D01*
X216964142Y-60061870D01*
X216964151Y-60061888D01*
X217131784Y-60378077D01*
X217131787Y-60378082D01*
X217131789Y-60378085D01*
X217303442Y-60631255D01*
X217332634Y-60674309D01*
X217332641Y-60674319D01*
X217555451Y-60936631D01*
X217564332Y-60947086D01*
X217824163Y-61193211D01*
X218109081Y-61409800D01*
X218415747Y-61594315D01*
X218415749Y-61594316D01*
X218415751Y-61594317D01*
X218415755Y-61594319D01*
X218704135Y-61727737D01*
X218740565Y-61744591D01*
X219079726Y-61858868D01*
X219429254Y-61935805D01*
X219785052Y-61974500D01*
X219785058Y-61974500D01*
X220142942Y-61974500D01*
X220142948Y-61974500D01*
X220498746Y-61935805D01*
X220848274Y-61858868D01*
X221187435Y-61744591D01*
X221512253Y-61594315D01*
X221818919Y-61409800D01*
X222103837Y-61193211D01*
X222363668Y-60947086D01*
X222595365Y-60674311D01*
X222796211Y-60378085D01*
X222936250Y-60113945D01*
X222945881Y-60095779D01*
X222994674Y-60045770D01*
X223062759Y-60030078D01*
X223128519Y-60053688D01*
X223171076Y-60109102D01*
X223179436Y-60153862D01*
X223179436Y-71506500D01*
X223159751Y-71573539D01*
X223106947Y-71619294D01*
X223055436Y-71630500D01*
X222009087Y-71630500D01*
X221924452Y-71637638D01*
X221924449Y-71637639D01*
X221883500Y-71644595D01*
X221883494Y-71644596D01*
X221820833Y-71660758D01*
X221803750Y-71663907D01*
X221755883Y-71669301D01*
X221728114Y-71669301D01*
X221680251Y-71663908D01*
X221663165Y-71660758D01*
X221600521Y-71644599D01*
X221559564Y-71637641D01*
X221559552Y-71637640D01*
X221474910Y-71630500D01*
X221474893Y-71630500D01*
X219871440Y-71630500D01*
X219871421Y-71630500D01*
X219853438Y-71630820D01*
X219845793Y-71631093D01*
X219844548Y-71631138D01*
X219844544Y-71631138D01*
X219844522Y-71631139D01*
X219826536Y-71632103D01*
X219826521Y-71632105D01*
X219685945Y-71662686D01*
X219685940Y-71662687D01*
X219685939Y-71662688D01*
X219670113Y-71668590D01*
X219620473Y-71687105D01*
X219620469Y-71687107D01*
X219494201Y-71756055D01*
X219392463Y-71857789D01*
X219392457Y-71857796D01*
X219357784Y-71904114D01*
X219351040Y-71913123D01*
X219350654Y-71913638D01*
X219350595Y-71913717D01*
X219350582Y-71913733D01*
X219350579Y-71913737D01*
X219287242Y-72029734D01*
X219237837Y-72079140D01*
X219192293Y-72093528D01*
X219022747Y-72112631D01*
X218976198Y-72128919D01*
X218906419Y-72132480D01*
X218845792Y-72097751D01*
X218840708Y-72092120D01*
X218817547Y-72064834D01*
X218817539Y-72064825D01*
X218709776Y-71969507D01*
X218579517Y-71908406D01*
X218579510Y-71908403D01*
X218512688Y-71888039D01*
X218512670Y-71888035D01*
X218370483Y-71866108D01*
X218370481Y-71866108D01*
X218229243Y-71884946D01*
X218227856Y-71885131D01*
X218160679Y-71904114D01*
X218160613Y-71904133D01*
X218029138Y-71962564D01*
X217945631Y-72015035D01*
X217920615Y-72027082D01*
X217893959Y-72036410D01*
X217884245Y-72039809D01*
X217857173Y-72045987D01*
X217818881Y-72050301D01*
X217791116Y-72050301D01*
X217752827Y-72045987D01*
X217725760Y-72039810D01*
X217716042Y-72036410D01*
X217716042Y-72036409D01*
X217716029Y-72036406D01*
X217689379Y-72027080D01*
X217664366Y-72015034D01*
X217631732Y-71994529D01*
X217610022Y-71977216D01*
X217582782Y-71949976D01*
X217565471Y-71928270D01*
X217563469Y-71925083D01*
X217554459Y-71913726D01*
X217494706Y-71838406D01*
X217456754Y-71800066D01*
X217431740Y-71779803D01*
X217370794Y-71730433D01*
X217370792Y-71730432D01*
X217370793Y-71730432D01*
X217239920Y-71670663D01*
X217172875Y-71650976D01*
X217125402Y-71644150D01*
X217030458Y-71630500D01*
X217030456Y-71630500D01*
X216015815Y-71630500D01*
X215948776Y-71610815D01*
X215903021Y-71558011D01*
X215893077Y-71488853D01*
X215922102Y-71425297D01*
X215974861Y-71389458D01*
X216025293Y-71371810D01*
X216122522Y-71337789D01*
X216275262Y-71241816D01*
X216402816Y-71114262D01*
X216498789Y-70961522D01*
X216558368Y-70791255D01*
X216560709Y-70770478D01*
X216578565Y-70612003D01*
X216578565Y-70611996D01*
X216558369Y-70432750D01*
X216558368Y-70432745D01*
X216532215Y-70358003D01*
X216498789Y-70262478D01*
X216492477Y-70252433D01*
X216446171Y-70178737D01*
X216402816Y-70109738D01*
X216275262Y-69982184D01*
X216122523Y-69886211D01*
X215952254Y-69826631D01*
X215952249Y-69826630D01*
X215773004Y-69806435D01*
X215772996Y-69806435D01*
X215593750Y-69826630D01*
X215593745Y-69826631D01*
X215423476Y-69886211D01*
X215270737Y-69982184D01*
X215143184Y-70109737D01*
X215047211Y-70262476D01*
X214987631Y-70432745D01*
X214987630Y-70432750D01*
X214967435Y-70611996D01*
X214967435Y-70612003D01*
X214987630Y-70791249D01*
X214987631Y-70791254D01*
X215047211Y-70961523D01*
X215133482Y-71098821D01*
X215143184Y-71114262D01*
X215270738Y-71241816D01*
X215362142Y-71299249D01*
X215423478Y-71337789D01*
X215571139Y-71389458D01*
X215627916Y-71430180D01*
X215653663Y-71495133D01*
X215640207Y-71563694D01*
X215591820Y-71614097D01*
X215530185Y-71630500D01*
X214402421Y-71630500D01*
X214335382Y-71610815D01*
X214289627Y-71558011D01*
X214279201Y-71492617D01*
X214292565Y-71374003D01*
X214292565Y-71373996D01*
X214272369Y-71194750D01*
X214272368Y-71194745D01*
X214212788Y-71024475D01*
X214160176Y-70940745D01*
X214154663Y-70931972D01*
X214135663Y-70864736D01*
X214154664Y-70800027D01*
X214160177Y-70791254D01*
X214207694Y-70715631D01*
X214212788Y-70707524D01*
X214228229Y-70663396D01*
X214272368Y-70537255D01*
X214272803Y-70533395D01*
X214292565Y-70358003D01*
X214292565Y-70357996D01*
X214272369Y-70178750D01*
X214272366Y-70178737D01*
X214216106Y-70017955D01*
X214212544Y-69948176D01*
X214216106Y-69936045D01*
X214272366Y-69775262D01*
X214272369Y-69775249D01*
X214292565Y-69596003D01*
X214292565Y-69595996D01*
X214272369Y-69416750D01*
X214272368Y-69416745D01*
X214249767Y-69352155D01*
X214212789Y-69246478D01*
X214116816Y-69093738D01*
X213989262Y-68966184D01*
X213836523Y-68870211D01*
X213666254Y-68810631D01*
X213666249Y-68810630D01*
X213487004Y-68790435D01*
X213486996Y-68790435D01*
X213307750Y-68810630D01*
X213307745Y-68810631D01*
X213137476Y-68870211D01*
X212984737Y-68966184D01*
X212857182Y-69093739D01*
X212769941Y-69232582D01*
X212717606Y-69278872D01*
X212648553Y-69289520D01*
X212598976Y-69271603D01*
X212566523Y-69251211D01*
X212396254Y-69191631D01*
X212396249Y-69191630D01*
X212217004Y-69171435D01*
X212216996Y-69171435D01*
X212037750Y-69191630D01*
X212037745Y-69191631D01*
X211867476Y-69251211D01*
X211714737Y-69347184D01*
X211587184Y-69474737D01*
X211491211Y-69627476D01*
X211431631Y-69797745D01*
X211431630Y-69797750D01*
X211411435Y-69976996D01*
X211411435Y-69977003D01*
X211431630Y-70156249D01*
X211431631Y-70156254D01*
X211491211Y-70326523D01*
X211573964Y-70458222D01*
X211587184Y-70479262D01*
X211714738Y-70606816D01*
X211804784Y-70663396D01*
X211867474Y-70702787D01*
X211867478Y-70702789D01*
X211920717Y-70721418D01*
X212037745Y-70762368D01*
X212037750Y-70762369D01*
X212216996Y-70782565D01*
X212217000Y-70782565D01*
X212217004Y-70782565D01*
X212396249Y-70762369D01*
X212396252Y-70762368D01*
X212396255Y-70762368D01*
X212566522Y-70702789D01*
X212598974Y-70682397D01*
X212666210Y-70663396D01*
X212733046Y-70683762D01*
X212769942Y-70721418D01*
X212819336Y-70800028D01*
X212838336Y-70867265D01*
X212819336Y-70931972D01*
X212761211Y-71024476D01*
X212701631Y-71194745D01*
X212701630Y-71194750D01*
X212681435Y-71373996D01*
X212681435Y-71374003D01*
X212694799Y-71492617D01*
X212682744Y-71561439D01*
X212635395Y-71612818D01*
X212571579Y-71630500D01*
X211537223Y-71630500D01*
X211470184Y-71610815D01*
X211424429Y-71558011D01*
X211414485Y-71488853D01*
X211420181Y-71465546D01*
X211464885Y-71337788D01*
X211478368Y-71299255D01*
X211480709Y-71278478D01*
X211498565Y-71120003D01*
X211498565Y-71119996D01*
X211478369Y-70940750D01*
X211478368Y-70940745D01*
X211459587Y-70887071D01*
X211418789Y-70770478D01*
X211415836Y-70765779D01*
X211376257Y-70702789D01*
X211322816Y-70617738D01*
X211195262Y-70490184D01*
X211144395Y-70458222D01*
X211042523Y-70394211D01*
X210872254Y-70334631D01*
X210872249Y-70334630D01*
X210693004Y-70314435D01*
X210692996Y-70314435D01*
X210513750Y-70334630D01*
X210513745Y-70334631D01*
X210343476Y-70394211D01*
X210190737Y-70490184D01*
X210063184Y-70617737D01*
X209967211Y-70770476D01*
X209907631Y-70940745D01*
X209907630Y-70940750D01*
X209887435Y-71119996D01*
X209887435Y-71120003D01*
X209907630Y-71299249D01*
X209907632Y-71299257D01*
X209965819Y-71465546D01*
X209969380Y-71535324D01*
X209934651Y-71595952D01*
X209872658Y-71628179D01*
X209848777Y-71630500D01*
X206415565Y-71630500D01*
X206348526Y-71610815D01*
X206302771Y-71558011D01*
X206291565Y-71506500D01*
X206291565Y-71500996D01*
X206271369Y-71321750D01*
X206271368Y-71321745D01*
X206256228Y-71278478D01*
X206211789Y-71151478D01*
X206195615Y-71125738D01*
X206169257Y-71083789D01*
X206115816Y-70998738D01*
X205988262Y-70871184D01*
X205942822Y-70842632D01*
X205835523Y-70775211D01*
X205665254Y-70715631D01*
X205665249Y-70715630D01*
X205486004Y-70695435D01*
X205485996Y-70695435D01*
X205306750Y-70715630D01*
X205306745Y-70715631D01*
X205136476Y-70775211D01*
X204983737Y-70871184D01*
X204856184Y-70998737D01*
X204760211Y-71151476D01*
X204700631Y-71321745D01*
X204700630Y-71321750D01*
X204680435Y-71500996D01*
X204680435Y-71501003D01*
X204697096Y-71648878D01*
X204685041Y-71717700D01*
X204637692Y-71769079D01*
X204570082Y-71786703D01*
X204532922Y-71779803D01*
X204395257Y-71731632D01*
X204395249Y-71731630D01*
X204216004Y-71711435D01*
X204215996Y-71711435D01*
X204036750Y-71731630D01*
X204036745Y-71731631D01*
X203866476Y-71791211D01*
X203713737Y-71887184D01*
X203586184Y-72014737D01*
X203528184Y-72107044D01*
X203475849Y-72153335D01*
X203406795Y-72163983D01*
X203382235Y-72158114D01*
X203252254Y-72112631D01*
X203252249Y-72112630D01*
X203073004Y-72092435D01*
X203072996Y-72092435D01*
X202893750Y-72112630D01*
X202893745Y-72112631D01*
X202723476Y-72172211D01*
X202570737Y-72268184D01*
X202443184Y-72395737D01*
X202347211Y-72548476D01*
X202287631Y-72718745D01*
X202287630Y-72718750D01*
X202267435Y-72897996D01*
X202267435Y-72898003D01*
X202287630Y-73077249D01*
X202287632Y-73077257D01*
X202301380Y-73116546D01*
X202304941Y-73186325D01*
X202270212Y-73246952D01*
X202208219Y-73279179D01*
X202184338Y-73281500D01*
X200786662Y-73281500D01*
X200719623Y-73261815D01*
X200673868Y-73209011D01*
X200663924Y-73139853D01*
X200669620Y-73116546D01*
X200683367Y-73077257D01*
X200683368Y-73077255D01*
X200703565Y-72898000D01*
X200683368Y-72718745D01*
X200623789Y-72548478D01*
X200527816Y-72395738D01*
X200482758Y-72350680D01*
X200449274Y-72289358D01*
X200454258Y-72219666D01*
X200482759Y-72175319D01*
X200504743Y-72153335D01*
X200527816Y-72130262D01*
X200623789Y-71977522D01*
X200683368Y-71807255D01*
X200686461Y-71779803D01*
X200703565Y-71628003D01*
X200703565Y-71627996D01*
X200683369Y-71448750D01*
X200683368Y-71448745D01*
X200665390Y-71397368D01*
X200623789Y-71278478D01*
X200527816Y-71125738D01*
X200400262Y-70998184D01*
X200247523Y-70902211D01*
X200077254Y-70842631D01*
X200077249Y-70842630D01*
X199898004Y-70822435D01*
X199897996Y-70822435D01*
X199718750Y-70842630D01*
X199718745Y-70842631D01*
X199548476Y-70902211D01*
X199395737Y-70998184D01*
X199268184Y-71125737D01*
X199172211Y-71278476D01*
X199112631Y-71448745D01*
X199112630Y-71448750D01*
X199092435Y-71627996D01*
X199092435Y-71628003D01*
X199112630Y-71807249D01*
X199112631Y-71807254D01*
X199172211Y-71977523D01*
X199268184Y-72130262D01*
X199268185Y-72130263D01*
X199313241Y-72175320D01*
X199346725Y-72236643D01*
X199341740Y-72306335D01*
X199313241Y-72350680D01*
X199268182Y-72395739D01*
X199177493Y-72540070D01*
X199125159Y-72586360D01*
X199056105Y-72597008D01*
X198992257Y-72568633D01*
X198967507Y-72540070D01*
X198876817Y-72395739D01*
X198749262Y-72268184D01*
X198596523Y-72172211D01*
X198426254Y-72112631D01*
X198426249Y-72112630D01*
X198247004Y-72092435D01*
X198246996Y-72092435D01*
X198067750Y-72112630D01*
X198067745Y-72112631D01*
X197897476Y-72172211D01*
X197744737Y-72268184D01*
X197617184Y-72395737D01*
X197521211Y-72548476D01*
X197461631Y-72718745D01*
X197461630Y-72718750D01*
X197441435Y-72897996D01*
X197441435Y-72898003D01*
X197461630Y-73077249D01*
X197461632Y-73077257D01*
X197520808Y-73246372D01*
X197524369Y-73316150D01*
X197489640Y-73376778D01*
X197427647Y-73409005D01*
X197358071Y-73402600D01*
X197316085Y-73375007D01*
X197225262Y-73284184D01*
X197072523Y-73188211D01*
X196902254Y-73128631D01*
X196902249Y-73128630D01*
X196723004Y-73108435D01*
X196722996Y-73108435D01*
X196543750Y-73128630D01*
X196543745Y-73128631D01*
X196373476Y-73188211D01*
X196220737Y-73284184D01*
X196093184Y-73411737D01*
X195997211Y-73564476D01*
X195937631Y-73734745D01*
X195937630Y-73734750D01*
X195917435Y-73913996D01*
X195917435Y-73914003D01*
X195937630Y-74093249D01*
X195937631Y-74093254D01*
X195997211Y-74263523D01*
X196076823Y-74390224D01*
X196093184Y-74416262D01*
X196220738Y-74543816D01*
X196373478Y-74639789D01*
X196543745Y-74699368D01*
X196543750Y-74699369D01*
X196722996Y-74719565D01*
X196723000Y-74719565D01*
X196723004Y-74719565D01*
X196902249Y-74699369D01*
X196902252Y-74699368D01*
X196902255Y-74699368D01*
X197072522Y-74639789D01*
X197225262Y-74543816D01*
X197352816Y-74416262D01*
X197448789Y-74263522D01*
X197508368Y-74093255D01*
X197508803Y-74089395D01*
X197528565Y-73914003D01*
X197528565Y-73913996D01*
X197508369Y-73734750D01*
X197508366Y-73734737D01*
X197449192Y-73565628D01*
X197445630Y-73495849D01*
X197480358Y-73435222D01*
X197542352Y-73402994D01*
X197611927Y-73409399D01*
X197653914Y-73436992D01*
X197744738Y-73527816D01*
X197816890Y-73573152D01*
X197882118Y-73614138D01*
X197897478Y-73623789D01*
X198067745Y-73683368D01*
X198067750Y-73683369D01*
X198246996Y-73703565D01*
X198247000Y-73703565D01*
X198247004Y-73703565D01*
X198426249Y-73683369D01*
X198426252Y-73683368D01*
X198426255Y-73683368D01*
X198596522Y-73623789D01*
X198749262Y-73527816D01*
X198876816Y-73400262D01*
X198967506Y-73255930D01*
X199019841Y-73209639D01*
X199088895Y-73198991D01*
X199152743Y-73227366D01*
X199177494Y-73255930D01*
X199268184Y-73400262D01*
X199395738Y-73527816D01*
X199454082Y-73564476D01*
X199497757Y-73591919D01*
X199544048Y-73644254D01*
X199554696Y-73713308D01*
X199550762Y-73731848D01*
X199539976Y-73768578D01*
X199525332Y-73870435D01*
X199519500Y-73911000D01*
X199519500Y-74159227D01*
X199520421Y-74168000D01*
X199530510Y-74264155D01*
X199541196Y-74314514D01*
X199573749Y-74414877D01*
X199650295Y-74536699D01*
X199650298Y-74536703D01*
X199695512Y-74589971D01*
X199803279Y-74685294D01*
X199803282Y-74685295D01*
X199810689Y-74690163D01*
X199808996Y-74692739D01*
X199849863Y-74728879D01*
X199868870Y-74796114D01*
X199868096Y-74808745D01*
X199854435Y-74929995D01*
X199854435Y-74930005D01*
X199868860Y-75058042D01*
X199856805Y-75126863D01*
X199812682Y-75176238D01*
X199766460Y-75205944D01*
X199766451Y-75205951D01*
X199713659Y-75251695D01*
X199619433Y-75360436D01*
X199619430Y-75360440D01*
X199559664Y-75491306D01*
X199539976Y-75558355D01*
X199535693Y-75588146D01*
X199506668Y-75651702D01*
X199447891Y-75689477D01*
X199412955Y-75694500D01*
X195187815Y-75694500D01*
X195120776Y-75674815D01*
X195075021Y-75622011D01*
X195065077Y-75552853D01*
X195094102Y-75489297D01*
X195146861Y-75453458D01*
X195197293Y-75435810D01*
X195294522Y-75401789D01*
X195447262Y-75305816D01*
X195574816Y-75178262D01*
X195670789Y-75025522D01*
X195730368Y-74855255D01*
X195733954Y-74823430D01*
X195750565Y-74676003D01*
X195750565Y-74675996D01*
X195730369Y-74496750D01*
X195730368Y-74496745D01*
X195711587Y-74443071D01*
X195670789Y-74326478D01*
X195574816Y-74173738D01*
X195447262Y-74046184D01*
X195402258Y-74017906D01*
X195294523Y-73950211D01*
X195124254Y-73890631D01*
X195124249Y-73890630D01*
X194945004Y-73870435D01*
X194944996Y-73870435D01*
X194765750Y-73890630D01*
X194765745Y-73890631D01*
X194595476Y-73950211D01*
X194442737Y-74046184D01*
X194315184Y-74173737D01*
X194219211Y-74326476D01*
X194159631Y-74496745D01*
X194159630Y-74496750D01*
X194139435Y-74675996D01*
X194139435Y-74676003D01*
X194159630Y-74855249D01*
X194159631Y-74855254D01*
X194219211Y-75025523D01*
X194271824Y-75109255D01*
X194315184Y-75178262D01*
X194442738Y-75305816D01*
X194529665Y-75360436D01*
X194595478Y-75401789D01*
X194743139Y-75453458D01*
X194799916Y-75494180D01*
X194825663Y-75559133D01*
X194812207Y-75627694D01*
X194763820Y-75678097D01*
X194702185Y-75694500D01*
X192520815Y-75694500D01*
X192453776Y-75674815D01*
X192408021Y-75622011D01*
X192398077Y-75552853D01*
X192427102Y-75489297D01*
X192479861Y-75453458D01*
X192530293Y-75435810D01*
X192627522Y-75401789D01*
X192780262Y-75305816D01*
X192907816Y-75178262D01*
X193003789Y-75025522D01*
X193063368Y-74855255D01*
X193066954Y-74823430D01*
X193083565Y-74676003D01*
X193083565Y-74675996D01*
X193063369Y-74496750D01*
X193063368Y-74496745D01*
X193044587Y-74443071D01*
X193003789Y-74326478D01*
X192907816Y-74173738D01*
X192780262Y-74046184D01*
X192735258Y-74017906D01*
X192627523Y-73950211D01*
X192457254Y-73890631D01*
X192457249Y-73890630D01*
X192278004Y-73870435D01*
X192277996Y-73870435D01*
X192098750Y-73890630D01*
X192098745Y-73890631D01*
X191928476Y-73950211D01*
X191775737Y-74046184D01*
X191725181Y-74096741D01*
X191663858Y-74130226D01*
X191594166Y-74125242D01*
X191538233Y-74083370D01*
X191513816Y-74017906D01*
X191513500Y-74009060D01*
X191513500Y-71381201D01*
X191533185Y-71314162D01*
X191585989Y-71268407D01*
X191655147Y-71258463D01*
X191703471Y-71276207D01*
X191729182Y-71292362D01*
X191801475Y-71337788D01*
X191971745Y-71397368D01*
X191971750Y-71397369D01*
X192150996Y-71417565D01*
X192151000Y-71417565D01*
X192151004Y-71417565D01*
X192330249Y-71397369D01*
X192330252Y-71397368D01*
X192330255Y-71397368D01*
X192500522Y-71337789D01*
X192653262Y-71241816D01*
X192780816Y-71114262D01*
X192876789Y-70961522D01*
X192936368Y-70791255D01*
X192938709Y-70770478D01*
X192956565Y-70612003D01*
X192956565Y-70611996D01*
X192936369Y-70432750D01*
X192936368Y-70432745D01*
X192910215Y-70358003D01*
X192910213Y-70357996D01*
X197314435Y-70357996D01*
X197314435Y-70358003D01*
X197334630Y-70537249D01*
X197334631Y-70537254D01*
X197394211Y-70707523D01*
X197446820Y-70791249D01*
X197490184Y-70860262D01*
X197617738Y-70987816D01*
X197770478Y-71083789D01*
X197940745Y-71143368D01*
X197940750Y-71143369D01*
X198119996Y-71163565D01*
X198120000Y-71163565D01*
X198120004Y-71163565D01*
X198299249Y-71143369D01*
X198299252Y-71143368D01*
X198299255Y-71143368D01*
X198469522Y-71083789D01*
X198622262Y-70987816D01*
X198749816Y-70860262D01*
X198845789Y-70707522D01*
X198905368Y-70537255D01*
X198905803Y-70533395D01*
X198925565Y-70358003D01*
X198925565Y-70357996D01*
X198905369Y-70178750D01*
X198905368Y-70178745D01*
X198897496Y-70156249D01*
X198845789Y-70008478D01*
X198829267Y-69982184D01*
X198749815Y-69855737D01*
X198622262Y-69728184D01*
X198469523Y-69632211D01*
X198299254Y-69572631D01*
X198299249Y-69572630D01*
X198120004Y-69552435D01*
X198119996Y-69552435D01*
X197940750Y-69572630D01*
X197940745Y-69572631D01*
X197770476Y-69632211D01*
X197617737Y-69728184D01*
X197490184Y-69855737D01*
X197394211Y-70008476D01*
X197334631Y-70178745D01*
X197334630Y-70178750D01*
X197314435Y-70357996D01*
X192910213Y-70357996D01*
X192876789Y-70262478D01*
X192870477Y-70252433D01*
X192824171Y-70178737D01*
X192780816Y-70109738D01*
X192653262Y-69982184D01*
X192500523Y-69886211D01*
X192330254Y-69826631D01*
X192330249Y-69826630D01*
X192151004Y-69806435D01*
X192150996Y-69806435D01*
X191971750Y-69826630D01*
X191971745Y-69826631D01*
X191801476Y-69886211D01*
X191703472Y-69947792D01*
X191636235Y-69966792D01*
X191569400Y-69946424D01*
X191524186Y-69893156D01*
X191513500Y-69842798D01*
X191513500Y-65404996D01*
X208236435Y-65404996D01*
X208236435Y-65405003D01*
X208256630Y-65584249D01*
X208256633Y-65584262D01*
X208316209Y-65754519D01*
X208334437Y-65783530D01*
X208353436Y-65850767D01*
X208334437Y-65915470D01*
X208316209Y-65944480D01*
X208256633Y-66114737D01*
X208256630Y-66114750D01*
X208236435Y-66293996D01*
X208236435Y-66294003D01*
X208256630Y-66473249D01*
X208256633Y-66473262D01*
X208316209Y-66643519D01*
X208334437Y-66672530D01*
X208353436Y-66739767D01*
X208334437Y-66804470D01*
X208316209Y-66833480D01*
X208256633Y-67003737D01*
X208256630Y-67003750D01*
X208236435Y-67182996D01*
X208236435Y-67183003D01*
X208256630Y-67362249D01*
X208256631Y-67362254D01*
X208316211Y-67532523D01*
X208403081Y-67670774D01*
X208412184Y-67685262D01*
X208539738Y-67812816D01*
X208630080Y-67869582D01*
X208657646Y-67886903D01*
X208692478Y-67908789D01*
X208790796Y-67943192D01*
X208862745Y-67968368D01*
X208862750Y-67968369D01*
X209041996Y-67988565D01*
X209042000Y-67988565D01*
X209042004Y-67988565D01*
X209221249Y-67968369D01*
X209221252Y-67968368D01*
X209221255Y-67968368D01*
X209391522Y-67908789D01*
X209544262Y-67812816D01*
X209652819Y-67704259D01*
X209714142Y-67670774D01*
X209783834Y-67675758D01*
X209828181Y-67704259D01*
X209936738Y-67812816D01*
X210027080Y-67869582D01*
X210054646Y-67886903D01*
X210089478Y-67908789D01*
X210187796Y-67943192D01*
X210259745Y-67968368D01*
X210259750Y-67968369D01*
X210438996Y-67988565D01*
X210439000Y-67988565D01*
X210439004Y-67988565D01*
X210618249Y-67968369D01*
X210618252Y-67968368D01*
X210618255Y-67968368D01*
X210788522Y-67908789D01*
X210941262Y-67812816D01*
X210979419Y-67774659D01*
X211040742Y-67741174D01*
X211110434Y-67746158D01*
X211154781Y-67774659D01*
X211192938Y-67812816D01*
X211283280Y-67869582D01*
X211310846Y-67886903D01*
X211345678Y-67908789D01*
X211443996Y-67943192D01*
X211515945Y-67968368D01*
X211515950Y-67968369D01*
X211695196Y-67988565D01*
X211695200Y-67988565D01*
X211695204Y-67988565D01*
X211874449Y-67968369D01*
X211874452Y-67968368D01*
X211874455Y-67968368D01*
X212044722Y-67908789D01*
X212197462Y-67812816D01*
X212325016Y-67685262D01*
X212325519Y-67684461D01*
X212325978Y-67684055D01*
X212329359Y-67679816D01*
X212330100Y-67680407D01*
X212377843Y-67638167D01*
X212446895Y-67627509D01*
X212510748Y-67655876D01*
X212547559Y-67709468D01*
X212583408Y-67811919D01*
X212665893Y-67943192D01*
X212679384Y-67964662D01*
X212806938Y-68092216D01*
X212959678Y-68188189D01*
X213129945Y-68247768D01*
X213129950Y-68247769D01*
X213309196Y-68267965D01*
X213309200Y-68267965D01*
X213309204Y-68267965D01*
X213488449Y-68247769D01*
X213488452Y-68247768D01*
X213488455Y-68247768D01*
X213658722Y-68188189D01*
X213811462Y-68092216D01*
X213939016Y-67964662D01*
X214034989Y-67811922D01*
X214094568Y-67641655D01*
X214106864Y-67532523D01*
X214114765Y-67462403D01*
X214114765Y-67462396D01*
X214094569Y-67283150D01*
X214094568Y-67283145D01*
X214034988Y-67112876D01*
X213942067Y-66964994D01*
X213939016Y-66960138D01*
X213811462Y-66832584D01*
X213743765Y-66790047D01*
X213658723Y-66736611D01*
X213488454Y-66677031D01*
X213488449Y-66677030D01*
X213309204Y-66656835D01*
X213309196Y-66656835D01*
X213129950Y-66677030D01*
X213129945Y-66677031D01*
X212959676Y-66736611D01*
X212806937Y-66832584D01*
X212679384Y-66960137D01*
X212679380Y-66960142D01*
X212678872Y-66960952D01*
X212678407Y-66961363D01*
X212675041Y-66965584D01*
X212674301Y-66964994D01*
X212626536Y-67007241D01*
X212557482Y-67017887D01*
X212493635Y-66989509D01*
X212456840Y-66935931D01*
X212420990Y-66833480D01*
X212360123Y-66736611D01*
X212325016Y-66680738D01*
X212197462Y-66553184D01*
X212193023Y-66550395D01*
X212044723Y-66457211D01*
X211874454Y-66397631D01*
X211874449Y-66397630D01*
X211695204Y-66377435D01*
X211695196Y-66377435D01*
X211515950Y-66397630D01*
X211515942Y-66397632D01*
X211407540Y-66435564D01*
X211337762Y-66439125D01*
X211277134Y-66404396D01*
X211244907Y-66342403D01*
X211243366Y-66304639D01*
X211244565Y-66294000D01*
X211224368Y-66114745D01*
X211164789Y-65944478D01*
X211164788Y-65944475D01*
X211146564Y-65915473D01*
X211127563Y-65848237D01*
X211146564Y-65783527D01*
X211164788Y-65754524D01*
X211198924Y-65656969D01*
X211224368Y-65584255D01*
X211244565Y-65405000D01*
X211224368Y-65225745D01*
X211164789Y-65055478D01*
X211161880Y-65050849D01*
X211092584Y-64940565D01*
X211068816Y-64902738D01*
X211037674Y-64871596D01*
X212737643Y-64871596D01*
X212737643Y-64871603D01*
X212757838Y-65050849D01*
X212757839Y-65050854D01*
X212817419Y-65221123D01*
X212913392Y-65373862D01*
X213040946Y-65501416D01*
X213131288Y-65558182D01*
X213172794Y-65584262D01*
X213193686Y-65597389D01*
X213363953Y-65656968D01*
X213363958Y-65656969D01*
X213543204Y-65677165D01*
X213543208Y-65677165D01*
X213543212Y-65677165D01*
X213722457Y-65656969D01*
X213722460Y-65656968D01*
X213722463Y-65656968D01*
X213892730Y-65597389D01*
X214045470Y-65501416D01*
X214173024Y-65373862D01*
X214268997Y-65221122D01*
X214328576Y-65050855D01*
X214336547Y-64980110D01*
X214348773Y-64871603D01*
X214348773Y-64871596D01*
X214328577Y-64692350D01*
X214328576Y-64692345D01*
X214318738Y-64664230D01*
X214268997Y-64522078D01*
X214231536Y-64462460D01*
X214173023Y-64369337D01*
X214045470Y-64241784D01*
X213892731Y-64145811D01*
X213722462Y-64086231D01*
X213722457Y-64086230D01*
X213543212Y-64066035D01*
X213543204Y-64066035D01*
X213363958Y-64086230D01*
X213363953Y-64086231D01*
X213193684Y-64145811D01*
X213040945Y-64241784D01*
X212913392Y-64369337D01*
X212817419Y-64522076D01*
X212757839Y-64692345D01*
X212757838Y-64692350D01*
X212737643Y-64871596D01*
X211037674Y-64871596D01*
X210941262Y-64775184D01*
X210788523Y-64679211D01*
X210618254Y-64619631D01*
X210618249Y-64619630D01*
X210439004Y-64599435D01*
X210438996Y-64599435D01*
X210259750Y-64619630D01*
X210259745Y-64619631D01*
X210089476Y-64679211D01*
X209936737Y-64775184D01*
X209828181Y-64883741D01*
X209766858Y-64917226D01*
X209697166Y-64912242D01*
X209652819Y-64883741D01*
X209544262Y-64775184D01*
X209391523Y-64679211D01*
X209221254Y-64619631D01*
X209221249Y-64619630D01*
X209042004Y-64599435D01*
X209041996Y-64599435D01*
X208862750Y-64619630D01*
X208862745Y-64619631D01*
X208692476Y-64679211D01*
X208539737Y-64775184D01*
X208412184Y-64902737D01*
X208316211Y-65055476D01*
X208256631Y-65225745D01*
X208256630Y-65225750D01*
X208236435Y-65404996D01*
X191513500Y-65404996D01*
X191513500Y-64980110D01*
X191513500Y-64980097D01*
X191511129Y-64931198D01*
X191508808Y-64907317D01*
X191501715Y-64858859D01*
X191454193Y-64723053D01*
X191426785Y-64670331D01*
X191424240Y-64664230D01*
X191338106Y-64544141D01*
X191303604Y-64517198D01*
X191262882Y-64460423D01*
X191259319Y-64390644D01*
X191262872Y-64378542D01*
X191285368Y-64314255D01*
X191285369Y-64314248D01*
X191305565Y-64135003D01*
X191305565Y-64134996D01*
X192234435Y-64134996D01*
X192234435Y-64135003D01*
X192254630Y-64314249D01*
X192254631Y-64314254D01*
X192314211Y-64484523D01*
X192386416Y-64599435D01*
X192410184Y-64637262D01*
X192537738Y-64764816D01*
X192554239Y-64775184D01*
X192687401Y-64858856D01*
X192690478Y-64860789D01*
X192823482Y-64907329D01*
X192860745Y-64920368D01*
X192860750Y-64920369D01*
X193039996Y-64940565D01*
X193040000Y-64940565D01*
X193040004Y-64940565D01*
X193219249Y-64920369D01*
X193219252Y-64920368D01*
X193219255Y-64920368D01*
X193389522Y-64860789D01*
X193542262Y-64764816D01*
X193669816Y-64637262D01*
X193765789Y-64484522D01*
X193825368Y-64314255D01*
X193825369Y-64314248D01*
X193845565Y-64135003D01*
X193845565Y-64134996D01*
X193825369Y-63955750D01*
X193825368Y-63955745D01*
X193802890Y-63891507D01*
X193765789Y-63785478D01*
X193747791Y-63756835D01*
X193702714Y-63685095D01*
X193669816Y-63632738D01*
X193542262Y-63505184D01*
X193532995Y-63499361D01*
X193389523Y-63409211D01*
X193219254Y-63349631D01*
X193219249Y-63349630D01*
X193040004Y-63329435D01*
X193039996Y-63329435D01*
X192860750Y-63349630D01*
X192860745Y-63349631D01*
X192690476Y-63409211D01*
X192537737Y-63505184D01*
X192410184Y-63632737D01*
X192314211Y-63785476D01*
X192254631Y-63955745D01*
X192254630Y-63955750D01*
X192234435Y-64134996D01*
X191305565Y-64134996D01*
X191285369Y-63955753D01*
X191285368Y-63955746D01*
X191285368Y-63955745D01*
X191262888Y-63891503D01*
X191259326Y-63821728D01*
X191294055Y-63761100D01*
X191298711Y-63756852D01*
X191319347Y-63738972D01*
X191413567Y-63630238D01*
X191473338Y-63499361D01*
X191493023Y-63432322D01*
X191493024Y-63432318D01*
X191513500Y-63289902D01*
X191513500Y-62229996D01*
X199854435Y-62229996D01*
X199854435Y-62230003D01*
X199874630Y-62409249D01*
X199874631Y-62409254D01*
X199934211Y-62579523D01*
X199950848Y-62606000D01*
X200030184Y-62732262D01*
X200157738Y-62859816D01*
X200310478Y-62955789D01*
X200310480Y-62955790D01*
X200442421Y-63001959D01*
X200499197Y-63042680D01*
X200524944Y-63107633D01*
X200511488Y-63176195D01*
X200463100Y-63226597D01*
X200442421Y-63236041D01*
X200310480Y-63282209D01*
X200157737Y-63378184D01*
X200030184Y-63505737D01*
X199934211Y-63658476D01*
X199874631Y-63828745D01*
X199874630Y-63828750D01*
X199854435Y-64007996D01*
X199854435Y-64008003D01*
X199874630Y-64187249D01*
X199874631Y-64187254D01*
X199934211Y-64357523D01*
X199998868Y-64460423D01*
X200030184Y-64510262D01*
X200157738Y-64637816D01*
X200194729Y-64661059D01*
X200293391Y-64723053D01*
X200310478Y-64733789D01*
X200399148Y-64764816D01*
X200480745Y-64793368D01*
X200480750Y-64793369D01*
X200659996Y-64813565D01*
X200660000Y-64813565D01*
X200660004Y-64813565D01*
X200839249Y-64793369D01*
X200839252Y-64793368D01*
X200839255Y-64793368D01*
X201009522Y-64733789D01*
X201162262Y-64637816D01*
X201289816Y-64510262D01*
X201385789Y-64357522D01*
X201445368Y-64187255D01*
X201450038Y-64145811D01*
X201465565Y-64008003D01*
X201465565Y-64007996D01*
X201886435Y-64007996D01*
X201886435Y-64008003D01*
X201906630Y-64187249D01*
X201906631Y-64187254D01*
X201966211Y-64357523D01*
X202030868Y-64460423D01*
X202062184Y-64510262D01*
X202189738Y-64637816D01*
X202226729Y-64661059D01*
X202325391Y-64723053D01*
X202342478Y-64733789D01*
X202431148Y-64764816D01*
X202512745Y-64793368D01*
X202512750Y-64793369D01*
X202691996Y-64813565D01*
X202692000Y-64813565D01*
X202692004Y-64813565D01*
X202871249Y-64793369D01*
X202871252Y-64793368D01*
X202871255Y-64793368D01*
X203041522Y-64733789D01*
X203194262Y-64637816D01*
X203321816Y-64510262D01*
X203417789Y-64357522D01*
X203477368Y-64187255D01*
X203482038Y-64145811D01*
X203497565Y-64008003D01*
X203497565Y-64007996D01*
X203477369Y-63828750D01*
X203477368Y-63828745D01*
X203462228Y-63785478D01*
X203417789Y-63658478D01*
X203401615Y-63632738D01*
X203378582Y-63596080D01*
X203321816Y-63505738D01*
X203194262Y-63378184D01*
X203041523Y-63282211D01*
X202871254Y-63222631D01*
X202871249Y-63222630D01*
X202692004Y-63202435D01*
X202691996Y-63202435D01*
X202512750Y-63222630D01*
X202512745Y-63222631D01*
X202342476Y-63282211D01*
X202189737Y-63378184D01*
X202062184Y-63505737D01*
X201966211Y-63658476D01*
X201906631Y-63828745D01*
X201906630Y-63828750D01*
X201886435Y-64007996D01*
X201465565Y-64007996D01*
X201445369Y-63828750D01*
X201445368Y-63828745D01*
X201430228Y-63785478D01*
X201385789Y-63658478D01*
X201369615Y-63632738D01*
X201346582Y-63596080D01*
X201289816Y-63505738D01*
X201162262Y-63378184D01*
X201009521Y-63282210D01*
X200877579Y-63236042D01*
X200820802Y-63195320D01*
X200795055Y-63130367D01*
X200808511Y-63061806D01*
X200856898Y-63011403D01*
X200877579Y-63001958D01*
X200916716Y-62988262D01*
X201009522Y-62955789D01*
X201162262Y-62859816D01*
X201289816Y-62732262D01*
X201385789Y-62579522D01*
X201445368Y-62409255D01*
X201448239Y-62383777D01*
X201465565Y-62230003D01*
X201465565Y-62229996D01*
X201445369Y-62050750D01*
X201445368Y-62050745D01*
X201408199Y-61944522D01*
X201385789Y-61880478D01*
X201379477Y-61870433D01*
X201330130Y-61791898D01*
X201289816Y-61727738D01*
X201162262Y-61600184D01*
X201009523Y-61504211D01*
X200839254Y-61444631D01*
X200839249Y-61444630D01*
X200660004Y-61424435D01*
X200659996Y-61424435D01*
X200480750Y-61444630D01*
X200480745Y-61444631D01*
X200310476Y-61504211D01*
X200157737Y-61600184D01*
X200030184Y-61727737D01*
X199934211Y-61880476D01*
X199874631Y-62050745D01*
X199874630Y-62050750D01*
X199854435Y-62229996D01*
X191513500Y-62229996D01*
X191513500Y-58724796D01*
X205645635Y-58724796D01*
X205645635Y-58724803D01*
X205665830Y-58904049D01*
X205665831Y-58904054D01*
X205725411Y-59074323D01*
X205789530Y-59176367D01*
X205821384Y-59227062D01*
X205948938Y-59354616D01*
X206101678Y-59450589D01*
X206187796Y-59480723D01*
X206271945Y-59510168D01*
X206271950Y-59510169D01*
X206451196Y-59530365D01*
X206451200Y-59530365D01*
X206451204Y-59530365D01*
X206630449Y-59510169D01*
X206630452Y-59510168D01*
X206630455Y-59510168D01*
X206800722Y-59450589D01*
X206953462Y-59354616D01*
X207081016Y-59227062D01*
X207176989Y-59074322D01*
X207236568Y-58904055D01*
X207236569Y-58904049D01*
X207256765Y-58724803D01*
X207256765Y-58724796D01*
X207236569Y-58545550D01*
X207236568Y-58545545D01*
X207176988Y-58375275D01*
X207170202Y-58364476D01*
X207151201Y-58297240D01*
X207171568Y-58230404D01*
X207224835Y-58185190D01*
X207294091Y-58175951D01*
X207316148Y-58181461D01*
X207338745Y-58189368D01*
X207338748Y-58189368D01*
X207338750Y-58189369D01*
X207517996Y-58209565D01*
X207518000Y-58209565D01*
X207518004Y-58209565D01*
X207697249Y-58189369D01*
X207697252Y-58189368D01*
X207697255Y-58189368D01*
X207867522Y-58129789D01*
X207890736Y-58115203D01*
X207922914Y-58094984D01*
X207985427Y-58055703D01*
X208052664Y-58036703D01*
X208117372Y-58055703D01*
X208147469Y-58074615D01*
X208235275Y-58129788D01*
X208405545Y-58189368D01*
X208405550Y-58189369D01*
X208584796Y-58209565D01*
X208584800Y-58209565D01*
X208584804Y-58209565D01*
X208764049Y-58189369D01*
X208764052Y-58189368D01*
X208764055Y-58189368D01*
X208934322Y-58129789D01*
X209087062Y-58033816D01*
X209214616Y-57906262D01*
X209310589Y-57753522D01*
X209370168Y-57583255D01*
X209385942Y-57443255D01*
X209390365Y-57404003D01*
X209390365Y-57403997D01*
X209370872Y-57230995D01*
X209382926Y-57162173D01*
X209430275Y-57110793D01*
X209497886Y-57093169D01*
X209535047Y-57100070D01*
X209599337Y-57122566D01*
X209599343Y-57122567D01*
X209599345Y-57122568D01*
X209599346Y-57122568D01*
X209599350Y-57122569D01*
X209778596Y-57142765D01*
X209778600Y-57142765D01*
X209778604Y-57142765D01*
X209957849Y-57122569D01*
X209957852Y-57122568D01*
X209957855Y-57122568D01*
X210128122Y-57062989D01*
X210141671Y-57054476D01*
X210181413Y-57029504D01*
X210220627Y-57004863D01*
X210287864Y-56985863D01*
X210352573Y-57004864D01*
X210445075Y-57062988D01*
X210615345Y-57122568D01*
X210615350Y-57122569D01*
X210794596Y-57142765D01*
X210794600Y-57142765D01*
X210794604Y-57142765D01*
X210973849Y-57122569D01*
X210973852Y-57122568D01*
X210973855Y-57122568D01*
X211144122Y-57062989D01*
X211157671Y-57054476D01*
X211197413Y-57029504D01*
X211236627Y-57004863D01*
X211303864Y-56985863D01*
X211368573Y-57004864D01*
X211461075Y-57062988D01*
X211631345Y-57122568D01*
X211631350Y-57122569D01*
X211810596Y-57142765D01*
X211810600Y-57142765D01*
X211810604Y-57142765D01*
X211989849Y-57122569D01*
X211989851Y-57122568D01*
X211989855Y-57122568D01*
X211989858Y-57122566D01*
X211996647Y-57121018D01*
X211997386Y-57124258D01*
X212052325Y-57121069D01*
X212113194Y-57155372D01*
X212145854Y-57217138D01*
X212147076Y-57244636D01*
X212148035Y-57244636D01*
X212148035Y-57251603D01*
X212168230Y-57430849D01*
X212168233Y-57430862D01*
X212227810Y-57601121D01*
X212238058Y-57617432D01*
X212257056Y-57684669D01*
X212238058Y-57749368D01*
X212227810Y-57765678D01*
X212168233Y-57935937D01*
X212168230Y-57935950D01*
X212148035Y-58115196D01*
X212148035Y-58115203D01*
X212168230Y-58294449D01*
X212168231Y-58294454D01*
X212227811Y-58464723D01*
X212285936Y-58557228D01*
X212304936Y-58624465D01*
X212285936Y-58689172D01*
X212227811Y-58781676D01*
X212168231Y-58951945D01*
X212168230Y-58951950D01*
X212148035Y-59131196D01*
X212148035Y-59131203D01*
X212168230Y-59310449D01*
X212168231Y-59310454D01*
X212227811Y-59480723D01*
X212291808Y-59582573D01*
X212323784Y-59633462D01*
X212451338Y-59761016D01*
X212604078Y-59856989D01*
X212712573Y-59894953D01*
X212769349Y-59935675D01*
X212795096Y-60000628D01*
X212781640Y-60069189D01*
X212776612Y-60077967D01*
X212761211Y-60102476D01*
X212701631Y-60272745D01*
X212701630Y-60272750D01*
X212681435Y-60451996D01*
X212681435Y-60452003D01*
X212701630Y-60631249D01*
X212701633Y-60631260D01*
X212712601Y-60662606D01*
X212716162Y-60732385D01*
X212681432Y-60793012D01*
X212619439Y-60825238D01*
X212554606Y-60820601D01*
X212523260Y-60809633D01*
X212523249Y-60809630D01*
X212344004Y-60789435D01*
X212343996Y-60789435D01*
X212164750Y-60809630D01*
X212164745Y-60809631D01*
X211994476Y-60869211D01*
X211841737Y-60965184D01*
X211714184Y-61092737D01*
X211618209Y-61245480D01*
X211572041Y-61377421D01*
X211531320Y-61434197D01*
X211466367Y-61459944D01*
X211397805Y-61446488D01*
X211347403Y-61398100D01*
X211337959Y-61377421D01*
X211291790Y-61245480D01*
X211291789Y-61245478D01*
X211195816Y-61092738D01*
X211068262Y-60965184D01*
X211022822Y-60936632D01*
X210915523Y-60869211D01*
X210745254Y-60809631D01*
X210745249Y-60809630D01*
X210566004Y-60789435D01*
X210565996Y-60789435D01*
X210386750Y-60809630D01*
X210386745Y-60809631D01*
X210216476Y-60869211D01*
X210063737Y-60965184D01*
X209936184Y-61092737D01*
X209840211Y-61245476D01*
X209780631Y-61415745D01*
X209780630Y-61415750D01*
X209760435Y-61594996D01*
X209760435Y-61595003D01*
X209780630Y-61774249D01*
X209780631Y-61774254D01*
X209840211Y-61944523D01*
X209920010Y-62071522D01*
X209936184Y-62097262D01*
X210063738Y-62224816D01*
X210216478Y-62320789D01*
X210305148Y-62351816D01*
X210386745Y-62380368D01*
X210386750Y-62380369D01*
X210565996Y-62400565D01*
X210566000Y-62400565D01*
X210566004Y-62400565D01*
X210745249Y-62380369D01*
X210745252Y-62380368D01*
X210745255Y-62380368D01*
X210915522Y-62320789D01*
X211068262Y-62224816D01*
X211195816Y-62097262D01*
X211291789Y-61944522D01*
X211337958Y-61812579D01*
X211378680Y-61755802D01*
X211443633Y-61730055D01*
X211512194Y-61743511D01*
X211562597Y-61791898D01*
X211572042Y-61812579D01*
X211618210Y-61944521D01*
X211698010Y-62071522D01*
X211714184Y-62097262D01*
X211841738Y-62224816D01*
X211994478Y-62320789D01*
X212083148Y-62351816D01*
X212164745Y-62380368D01*
X212164750Y-62380369D01*
X212343996Y-62400565D01*
X212344000Y-62400565D01*
X212344004Y-62400565D01*
X212523249Y-62380369D01*
X212523252Y-62380368D01*
X212523255Y-62380368D01*
X212693522Y-62320789D01*
X212846262Y-62224816D01*
X212973816Y-62097262D01*
X213069789Y-61944522D01*
X213129368Y-61774255D01*
X213131447Y-61755802D01*
X213149565Y-61595003D01*
X213149565Y-61594996D01*
X213129369Y-61415750D01*
X213129366Y-61415737D01*
X213118399Y-61384395D01*
X213114837Y-61314616D01*
X213149565Y-61253989D01*
X213211559Y-61221761D01*
X213276395Y-61226399D01*
X213307737Y-61237366D01*
X213307743Y-61237367D01*
X213307745Y-61237368D01*
X213307746Y-61237368D01*
X213307750Y-61237369D01*
X213486996Y-61257565D01*
X213487000Y-61257565D01*
X213487004Y-61257565D01*
X213666249Y-61237369D01*
X213666252Y-61237368D01*
X213666255Y-61237368D01*
X213836522Y-61177789D01*
X213900352Y-61137681D01*
X213967587Y-61118681D01*
X214034423Y-61139048D01*
X214079637Y-61192315D01*
X214088876Y-61261571D01*
X214071318Y-61308647D01*
X214031211Y-61372476D01*
X213971631Y-61542745D01*
X213971630Y-61542750D01*
X213951435Y-61721996D01*
X213951435Y-61722003D01*
X213971630Y-61901249D01*
X213971631Y-61901254D01*
X214031211Y-62071523D01*
X214127184Y-62224262D01*
X214254738Y-62351816D01*
X214407478Y-62447789D01*
X214577745Y-62507368D01*
X214577750Y-62507369D01*
X214756996Y-62527565D01*
X214757000Y-62527565D01*
X214757004Y-62527565D01*
X214936249Y-62507369D01*
X214936252Y-62507368D01*
X214936255Y-62507368D01*
X215106522Y-62447789D01*
X215259262Y-62351816D01*
X215386816Y-62224262D01*
X215482789Y-62071522D01*
X215542368Y-61901255D01*
X215544709Y-61880478D01*
X215562565Y-61722003D01*
X215562565Y-61721996D01*
X215542369Y-61542750D01*
X215542368Y-61542746D01*
X215540461Y-61537296D01*
X215536896Y-61467517D01*
X215571623Y-61406888D01*
X215633615Y-61374658D01*
X215671385Y-61373116D01*
X215772997Y-61384565D01*
X215773000Y-61384565D01*
X215773004Y-61384565D01*
X215952249Y-61364369D01*
X215952252Y-61364368D01*
X215952255Y-61364368D01*
X216122522Y-61304789D01*
X216275262Y-61208816D01*
X216402816Y-61081262D01*
X216498789Y-60928522D01*
X216558368Y-60758255D01*
X216561283Y-60732385D01*
X216578565Y-60579003D01*
X216578565Y-60578996D01*
X216558369Y-60399750D01*
X216558368Y-60399745D01*
X216524865Y-60304000D01*
X216498789Y-60229478D01*
X216402816Y-60076738D01*
X216275262Y-59949184D01*
X216223354Y-59916568D01*
X216122523Y-59853211D01*
X215952254Y-59793631D01*
X215952249Y-59793630D01*
X215773004Y-59773435D01*
X215772996Y-59773435D01*
X215593750Y-59793630D01*
X215593745Y-59793631D01*
X215423476Y-59853211D01*
X215270737Y-59949184D01*
X215143184Y-60076737D01*
X215047211Y-60229476D01*
X214987631Y-60399745D01*
X214987630Y-60399750D01*
X214967435Y-60578996D01*
X214967435Y-60579003D01*
X214987630Y-60758249D01*
X214987632Y-60758257D01*
X214989540Y-60763709D01*
X214993101Y-60833488D01*
X214958372Y-60894115D01*
X214896378Y-60926342D01*
X214858615Y-60927883D01*
X214757004Y-60916435D01*
X214756996Y-60916435D01*
X214577750Y-60936630D01*
X214577745Y-60936631D01*
X214407476Y-60996211D01*
X214343647Y-61036318D01*
X214276410Y-61055318D01*
X214209575Y-61034950D01*
X214164361Y-60981682D01*
X214155124Y-60912426D01*
X214172681Y-60865353D01*
X214207694Y-60809631D01*
X214212788Y-60801524D01*
X214212789Y-60801522D01*
X214272368Y-60631255D01*
X214272369Y-60631249D01*
X214292565Y-60452003D01*
X214292565Y-60451996D01*
X214272369Y-60272750D01*
X214272368Y-60272745D01*
X214257228Y-60229478D01*
X214212789Y-60102478D01*
X214196615Y-60076738D01*
X214116815Y-59949737D01*
X213989262Y-59822184D01*
X213836521Y-59726210D01*
X213728027Y-59688247D01*
X213671251Y-59647525D01*
X213645503Y-59582573D01*
X213658959Y-59514011D01*
X213663989Y-59505231D01*
X213679387Y-59480725D01*
X213679388Y-59480723D01*
X213679389Y-59480722D01*
X213738968Y-59310455D01*
X213754076Y-59176367D01*
X213759165Y-59131203D01*
X213759165Y-59131196D01*
X213738969Y-58951950D01*
X213738968Y-58951945D01*
X213679388Y-58781675D01*
X213621264Y-58689173D01*
X213602263Y-58621936D01*
X213621264Y-58557227D01*
X213679388Y-58464724D01*
X213695038Y-58420000D01*
X213738968Y-58294455D01*
X213748533Y-58209565D01*
X213759165Y-58115203D01*
X213759165Y-58115196D01*
X213738969Y-57935950D01*
X213738968Y-57935945D01*
X213679389Y-57765678D01*
X213671751Y-57753523D01*
X213669143Y-57749372D01*
X213650143Y-57682137D01*
X213669144Y-57617426D01*
X213678604Y-57602371D01*
X213679389Y-57601122D01*
X213738968Y-57430855D01*
X213738969Y-57430849D01*
X213759165Y-57251603D01*
X213759165Y-57251596D01*
X213738969Y-57072350D01*
X213738968Y-57072345D01*
X213679388Y-56902075D01*
X213653184Y-56860373D01*
X213634183Y-56793136D01*
X213653184Y-56728427D01*
X213679388Y-56686724D01*
X213683949Y-56673689D01*
X213738968Y-56516455D01*
X213741380Y-56495052D01*
X213759165Y-56337203D01*
X213759165Y-56337196D01*
X213738969Y-56157950D01*
X213738968Y-56157945D01*
X213704435Y-56059255D01*
X213679389Y-55987678D01*
X213583416Y-55834938D01*
X213455862Y-55707384D01*
X213425866Y-55688536D01*
X213303123Y-55611411D01*
X213132854Y-55551831D01*
X213132849Y-55551830D01*
X212953604Y-55531635D01*
X212953596Y-55531635D01*
X212774350Y-55551830D01*
X212774345Y-55551831D01*
X212604076Y-55611411D01*
X212448072Y-55709436D01*
X212380835Y-55728436D01*
X212316128Y-55709436D01*
X212160123Y-55611411D01*
X211989854Y-55551831D01*
X211989849Y-55551830D01*
X211810604Y-55531635D01*
X211810596Y-55531635D01*
X211631350Y-55551830D01*
X211631345Y-55551831D01*
X211461076Y-55611411D01*
X211368572Y-55669536D01*
X211301335Y-55688536D01*
X211236628Y-55669536D01*
X211144123Y-55611411D01*
X210973854Y-55551831D01*
X210973849Y-55551830D01*
X210794604Y-55531635D01*
X210794596Y-55531635D01*
X210615350Y-55551830D01*
X210615345Y-55551831D01*
X210445076Y-55611411D01*
X210352572Y-55669536D01*
X210285335Y-55688536D01*
X210220628Y-55669536D01*
X210128123Y-55611411D01*
X209957854Y-55551831D01*
X209957849Y-55551830D01*
X209778604Y-55531635D01*
X209778596Y-55531635D01*
X209599350Y-55551830D01*
X209599345Y-55551831D01*
X209429076Y-55611411D01*
X209273072Y-55709436D01*
X209205835Y-55728436D01*
X209141128Y-55709436D01*
X208985123Y-55611411D01*
X208814854Y-55551831D01*
X208814849Y-55551830D01*
X208635604Y-55531635D01*
X208635596Y-55531635D01*
X208456350Y-55551830D01*
X208456345Y-55551831D01*
X208286076Y-55611411D01*
X208133337Y-55707384D01*
X208005784Y-55834937D01*
X207909811Y-55987676D01*
X207850231Y-56157945D01*
X207850230Y-56157950D01*
X207830035Y-56337196D01*
X207830035Y-56337204D01*
X207846518Y-56483504D01*
X207834463Y-56552326D01*
X207787114Y-56603705D01*
X207719503Y-56621329D01*
X207704180Y-56619364D01*
X207704175Y-56619411D01*
X207518004Y-56598435D01*
X207517996Y-56598435D01*
X207338750Y-56618630D01*
X207338745Y-56618631D01*
X207168476Y-56678211D01*
X207015737Y-56774184D01*
X206888184Y-56901737D01*
X206792211Y-57054476D01*
X206732631Y-57224745D01*
X206732630Y-57224750D01*
X206712435Y-57403996D01*
X206712435Y-57404003D01*
X206732630Y-57583249D01*
X206732631Y-57583254D01*
X206792211Y-57753523D01*
X206798998Y-57764324D01*
X206817998Y-57831561D01*
X206797630Y-57898396D01*
X206744362Y-57943610D01*
X206675106Y-57952847D01*
X206653049Y-57947338D01*
X206630454Y-57939431D01*
X206630449Y-57939430D01*
X206451204Y-57919235D01*
X206451196Y-57919235D01*
X206271950Y-57939430D01*
X206271945Y-57939431D01*
X206101676Y-57999011D01*
X205948937Y-58094984D01*
X205821384Y-58222537D01*
X205725411Y-58375276D01*
X205665831Y-58545545D01*
X205665830Y-58545550D01*
X205645635Y-58724796D01*
X191513500Y-58724796D01*
X191513500Y-54988500D01*
X191533185Y-54921461D01*
X191585989Y-54875706D01*
X191637500Y-54864500D01*
X192788611Y-54864500D01*
X192855650Y-54884185D01*
G37*
G04 #@! TD.AperFunction*
G04 #@! TA.AperFunction,Conductor*
G36*
X190951039Y-54884185D02*
G01*
X190996794Y-54936989D01*
X191008000Y-54988500D01*
X191008000Y-63289902D01*
X190988315Y-63356941D01*
X190935511Y-63402696D01*
X190866353Y-63412640D01*
X190843046Y-63406944D01*
X190679257Y-63349632D01*
X190679249Y-63349630D01*
X190500004Y-63329435D01*
X190499996Y-63329435D01*
X190320750Y-63349630D01*
X190320745Y-63349631D01*
X190150476Y-63409211D01*
X189997737Y-63505184D01*
X189870184Y-63632737D01*
X189774211Y-63785476D01*
X189714631Y-63955745D01*
X189714630Y-63955750D01*
X189694435Y-64134996D01*
X189694435Y-64135003D01*
X189714630Y-64314249D01*
X189714631Y-64314254D01*
X189774211Y-64484523D01*
X189797809Y-64522078D01*
X189870184Y-64637262D01*
X189997738Y-64764816D01*
X190150478Y-64860789D01*
X190320739Y-64920366D01*
X190320745Y-64920368D01*
X190320750Y-64920369D01*
X190499996Y-64940565D01*
X190500000Y-64940565D01*
X190500004Y-64940565D01*
X190679249Y-64920369D01*
X190679251Y-64920368D01*
X190679255Y-64920368D01*
X190679258Y-64920366D01*
X190679262Y-64920366D01*
X190843045Y-64863056D01*
X190912824Y-64859494D01*
X190973451Y-64894222D01*
X191005679Y-64956216D01*
X191008000Y-64980097D01*
X191008000Y-76200000D01*
X200025000Y-76200000D01*
X200025000Y-75700772D01*
X200044685Y-75633733D01*
X200097489Y-75587978D01*
X200166647Y-75578034D01*
X200214973Y-75595779D01*
X200310475Y-75655788D01*
X200480745Y-75715368D01*
X200480750Y-75715369D01*
X200659996Y-75735565D01*
X200660000Y-75735565D01*
X200660004Y-75735565D01*
X200839249Y-75715369D01*
X200839252Y-75715368D01*
X200839255Y-75715368D01*
X201009522Y-75655789D01*
X201162262Y-75559816D01*
X201289816Y-75432262D01*
X201385789Y-75279522D01*
X201445368Y-75109255D01*
X201450672Y-75062184D01*
X201465565Y-74930003D01*
X201465565Y-74929996D01*
X201445369Y-74750750D01*
X201445368Y-74750745D01*
X201421221Y-74681737D01*
X201385789Y-74580478D01*
X201369267Y-74554184D01*
X201289815Y-74427737D01*
X201162262Y-74300184D01*
X201009523Y-74204211D01*
X200839254Y-74144631D01*
X200839249Y-74144630D01*
X200660004Y-74124435D01*
X200659996Y-74124435D01*
X200480750Y-74144630D01*
X200480745Y-74144631D01*
X200310476Y-74204211D01*
X200214972Y-74264221D01*
X200147735Y-74283221D01*
X200080900Y-74262853D01*
X200035686Y-74209585D01*
X200025000Y-74159227D01*
X200025000Y-73911000D01*
X200044685Y-73843961D01*
X200097489Y-73798206D01*
X200149000Y-73787000D01*
X203581000Y-73787000D01*
X204020484Y-73347515D01*
X204081803Y-73314033D01*
X204122045Y-73311979D01*
X204215997Y-73322565D01*
X204216000Y-73322565D01*
X204216004Y-73322565D01*
X204395249Y-73302369D01*
X204395252Y-73302368D01*
X204395255Y-73302368D01*
X204565522Y-73242789D01*
X204718262Y-73146816D01*
X204845816Y-73019262D01*
X204941789Y-72866522D01*
X205001368Y-72696255D01*
X205001369Y-72696249D01*
X205021565Y-72517003D01*
X205021565Y-72516997D01*
X205010979Y-72423045D01*
X205023033Y-72354223D01*
X205046512Y-72321487D01*
X205084894Y-72283105D01*
X205146213Y-72249623D01*
X205213521Y-72253747D01*
X205306745Y-72286368D01*
X205306749Y-72286368D01*
X205306751Y-72286369D01*
X205306748Y-72286369D01*
X205485996Y-72306565D01*
X205486000Y-72306565D01*
X205486004Y-72306565D01*
X205665249Y-72286369D01*
X205665252Y-72286368D01*
X205665255Y-72286368D01*
X205835522Y-72226789D01*
X205949764Y-72155006D01*
X206015736Y-72136000D01*
X213219893Y-72136000D01*
X213260848Y-72142958D01*
X213307745Y-72159368D01*
X213307750Y-72159369D01*
X213486996Y-72179565D01*
X213487000Y-72179565D01*
X213487004Y-72179565D01*
X213666249Y-72159369D01*
X213666252Y-72159368D01*
X213666255Y-72159368D01*
X213713152Y-72142957D01*
X213754107Y-72136000D01*
X217030458Y-72136000D01*
X217097497Y-72155685D01*
X217135450Y-72194026D01*
X217175184Y-72257262D01*
X217302738Y-72384816D01*
X217455478Y-72480789D01*
X217558955Y-72516997D01*
X217625745Y-72540368D01*
X217625750Y-72540369D01*
X217804996Y-72560565D01*
X217805000Y-72560565D01*
X217805004Y-72560565D01*
X217984249Y-72540369D01*
X217984252Y-72540368D01*
X217984255Y-72540368D01*
X218154522Y-72480789D01*
X218298085Y-72390581D01*
X218365321Y-72371582D01*
X218432157Y-72391950D01*
X218477371Y-72445217D01*
X218486609Y-72514474D01*
X218478136Y-72541774D01*
X218478511Y-72541905D01*
X218416631Y-72718745D01*
X218416630Y-72718750D01*
X218396435Y-72897996D01*
X218396435Y-72898003D01*
X218416630Y-73077249D01*
X218416631Y-73077254D01*
X218476211Y-73247523D01*
X218539041Y-73347515D01*
X218572184Y-73400262D01*
X218699738Y-73527816D01*
X218852478Y-73623789D01*
X218918857Y-73647016D01*
X219022745Y-73683368D01*
X219022750Y-73683369D01*
X219201996Y-73703565D01*
X219202000Y-73703565D01*
X219202004Y-73703565D01*
X219381249Y-73683369D01*
X219381252Y-73683368D01*
X219381255Y-73683368D01*
X219551522Y-73623789D01*
X219704262Y-73527816D01*
X219831816Y-73400262D01*
X219927789Y-73247522D01*
X219987368Y-73077255D01*
X219987369Y-73077249D01*
X220007565Y-72898003D01*
X220007565Y-72897996D01*
X219987369Y-72718750D01*
X219987368Y-72718745D01*
X219927788Y-72548476D01*
X219885257Y-72480789D01*
X219831816Y-72395738D01*
X219783759Y-72347681D01*
X219750274Y-72286358D01*
X219755258Y-72216666D01*
X219797130Y-72160733D01*
X219862594Y-72136316D01*
X219871440Y-72136000D01*
X221474893Y-72136000D01*
X221515848Y-72142958D01*
X221562745Y-72159368D01*
X221562750Y-72159369D01*
X221741996Y-72179565D01*
X221742000Y-72179565D01*
X221742004Y-72179565D01*
X221921249Y-72159369D01*
X221921252Y-72159368D01*
X221921255Y-72159368D01*
X221968152Y-72142957D01*
X222009107Y-72136000D01*
X223055436Y-72136000D01*
X223122475Y-72155685D01*
X223168230Y-72208489D01*
X223179436Y-72260000D01*
X223179436Y-98850137D01*
X223159751Y-98917176D01*
X223106947Y-98962931D01*
X223037789Y-98972875D01*
X222974233Y-98943850D01*
X222945881Y-98908220D01*
X222796215Y-98625922D01*
X222796213Y-98625919D01*
X222796211Y-98625915D01*
X222595365Y-98329689D01*
X222595361Y-98329684D01*
X222595358Y-98329680D01*
X222363668Y-98056914D01*
X222238663Y-97938503D01*
X222103837Y-97810789D01*
X222103830Y-97810783D01*
X222103827Y-97810781D01*
X221978164Y-97715255D01*
X221818919Y-97594200D01*
X221512253Y-97409685D01*
X221512252Y-97409684D01*
X221512248Y-97409682D01*
X221512244Y-97409680D01*
X221187447Y-97259414D01*
X221187441Y-97259411D01*
X221187435Y-97259409D01*
X221017854Y-97202270D01*
X220848273Y-97145131D01*
X220498744Y-97068194D01*
X220142949Y-97029500D01*
X220142948Y-97029500D01*
X219785052Y-97029500D01*
X219785050Y-97029500D01*
X219429255Y-97068194D01*
X219079726Y-97145131D01*
X218879159Y-97212711D01*
X218740565Y-97259409D01*
X218740563Y-97259410D01*
X218740552Y-97259414D01*
X218415755Y-97409680D01*
X218415751Y-97409682D01*
X218229740Y-97521602D01*
X218109081Y-97594200D01*
X218020768Y-97661333D01*
X217824172Y-97810781D01*
X217824163Y-97810789D01*
X217564331Y-98056914D01*
X217332641Y-98329680D01*
X217332634Y-98329690D01*
X217131790Y-98625913D01*
X217131784Y-98625922D01*
X216964151Y-98942111D01*
X216964142Y-98942129D01*
X216831674Y-99274600D01*
X216831672Y-99274607D01*
X216735932Y-99619434D01*
X216735926Y-99619460D01*
X216678029Y-99972614D01*
X216678028Y-99972627D01*
X216678028Y-99972629D01*
X216676876Y-99993869D01*
X216658652Y-100329997D01*
X216658652Y-100330002D01*
X216678028Y-100687368D01*
X216678029Y-100687385D01*
X216735926Y-101040539D01*
X216735932Y-101040565D01*
X216831672Y-101385392D01*
X216831674Y-101385399D01*
X216964142Y-101717870D01*
X216964151Y-101717888D01*
X217131784Y-102034077D01*
X217131787Y-102034082D01*
X217131789Y-102034085D01*
X217289355Y-102266478D01*
X217332634Y-102330309D01*
X217332641Y-102330319D01*
X217502479Y-102530267D01*
X217564332Y-102603086D01*
X217824163Y-102849211D01*
X218109081Y-103065800D01*
X218415747Y-103250315D01*
X218415749Y-103250316D01*
X218415751Y-103250317D01*
X218415755Y-103250319D01*
X218740552Y-103400585D01*
X218740565Y-103400591D01*
X219079726Y-103514868D01*
X219429254Y-103591805D01*
X219785052Y-103630500D01*
X219785058Y-103630500D01*
X220142942Y-103630500D01*
X220142948Y-103630500D01*
X220498746Y-103591805D01*
X220848274Y-103514868D01*
X221187435Y-103400591D01*
X221512253Y-103250315D01*
X221818919Y-103065800D01*
X222103837Y-102849211D01*
X222363668Y-102603086D01*
X222392946Y-102568616D01*
X222451346Y-102530267D01*
X222521212Y-102529578D01*
X222580360Y-102566771D01*
X222610010Y-102630037D01*
X222600749Y-102699291D01*
X222588582Y-102720649D01*
X222546302Y-102780238D01*
X222537634Y-102791107D01*
X222533928Y-102795255D01*
X222328682Y-103024927D01*
X222318850Y-103034759D01*
X222284116Y-103065800D01*
X222085030Y-103243715D01*
X222074163Y-103252382D01*
X221818414Y-103433848D01*
X221806640Y-103441246D01*
X221532193Y-103592930D01*
X221519665Y-103598964D01*
X221229943Y-103718974D01*
X221216818Y-103723566D01*
X220915504Y-103810376D01*
X220901947Y-103813471D01*
X220592791Y-103866002D01*
X220578973Y-103867559D01*
X220263046Y-103885305D01*
X220256092Y-103885500D01*
X211071389Y-103885500D01*
X211004350Y-103865815D01*
X210958595Y-103813011D01*
X210948651Y-103743853D01*
X210977676Y-103680297D01*
X211030434Y-103644458D01*
X211031272Y-103644164D01*
X211169522Y-103595789D01*
X211322262Y-103499816D01*
X211449816Y-103372262D01*
X211545789Y-103219522D01*
X211605368Y-103049255D01*
X211605369Y-103049249D01*
X211625565Y-102870003D01*
X211625565Y-102869996D01*
X211605369Y-102690750D01*
X211605368Y-102690745D01*
X211579215Y-102616003D01*
X211545789Y-102520478D01*
X211544740Y-102518809D01*
X211449815Y-102367737D01*
X211322262Y-102240184D01*
X211169523Y-102144211D01*
X210999254Y-102084631D01*
X210999249Y-102084630D01*
X210820004Y-102064435D01*
X210819996Y-102064435D01*
X210640750Y-102084630D01*
X210640745Y-102084631D01*
X210470476Y-102144211D01*
X210317737Y-102240184D01*
X210190184Y-102367737D01*
X210094211Y-102520476D01*
X210034631Y-102690745D01*
X210034630Y-102690750D01*
X210014435Y-102869996D01*
X210014435Y-102870003D01*
X210034630Y-103049249D01*
X210034631Y-103049254D01*
X210094211Y-103219523D01*
X210190184Y-103372262D01*
X210317738Y-103499816D01*
X210408080Y-103556582D01*
X210464137Y-103591805D01*
X210470478Y-103595789D01*
X210607763Y-103643827D01*
X210609566Y-103644458D01*
X210666342Y-103685180D01*
X210692089Y-103750133D01*
X210678633Y-103818694D01*
X210630246Y-103869097D01*
X210568611Y-103885500D01*
X184915481Y-103885500D01*
X184908528Y-103885305D01*
X184591959Y-103867527D01*
X184578141Y-103865970D01*
X184268996Y-103813443D01*
X184255439Y-103810349D01*
X183954108Y-103723537D01*
X183940984Y-103718944D01*
X183651278Y-103598945D01*
X183638749Y-103592912D01*
X183364295Y-103441226D01*
X183352521Y-103433828D01*
X183096772Y-103252365D01*
X183085900Y-103243694D01*
X182852087Y-103034744D01*
X182842255Y-103024912D01*
X182633305Y-102791099D01*
X182624634Y-102780227D01*
X182582361Y-102720649D01*
X182498945Y-102603085D01*
X182443171Y-102524478D01*
X182435773Y-102512704D01*
X182334968Y-102330311D01*
X182284083Y-102238243D01*
X182278054Y-102225721D01*
X182158055Y-101936015D01*
X182153462Y-101922891D01*
X182066650Y-101621560D01*
X182063556Y-101608003D01*
X182025734Y-101385403D01*
X182017477Y-101336805D01*
X182025654Y-101267418D01*
X182070047Y-101213464D01*
X182136563Y-101192076D01*
X182204083Y-101210045D01*
X182251169Y-101261665D01*
X182259205Y-101282862D01*
X182287673Y-101385397D01*
X182287674Y-101385399D01*
X182420142Y-101717870D01*
X182420151Y-101717888D01*
X182587784Y-102034077D01*
X182587787Y-102034082D01*
X182587789Y-102034085D01*
X182745355Y-102266478D01*
X182788634Y-102330309D01*
X182788641Y-102330319D01*
X182958479Y-102530267D01*
X183020332Y-102603086D01*
X183280163Y-102849211D01*
X183565081Y-103065800D01*
X183871747Y-103250315D01*
X183871749Y-103250316D01*
X183871751Y-103250317D01*
X183871755Y-103250319D01*
X184196552Y-103400585D01*
X184196565Y-103400591D01*
X184535726Y-103514868D01*
X184885254Y-103591805D01*
X185241052Y-103630500D01*
X185241058Y-103630500D01*
X185598942Y-103630500D01*
X185598948Y-103630500D01*
X185954746Y-103591805D01*
X186304274Y-103514868D01*
X186643435Y-103400591D01*
X186968253Y-103250315D01*
X187274919Y-103065800D01*
X187559837Y-102849211D01*
X187806039Y-102615996D01*
X198330435Y-102615996D01*
X198330435Y-102616003D01*
X198350630Y-102795249D01*
X198350631Y-102795254D01*
X198410211Y-102965523D01*
X198462820Y-103049249D01*
X198506184Y-103118262D01*
X198633738Y-103245816D01*
X198786478Y-103341789D01*
X198873565Y-103372262D01*
X198956745Y-103401368D01*
X198956750Y-103401369D01*
X199135996Y-103421565D01*
X199136000Y-103421565D01*
X199136004Y-103421565D01*
X199315249Y-103401369D01*
X199315252Y-103401368D01*
X199315255Y-103401368D01*
X199485522Y-103341789D01*
X199638262Y-103245816D01*
X199765816Y-103118262D01*
X199861789Y-102965522D01*
X199921368Y-102795255D01*
X199921835Y-102791110D01*
X199941565Y-102616003D01*
X199941565Y-102615996D01*
X203410435Y-102615996D01*
X203410435Y-102616003D01*
X203430630Y-102795249D01*
X203430631Y-102795254D01*
X203490211Y-102965523D01*
X203542820Y-103049249D01*
X203586184Y-103118262D01*
X203713738Y-103245816D01*
X203866478Y-103341789D01*
X203953565Y-103372262D01*
X204036745Y-103401368D01*
X204036750Y-103401369D01*
X204215996Y-103421565D01*
X204216000Y-103421565D01*
X204216004Y-103421565D01*
X204395249Y-103401369D01*
X204395252Y-103401368D01*
X204395255Y-103401368D01*
X204565522Y-103341789D01*
X204718262Y-103245816D01*
X204845816Y-103118262D01*
X204941789Y-102965522D01*
X205001368Y-102795255D01*
X205001835Y-102791110D01*
X205021565Y-102616003D01*
X205021565Y-102615996D01*
X205001369Y-102436750D01*
X205001368Y-102436745D01*
X204941788Y-102266476D01*
X204850857Y-102121761D01*
X204845816Y-102113738D01*
X204718262Y-101986184D01*
X204638419Y-101936015D01*
X204565523Y-101890211D01*
X204395254Y-101830631D01*
X204395249Y-101830630D01*
X204216004Y-101810435D01*
X204215996Y-101810435D01*
X204036750Y-101830630D01*
X204036745Y-101830631D01*
X203866476Y-101890211D01*
X203713737Y-101986184D01*
X203586184Y-102113737D01*
X203490211Y-102266476D01*
X203430631Y-102436745D01*
X203430630Y-102436750D01*
X203410435Y-102615996D01*
X199941565Y-102615996D01*
X199921369Y-102436750D01*
X199921368Y-102436745D01*
X199861788Y-102266476D01*
X199770857Y-102121761D01*
X199765816Y-102113738D01*
X199638262Y-101986184D01*
X199558419Y-101936015D01*
X199485523Y-101890211D01*
X199315254Y-101830631D01*
X199315249Y-101830630D01*
X199136004Y-101810435D01*
X199135996Y-101810435D01*
X198956750Y-101830630D01*
X198956745Y-101830631D01*
X198786476Y-101890211D01*
X198633737Y-101986184D01*
X198506184Y-102113737D01*
X198410211Y-102266476D01*
X198350631Y-102436745D01*
X198350630Y-102436750D01*
X198330435Y-102615996D01*
X187806039Y-102615996D01*
X187819668Y-102603086D01*
X188051365Y-102330311D01*
X188252211Y-102034085D01*
X188419853Y-101717880D01*
X188552324Y-101385403D01*
X188648071Y-101040552D01*
X188705972Y-100687371D01*
X188725348Y-100330000D01*
X188705972Y-99972629D01*
X188699686Y-99934289D01*
X188648073Y-99619460D01*
X188648072Y-99619459D01*
X188648071Y-99619448D01*
X188552324Y-99274597D01*
X188466819Y-99059996D01*
X192742435Y-99059996D01*
X192742435Y-99060003D01*
X192762630Y-99239249D01*
X192762631Y-99239254D01*
X192822211Y-99409523D01*
X192893966Y-99523719D01*
X192918184Y-99562262D01*
X193045738Y-99689816D01*
X193198478Y-99785789D01*
X193348589Y-99838315D01*
X193368745Y-99845368D01*
X193368750Y-99845369D01*
X193547996Y-99865565D01*
X193548000Y-99865565D01*
X193548004Y-99865565D01*
X193727249Y-99845369D01*
X193727252Y-99845368D01*
X193727255Y-99845368D01*
X193897522Y-99785789D01*
X194050262Y-99689816D01*
X194177816Y-99562262D01*
X194273789Y-99409522D01*
X194333368Y-99239255D01*
X194333369Y-99239249D01*
X194353565Y-99060003D01*
X194353565Y-99059996D01*
X194333369Y-98880750D01*
X194333368Y-98880745D01*
X194286699Y-98747372D01*
X194273789Y-98710478D01*
X194244766Y-98664289D01*
X194190977Y-98578684D01*
X194177816Y-98557738D01*
X194050262Y-98430184D01*
X194016177Y-98408767D01*
X193897523Y-98334211D01*
X193727254Y-98274631D01*
X193727249Y-98274630D01*
X193548004Y-98254435D01*
X193547996Y-98254435D01*
X193368750Y-98274630D01*
X193368745Y-98274631D01*
X193198476Y-98334211D01*
X193045737Y-98430184D01*
X192918184Y-98557737D01*
X192822211Y-98710476D01*
X192762631Y-98880745D01*
X192762630Y-98880750D01*
X192742435Y-99059996D01*
X188466819Y-99059996D01*
X188428145Y-98962931D01*
X188419857Y-98942129D01*
X188419848Y-98942111D01*
X188387316Y-98880750D01*
X188316604Y-98747372D01*
X188252215Y-98625922D01*
X188252213Y-98625919D01*
X188252211Y-98625915D01*
X188051365Y-98329689D01*
X188051361Y-98329684D01*
X188051358Y-98329680D01*
X187819668Y-98056914D01*
X187694663Y-97938503D01*
X187559837Y-97810789D01*
X187559830Y-97810783D01*
X187559827Y-97810781D01*
X187274916Y-97594198D01*
X187163390Y-97527095D01*
X187116095Y-97475666D01*
X187104113Y-97406831D01*
X187131248Y-97342446D01*
X187188885Y-97302952D01*
X187258724Y-97300888D01*
X187268272Y-97303803D01*
X187272745Y-97305368D01*
X187272746Y-97305368D01*
X187272750Y-97305369D01*
X187451996Y-97325565D01*
X187452000Y-97325565D01*
X187452004Y-97325565D01*
X187631249Y-97305369D01*
X187631252Y-97305368D01*
X187631255Y-97305368D01*
X187801522Y-97245789D01*
X187954262Y-97149816D01*
X188081816Y-97022262D01*
X188177789Y-96869522D01*
X188237368Y-96699255D01*
X188239611Y-96679351D01*
X188257565Y-96520003D01*
X188257565Y-96519996D01*
X188237369Y-96340750D01*
X188237366Y-96340737D01*
X188180056Y-96176955D01*
X188176494Y-96107176D01*
X188211222Y-96046549D01*
X188273216Y-96014321D01*
X188297097Y-96012000D01*
X190162903Y-96012000D01*
X190229942Y-96031685D01*
X190275697Y-96084489D01*
X190285641Y-96153647D01*
X190279944Y-96176955D01*
X190222633Y-96340737D01*
X190222630Y-96340750D01*
X190202435Y-96519996D01*
X190202435Y-96520003D01*
X190222630Y-96699249D01*
X190222631Y-96699254D01*
X190282211Y-96869523D01*
X190368164Y-97006315D01*
X190378184Y-97022262D01*
X190505738Y-97149816D01*
X190658478Y-97245789D01*
X190824278Y-97303805D01*
X190828745Y-97305368D01*
X190828750Y-97305369D01*
X191007996Y-97325565D01*
X191008000Y-97325565D01*
X191008004Y-97325565D01*
X191187249Y-97305369D01*
X191187252Y-97305368D01*
X191187255Y-97305368D01*
X191357522Y-97245789D01*
X191510262Y-97149816D01*
X191637816Y-97022262D01*
X191733789Y-96869522D01*
X191793368Y-96699255D01*
X191795611Y-96679351D01*
X191813565Y-96520003D01*
X191813565Y-96519996D01*
X191793369Y-96340750D01*
X191793366Y-96340737D01*
X191736056Y-96176955D01*
X191732494Y-96107176D01*
X191767222Y-96046549D01*
X191829216Y-96014321D01*
X191853097Y-96012000D01*
X193040000Y-96012000D01*
X193040000Y-95427796D01*
X194926835Y-95427796D01*
X194926835Y-95427803D01*
X194947030Y-95607049D01*
X194947031Y-95607054D01*
X195006611Y-95777323D01*
X195054491Y-95853523D01*
X195102584Y-95930062D01*
X195230138Y-96057616D01*
X195382878Y-96153589D01*
X195485040Y-96189337D01*
X195553145Y-96213168D01*
X195553150Y-96213169D01*
X195732396Y-96233365D01*
X195732400Y-96233365D01*
X195732404Y-96233365D01*
X195911649Y-96213169D01*
X195911652Y-96213168D01*
X195911655Y-96213168D01*
X196081922Y-96153589D01*
X196234662Y-96057616D01*
X196362216Y-95930062D01*
X196458189Y-95777322D01*
X196517768Y-95607055D01*
X196517769Y-95607049D01*
X196537965Y-95427803D01*
X196537965Y-95427796D01*
X196517769Y-95248550D01*
X196517768Y-95248545D01*
X196458189Y-95078278D01*
X196362216Y-94925538D01*
X196234662Y-94797984D01*
X196081923Y-94702011D01*
X195911654Y-94642431D01*
X195911649Y-94642430D01*
X195732404Y-94622235D01*
X195732396Y-94622235D01*
X195553150Y-94642430D01*
X195553145Y-94642431D01*
X195382876Y-94702011D01*
X195230137Y-94797984D01*
X195102584Y-94925537D01*
X195006611Y-95078276D01*
X194947031Y-95248545D01*
X194947030Y-95248550D01*
X194926835Y-95427796D01*
X193040000Y-95427796D01*
X193040000Y-92455996D01*
X195790435Y-92455996D01*
X195790435Y-92456003D01*
X195810630Y-92635249D01*
X195810631Y-92635254D01*
X195870211Y-92805523D01*
X195954810Y-92940160D01*
X195966184Y-92958262D01*
X196093738Y-93085816D01*
X196246478Y-93181789D01*
X196378424Y-93227959D01*
X196416745Y-93241368D01*
X196416750Y-93241369D01*
X196595996Y-93261565D01*
X196596000Y-93261565D01*
X196596004Y-93261565D01*
X196775249Y-93241369D01*
X196775252Y-93241368D01*
X196775255Y-93241368D01*
X196945522Y-93181789D01*
X197098262Y-93085816D01*
X197225816Y-92958262D01*
X197321789Y-92805522D01*
X197381368Y-92635255D01*
X197383709Y-92614478D01*
X197401565Y-92456003D01*
X197401565Y-92455996D01*
X197381369Y-92276750D01*
X197381368Y-92276745D01*
X197342542Y-92165788D01*
X197321789Y-92106478D01*
X197225816Y-91953738D01*
X197220074Y-91947996D01*
X199092435Y-91947996D01*
X199092435Y-91948003D01*
X199112630Y-92127249D01*
X199112631Y-92127254D01*
X199172211Y-92297523D01*
X199268184Y-92450262D01*
X199395738Y-92577816D01*
X199454082Y-92614476D01*
X199500198Y-92643453D01*
X199548478Y-92673789D01*
X199718745Y-92733368D01*
X199718750Y-92733369D01*
X199897996Y-92753565D01*
X199898000Y-92753565D01*
X199898004Y-92753565D01*
X200077249Y-92733369D01*
X200077252Y-92733368D01*
X200077255Y-92733368D01*
X200247522Y-92673789D01*
X200400262Y-92577816D01*
X200522082Y-92455996D01*
X201759435Y-92455996D01*
X201759435Y-92456003D01*
X201779630Y-92635249D01*
X201779631Y-92635254D01*
X201839211Y-92805523D01*
X201923810Y-92940160D01*
X201935184Y-92958262D01*
X202062738Y-93085816D01*
X202215478Y-93181789D01*
X202215480Y-93181790D01*
X202347421Y-93227959D01*
X202404197Y-93268680D01*
X202429944Y-93333633D01*
X202416488Y-93402195D01*
X202368100Y-93452597D01*
X202347421Y-93462041D01*
X202215480Y-93508209D01*
X202062737Y-93604184D01*
X201935184Y-93731737D01*
X201839211Y-93884476D01*
X201779631Y-94054745D01*
X201779630Y-94054750D01*
X201759435Y-94233996D01*
X201759435Y-94234003D01*
X201779630Y-94413249D01*
X201779631Y-94413254D01*
X201839211Y-94583523D01*
X201911416Y-94698435D01*
X201935184Y-94736262D01*
X202062738Y-94863816D01*
X202215478Y-94959789D01*
X202385745Y-95019368D01*
X202385750Y-95019369D01*
X202564996Y-95039565D01*
X202565000Y-95039565D01*
X202565004Y-95039565D01*
X202744249Y-95019369D01*
X202744252Y-95019368D01*
X202744255Y-95019368D01*
X202914522Y-94959789D01*
X203067262Y-94863816D01*
X203194816Y-94736262D01*
X203290789Y-94583522D01*
X203350368Y-94413255D01*
X203350369Y-94413249D01*
X203370565Y-94234003D01*
X203370565Y-94233996D01*
X203350369Y-94054750D01*
X203350368Y-94054745D01*
X203290788Y-93884476D01*
X203205894Y-93749369D01*
X203194816Y-93731738D01*
X203067262Y-93604184D01*
X202914521Y-93508210D01*
X202782579Y-93462042D01*
X202725802Y-93421320D01*
X202700055Y-93356367D01*
X202713511Y-93287806D01*
X202761898Y-93237403D01*
X202782579Y-93227958D01*
X202821716Y-93214262D01*
X202914522Y-93181789D01*
X203067262Y-93085816D01*
X203194816Y-92958262D01*
X203290789Y-92805522D01*
X203350368Y-92635255D01*
X203352709Y-92614478D01*
X203370565Y-92456003D01*
X203370565Y-92455996D01*
X203350369Y-92276750D01*
X203350368Y-92276745D01*
X203311542Y-92165788D01*
X203290789Y-92106478D01*
X203194816Y-91953738D01*
X203067262Y-91826184D01*
X203041805Y-91810188D01*
X202914523Y-91730211D01*
X202744254Y-91670631D01*
X202744249Y-91670630D01*
X202565004Y-91650435D01*
X202564996Y-91650435D01*
X202385750Y-91670630D01*
X202385745Y-91670631D01*
X202215476Y-91730211D01*
X202062737Y-91826184D01*
X201935184Y-91953737D01*
X201839211Y-92106476D01*
X201779631Y-92276745D01*
X201779630Y-92276750D01*
X201759435Y-92455996D01*
X200522082Y-92455996D01*
X200527816Y-92450262D01*
X200623789Y-92297522D01*
X200683368Y-92127255D01*
X200685709Y-92106478D01*
X200703565Y-91948003D01*
X200703565Y-91947996D01*
X200683369Y-91768750D01*
X200683368Y-91768745D01*
X200649036Y-91670630D01*
X200623789Y-91598478D01*
X200527816Y-91445738D01*
X200400262Y-91318184D01*
X200313480Y-91263655D01*
X200247523Y-91222211D01*
X200077254Y-91162631D01*
X200077249Y-91162630D01*
X199898004Y-91142435D01*
X199897996Y-91142435D01*
X199718750Y-91162630D01*
X199718745Y-91162631D01*
X199548476Y-91222211D01*
X199395737Y-91318184D01*
X199268184Y-91445737D01*
X199172211Y-91598476D01*
X199112631Y-91768745D01*
X199112630Y-91768750D01*
X199092435Y-91947996D01*
X197220074Y-91947996D01*
X197098262Y-91826184D01*
X197072805Y-91810188D01*
X196945523Y-91730211D01*
X196775254Y-91670631D01*
X196775249Y-91670630D01*
X196596004Y-91650435D01*
X196595996Y-91650435D01*
X196416750Y-91670630D01*
X196416745Y-91670631D01*
X196246476Y-91730211D01*
X196093737Y-91826184D01*
X195966184Y-91953737D01*
X195870211Y-92106476D01*
X195810631Y-92276745D01*
X195810630Y-92276750D01*
X195790435Y-92455996D01*
X193040000Y-92455996D01*
X193040000Y-91056000D01*
X193059685Y-90988961D01*
X193112489Y-90943206D01*
X193164000Y-90932000D01*
X195834000Y-90932000D01*
X195834000Y-89915996D01*
X201632435Y-89915996D01*
X201632435Y-89916003D01*
X201652630Y-90095249D01*
X201652631Y-90095254D01*
X201712211Y-90265523D01*
X201772715Y-90361814D01*
X201808184Y-90418262D01*
X201935738Y-90545816D01*
X201993544Y-90582138D01*
X202046521Y-90615426D01*
X202088478Y-90641789D01*
X202241958Y-90695494D01*
X202258745Y-90701368D01*
X202258750Y-90701369D01*
X202437996Y-90721565D01*
X202438000Y-90721565D01*
X202438004Y-90721565D01*
X202617249Y-90701369D01*
X202617252Y-90701368D01*
X202617255Y-90701368D01*
X202787522Y-90641789D01*
X202940262Y-90545816D01*
X203067816Y-90418262D01*
X203163789Y-90265522D01*
X203192820Y-90182555D01*
X204487247Y-90182555D01*
X204487247Y-90182562D01*
X204507442Y-90361808D01*
X204507443Y-90361813D01*
X204567023Y-90532082D01*
X204635957Y-90641789D01*
X204662996Y-90684821D01*
X204790550Y-90812375D01*
X204943290Y-90908348D01*
X205048430Y-90945138D01*
X205113557Y-90967927D01*
X205113562Y-90967928D01*
X205292808Y-90988124D01*
X205292812Y-90988124D01*
X205292816Y-90988124D01*
X205472061Y-90967928D01*
X205472063Y-90967927D01*
X205472067Y-90967927D01*
X205472070Y-90967925D01*
X205472074Y-90967925D01*
X205626262Y-90913972D01*
X205696041Y-90910410D01*
X205756668Y-90945138D01*
X205788896Y-91007131D01*
X205782491Y-91076707D01*
X205778939Y-91084810D01*
X205776214Y-91090468D01*
X205716631Y-91260745D01*
X205716630Y-91260750D01*
X205696435Y-91439996D01*
X205696435Y-91440003D01*
X205716630Y-91619249D01*
X205716631Y-91619254D01*
X205776211Y-91789523D01*
X205872184Y-91942262D01*
X205999738Y-92069816D01*
X206152478Y-92165789D01*
X206322745Y-92225368D01*
X206322750Y-92225369D01*
X206501996Y-92245565D01*
X206502000Y-92245565D01*
X206502004Y-92245565D01*
X206681249Y-92225369D01*
X206681252Y-92225368D01*
X206681255Y-92225368D01*
X206851522Y-92165789D01*
X207004262Y-92069816D01*
X207131816Y-91942262D01*
X207227789Y-91789522D01*
X207287368Y-91619255D01*
X207289709Y-91598478D01*
X207307565Y-91440003D01*
X207307565Y-91439996D01*
X207287369Y-91260750D01*
X207287368Y-91260745D01*
X207253036Y-91162630D01*
X207227789Y-91090478D01*
X207223967Y-91084396D01*
X207188582Y-91028080D01*
X207131816Y-90937738D01*
X207004262Y-90810184D01*
X206851523Y-90714211D01*
X206681254Y-90654631D01*
X206681249Y-90654630D01*
X206502004Y-90634435D01*
X206501996Y-90634435D01*
X206322750Y-90654630D01*
X206322742Y-90654632D01*
X206168548Y-90708587D01*
X206098769Y-90712148D01*
X206038142Y-90677419D01*
X206005915Y-90615426D01*
X206012320Y-90545850D01*
X206015877Y-90537736D01*
X206018600Y-90532082D01*
X206018601Y-90532081D01*
X206078180Y-90361814D01*
X206085254Y-90299030D01*
X206098377Y-90182562D01*
X206098377Y-90182555D01*
X206078181Y-90003309D01*
X206078180Y-90003304D01*
X206047631Y-89916000D01*
X206018601Y-89833037D01*
X205922628Y-89680297D01*
X205795074Y-89552743D01*
X205784820Y-89546300D01*
X205642335Y-89456770D01*
X205472066Y-89397190D01*
X205472061Y-89397189D01*
X205292816Y-89376994D01*
X205292808Y-89376994D01*
X205113562Y-89397189D01*
X205113557Y-89397190D01*
X204943288Y-89456770D01*
X204790549Y-89552743D01*
X204662996Y-89680296D01*
X204567023Y-89833035D01*
X204507443Y-90003304D01*
X204507442Y-90003309D01*
X204487247Y-90182555D01*
X203192820Y-90182555D01*
X203223368Y-90095255D01*
X203229840Y-90037815D01*
X203243565Y-89916003D01*
X203243565Y-89915996D01*
X203223369Y-89736750D01*
X203223368Y-89736745D01*
X203163788Y-89566476D01*
X203088930Y-89447341D01*
X203067816Y-89413738D01*
X202940262Y-89286184D01*
X202927094Y-89277910D01*
X202787523Y-89190211D01*
X202617254Y-89130631D01*
X202617249Y-89130630D01*
X202438004Y-89110435D01*
X202437996Y-89110435D01*
X202258750Y-89130630D01*
X202258745Y-89130631D01*
X202088476Y-89190211D01*
X201935737Y-89286184D01*
X201808184Y-89413737D01*
X201712211Y-89566476D01*
X201652631Y-89736745D01*
X201652630Y-89736750D01*
X201632435Y-89915996D01*
X195834000Y-89915996D01*
X195834000Y-88221097D01*
X195853685Y-88154058D01*
X195906489Y-88108303D01*
X195975647Y-88098359D01*
X195998955Y-88104056D01*
X196162737Y-88161366D01*
X196162743Y-88161367D01*
X196162745Y-88161368D01*
X196162746Y-88161368D01*
X196162750Y-88161369D01*
X196341996Y-88181565D01*
X196342000Y-88181565D01*
X196342004Y-88181565D01*
X196521249Y-88161369D01*
X196521252Y-88161368D01*
X196521255Y-88161368D01*
X196691522Y-88101789D01*
X196844262Y-88005816D01*
X196971816Y-87878262D01*
X197067789Y-87725522D01*
X197127368Y-87555255D01*
X197146198Y-87388132D01*
X197147565Y-87376003D01*
X197147565Y-87375996D01*
X197127369Y-87196750D01*
X197127368Y-87196745D01*
X197109798Y-87146532D01*
X197067789Y-87026478D01*
X197048555Y-86995868D01*
X196971815Y-86873737D01*
X196844262Y-86746184D01*
X196691523Y-86650211D01*
X196521254Y-86590631D01*
X196521249Y-86590630D01*
X196342004Y-86570435D01*
X196341996Y-86570435D01*
X196162750Y-86590630D01*
X196162745Y-86590631D01*
X195992476Y-86650211D01*
X195839737Y-86746184D01*
X195712184Y-86873737D01*
X195616211Y-87026476D01*
X195556631Y-87196745D01*
X195556630Y-87196750D01*
X195536435Y-87375996D01*
X195536435Y-87376003D01*
X195556630Y-87555249D01*
X195556632Y-87555257D01*
X195569505Y-87592046D01*
X195573066Y-87661825D01*
X195538337Y-87722452D01*
X195476343Y-87754679D01*
X195452463Y-87757000D01*
X193164000Y-87757000D01*
X193096961Y-87737315D01*
X193051206Y-87684511D01*
X193040000Y-87633000D01*
X193040000Y-82804000D01*
X192247802Y-82804000D01*
X192180763Y-82784315D01*
X192135008Y-82731511D01*
X192125064Y-82662353D01*
X192126913Y-82652397D01*
X192127706Y-82648920D01*
X192127709Y-82648914D01*
X192127709Y-82648907D01*
X192127711Y-82648902D01*
X192147906Y-82469662D01*
X192147906Y-82469655D01*
X192127710Y-82290409D01*
X192127709Y-82290404D01*
X192093583Y-82192877D01*
X192068130Y-82120137D01*
X191972157Y-81967397D01*
X191844603Y-81839843D01*
X191844541Y-81839781D01*
X191811056Y-81778458D01*
X191816040Y-81708766D01*
X191857912Y-81652833D01*
X191923376Y-81628416D01*
X191932222Y-81628100D01*
X195415695Y-81628100D01*
X195482734Y-81647785D01*
X195528489Y-81700589D01*
X195538916Y-81765982D01*
X195536435Y-81788004D01*
X195556630Y-81967249D01*
X195556631Y-81967254D01*
X195616211Y-82137523D01*
X195667539Y-82219210D01*
X195712184Y-82290262D01*
X195839738Y-82417816D01*
X195992478Y-82513789D01*
X196162745Y-82573368D01*
X196162750Y-82573369D01*
X196341996Y-82593565D01*
X196342000Y-82593565D01*
X196342004Y-82593565D01*
X196521249Y-82573369D01*
X196521252Y-82573368D01*
X196521255Y-82573368D01*
X196691522Y-82513789D01*
X196844262Y-82417816D01*
X196971816Y-82290262D01*
X197067789Y-82137522D01*
X197127368Y-81967255D01*
X197129709Y-81946478D01*
X197147565Y-81788003D01*
X197147565Y-81787994D01*
X197145085Y-81765982D01*
X197157140Y-81697161D01*
X197204490Y-81645782D01*
X197268305Y-81628100D01*
X197692240Y-81628100D01*
X197759279Y-81647785D01*
X197779921Y-81664419D01*
X198247056Y-82131554D01*
X198280541Y-82192877D01*
X198275557Y-82262569D01*
X198256327Y-82296541D01*
X198252188Y-82301730D01*
X198156211Y-82454476D01*
X198096631Y-82624745D01*
X198096630Y-82624750D01*
X198076435Y-82803996D01*
X198076435Y-82804000D01*
X198096630Y-82983249D01*
X198096631Y-82983254D01*
X198156211Y-83153523D01*
X198252184Y-83306262D01*
X198379738Y-83433816D01*
X198532478Y-83529789D01*
X198702745Y-83589368D01*
X198702750Y-83589369D01*
X198881996Y-83609565D01*
X198882000Y-83609565D01*
X198882004Y-83609565D01*
X199061249Y-83589369D01*
X199061252Y-83589368D01*
X199061255Y-83589368D01*
X199231522Y-83529789D01*
X199384262Y-83433816D01*
X199384267Y-83433810D01*
X199389448Y-83429680D01*
X199454133Y-83403269D01*
X199522829Y-83416022D01*
X199554445Y-83438943D01*
X204481302Y-88365800D01*
X204481303Y-88365801D01*
X204481305Y-88365802D01*
X204549950Y-88405434D01*
X204618599Y-88445068D01*
X204771732Y-88486100D01*
X208813040Y-88486100D01*
X208880079Y-88505785D01*
X208925834Y-88558589D01*
X208935778Y-88627747D01*
X208906753Y-88691303D01*
X208900721Y-88697781D01*
X208052201Y-89546300D01*
X208052199Y-89546303D01*
X207972933Y-89683597D01*
X207931900Y-89836733D01*
X207931900Y-96609695D01*
X207912215Y-96676734D01*
X207859411Y-96722489D01*
X207794018Y-96732915D01*
X207772000Y-96730435D01*
X207771998Y-96730435D01*
X207771996Y-96730435D01*
X207592750Y-96750630D01*
X207592745Y-96750631D01*
X207422476Y-96810211D01*
X207358647Y-96850318D01*
X207291410Y-96869318D01*
X207224575Y-96848950D01*
X207179361Y-96795682D01*
X207170124Y-96726426D01*
X207187681Y-96679353D01*
X207227789Y-96615522D01*
X207287368Y-96445255D01*
X207287369Y-96445249D01*
X207307565Y-96266003D01*
X207307565Y-96265996D01*
X207287369Y-96086750D01*
X207287368Y-96086745D01*
X207262026Y-96014321D01*
X207227789Y-95916478D01*
X207211267Y-95890184D01*
X207131815Y-95763737D01*
X207004262Y-95636184D01*
X206851523Y-95540211D01*
X206681254Y-95480631D01*
X206681249Y-95480630D01*
X206502004Y-95460435D01*
X206501996Y-95460435D01*
X206322750Y-95480630D01*
X206322745Y-95480631D01*
X206204845Y-95521887D01*
X206135066Y-95525448D01*
X206074438Y-95490719D01*
X206046848Y-95445799D01*
X206040550Y-95427800D01*
X206033789Y-95408478D01*
X205937816Y-95255738D01*
X205810262Y-95128184D01*
X205657523Y-95032211D01*
X205487254Y-94972631D01*
X205487249Y-94972630D01*
X205308004Y-94952435D01*
X205307996Y-94952435D01*
X205128750Y-94972630D01*
X205128745Y-94972631D01*
X204958476Y-95032211D01*
X204805737Y-95128184D01*
X204678184Y-95255737D01*
X204582211Y-95408476D01*
X204522631Y-95578745D01*
X204522630Y-95578749D01*
X204517574Y-95623629D01*
X204490507Y-95688043D01*
X204432912Y-95727598D01*
X204380471Y-95732965D01*
X204216004Y-95714435D01*
X204215996Y-95714435D01*
X204036750Y-95734630D01*
X204036745Y-95734631D01*
X203866476Y-95794211D01*
X203713737Y-95890184D01*
X203586184Y-96017737D01*
X203490211Y-96170476D01*
X203430631Y-96340745D01*
X203430630Y-96340750D01*
X203410435Y-96519996D01*
X203410435Y-96520003D01*
X203430630Y-96699249D01*
X203430631Y-96699254D01*
X203490211Y-96869523D01*
X203576164Y-97006315D01*
X203586184Y-97022262D01*
X203713738Y-97149816D01*
X203866478Y-97245789D01*
X204032278Y-97303805D01*
X204036745Y-97305368D01*
X204036750Y-97305369D01*
X204215996Y-97325565D01*
X204216000Y-97325565D01*
X204216004Y-97325565D01*
X204395249Y-97305369D01*
X204395252Y-97305368D01*
X204395255Y-97305368D01*
X204565522Y-97245789D01*
X204718262Y-97149816D01*
X204845816Y-97022262D01*
X204941789Y-96869522D01*
X205001368Y-96699255D01*
X205006425Y-96654369D01*
X205033490Y-96589958D01*
X205091084Y-96550402D01*
X205143529Y-96545034D01*
X205307997Y-96563565D01*
X205308000Y-96563565D01*
X205308004Y-96563565D01*
X205487249Y-96543369D01*
X205487252Y-96543368D01*
X205487255Y-96543368D01*
X205487256Y-96543367D01*
X205487259Y-96543367D01*
X205554028Y-96520003D01*
X205605155Y-96502112D01*
X205674932Y-96498550D01*
X205735560Y-96533279D01*
X205763150Y-96578199D01*
X205776209Y-96615519D01*
X205776211Y-96615522D01*
X205872184Y-96768262D01*
X205999738Y-96895816D01*
X206152478Y-96991789D01*
X206322745Y-97051368D01*
X206322750Y-97051369D01*
X206501996Y-97071565D01*
X206502000Y-97071565D01*
X206502004Y-97071565D01*
X206681249Y-97051369D01*
X206681252Y-97051368D01*
X206681255Y-97051368D01*
X206851522Y-96991789D01*
X206915352Y-96951681D01*
X206982587Y-96932681D01*
X207049423Y-96953048D01*
X207094637Y-97006315D01*
X207103876Y-97075571D01*
X207086318Y-97122647D01*
X207046211Y-97186476D01*
X206986631Y-97356745D01*
X206986630Y-97356750D01*
X206966435Y-97535996D01*
X206966435Y-97536003D01*
X206986630Y-97715249D01*
X206986631Y-97715254D01*
X207046211Y-97885523D01*
X207079499Y-97938500D01*
X207142184Y-98038262D01*
X207269738Y-98165816D01*
X207358320Y-98221476D01*
X207428374Y-98265494D01*
X207427284Y-98267228D01*
X207471727Y-98307362D01*
X207490034Y-98374790D01*
X207468980Y-98441413D01*
X207427394Y-98477446D01*
X207428374Y-98479006D01*
X207269737Y-98578684D01*
X207142184Y-98706237D01*
X207046211Y-98858976D01*
X206986631Y-99029245D01*
X206986630Y-99029250D01*
X206966435Y-99208496D01*
X206966435Y-99208503D01*
X206986630Y-99387749D01*
X206986631Y-99387754D01*
X207046211Y-99558023D01*
X207084815Y-99619460D01*
X207142184Y-99710762D01*
X207269738Y-99838316D01*
X207422478Y-99934289D01*
X207532053Y-99972631D01*
X207592745Y-99993868D01*
X207592750Y-99993869D01*
X207771996Y-100014065D01*
X207772000Y-100014065D01*
X207772004Y-100014065D01*
X207951249Y-99993869D01*
X207951252Y-99993868D01*
X207951255Y-99993868D01*
X208121522Y-99934289D01*
X208274262Y-99838316D01*
X208401816Y-99710762D01*
X208497789Y-99558022D01*
X208557368Y-99387755D01*
X208566874Y-99303378D01*
X208593939Y-99238968D01*
X208602403Y-99229594D01*
X209015800Y-98816198D01*
X209036668Y-98780053D01*
X209087234Y-98731836D01*
X209155841Y-98718612D01*
X209174854Y-98722784D01*
X209174961Y-98722319D01*
X209181738Y-98723865D01*
X209181745Y-98723868D01*
X209181752Y-98723868D01*
X209181753Y-98723869D01*
X209360996Y-98744065D01*
X209361000Y-98744065D01*
X209361004Y-98744065D01*
X209540249Y-98723869D01*
X209540252Y-98723868D01*
X209540255Y-98723868D01*
X209710522Y-98664289D01*
X209863262Y-98568316D01*
X209990816Y-98440762D01*
X210086789Y-98288022D01*
X210146368Y-98117755D01*
X210166565Y-97938500D01*
X210146368Y-97759245D01*
X210086789Y-97588978D01*
X209990816Y-97436238D01*
X209863262Y-97308684D01*
X209850855Y-97300888D01*
X209710523Y-97212711D01*
X209540254Y-97153131D01*
X209540249Y-97153130D01*
X209361004Y-97132935D01*
X209360995Y-97132935D01*
X209273982Y-97142738D01*
X209205160Y-97130683D01*
X209153782Y-97083333D01*
X209136100Y-97019518D01*
X209136100Y-96382024D01*
X209155785Y-96314985D01*
X209208589Y-96269230D01*
X209277747Y-96259286D01*
X209301055Y-96264983D01*
X209370737Y-96289366D01*
X209370743Y-96289367D01*
X209370745Y-96289368D01*
X209370746Y-96289368D01*
X209370750Y-96289369D01*
X209549996Y-96309565D01*
X209550000Y-96309565D01*
X209550004Y-96309565D01*
X209729249Y-96289369D01*
X209729252Y-96289368D01*
X209729255Y-96289368D01*
X209899522Y-96229789D01*
X210052262Y-96133816D01*
X210179816Y-96006262D01*
X210275789Y-95853522D01*
X210335368Y-95683255D01*
X210340672Y-95636184D01*
X210355565Y-95504003D01*
X210355565Y-95503996D01*
X210335369Y-95324750D01*
X210335368Y-95324745D01*
X210275788Y-95154476D01*
X210190894Y-95019369D01*
X210179816Y-95001738D01*
X210052262Y-94874184D01*
X209899523Y-94778211D01*
X209729254Y-94718631D01*
X209729249Y-94718630D01*
X209550004Y-94698435D01*
X209549996Y-94698435D01*
X209370750Y-94718630D01*
X209370742Y-94718632D01*
X209301054Y-94743017D01*
X209231275Y-94746578D01*
X209170648Y-94711849D01*
X209138421Y-94649855D01*
X209136100Y-94625975D01*
X209136100Y-92963996D01*
X209760435Y-92963996D01*
X209760435Y-92964003D01*
X209780630Y-93143249D01*
X209780631Y-93143254D01*
X209840211Y-93313523D01*
X209867132Y-93356367D01*
X209936184Y-93466262D01*
X210063738Y-93593816D01*
X210216478Y-93689789D01*
X210386739Y-93749366D01*
X210386745Y-93749368D01*
X210386750Y-93749369D01*
X210565996Y-93769565D01*
X210566000Y-93769565D01*
X210566004Y-93769565D01*
X210745249Y-93749369D01*
X210745252Y-93749368D01*
X210745255Y-93749368D01*
X210915522Y-93689789D01*
X211068262Y-93593816D01*
X211195816Y-93466262D01*
X211291789Y-93313522D01*
X211351368Y-93143255D01*
X211371565Y-92964000D01*
X211370918Y-92958262D01*
X211351369Y-92784750D01*
X211351368Y-92784745D01*
X211291788Y-92614476D01*
X211195815Y-92461737D01*
X211076072Y-92341994D01*
X214383754Y-92341994D01*
X214383754Y-92342005D01*
X214402718Y-92643446D01*
X214402719Y-92643453D01*
X214402720Y-92643457D01*
X214433635Y-92805522D01*
X214459320Y-92940164D01*
X214552659Y-93227431D01*
X214552661Y-93227436D01*
X214681265Y-93500732D01*
X214681268Y-93500738D01*
X214843111Y-93755763D01*
X215035652Y-93988505D01*
X215255836Y-94195272D01*
X215255846Y-94195280D01*
X215500193Y-94372808D01*
X215500198Y-94372810D01*
X215500205Y-94372816D01*
X215764896Y-94518332D01*
X215764901Y-94518334D01*
X215764903Y-94518335D01*
X215764904Y-94518336D01*
X216045734Y-94629524D01*
X216045737Y-94629525D01*
X216124919Y-94649855D01*
X216338302Y-94704642D01*
X216485039Y-94723179D01*
X216637963Y-94742499D01*
X216637969Y-94742499D01*
X216637973Y-94742500D01*
X216637975Y-94742500D01*
X216940025Y-94742500D01*
X216940027Y-94742500D01*
X216940032Y-94742499D01*
X216940036Y-94742499D01*
X217019591Y-94732448D01*
X217239698Y-94704642D01*
X217532262Y-94629525D01*
X217532265Y-94629524D01*
X217813095Y-94518336D01*
X217813096Y-94518335D01*
X217813094Y-94518335D01*
X217813104Y-94518332D01*
X218077795Y-94372816D01*
X218322162Y-94195274D01*
X218542349Y-93988504D01*
X218734885Y-93755768D01*
X218896733Y-93500736D01*
X219025341Y-93227430D01*
X219118681Y-92940160D01*
X219175280Y-92643457D01*
X219175796Y-92635254D01*
X219194246Y-92342005D01*
X219194246Y-92341994D01*
X219175281Y-92040553D01*
X219175280Y-92040546D01*
X219175280Y-92040543D01*
X219118681Y-91743840D01*
X219025341Y-91456570D01*
X219020243Y-91445737D01*
X218971765Y-91342716D01*
X218896733Y-91183264D01*
X218760077Y-90967928D01*
X218734888Y-90928236D01*
X218720141Y-90910410D01*
X218542349Y-90695496D01*
X218322162Y-90488726D01*
X218322159Y-90488724D01*
X218322153Y-90488719D01*
X218077806Y-90311191D01*
X218077799Y-90311186D01*
X218077795Y-90311184D01*
X217813104Y-90165668D01*
X217813101Y-90165666D01*
X217813096Y-90165664D01*
X217813095Y-90165663D01*
X217532265Y-90054475D01*
X217532262Y-90054474D01*
X217239695Y-89979357D01*
X216940036Y-89941500D01*
X216940027Y-89941500D01*
X216637973Y-89941500D01*
X216637963Y-89941500D01*
X216338304Y-89979357D01*
X216045737Y-90054474D01*
X216045734Y-90054475D01*
X215764904Y-90165663D01*
X215764903Y-90165664D01*
X215500205Y-90311184D01*
X215500193Y-90311191D01*
X215255846Y-90488719D01*
X215255836Y-90488727D01*
X215035652Y-90695494D01*
X214843111Y-90928236D01*
X214681268Y-91183261D01*
X214681265Y-91183267D01*
X214552661Y-91456563D01*
X214552659Y-91456568D01*
X214459320Y-91743835D01*
X214402719Y-92040546D01*
X214402718Y-92040553D01*
X214383754Y-92341994D01*
X211076072Y-92341994D01*
X211068262Y-92334184D01*
X210915523Y-92238211D01*
X210745254Y-92178631D01*
X210745249Y-92178630D01*
X210566004Y-92158435D01*
X210565996Y-92158435D01*
X210386750Y-92178630D01*
X210386745Y-92178631D01*
X210216476Y-92238211D01*
X210063737Y-92334184D01*
X209936184Y-92461737D01*
X209840211Y-92614476D01*
X209780631Y-92784745D01*
X209780630Y-92784750D01*
X209760435Y-92963996D01*
X209136100Y-92963996D01*
X209136100Y-91084396D01*
X210624035Y-91084396D01*
X210624035Y-91084403D01*
X210644230Y-91263649D01*
X210644231Y-91263654D01*
X210703811Y-91433923D01*
X210799784Y-91586662D01*
X210927338Y-91714216D01*
X211014120Y-91768745D01*
X211047186Y-91789522D01*
X211080078Y-91810189D01*
X211250345Y-91869768D01*
X211250350Y-91869769D01*
X211429596Y-91889965D01*
X211429600Y-91889965D01*
X211429604Y-91889965D01*
X211608849Y-91869769D01*
X211608852Y-91869768D01*
X211608855Y-91869768D01*
X211779122Y-91810189D01*
X211931862Y-91714216D01*
X212059416Y-91586662D01*
X212155389Y-91433922D01*
X212214968Y-91263655D01*
X212214969Y-91263649D01*
X212235165Y-91084403D01*
X212235165Y-91084396D01*
X212214969Y-90905150D01*
X212214968Y-90905145D01*
X212155388Y-90734876D01*
X212096897Y-90641789D01*
X212059416Y-90582138D01*
X211931862Y-90454584D01*
X211874056Y-90418262D01*
X211779123Y-90358611D01*
X211608854Y-90299031D01*
X211608849Y-90299030D01*
X211429604Y-90278835D01*
X211429596Y-90278835D01*
X211250350Y-90299030D01*
X211250345Y-90299031D01*
X211080076Y-90358611D01*
X210927337Y-90454584D01*
X210799784Y-90582137D01*
X210703811Y-90734876D01*
X210644231Y-90905145D01*
X210644230Y-90905150D01*
X210624035Y-91084396D01*
X209136100Y-91084396D01*
X209136100Y-90216760D01*
X209155785Y-90149721D01*
X209172419Y-90129079D01*
X210779079Y-88522419D01*
X210840402Y-88488934D01*
X210866760Y-88486100D01*
X215318866Y-88486100D01*
X215318868Y-88486100D01*
X215472002Y-88445067D01*
X215600624Y-88370807D01*
X215668523Y-88354335D01*
X215734550Y-88377188D01*
X215777741Y-88432109D01*
X215786026Y-88466041D01*
X215802975Y-88638129D01*
X215860188Y-88826733D01*
X215953086Y-89000532D01*
X215953090Y-89000539D01*
X216078116Y-89152883D01*
X216230460Y-89277909D01*
X216230467Y-89277913D01*
X216404266Y-89370811D01*
X216404269Y-89370811D01*
X216404273Y-89370814D01*
X216592868Y-89428024D01*
X216789000Y-89447341D01*
X216985132Y-89428024D01*
X217173727Y-89370814D01*
X217347538Y-89277910D01*
X217347540Y-89277908D01*
X217352910Y-89275038D01*
X217353851Y-89276799D01*
X217411765Y-89258654D01*
X217474634Y-89275889D01*
X217475090Y-89275038D01*
X217478840Y-89277042D01*
X217479148Y-89277127D01*
X217479888Y-89277602D01*
X217480457Y-89277906D01*
X217480462Y-89277910D01*
X217654273Y-89370814D01*
X217842868Y-89428024D01*
X218039000Y-89447341D01*
X218235132Y-89428024D01*
X218423727Y-89370814D01*
X218597538Y-89277910D01*
X218749883Y-89152883D01*
X218874910Y-89000538D01*
X218967814Y-88826727D01*
X219025024Y-88638132D01*
X219044341Y-88442000D01*
X219025024Y-88245868D01*
X218967814Y-88057273D01*
X218874910Y-87883462D01*
X218874908Y-87883459D01*
X218872038Y-87878090D01*
X218873799Y-87877148D01*
X218855654Y-87819235D01*
X218872889Y-87756365D01*
X218872038Y-87755910D01*
X218874042Y-87752159D01*
X218874127Y-87751852D01*
X218874602Y-87751111D01*
X218874905Y-87750544D01*
X218874910Y-87750538D01*
X218967814Y-87576727D01*
X219025024Y-87388132D01*
X219044341Y-87192000D01*
X219025024Y-86995868D01*
X218967814Y-86807273D01*
X218874910Y-86633462D01*
X218874908Y-86633459D01*
X218872038Y-86628090D01*
X218873799Y-86627148D01*
X218855654Y-86569235D01*
X218872889Y-86506365D01*
X218872038Y-86505910D01*
X218874042Y-86502159D01*
X218874127Y-86501852D01*
X218874602Y-86501111D01*
X218874905Y-86500544D01*
X218874910Y-86500538D01*
X218967814Y-86326727D01*
X219025024Y-86138132D01*
X219044341Y-85942000D01*
X219025024Y-85745868D01*
X218967814Y-85557273D01*
X218967811Y-85557269D01*
X218967811Y-85557266D01*
X218874913Y-85383467D01*
X218874909Y-85383460D01*
X218749883Y-85231116D01*
X218597539Y-85106090D01*
X218597532Y-85106086D01*
X218423733Y-85013188D01*
X218423727Y-85013186D01*
X218235132Y-84955976D01*
X218235129Y-84955975D01*
X218039000Y-84936659D01*
X217842870Y-84955975D01*
X217654266Y-85013188D01*
X217475089Y-85108961D01*
X217474150Y-85107205D01*
X217416203Y-85125344D01*
X217353370Y-85108101D01*
X217352911Y-85108961D01*
X217349122Y-85106935D01*
X217348824Y-85106854D01*
X217348107Y-85106393D01*
X217173733Y-85013188D01*
X217173727Y-85013186D01*
X216985132Y-84955976D01*
X216985129Y-84955975D01*
X216789000Y-84936659D01*
X216788999Y-84936659D01*
X216625311Y-84952780D01*
X216556665Y-84939761D01*
X216505955Y-84891696D01*
X216489281Y-84823845D01*
X216489938Y-84815493D01*
X216502365Y-84705202D01*
X216502365Y-84705196D01*
X216488033Y-84577993D01*
X216500088Y-84509171D01*
X216547437Y-84457792D01*
X216615047Y-84440168D01*
X216626794Y-84441087D01*
X216637973Y-84442500D01*
X216637975Y-84442500D01*
X216940025Y-84442500D01*
X216940027Y-84442500D01*
X216940032Y-84442499D01*
X216940036Y-84442499D01*
X217019591Y-84432448D01*
X217239698Y-84404642D01*
X217532262Y-84329525D01*
X217532265Y-84329524D01*
X217813095Y-84218336D01*
X217813096Y-84218335D01*
X217813094Y-84218335D01*
X217813104Y-84218332D01*
X218077795Y-84072816D01*
X218322162Y-83895274D01*
X218542349Y-83688504D01*
X218734885Y-83455768D01*
X218896733Y-83200736D01*
X219025341Y-82927430D01*
X219118681Y-82640160D01*
X219175280Y-82343457D01*
X219177905Y-82301738D01*
X219194246Y-82042005D01*
X219194246Y-82041994D01*
X219175281Y-81740553D01*
X219175280Y-81740546D01*
X219175280Y-81740543D01*
X219118681Y-81443840D01*
X219025341Y-81156570D01*
X218896733Y-80883264D01*
X218774475Y-80690616D01*
X218734888Y-80628236D01*
X218734885Y-80628232D01*
X218542349Y-80395496D01*
X218533920Y-80387581D01*
X218322163Y-80188727D01*
X218322153Y-80188719D01*
X218077806Y-80011191D01*
X218077799Y-80011186D01*
X218077795Y-80011184D01*
X217813104Y-79865668D01*
X217813101Y-79865666D01*
X217813096Y-79865664D01*
X217813095Y-79865663D01*
X217532265Y-79754475D01*
X217532262Y-79754474D01*
X217239695Y-79679357D01*
X216940036Y-79641500D01*
X216940027Y-79641500D01*
X216637973Y-79641500D01*
X216637963Y-79641500D01*
X216338304Y-79679357D01*
X216045737Y-79754474D01*
X216045734Y-79754475D01*
X215764904Y-79865663D01*
X215764903Y-79865664D01*
X215500205Y-80011184D01*
X215500193Y-80011191D01*
X215255846Y-80188719D01*
X215255836Y-80188727D01*
X215035652Y-80395494D01*
X214843111Y-80628236D01*
X214681268Y-80883261D01*
X214681265Y-80883267D01*
X214552661Y-81156563D01*
X214552659Y-81156568D01*
X214459320Y-81443835D01*
X214402719Y-81740546D01*
X214402718Y-81740553D01*
X214383754Y-82041994D01*
X214383754Y-82042005D01*
X214402718Y-82343446D01*
X214402719Y-82343453D01*
X214426794Y-82469659D01*
X214459106Y-82639045D01*
X214459320Y-82640164D01*
X214552659Y-82927431D01*
X214552661Y-82927436D01*
X214681265Y-83200732D01*
X214681268Y-83200738D01*
X214843111Y-83455763D01*
X214843114Y-83455767D01*
X214843115Y-83455768D01*
X214953639Y-83589369D01*
X215035652Y-83688505D01*
X215229099Y-83870164D01*
X215264494Y-83930405D01*
X215261701Y-84000219D01*
X215221607Y-84057440D01*
X215210192Y-84065547D01*
X215194538Y-84075383D01*
X215066984Y-84202937D01*
X214971011Y-84355676D01*
X214911431Y-84525945D01*
X214911430Y-84525950D01*
X214891235Y-84705196D01*
X214891235Y-84705203D01*
X214911430Y-84884449D01*
X214911431Y-84884454D01*
X214971011Y-85054723D01*
X215018085Y-85129640D01*
X215066984Y-85207462D01*
X215066991Y-85207469D01*
X215067641Y-85208284D01*
X215067901Y-85208921D01*
X215070689Y-85213358D01*
X215069912Y-85213846D01*
X215094054Y-85272969D01*
X215094700Y-85285605D01*
X215094700Y-87126040D01*
X215075015Y-87193079D01*
X215058381Y-87213721D01*
X215026521Y-87245581D01*
X214965198Y-87279066D01*
X214938840Y-87281900D01*
X213428904Y-87281900D01*
X213361865Y-87262215D01*
X213316110Y-87209411D01*
X213306166Y-87140253D01*
X213335191Y-87076697D01*
X213387950Y-87040858D01*
X213394484Y-87038571D01*
X213404722Y-87034989D01*
X213557462Y-86939016D01*
X213685016Y-86811462D01*
X213780989Y-86658722D01*
X213840568Y-86488455D01*
X213858790Y-86326730D01*
X213860765Y-86309203D01*
X213860765Y-86309196D01*
X213840569Y-86129950D01*
X213840568Y-86129945D01*
X213806035Y-86031255D01*
X213780989Y-85959678D01*
X213685016Y-85806938D01*
X213557462Y-85679384D01*
X213546896Y-85672745D01*
X213404723Y-85583411D01*
X213234454Y-85523831D01*
X213234449Y-85523830D01*
X213055204Y-85503635D01*
X213055196Y-85503635D01*
X212875950Y-85523830D01*
X212875945Y-85523831D01*
X212705676Y-85583411D01*
X212552937Y-85679384D01*
X212425384Y-85806937D01*
X212329411Y-85959676D01*
X212269831Y-86129945D01*
X212269830Y-86129950D01*
X212249635Y-86309196D01*
X212249635Y-86309203D01*
X212269830Y-86488449D01*
X212269831Y-86488454D01*
X212329411Y-86658723D01*
X212384367Y-86746184D01*
X212425384Y-86811462D01*
X212552938Y-86939016D01*
X212643421Y-86995870D01*
X212705678Y-87034989D01*
X212722450Y-87040858D01*
X212779226Y-87081580D01*
X212804974Y-87146532D01*
X212791518Y-87215094D01*
X212743131Y-87265497D01*
X212681496Y-87281900D01*
X205151760Y-87281900D01*
X205084721Y-87262215D01*
X205064079Y-87245581D01*
X200114494Y-82295996D01*
X201607035Y-82295996D01*
X201607035Y-82296003D01*
X201627230Y-82475249D01*
X201627231Y-82475254D01*
X201686811Y-82645523D01*
X201782784Y-82798262D01*
X201910338Y-82925816D01*
X202063078Y-83021789D01*
X202158624Y-83055222D01*
X202233345Y-83081368D01*
X202233350Y-83081369D01*
X202412596Y-83101565D01*
X202412600Y-83101565D01*
X202412604Y-83101565D01*
X202591849Y-83081369D01*
X202591852Y-83081368D01*
X202591855Y-83081368D01*
X202762122Y-83021789D01*
X202914862Y-82925816D01*
X203042416Y-82798262D01*
X203138389Y-82645522D01*
X203197968Y-82475255D01*
X203200309Y-82454478D01*
X203218165Y-82296003D01*
X203218165Y-82295996D01*
X203197969Y-82116750D01*
X203197968Y-82116745D01*
X203171815Y-82042005D01*
X203138389Y-81946478D01*
X203042416Y-81793738D01*
X202914862Y-81666184D01*
X202911536Y-81664094D01*
X202762123Y-81570211D01*
X202591854Y-81510631D01*
X202591849Y-81510630D01*
X202412604Y-81490435D01*
X202412596Y-81490435D01*
X202233350Y-81510630D01*
X202233345Y-81510631D01*
X202063076Y-81570211D01*
X201910337Y-81666184D01*
X201782784Y-81793737D01*
X201686811Y-81946476D01*
X201627231Y-82116745D01*
X201627230Y-82116750D01*
X201607035Y-82295996D01*
X200114494Y-82295996D01*
X198844494Y-81025996D01*
X204324835Y-81025996D01*
X204324835Y-81026003D01*
X204345030Y-81205249D01*
X204345031Y-81205254D01*
X204404611Y-81375523D01*
X204447535Y-81443835D01*
X204500584Y-81528262D01*
X204628138Y-81655816D01*
X204780878Y-81751789D01*
X204951145Y-81811368D01*
X204951150Y-81811369D01*
X205130396Y-81831565D01*
X205130400Y-81831565D01*
X205130404Y-81831565D01*
X205309649Y-81811369D01*
X205309652Y-81811368D01*
X205309655Y-81811368D01*
X205479922Y-81751789D01*
X205632662Y-81655816D01*
X205760216Y-81528262D01*
X205856189Y-81375522D01*
X205915768Y-81205255D01*
X205915769Y-81205249D01*
X205935965Y-81026003D01*
X205935965Y-81025996D01*
X205915769Y-80846750D01*
X205915768Y-80846745D01*
X205915566Y-80846168D01*
X205856189Y-80676478D01*
X205760216Y-80523738D01*
X205632662Y-80396184D01*
X205631564Y-80395494D01*
X205479923Y-80300211D01*
X205309654Y-80240631D01*
X205309649Y-80240630D01*
X205130404Y-80220435D01*
X205130396Y-80220435D01*
X204951150Y-80240630D01*
X204951145Y-80240631D01*
X204780876Y-80300211D01*
X204628137Y-80396184D01*
X204500584Y-80523737D01*
X204404611Y-80676476D01*
X204345031Y-80846745D01*
X204345030Y-80846750D01*
X204324835Y-81025996D01*
X198844494Y-81025996D01*
X198362699Y-80544201D01*
X198362691Y-80544195D01*
X198316657Y-80517618D01*
X198316654Y-80517617D01*
X198225404Y-80464934D01*
X198225403Y-80464933D01*
X198174357Y-80451255D01*
X198072268Y-80423900D01*
X198072266Y-80423900D01*
X197519488Y-80423900D01*
X197452449Y-80404215D01*
X197406694Y-80351411D01*
X197396268Y-80313783D01*
X197381369Y-80181550D01*
X197381368Y-80181545D01*
X197354766Y-80105522D01*
X197321789Y-80011278D01*
X197321734Y-80011191D01*
X197282582Y-79948880D01*
X197225816Y-79858538D01*
X197098262Y-79730984D01*
X197016100Y-79679358D01*
X196945523Y-79635011D01*
X196775254Y-79575431D01*
X196775249Y-79575430D01*
X196596004Y-79555235D01*
X196595996Y-79555235D01*
X196416750Y-79575430D01*
X196416745Y-79575431D01*
X196246476Y-79635011D01*
X196093737Y-79730984D01*
X195966184Y-79858537D01*
X195870211Y-80011276D01*
X195810631Y-80181545D01*
X195810630Y-80181550D01*
X195795732Y-80313783D01*
X195768666Y-80378197D01*
X195711071Y-80417753D01*
X195672512Y-80423900D01*
X186228760Y-80423900D01*
X186161721Y-80404215D01*
X186141079Y-80387581D01*
X184239494Y-78485996D01*
X192107435Y-78485996D01*
X192107435Y-78486003D01*
X192127630Y-78665249D01*
X192127631Y-78665254D01*
X192187211Y-78835523D01*
X192267010Y-78962522D01*
X192283184Y-78988262D01*
X192410738Y-79115816D01*
X192501080Y-79172582D01*
X192558531Y-79208681D01*
X192563478Y-79211789D01*
X192687640Y-79255235D01*
X192733745Y-79271368D01*
X192733750Y-79271369D01*
X192912996Y-79291565D01*
X192913000Y-79291565D01*
X192913004Y-79291565D01*
X193092249Y-79271369D01*
X193092252Y-79271368D01*
X193092255Y-79271368D01*
X193262522Y-79211789D01*
X193415262Y-79115816D01*
X193542816Y-78988262D01*
X193638789Y-78835522D01*
X193698368Y-78665255D01*
X193698369Y-78665249D01*
X193718565Y-78486003D01*
X193718565Y-78485996D01*
X201632435Y-78485996D01*
X201632435Y-78486003D01*
X201652630Y-78665249D01*
X201652631Y-78665254D01*
X201712211Y-78835523D01*
X201808184Y-78988262D01*
X201808185Y-78988263D01*
X201853241Y-79033320D01*
X201886725Y-79094643D01*
X201881740Y-79164335D01*
X201853241Y-79208680D01*
X201808184Y-79253737D01*
X201712211Y-79406476D01*
X201652631Y-79576745D01*
X201652630Y-79576750D01*
X201632435Y-79755996D01*
X201632435Y-79756003D01*
X201652630Y-79935249D01*
X201652631Y-79935254D01*
X201712211Y-80105523D01*
X201764492Y-80188727D01*
X201808184Y-80258262D01*
X201935738Y-80385816D01*
X202088478Y-80481789D01*
X202258745Y-80541368D01*
X202258750Y-80541369D01*
X202437996Y-80561565D01*
X202438000Y-80561565D01*
X202438004Y-80561565D01*
X202617249Y-80541369D01*
X202617252Y-80541368D01*
X202617255Y-80541368D01*
X202787522Y-80481789D01*
X202940262Y-80385816D01*
X203067816Y-80258262D01*
X203163789Y-80105522D01*
X203179439Y-80060796D01*
X210370035Y-80060796D01*
X210370035Y-80060803D01*
X210390230Y-80240049D01*
X210390231Y-80240054D01*
X210449811Y-80410323D01*
X210521074Y-80523737D01*
X210545784Y-80563062D01*
X210673338Y-80690616D01*
X210826078Y-80786589D01*
X210996345Y-80846168D01*
X210996350Y-80846169D01*
X211175596Y-80866365D01*
X211175600Y-80866365D01*
X211175604Y-80866365D01*
X211354849Y-80846169D01*
X211354852Y-80846168D01*
X211354855Y-80846168D01*
X211525122Y-80786589D01*
X211677862Y-80690616D01*
X211805416Y-80563062D01*
X211901389Y-80410322D01*
X211960968Y-80240055D01*
X211963179Y-80220435D01*
X211981165Y-80060803D01*
X211981165Y-80060796D01*
X211960969Y-79881550D01*
X211960968Y-79881545D01*
X211955411Y-79865663D01*
X211901389Y-79711278D01*
X211805416Y-79558538D01*
X211677862Y-79430984D01*
X211625954Y-79398368D01*
X211525123Y-79335011D01*
X211354854Y-79275431D01*
X211354849Y-79275430D01*
X211175604Y-79255235D01*
X211175596Y-79255235D01*
X210996350Y-79275430D01*
X210996345Y-79275431D01*
X210826076Y-79335011D01*
X210673337Y-79430984D01*
X210545784Y-79558537D01*
X210449811Y-79711276D01*
X210390231Y-79881545D01*
X210390230Y-79881550D01*
X210370035Y-80060796D01*
X203179439Y-80060796D01*
X203223368Y-79935255D01*
X203229420Y-79881545D01*
X203243565Y-79756003D01*
X203243565Y-79755996D01*
X203223369Y-79576750D01*
X203223368Y-79576745D01*
X203163788Y-79406476D01*
X203121257Y-79338789D01*
X203067816Y-79253738D01*
X203022758Y-79208680D01*
X202989274Y-79147358D01*
X202994258Y-79077666D01*
X203022759Y-79033319D01*
X203067816Y-78988262D01*
X203163789Y-78835522D01*
X203223368Y-78665255D01*
X203223369Y-78665249D01*
X203229256Y-78612996D01*
X205442435Y-78612996D01*
X205442435Y-78613003D01*
X205462630Y-78792249D01*
X205462631Y-78792254D01*
X205522211Y-78962523D01*
X205566696Y-79033320D01*
X205618184Y-79115262D01*
X205745738Y-79242816D01*
X205898478Y-79338789D01*
X206068745Y-79398368D01*
X206068750Y-79398369D01*
X206247996Y-79418565D01*
X206248000Y-79418565D01*
X206248004Y-79418565D01*
X206427249Y-79398369D01*
X206427252Y-79398368D01*
X206427255Y-79398368D01*
X206597522Y-79338789D01*
X206750262Y-79242816D01*
X206877816Y-79115262D01*
X206973789Y-78962522D01*
X207033368Y-78792255D01*
X207033369Y-78792249D01*
X207053565Y-78613003D01*
X207053565Y-78612996D01*
X207033369Y-78433750D01*
X207033368Y-78433745D01*
X207013364Y-78376578D01*
X206973789Y-78263478D01*
X206962170Y-78244987D01*
X206903449Y-78151533D01*
X206877816Y-78110738D01*
X206750262Y-77983184D01*
X206597523Y-77887211D01*
X206427254Y-77827631D01*
X206427249Y-77827630D01*
X206248004Y-77807435D01*
X206247996Y-77807435D01*
X206068750Y-77827630D01*
X206068745Y-77827631D01*
X205898476Y-77887211D01*
X205745737Y-77983184D01*
X205618184Y-78110737D01*
X205522211Y-78263476D01*
X205462631Y-78433745D01*
X205462630Y-78433750D01*
X205442435Y-78612996D01*
X203229256Y-78612996D01*
X203243565Y-78486003D01*
X203243565Y-78485996D01*
X203223369Y-78306750D01*
X203223368Y-78306745D01*
X203208228Y-78263478D01*
X203163789Y-78136478D01*
X203147615Y-78110738D01*
X203067815Y-77983737D01*
X202940262Y-77856184D01*
X202787523Y-77760211D01*
X202617254Y-77700631D01*
X202617249Y-77700630D01*
X202438004Y-77680435D01*
X202437996Y-77680435D01*
X202258750Y-77700630D01*
X202258745Y-77700631D01*
X202088476Y-77760211D01*
X201935737Y-77856184D01*
X201808184Y-77983737D01*
X201712211Y-78136476D01*
X201652631Y-78306745D01*
X201652630Y-78306750D01*
X201632435Y-78485996D01*
X193718565Y-78485996D01*
X193698369Y-78306750D01*
X193698368Y-78306745D01*
X193683228Y-78263478D01*
X193638789Y-78136478D01*
X193622615Y-78110738D01*
X193542815Y-77983737D01*
X193415262Y-77856184D01*
X193262523Y-77760211D01*
X193092254Y-77700631D01*
X193092249Y-77700630D01*
X192913004Y-77680435D01*
X192912996Y-77680435D01*
X192733750Y-77700630D01*
X192733745Y-77700631D01*
X192563476Y-77760211D01*
X192410737Y-77856184D01*
X192283184Y-77983737D01*
X192187211Y-78136476D01*
X192127631Y-78306745D01*
X192127630Y-78306750D01*
X192107435Y-78485996D01*
X184239494Y-78485996D01*
X183971420Y-78217922D01*
X183937935Y-78156599D01*
X183942627Y-78090989D01*
X183941718Y-78090694D01*
X183942910Y-78087023D01*
X183942919Y-78086907D01*
X183943062Y-78086556D01*
X183976470Y-77983738D01*
X184000987Y-77908284D01*
X184020356Y-77724000D01*
X184000987Y-77539716D01*
X183943726Y-77363487D01*
X183928905Y-77337816D01*
X183851079Y-77203016D01*
X183851075Y-77203011D01*
X183767950Y-77110690D01*
X183737720Y-77047698D01*
X183736100Y-77027718D01*
X183736100Y-76707996D01*
X202394435Y-76707996D01*
X202394435Y-76708003D01*
X202414630Y-76887249D01*
X202414631Y-76887254D01*
X202474211Y-77057523D01*
X202545474Y-77170937D01*
X202570184Y-77210262D01*
X202697738Y-77337816D01*
X202850478Y-77433789D01*
X203020745Y-77493368D01*
X203020750Y-77493369D01*
X203199996Y-77513565D01*
X203200000Y-77513565D01*
X203200004Y-77513565D01*
X203379249Y-77493369D01*
X203379252Y-77493368D01*
X203379255Y-77493368D01*
X203549522Y-77433789D01*
X203702262Y-77337816D01*
X203829816Y-77210262D01*
X203925789Y-77057522D01*
X203985368Y-76887255D01*
X203985369Y-76887249D01*
X204005565Y-76708003D01*
X204005565Y-76707996D01*
X203985369Y-76528750D01*
X203985368Y-76528745D01*
X203925788Y-76358476D01*
X203829815Y-76205737D01*
X203702262Y-76078184D01*
X203549523Y-75982211D01*
X203446027Y-75945996D01*
X207220435Y-75945996D01*
X207220435Y-75946003D01*
X207240630Y-76125249D01*
X207240631Y-76125254D01*
X207300211Y-76295523D01*
X207396184Y-76448262D01*
X207523738Y-76575816D01*
X207676478Y-76671789D01*
X207779952Y-76707996D01*
X207846745Y-76731368D01*
X207846750Y-76731369D01*
X207882758Y-76735426D01*
X207947172Y-76762492D01*
X207986728Y-76820086D01*
X207988867Y-76889923D01*
X207952909Y-76949830D01*
X207934849Y-76963639D01*
X207807939Y-77043382D01*
X207680384Y-77170937D01*
X207584411Y-77323676D01*
X207524831Y-77493945D01*
X207524830Y-77493950D01*
X207504635Y-77673196D01*
X207504635Y-77673203D01*
X207524830Y-77852449D01*
X207524831Y-77852454D01*
X207584411Y-78022723D01*
X207639715Y-78110738D01*
X207680384Y-78175462D01*
X207807938Y-78303016D01*
X207960678Y-78398989D01*
X208130945Y-78458568D01*
X208130950Y-78458569D01*
X208310196Y-78478765D01*
X208310200Y-78478765D01*
X208310204Y-78478765D01*
X208489449Y-78458569D01*
X208489452Y-78458568D01*
X208489455Y-78458568D01*
X208659722Y-78398989D01*
X208812462Y-78303016D01*
X208940016Y-78175462D01*
X209035989Y-78022722D01*
X209095568Y-77852455D01*
X209098365Y-77827630D01*
X209115765Y-77673203D01*
X209115765Y-77673196D01*
X209095569Y-77493950D01*
X209095568Y-77493945D01*
X209095366Y-77493368D01*
X209035989Y-77323678D01*
X208940016Y-77170938D01*
X208812462Y-77043384D01*
X208787530Y-77027718D01*
X208659723Y-76947411D01*
X208489452Y-76887831D01*
X208453438Y-76883773D01*
X208389025Y-76856706D01*
X208349470Y-76799111D01*
X208347333Y-76729274D01*
X208383292Y-76669368D01*
X208401346Y-76655562D01*
X208528262Y-76575816D01*
X208655816Y-76448262D01*
X208751789Y-76295522D01*
X208811368Y-76125255D01*
X208816672Y-76078184D01*
X208831565Y-75946003D01*
X208831565Y-75945996D01*
X208811369Y-75766750D01*
X208811368Y-75766745D01*
X208785215Y-75692003D01*
X208785213Y-75691996D01*
X210268435Y-75691996D01*
X210268435Y-75692003D01*
X210288630Y-75871249D01*
X210288631Y-75871254D01*
X210348211Y-76041523D01*
X210371247Y-76078184D01*
X210444184Y-76194262D01*
X210571738Y-76321816D01*
X210724478Y-76417789D01*
X210811565Y-76448262D01*
X210894745Y-76477368D01*
X210894750Y-76477369D01*
X211073996Y-76497565D01*
X211074000Y-76497565D01*
X211074004Y-76497565D01*
X211253249Y-76477369D01*
X211253252Y-76477368D01*
X211253255Y-76477368D01*
X211423522Y-76417789D01*
X211576262Y-76321816D01*
X211703816Y-76194262D01*
X211799789Y-76041522D01*
X211859368Y-75871255D01*
X211871143Y-75766750D01*
X211879565Y-75692003D01*
X211879565Y-75691996D01*
X211859369Y-75512750D01*
X211859368Y-75512745D01*
X211799788Y-75342476D01*
X211703815Y-75189737D01*
X211698074Y-75183996D01*
X219869635Y-75183996D01*
X219869635Y-75184003D01*
X219889830Y-75363249D01*
X219889831Y-75363254D01*
X219949411Y-75533523D01*
X220045384Y-75686262D01*
X220172938Y-75813816D01*
X220325678Y-75909789D01*
X220429152Y-75945996D01*
X220495945Y-75969368D01*
X220495950Y-75969369D01*
X220675196Y-75989565D01*
X220675200Y-75989565D01*
X220675204Y-75989565D01*
X220854449Y-75969369D01*
X220854452Y-75969368D01*
X220854455Y-75969368D01*
X221024722Y-75909789D01*
X221177462Y-75813816D01*
X221305016Y-75686262D01*
X221400989Y-75533522D01*
X221460568Y-75363255D01*
X221462909Y-75342478D01*
X221480765Y-75184003D01*
X221480765Y-75183996D01*
X221460569Y-75004750D01*
X221460568Y-75004745D01*
X221434415Y-74930003D01*
X221400989Y-74834478D01*
X221377591Y-74797241D01*
X221328784Y-74719565D01*
X221305016Y-74681738D01*
X221177462Y-74554184D01*
X221024723Y-74458211D01*
X220854454Y-74398631D01*
X220854449Y-74398630D01*
X220675204Y-74378435D01*
X220675196Y-74378435D01*
X220495950Y-74398630D01*
X220495945Y-74398631D01*
X220325676Y-74458211D01*
X220172937Y-74554184D01*
X220045384Y-74681737D01*
X219949411Y-74834476D01*
X219889831Y-75004745D01*
X219889830Y-75004750D01*
X219869635Y-75183996D01*
X211698074Y-75183996D01*
X211576262Y-75062184D01*
X211423523Y-74966211D01*
X211253254Y-74906631D01*
X211253249Y-74906630D01*
X211074004Y-74886435D01*
X211073996Y-74886435D01*
X210894750Y-74906630D01*
X210894745Y-74906631D01*
X210724476Y-74966211D01*
X210571737Y-75062184D01*
X210444184Y-75189737D01*
X210348211Y-75342476D01*
X210288631Y-75512745D01*
X210288630Y-75512750D01*
X210268435Y-75691996D01*
X208785213Y-75691996D01*
X208751789Y-75596478D01*
X208655816Y-75443738D01*
X208528262Y-75316184D01*
X208375523Y-75220211D01*
X208205254Y-75160631D01*
X208205249Y-75160630D01*
X208026004Y-75140435D01*
X208025996Y-75140435D01*
X207846750Y-75160630D01*
X207846745Y-75160631D01*
X207676476Y-75220211D01*
X207523737Y-75316184D01*
X207396184Y-75443737D01*
X207300211Y-75596476D01*
X207240631Y-75766745D01*
X207240630Y-75766750D01*
X207220435Y-75945996D01*
X203446027Y-75945996D01*
X203379254Y-75922631D01*
X203379249Y-75922630D01*
X203200004Y-75902435D01*
X203199996Y-75902435D01*
X203020750Y-75922630D01*
X203020745Y-75922631D01*
X202850476Y-75982211D01*
X202697737Y-76078184D01*
X202570184Y-76205737D01*
X202474211Y-76358476D01*
X202414631Y-76528745D01*
X202414630Y-76528750D01*
X202394435Y-76707996D01*
X183736100Y-76707996D01*
X183736100Y-74864280D01*
X183755785Y-74797241D01*
X183767940Y-74781319D01*
X183851077Y-74688987D01*
X183943726Y-74528513D01*
X184000987Y-74352284D01*
X184020356Y-74168000D01*
X184000987Y-73983716D01*
X183943726Y-73807487D01*
X183872067Y-73683369D01*
X183851079Y-73647016D01*
X183851075Y-73647011D01*
X183767950Y-73554690D01*
X183737720Y-73491698D01*
X183736100Y-73471718D01*
X183736100Y-71308280D01*
X183755785Y-71241241D01*
X183767940Y-71225319D01*
X183851077Y-71132987D01*
X183943726Y-70972513D01*
X184000987Y-70796284D01*
X184020356Y-70612000D01*
X184000987Y-70427716D01*
X183943726Y-70251487D01*
X183851077Y-70091013D01*
X183802514Y-70037078D01*
X183727093Y-69953313D01*
X183727090Y-69953311D01*
X183727089Y-69953310D01*
X183727088Y-69953309D01*
X183577178Y-69844393D01*
X183577177Y-69844392D01*
X183407904Y-69769026D01*
X183407896Y-69769024D01*
X183226649Y-69730500D01*
X183041351Y-69730500D01*
X182860103Y-69769024D01*
X182860095Y-69769026D01*
X182690822Y-69844392D01*
X182540909Y-69953311D01*
X182540906Y-69953313D01*
X182416922Y-70091014D01*
X182324274Y-70251485D01*
X182267014Y-70427711D01*
X182267013Y-70427713D01*
X182247644Y-70612000D01*
X182267013Y-70796286D01*
X182267014Y-70796288D01*
X182324274Y-70972514D01*
X182406112Y-71114262D01*
X182416923Y-71132987D01*
X182500052Y-71225311D01*
X182530280Y-71288299D01*
X182531900Y-71308280D01*
X182531900Y-73471718D01*
X182512215Y-73538757D01*
X182500050Y-73554690D01*
X182416924Y-73647011D01*
X182416920Y-73647016D01*
X182324274Y-73807485D01*
X182267014Y-73983711D01*
X182267013Y-73983713D01*
X182247644Y-74168000D01*
X182267013Y-74352286D01*
X182267014Y-74352288D01*
X182324274Y-74528514D01*
X182409425Y-74676000D01*
X182416923Y-74688987D01*
X182500052Y-74781311D01*
X182530280Y-74844299D01*
X182531900Y-74864280D01*
X182531900Y-77027718D01*
X182512215Y-77094757D01*
X182500050Y-77110690D01*
X182416924Y-77203011D01*
X182416920Y-77203016D01*
X182324274Y-77363485D01*
X182267014Y-77539711D01*
X182267013Y-77539713D01*
X182247644Y-77724000D01*
X182267013Y-77908286D01*
X182267014Y-77908288D01*
X182324274Y-78084514D01*
X182376783Y-78175462D01*
X182416923Y-78244987D01*
X182472535Y-78306750D01*
X182535408Y-78376578D01*
X182563032Y-78427455D01*
X182572931Y-78464398D01*
X182572932Y-78464401D01*
X182585400Y-78485996D01*
X182588640Y-78491607D01*
X182652200Y-78601698D01*
X185558302Y-81507800D01*
X185558303Y-81507801D01*
X185558305Y-81507802D01*
X185563205Y-81510631D01*
X185695599Y-81587068D01*
X185848732Y-81628100D01*
X186701900Y-81628100D01*
X186768939Y-81647785D01*
X186814694Y-81700589D01*
X186824638Y-81769747D01*
X186806894Y-81818072D01*
X186726211Y-81946476D01*
X186666631Y-82116745D01*
X186666630Y-82116750D01*
X186646435Y-82295996D01*
X186646435Y-82296003D01*
X186666630Y-82475249D01*
X186666633Y-82475262D01*
X186723944Y-82639045D01*
X186727506Y-82708824D01*
X186692778Y-82769451D01*
X186630784Y-82801679D01*
X186606903Y-82804000D01*
X184233097Y-82804000D01*
X184166058Y-82784315D01*
X184120303Y-82731511D01*
X184110359Y-82662353D01*
X184116056Y-82639045D01*
X184173366Y-82475262D01*
X184173369Y-82475249D01*
X184193565Y-82296003D01*
X184193565Y-82295996D01*
X184173369Y-82116750D01*
X184173368Y-82116745D01*
X184147215Y-82042005D01*
X184113789Y-81946478D01*
X184017816Y-81793738D01*
X183890262Y-81666184D01*
X183886936Y-81664094D01*
X183737523Y-81570211D01*
X183567254Y-81510631D01*
X183567249Y-81510630D01*
X183388004Y-81490435D01*
X183387996Y-81490435D01*
X183208750Y-81510630D01*
X183208745Y-81510631D01*
X183038476Y-81570211D01*
X182885737Y-81666184D01*
X182758184Y-81793737D01*
X182662211Y-81946476D01*
X182602631Y-82116745D01*
X182602630Y-82116750D01*
X182582435Y-82295996D01*
X182582435Y-82296003D01*
X182602630Y-82475249D01*
X182602631Y-82475254D01*
X182662211Y-82645523D01*
X182758184Y-82798262D01*
X182885738Y-82925816D01*
X183038478Y-83021789D01*
X183134024Y-83055222D01*
X183208745Y-83081368D01*
X183208750Y-83081369D01*
X183387996Y-83101565D01*
X183388000Y-83101565D01*
X183388004Y-83101565D01*
X183567249Y-83081369D01*
X183567251Y-83081368D01*
X183567255Y-83081368D01*
X183567258Y-83081366D01*
X183567262Y-83081366D01*
X183731045Y-83024056D01*
X183800824Y-83020494D01*
X183861451Y-83055222D01*
X183893679Y-83117216D01*
X183896000Y-83141097D01*
X183896000Y-85006902D01*
X183876315Y-85073941D01*
X183823511Y-85119696D01*
X183754353Y-85129640D01*
X183731046Y-85123944D01*
X183567257Y-85066632D01*
X183567249Y-85066630D01*
X183388004Y-85046435D01*
X183387996Y-85046435D01*
X183208750Y-85066630D01*
X183208745Y-85066631D01*
X183038476Y-85126211D01*
X182885737Y-85222184D01*
X182758184Y-85349737D01*
X182662211Y-85502476D01*
X182602631Y-85672745D01*
X182602630Y-85672750D01*
X182582435Y-85851996D01*
X182582435Y-85852003D01*
X182602630Y-86031249D01*
X182602631Y-86031254D01*
X182662211Y-86201523D01*
X182740884Y-86326730D01*
X182758184Y-86354262D01*
X182885738Y-86481816D01*
X183038478Y-86577789D01*
X183134024Y-86611222D01*
X183208745Y-86637368D01*
X183208750Y-86637369D01*
X183387996Y-86657565D01*
X183388000Y-86657565D01*
X183388004Y-86657565D01*
X183567249Y-86637369D01*
X183567251Y-86637368D01*
X183567255Y-86637368D01*
X183567258Y-86637366D01*
X183567262Y-86637366D01*
X183731045Y-86580056D01*
X183800824Y-86576494D01*
X183861451Y-86611222D01*
X183893679Y-86673216D01*
X183896000Y-86697097D01*
X183896000Y-88562902D01*
X183876315Y-88629941D01*
X183823511Y-88675696D01*
X183754353Y-88685640D01*
X183731046Y-88679944D01*
X183567257Y-88622632D01*
X183567249Y-88622630D01*
X183388004Y-88602435D01*
X183387996Y-88602435D01*
X183208750Y-88622630D01*
X183208745Y-88622631D01*
X183038476Y-88682211D01*
X182885737Y-88778184D01*
X182758184Y-88905737D01*
X182662211Y-89058476D01*
X182602631Y-89228745D01*
X182602630Y-89228750D01*
X182582435Y-89407996D01*
X182582435Y-89408003D01*
X182602630Y-89587249D01*
X182602631Y-89587254D01*
X182662211Y-89757523D01*
X182758184Y-89910262D01*
X182885738Y-90037816D01*
X183038478Y-90133789D01*
X183129569Y-90165663D01*
X183208745Y-90193368D01*
X183208750Y-90193369D01*
X183387996Y-90213565D01*
X183388000Y-90213565D01*
X183388004Y-90213565D01*
X183567249Y-90193369D01*
X183567251Y-90193368D01*
X183567255Y-90193368D01*
X183567258Y-90193366D01*
X183567262Y-90193366D01*
X183731045Y-90136056D01*
X183800824Y-90132494D01*
X183861451Y-90167222D01*
X183893679Y-90229216D01*
X183896000Y-90253097D01*
X183896000Y-92118902D01*
X183876315Y-92185941D01*
X183823511Y-92231696D01*
X183754353Y-92241640D01*
X183731046Y-92235944D01*
X183567257Y-92178632D01*
X183567249Y-92178630D01*
X183388004Y-92158435D01*
X183387996Y-92158435D01*
X183208750Y-92178630D01*
X183208745Y-92178631D01*
X183038476Y-92238211D01*
X182885737Y-92334184D01*
X182758184Y-92461737D01*
X182662211Y-92614476D01*
X182602631Y-92784745D01*
X182602630Y-92784750D01*
X182582435Y-92963996D01*
X182582435Y-92964003D01*
X182602630Y-93143249D01*
X182602631Y-93143254D01*
X182662211Y-93313523D01*
X182689132Y-93356367D01*
X182758184Y-93466262D01*
X182885738Y-93593816D01*
X183038478Y-93689789D01*
X183208739Y-93749366D01*
X183208745Y-93749368D01*
X183208750Y-93749369D01*
X183387996Y-93769565D01*
X183388000Y-93769565D01*
X183388004Y-93769565D01*
X183567249Y-93749369D01*
X183567251Y-93749368D01*
X183567255Y-93749368D01*
X183567258Y-93749366D01*
X183567262Y-93749366D01*
X183731045Y-93692056D01*
X183800824Y-93688494D01*
X183861451Y-93723222D01*
X183893679Y-93785216D01*
X183896000Y-93809097D01*
X183896000Y-95674902D01*
X183876315Y-95741941D01*
X183823511Y-95787696D01*
X183754353Y-95797640D01*
X183731046Y-95791944D01*
X183567257Y-95734632D01*
X183567249Y-95734630D01*
X183388004Y-95714435D01*
X183387996Y-95714435D01*
X183208750Y-95734630D01*
X183208745Y-95734631D01*
X183038476Y-95794211D01*
X182885737Y-95890184D01*
X182758184Y-96017737D01*
X182662211Y-96170476D01*
X182602631Y-96340745D01*
X182602630Y-96340750D01*
X182582435Y-96519996D01*
X182582435Y-96520003D01*
X182602630Y-96699249D01*
X182602631Y-96699254D01*
X182662211Y-96869523D01*
X182748164Y-97006315D01*
X182758184Y-97022262D01*
X182885738Y-97149816D01*
X183038478Y-97245789D01*
X183204278Y-97303805D01*
X183208745Y-97305368D01*
X183208750Y-97305369D01*
X183387996Y-97325565D01*
X183388000Y-97325565D01*
X183388004Y-97325565D01*
X183567249Y-97305369D01*
X183567249Y-97305368D01*
X183567255Y-97305368D01*
X183571719Y-97303805D01*
X183641496Y-97300240D01*
X183702125Y-97334964D01*
X183734357Y-97396955D01*
X183727957Y-97466531D01*
X183684957Y-97521602D01*
X183676609Y-97527095D01*
X183565083Y-97594198D01*
X183280172Y-97810781D01*
X183280163Y-97810789D01*
X183020331Y-98056914D01*
X182788641Y-98329680D01*
X182788634Y-98329690D01*
X182587790Y-98625913D01*
X182587784Y-98625922D01*
X182420151Y-98942111D01*
X182420142Y-98942129D01*
X182287674Y-99274600D01*
X182287672Y-99274607D01*
X182234980Y-99464389D01*
X182198078Y-99523719D01*
X182134958Y-99553680D01*
X182065660Y-99544759D01*
X182012186Y-99499789D01*
X181991514Y-99433048D01*
X181991500Y-99431216D01*
X181991500Y-68071996D01*
X186138435Y-68071996D01*
X186138435Y-68072003D01*
X186158630Y-68251249D01*
X186158631Y-68251254D01*
X186218211Y-68421523D01*
X186285545Y-68528684D01*
X186314184Y-68574262D01*
X186441738Y-68701816D01*
X186594478Y-68797789D01*
X186764745Y-68857368D01*
X186764750Y-68857369D01*
X186943996Y-68877565D01*
X186944000Y-68877565D01*
X186944004Y-68877565D01*
X187123249Y-68857369D01*
X187123252Y-68857368D01*
X187123255Y-68857368D01*
X187293522Y-68797789D01*
X187446262Y-68701816D01*
X187573816Y-68574262D01*
X187669789Y-68421522D01*
X187729368Y-68251255D01*
X187736474Y-68188189D01*
X187749565Y-68072003D01*
X187749565Y-68071996D01*
X187729369Y-67892750D01*
X187729368Y-67892745D01*
X187715884Y-67854211D01*
X187669789Y-67722478D01*
X187573816Y-67569738D01*
X187446262Y-67442184D01*
X187293523Y-67346211D01*
X187123254Y-67286631D01*
X187123249Y-67286630D01*
X186944004Y-67266435D01*
X186943996Y-67266435D01*
X186764750Y-67286630D01*
X186764745Y-67286631D01*
X186594476Y-67346211D01*
X186441737Y-67442184D01*
X186314184Y-67569737D01*
X186218211Y-67722476D01*
X186158631Y-67892745D01*
X186158630Y-67892750D01*
X186138435Y-68071996D01*
X181991500Y-68071996D01*
X181991500Y-63499996D01*
X184614435Y-63499996D01*
X184614435Y-63500003D01*
X184634630Y-63679249D01*
X184634631Y-63679254D01*
X184694211Y-63849523D01*
X184790184Y-64002262D01*
X184917738Y-64129816D01*
X185070478Y-64225789D01*
X185240745Y-64285368D01*
X185240750Y-64285369D01*
X185419996Y-64305565D01*
X185420000Y-64305565D01*
X185420004Y-64305565D01*
X185599249Y-64285369D01*
X185599252Y-64285368D01*
X185599255Y-64285368D01*
X185769522Y-64225789D01*
X185922262Y-64129816D01*
X186049816Y-64002262D01*
X186145789Y-63849522D01*
X186205368Y-63679255D01*
X186210609Y-63632738D01*
X186225565Y-63500003D01*
X186225565Y-63499996D01*
X186205369Y-63320750D01*
X186205368Y-63320745D01*
X186171037Y-63222632D01*
X186145789Y-63150478D01*
X186121297Y-63111500D01*
X186073584Y-63035565D01*
X186049816Y-62997738D01*
X185922262Y-62870184D01*
X185769523Y-62774211D01*
X185599254Y-62714631D01*
X185599249Y-62714630D01*
X185420004Y-62694435D01*
X185419996Y-62694435D01*
X185240750Y-62714630D01*
X185240745Y-62714631D01*
X185070476Y-62774211D01*
X184917737Y-62870184D01*
X184790184Y-62997737D01*
X184694211Y-63150476D01*
X184634631Y-63320745D01*
X184634630Y-63320750D01*
X184614435Y-63499996D01*
X181991500Y-63499996D01*
X181991500Y-62230000D01*
X188851644Y-62230000D01*
X188871013Y-62414286D01*
X188871014Y-62414288D01*
X188928274Y-62590514D01*
X188979509Y-62679255D01*
X189020923Y-62750987D01*
X189041834Y-62774211D01*
X189144906Y-62888686D01*
X189144909Y-62888688D01*
X189144912Y-62888691D01*
X189294822Y-62997607D01*
X189464095Y-63072973D01*
X189464098Y-63072973D01*
X189464101Y-63072975D01*
X189645351Y-63111500D01*
X189830649Y-63111500D01*
X190011899Y-63072975D01*
X190011902Y-63072973D01*
X190011904Y-63072973D01*
X190141286Y-63015368D01*
X190181178Y-62997607D01*
X190331088Y-62888691D01*
X190455077Y-62750987D01*
X190547726Y-62590513D01*
X190604987Y-62414284D01*
X190624356Y-62230000D01*
X190604987Y-62045716D01*
X190547726Y-61869487D01*
X190455077Y-61709013D01*
X190361305Y-61604868D01*
X190331093Y-61571313D01*
X190331090Y-61571311D01*
X190331089Y-61571310D01*
X190331088Y-61571309D01*
X190219989Y-61490591D01*
X190181177Y-61462392D01*
X190011904Y-61387026D01*
X190011896Y-61387024D01*
X189830649Y-61348500D01*
X189645351Y-61348500D01*
X189464103Y-61387024D01*
X189464095Y-61387026D01*
X189294822Y-61462392D01*
X189144909Y-61571311D01*
X189144906Y-61571313D01*
X189020922Y-61709014D01*
X188928274Y-61869485D01*
X188871014Y-62045711D01*
X188871013Y-62045713D01*
X188851644Y-62230000D01*
X181991500Y-62230000D01*
X181991500Y-59318783D01*
X182011185Y-59251744D01*
X182063989Y-59205989D01*
X182133147Y-59196045D01*
X182196703Y-59225070D01*
X182234477Y-59283848D01*
X182234980Y-59285610D01*
X182287672Y-59475392D01*
X182287674Y-59475399D01*
X182420142Y-59807870D01*
X182420151Y-59807888D01*
X182587784Y-60124077D01*
X182587787Y-60124082D01*
X182587789Y-60124085D01*
X182656372Y-60225238D01*
X182788634Y-60420309D01*
X182788641Y-60420319D01*
X182967812Y-60631255D01*
X183020332Y-60693086D01*
X183280163Y-60939211D01*
X183565081Y-61155800D01*
X183871747Y-61340315D01*
X183871749Y-61340316D01*
X183871751Y-61340317D01*
X183871755Y-61340319D01*
X184135616Y-61462393D01*
X184196565Y-61490591D01*
X184535726Y-61604868D01*
X184885254Y-61681805D01*
X185241052Y-61720500D01*
X185241058Y-61720500D01*
X185598942Y-61720500D01*
X185598948Y-61720500D01*
X185954746Y-61681805D01*
X186304274Y-61604868D01*
X186643435Y-61490591D01*
X186968253Y-61340315D01*
X187274919Y-61155800D01*
X187559837Y-60939211D01*
X187819668Y-60693086D01*
X188051365Y-60420311D01*
X188252211Y-60124085D01*
X188419853Y-59807880D01*
X188552324Y-59475403D01*
X188648071Y-59130552D01*
X188705972Y-58777371D01*
X188725348Y-58420000D01*
X188705972Y-58062629D01*
X188701248Y-58033816D01*
X188648073Y-57709460D01*
X188648072Y-57709459D01*
X188648071Y-57709448D01*
X188597267Y-57526467D01*
X188552327Y-57364607D01*
X188552325Y-57364600D01*
X188419857Y-57032129D01*
X188419848Y-57032111D01*
X188252215Y-56715922D01*
X188252213Y-56715919D01*
X188252211Y-56715915D01*
X188051365Y-56419689D01*
X188051361Y-56419684D01*
X188051358Y-56419680D01*
X187819668Y-56146914D01*
X187559837Y-55900789D01*
X187559830Y-55900783D01*
X187559827Y-55900781D01*
X187473211Y-55834938D01*
X187274919Y-55684200D01*
X186968253Y-55499685D01*
X186968252Y-55499684D01*
X186968248Y-55499682D01*
X186968244Y-55499680D01*
X186643447Y-55349414D01*
X186643441Y-55349411D01*
X186643435Y-55349409D01*
X186473854Y-55292270D01*
X186304273Y-55235131D01*
X185954744Y-55158194D01*
X185598949Y-55119500D01*
X185598948Y-55119500D01*
X185241052Y-55119500D01*
X185241050Y-55119500D01*
X184885255Y-55158194D01*
X184535726Y-55235131D01*
X184279970Y-55321306D01*
X184196565Y-55349409D01*
X184196563Y-55349410D01*
X184196552Y-55349414D01*
X183871755Y-55499680D01*
X183871751Y-55499682D01*
X183686057Y-55611411D01*
X183565081Y-55684200D01*
X183534583Y-55707384D01*
X183280172Y-55900781D01*
X183280163Y-55900789D01*
X183020331Y-56146914D01*
X182788641Y-56419680D01*
X182788634Y-56419690D01*
X182587790Y-56715913D01*
X182587784Y-56715922D01*
X182420151Y-57032111D01*
X182420142Y-57032129D01*
X182287674Y-57364600D01*
X182287673Y-57364603D01*
X182259205Y-57467137D01*
X182222303Y-57526467D01*
X182159183Y-57556427D01*
X182089885Y-57547506D01*
X182036411Y-57502536D01*
X182015739Y-57435794D01*
X182017476Y-57413198D01*
X182063556Y-57141994D01*
X182066650Y-57128439D01*
X182068341Y-57122568D01*
X182153463Y-56827104D01*
X182158055Y-56813984D01*
X182210768Y-56686722D01*
X182278057Y-56524269D01*
X182284079Y-56511763D01*
X182435776Y-56237289D01*
X182443171Y-56225521D01*
X182491119Y-56157945D01*
X182624643Y-55969759D01*
X182633294Y-55958912D01*
X182842256Y-55725085D01*
X182852087Y-55715255D01*
X182868324Y-55700745D01*
X183085912Y-55506294D01*
X183096759Y-55497643D01*
X183352526Y-55316167D01*
X183364289Y-55308776D01*
X183638763Y-55157079D01*
X183651269Y-55151057D01*
X183940984Y-55031055D01*
X183954104Y-55026463D01*
X184255440Y-54939649D01*
X184268996Y-54936556D01*
X184578154Y-54884027D01*
X184591949Y-54882473D01*
X184871843Y-54866755D01*
X184908529Y-54864695D01*
X184915481Y-54864500D01*
X184956875Y-54864500D01*
X190884000Y-54864500D01*
X190951039Y-54884185D01*
G37*
G04 #@! TD.AperFunction*
M02*
