M48
; DRILL file {KiCad 8.0.9-8.0.9-0~ubuntu24.04.1} date 2025-06-07T19:06:58-0400
; FORMAT={-:-/ absolute / metric / decimal}
; #@! TF.CreationDate,2025-06-07T19:06:58-04:00
; #@! TF.GenerationSoftware,Kicad,Pcbnew,8.0.9-8.0.9-0~ubuntu24.04.1
; #@! TF.FileFunction,Plated,1,4,PTH
FMAT,2
METRIC
; #@! TA.AperFunction,Plated,PTH,ViaDrill
T1C0.300
; #@! TA.AperFunction,Plated,PTH,ViaDrill
T2C0.381
; #@! TA.AperFunction,Plated,PTH,ComponentDrill
T3C0.600
; #@! TA.AperFunction,Plated,PTH,ComponentDrill
T4C0.800
; #@! TA.AperFunction,Plated,PTH,ComponentDrill
T5C2.250
; #@! TA.AperFunction,Plated,PTH,ComponentDrill
T6C3.200
%
G90
G05
T1
X183.388Y-82.296
X183.388Y-85.852
X183.388Y-89.408
X183.388Y-92.964
X183.388Y-96.52
X185.42Y-63.5
X186.69Y-86.106
X186.69Y-92.456
X186.944Y-68.072
X187.452Y-82.296
X187.452Y-96.52
X190.5Y-64.135
X191.008Y-96.52
X191.342Y-82.47
X191.516Y-102.87
X192.151Y-70.612
X192.278Y-74.676
X192.913Y-78.486
X193.04Y-55.88
X193.04Y-64.135
X193.548Y-99.06
X194.945Y-69.159
X194.945Y-71.698
X194.945Y-74.676
X195.732Y-95.428
X196.342Y-81.788
X196.342Y-87.376
X196.596Y-80.361
X196.596Y-92.456
X196.723Y-73.914
X198.12Y-70.358
X198.247Y-72.898
X198.882Y-82.804
X199.136Y-102.616
X199.898Y-71.628
X199.898Y-72.898
X199.898Y-91.948
X200.66Y-55.88
X200.66Y-62.23
X200.66Y-64.008
X200.66Y-74.93
X202.184Y-96.774
X202.413Y-82.296
X202.438Y-78.486
X202.438Y-79.756
X202.438Y-89.916
X202.565Y-92.456
X202.565Y-94.234
X202.692Y-64.008
X203.073Y-72.898
X203.2Y-76.708
X204.216Y-72.517
X204.216Y-96.52
X204.216Y-102.616
X205.13Y-81.026
X205.232Y-88.646
X205.283Y-82.855
X205.293Y-90.183
X205.308Y-95.758
X205.486Y-71.501
X206.248Y-78.613
X206.451Y-58.725
X206.451Y-60.727
X206.502Y-91.44
X206.502Y-96.266
X207.518Y-57.404
X207.772Y-97.536
X207.772Y-99.209
X208.026Y-75.946
X208.31Y-77.673
X208.585Y-57.404
X208.636Y-56.337
X209.042Y-65.405
X209.042Y-66.294
X209.042Y-67.183
X209.361Y-97.938
X209.55Y-95.504
X209.779Y-56.337
X210.439Y-65.405
X210.439Y-66.294
X210.439Y-67.183
X210.566Y-61.595
X210.566Y-92.964
X210.693Y-71.12
X210.795Y-56.337
X210.82Y-102.87
X211.074Y-75.692
X211.176Y-80.061
X211.43Y-91.084
X211.695Y-67.183
X211.811Y-56.337
X212.217Y-69.977
X212.344Y-61.595
X212.954Y-56.337
X212.954Y-57.252
X212.954Y-58.115
X212.954Y-59.131
X213.055Y-86.309
X213.309Y-67.462
X213.487Y-60.452
X213.487Y-69.596
X213.487Y-70.358
X213.487Y-71.374
X213.487Y-76.327
X213.543Y-64.872
X214.757Y-61.722
X215.138Y-101.346
X215.697Y-84.705
X215.773Y-60.579
X215.773Y-70.612
X215.9Y-55.88
X216.014Y-65.291
X217.805Y-71.755
X218.44Y-66.548
X218.44Y-68.58
X218.44Y-70.612
X219.202Y-72.898
X219.456Y-62.5
X220.472Y-64.516
X220.472Y-66.548
X220.472Y-68.58
X220.472Y-70.612
X220.675Y-75.184
X221.742Y-71.374
X222.123Y-76.454
X222.504Y-64.516
X222.504Y-66.548
X222.504Y-68.58
X222.504Y-70.612
T2
X183.134Y-70.612
X183.134Y-74.168
X183.134Y-77.724
X183.404Y-66.564
X189.738Y-60.706
X189.738Y-62.23
T3
X216.789Y-85.942
X216.789Y-87.192
X216.789Y-88.442
X218.039Y-85.942
X218.039Y-87.192
X218.039Y-88.442
T4
X189.72Y-86.831
X189.72Y-91.712
T5
X216.789Y-82.042
X216.789Y-92.342
T6
X185.42Y-58.42
X185.42Y-100.33
X219.964Y-58.674
X219.964Y-100.33
M30
