G04 #@! TF.GenerationSoftware,KiCad,Pcbnew,8.0.9-8.0.9-0~ubuntu24.04.1*
G04 #@! TF.CreationDate,2025-06-07T19:12:40-04:00*
G04 #@! TF.ProjectId,Sensor Board,53656e73-6f72-4204-926f-6172642e6b69,rev?*
G04 #@! TF.SameCoordinates,Original*
G04 #@! TF.FileFunction,Paste,Top*
G04 #@! TF.FilePolarity,Positive*
%FSLAX46Y46*%
G04 Gerber Fmt 4.6, Leading zero omitted, Abs format (unit mm)*
G04 Created by KiCad (PCBNEW 8.0.9-8.0.9-0~ubuntu24.04.1) date 2025-06-07 19:12:40*
%MOMM*%
%LPD*%
G01*
G04 APERTURE LIST*
G04 Aperture macros list*
%AMRoundRect*
0 Rectangle with rounded corners*
0 $1 Rounding radius*
0 $2 $3 $4 $5 $6 $7 $8 $9 X,Y pos of 4 corners*
0 Add a 4 corners polygon primitive as box body*
4,1,4,$2,$3,$4,$5,$6,$7,$8,$9,$2,$3,0*
0 Add four circle primitives for the rounded corners*
1,1,$1+$1,$2,$3*
1,1,$1+$1,$4,$5*
1,1,$1+$1,$6,$7*
1,1,$1+$1,$8,$9*
0 Add four rect primitives between the rounded corners*
20,1,$1+$1,$2,$3,$4,$5,0*
20,1,$1+$1,$4,$5,$6,$7,0*
20,1,$1+$1,$6,$7,$8,$9,0*
20,1,$1+$1,$8,$9,$2,$3,0*%
G04 Aperture macros list end*
%ADD10RoundRect,0.250000X-0.475000X0.337500X-0.475000X-0.337500X0.475000X-0.337500X0.475000X0.337500X0*%
%ADD11RoundRect,0.250000X-0.450000X0.350000X-0.450000X-0.350000X0.450000X-0.350000X0.450000X0.350000X0*%
%ADD12RoundRect,0.150000X0.150000X-0.512500X0.150000X0.512500X-0.150000X0.512500X-0.150000X-0.512500X0*%
%ADD13R,1.000000X2.000000*%
%ADD14RoundRect,0.250000X0.337500X0.475000X-0.337500X0.475000X-0.337500X-0.475000X0.337500X-0.475000X0*%
%ADD15RoundRect,0.250000X0.350000X0.450000X-0.350000X0.450000X-0.350000X-0.450000X0.350000X-0.450000X0*%
%ADD16RoundRect,0.250000X0.475000X-0.337500X0.475000X0.337500X-0.475000X0.337500X-0.475000X-0.337500X0*%
%ADD17RoundRect,0.250000X-0.350000X-0.450000X0.350000X-0.450000X0.350000X0.450000X-0.350000X0.450000X0*%
%ADD18RoundRect,0.150000X-0.825000X-0.150000X0.825000X-0.150000X0.825000X0.150000X-0.825000X0.150000X0*%
%ADD19RoundRect,0.250001X0.462499X0.624999X-0.462499X0.624999X-0.462499X-0.624999X0.462499X-0.624999X0*%
%ADD20R,3.100000X1.300000*%
%ADD21RoundRect,0.250000X-0.337500X-0.475000X0.337500X-0.475000X0.337500X0.475000X-0.337500X0.475000X0*%
%ADD22RoundRect,0.100000X-0.100000X0.637500X-0.100000X-0.637500X0.100000X-0.637500X0.100000X0.637500X0*%
%ADD23RoundRect,0.150000X-0.750000X-0.150000X0.750000X-0.150000X0.750000X0.150000X-0.750000X0.150000X0*%
G04 APERTURE END LIST*
D10*
X185420000Y-90297000D03*
X185420000Y-92372000D03*
D11*
X205384400Y-63008000D03*
X205384400Y-65008000D03*
D12*
X209616000Y-63925000D03*
X210566000Y-63925000D03*
X211516000Y-63925000D03*
X211516000Y-61650000D03*
X209616000Y-61650000D03*
D13*
X190500000Y-65887500D03*
X193040000Y-65887500D03*
X195580000Y-65887500D03*
X198120000Y-65887500D03*
X200660000Y-65887500D03*
D14*
X204110500Y-98044000D03*
X202035500Y-98044000D03*
D10*
X193548000Y-72608500D03*
X193548000Y-74683500D03*
X204216000Y-69408500D03*
X204216000Y-71483500D03*
X206502000Y-88243500D03*
X206502000Y-90318500D03*
D15*
X214360000Y-77343000D03*
X212360000Y-77343000D03*
D16*
X214680000Y-75179000D03*
X214680000Y-73104000D03*
D17*
X188865000Y-73279000D03*
X190865000Y-73279000D03*
D18*
X196661000Y-69158500D03*
X196661000Y-70428500D03*
X196661000Y-71698500D03*
X196661000Y-72968500D03*
X201611000Y-72968500D03*
X201611000Y-71698500D03*
X201611000Y-70428500D03*
X201611000Y-69158500D03*
D11*
X215900000Y-61738000D03*
X215900000Y-63738000D03*
D10*
X206451200Y-97616100D03*
X206451200Y-99691100D03*
D11*
X218186000Y-62500000D03*
X218186000Y-64500000D03*
D19*
X186272500Y-79629000D03*
X183297500Y-79629000D03*
D17*
X188799500Y-76708000D03*
X190799500Y-76708000D03*
D18*
X209361000Y-96668500D03*
X209361000Y-97938500D03*
X209361000Y-99208500D03*
X209361000Y-100478500D03*
X214311000Y-100478500D03*
X214311000Y-99208500D03*
X214311000Y-97938500D03*
X214311000Y-96668500D03*
D16*
X217170000Y-75184000D03*
X217170000Y-73109000D03*
X207772000Y-60727500D03*
X207772000Y-58652500D03*
D17*
X188738000Y-80010000D03*
X190738000Y-80010000D03*
D15*
X201930000Y-100076000D03*
X199930000Y-100076000D03*
D20*
X210779600Y-57924800D03*
X210779600Y-59724800D03*
D21*
X212097800Y-102717600D03*
X214172800Y-102717600D03*
D16*
X185420000Y-88159500D03*
X185420000Y-86084500D03*
X202692000Y-67331500D03*
X202692000Y-65256500D03*
D19*
X186272500Y-75819000D03*
X183297500Y-75819000D03*
D22*
X212300000Y-68523500D03*
X211650000Y-68523500D03*
X211000000Y-68523500D03*
X210350000Y-68523500D03*
X209700000Y-68523500D03*
X209050000Y-68523500D03*
X208400000Y-68523500D03*
X207750000Y-68523500D03*
X207100000Y-68523500D03*
X206450000Y-68523500D03*
X206450000Y-74248500D03*
X207100000Y-74248500D03*
X207750000Y-74248500D03*
X208400000Y-74248500D03*
X209050000Y-74248500D03*
X209700000Y-74248500D03*
X210350000Y-74248500D03*
X211000000Y-74248500D03*
X211650000Y-74248500D03*
X212300000Y-74248500D03*
D16*
X217170000Y-70660000D03*
X217170000Y-68585000D03*
D17*
X183404000Y-68072000D03*
X185404000Y-68072000D03*
D16*
X214630000Y-70655000D03*
X214630000Y-68580000D03*
D19*
X186399500Y-72263000D03*
X183424500Y-72263000D03*
D15*
X214775000Y-66040000D03*
X212775000Y-66040000D03*
D10*
X193548000Y-68558500D03*
X193548000Y-70633500D03*
X213614000Y-61700500D03*
X213614000Y-63775500D03*
X207518000Y-62970500D03*
X207518000Y-65045500D03*
D23*
X194300000Y-78486000D03*
X194300000Y-79756000D03*
X194300000Y-81026000D03*
X194300000Y-82296000D03*
X194300000Y-83566000D03*
X194300000Y-84836000D03*
X194300000Y-86106000D03*
X194300000Y-87376000D03*
X194300000Y-88646000D03*
X194300000Y-89916000D03*
X194300000Y-91186000D03*
X194300000Y-92456000D03*
X194300000Y-93726000D03*
X194300000Y-94996000D03*
X203900000Y-94996000D03*
X203900000Y-93726000D03*
X203900000Y-92456000D03*
X203900000Y-91186000D03*
X203900000Y-89916000D03*
X203900000Y-88646000D03*
X203900000Y-87376000D03*
X203900000Y-86106000D03*
X203900000Y-84836000D03*
X203900000Y-83566000D03*
X203900000Y-82296000D03*
X203900000Y-81026000D03*
X203900000Y-79756000D03*
X203900000Y-78486000D03*
M02*
