G04 #@! TF.GenerationSoftware,KiCad,Pcbnew,8.0.9-8.0.9-0~ubuntu24.04.1*
G04 #@! TF.CreationDate,2025-06-07T19:12:40-04:00*
G04 #@! TF.ProjectId,Sensor Board,53656e73-6f72-4204-926f-6172642e6b69,rev?*
G04 #@! TF.SameCoordinates,Original*
G04 #@! TF.FileFunction,Copper,L2,Inr*
G04 #@! TF.FilePolarity,Positive*
%FSLAX46Y46*%
G04 Gerber Fmt 4.6, Leading zero omitted, Abs format (unit mm)*
G04 Created by KiCad (PCBNEW 8.0.9-8.0.9-0~ubuntu24.04.1) date 2025-06-07 19:12:40*
%MOMM*%
%LPD*%
G01*
G04 APERTURE LIST*
G04 #@! TA.AperFunction,ComponentPad*
%ADD10C,3.800000*%
G04 #@! TD*
G04 #@! TA.AperFunction,ComponentPad*
%ADD11C,1.000000*%
G04 #@! TD*
G04 #@! TA.AperFunction,ComponentPad*
%ADD12C,5.600000*%
G04 #@! TD*
G04 #@! TA.AperFunction,ComponentPad*
%ADD13C,1.500000*%
G04 #@! TD*
G04 #@! TA.AperFunction,ViaPad*
%ADD14C,0.600000*%
G04 #@! TD*
G04 #@! TA.AperFunction,ViaPad*
%ADD15C,0.762000*%
G04 #@! TD*
G04 #@! TA.AperFunction,Conductor*
%ADD16C,0.762000*%
G04 #@! TD*
G04 APERTURE END LIST*
D10*
X216789000Y-92342000D03*
X216789000Y-82042000D03*
D11*
X216789000Y-85942000D03*
X216789000Y-87192000D03*
X216789000Y-88442000D03*
X218039000Y-85942000D03*
X218039000Y-87192000D03*
X218039000Y-88442000D03*
D12*
X219964000Y-58674000D03*
X185420000Y-58420000D03*
X185420000Y-100330000D03*
X219964000Y-100330000D03*
D13*
X189720000Y-86831500D03*
X189720000Y-91711500D03*
D14*
X205282800Y-82854800D03*
X215138000Y-101346000D03*
X213487000Y-76327000D03*
D15*
X183404000Y-66564000D03*
D14*
X191516000Y-102870000D03*
X205232000Y-88646000D03*
X202184000Y-96774000D03*
D15*
X189738000Y-60706000D03*
D14*
X222123000Y-76454000D03*
X220675200Y-75184000D03*
D15*
X183134000Y-77724000D03*
D14*
X215696800Y-84705200D03*
D15*
X183134000Y-70612000D03*
D14*
X207772000Y-99208500D03*
D15*
X183134000Y-74168000D03*
D14*
X186944000Y-68072000D03*
X200660000Y-64008000D03*
X192913000Y-78486000D03*
X202438000Y-79756000D03*
X190500000Y-64135000D03*
X202438000Y-78486000D03*
X193040000Y-64135000D03*
X202565000Y-92456000D03*
X215773000Y-60579000D03*
X210566000Y-61595000D03*
X210693000Y-71120000D03*
X213543208Y-64871600D03*
X204216000Y-72517000D03*
X208584800Y-57404000D03*
X200660000Y-62230000D03*
X213487000Y-70358000D03*
X213309200Y-67462400D03*
X203073000Y-72898000D03*
X192278000Y-74676000D03*
X210439000Y-67183000D03*
X210794600Y-56337200D03*
X202692000Y-64008000D03*
X212344000Y-61595000D03*
X209042000Y-65405000D03*
X213487000Y-69596000D03*
X205486000Y-71501000D03*
X193040000Y-55880000D03*
X206451200Y-58724800D03*
X210439000Y-66294000D03*
X209778600Y-56337200D03*
X212953600Y-59131200D03*
X212217000Y-69977000D03*
X215900000Y-55880000D03*
X209042000Y-66294000D03*
X196723000Y-73914000D03*
X208635600Y-56337200D03*
X198120000Y-70358000D03*
X192151000Y-70612000D03*
X209042000Y-67183000D03*
X207518000Y-57404000D03*
X212953600Y-57251600D03*
X213487000Y-60452000D03*
X212953600Y-56337200D03*
X211695200Y-67183000D03*
X212953600Y-58115200D03*
X198247000Y-72898000D03*
X199898000Y-72898000D03*
X210439000Y-65405000D03*
X215773000Y-70612000D03*
X214757000Y-61722000D03*
X194945000Y-74676000D03*
X213487000Y-71374000D03*
X200660000Y-55880000D03*
X211810600Y-56337200D03*
X199898000Y-71628000D03*
X205130400Y-81026000D03*
X194945000Y-69158500D03*
X222504000Y-68580000D03*
X219456000Y-62500000D03*
X206451200Y-60727500D03*
X220472000Y-70612000D03*
X218440000Y-66548000D03*
X222504000Y-64516000D03*
X220472000Y-64516000D03*
X221742000Y-71374000D03*
X222504000Y-70612000D03*
X216014300Y-65290700D03*
X220472000Y-66548000D03*
X218440000Y-70612000D03*
X218440000Y-68580000D03*
X194945000Y-71698500D03*
X222504000Y-66548000D03*
X217805000Y-71755000D03*
X220472000Y-68580000D03*
X195732400Y-95427800D03*
X205308000Y-95758000D03*
X202565000Y-94234000D03*
X202412600Y-82296000D03*
X196596000Y-80360800D03*
X183388000Y-96520000D03*
X199136000Y-102616000D03*
X205292812Y-90182559D03*
X206502000Y-96266000D03*
X183388000Y-82296000D03*
X219202000Y-72898000D03*
X185420000Y-63500000D03*
X208310200Y-77673200D03*
X211175600Y-80060800D03*
X187452000Y-82296000D03*
X206248000Y-78613000D03*
X210566000Y-92964000D03*
X186690000Y-92456000D03*
X183388000Y-89408000D03*
D15*
X189738000Y-62230000D03*
D14*
X200660000Y-74930000D03*
X183388000Y-92964000D03*
X211074000Y-75692000D03*
X199898000Y-91948000D03*
X183388000Y-85852000D03*
X198882000Y-82804000D03*
X191342341Y-82469659D03*
X202438000Y-89916000D03*
X203200000Y-76708000D03*
X204216000Y-102616000D03*
X207772000Y-97536000D03*
X209361000Y-97938500D03*
X186690000Y-86106000D03*
X208026000Y-75946000D03*
X204216000Y-96520000D03*
X193548000Y-99060000D03*
X213055200Y-86309200D03*
X191008000Y-96520000D03*
X196342000Y-87376000D03*
X196342000Y-81788000D03*
X187452000Y-96520000D03*
X206502000Y-91440000D03*
X211429600Y-91084400D03*
X210820000Y-102870000D03*
X196596000Y-92456000D03*
X209550000Y-95504000D03*
D16*
X189992000Y-57785000D02*
X191389000Y-57785000D01*
G04 #@! TA.AperFunction,Conductor*
G36*
X190445539Y-54884185D02*
G01*
X190491294Y-54936989D01*
X190502500Y-54988500D01*
X190502500Y-59928483D01*
X190482815Y-59995522D01*
X190430011Y-60041277D01*
X190360853Y-60051221D01*
X190305615Y-60028801D01*
X190181182Y-59938395D01*
X190181179Y-59938393D01*
X190181178Y-59938393D01*
X190136085Y-59918316D01*
X190011904Y-59863026D01*
X190011896Y-59863024D01*
X189830649Y-59824500D01*
X189645351Y-59824500D01*
X189464103Y-59863024D01*
X189464095Y-59863026D01*
X189294822Y-59938392D01*
X189144909Y-60047311D01*
X189144906Y-60047313D01*
X189020922Y-60185014D01*
X188928274Y-60345485D01*
X188871014Y-60521711D01*
X188871013Y-60521713D01*
X188851644Y-60706000D01*
X188871013Y-60890286D01*
X188871014Y-60890288D01*
X188928274Y-61066514D01*
X188979587Y-61155390D01*
X189020923Y-61226987D01*
X189064112Y-61274954D01*
X189144906Y-61364686D01*
X189144909Y-61364688D01*
X189144912Y-61364691D01*
X189294822Y-61473607D01*
X189464095Y-61548973D01*
X189464098Y-61548973D01*
X189464101Y-61548975D01*
X189645351Y-61587500D01*
X189830649Y-61587500D01*
X190011899Y-61548975D01*
X190011902Y-61548973D01*
X190011904Y-61548973D01*
X190068922Y-61523586D01*
X190181178Y-61473607D01*
X190305616Y-61383197D01*
X190371420Y-61359718D01*
X190439474Y-61375543D01*
X190488169Y-61425649D01*
X190502500Y-61483516D01*
X190502500Y-63218339D01*
X190482815Y-63285378D01*
X190430011Y-63331133D01*
X190392385Y-63341559D01*
X190320748Y-63349631D01*
X190320745Y-63349631D01*
X190150476Y-63409211D01*
X189997737Y-63505184D01*
X189870184Y-63632737D01*
X189774211Y-63785476D01*
X189714631Y-63955745D01*
X189714630Y-63955750D01*
X189694435Y-64134996D01*
X189694435Y-64135003D01*
X189714630Y-64314249D01*
X189714631Y-64314254D01*
X189774211Y-64484523D01*
X189870184Y-64637262D01*
X189997738Y-64764816D01*
X190150478Y-64860789D01*
X190320745Y-64920368D01*
X190392385Y-64928439D01*
X190456796Y-64955504D01*
X190496352Y-65013098D01*
X190502500Y-65051659D01*
X190502500Y-65290696D01*
X190502500Y-66547996D01*
X190502500Y-68579996D01*
X190502500Y-69158496D01*
X190502500Y-71698496D01*
X190502500Y-76076000D01*
X190502501Y-76076009D01*
X190514052Y-76183450D01*
X190514054Y-76183462D01*
X190525260Y-76234972D01*
X190559383Y-76337497D01*
X190559386Y-76337503D01*
X190637171Y-76458537D01*
X190637179Y-76458548D01*
X190682923Y-76511340D01*
X190682926Y-76511343D01*
X190682930Y-76511347D01*
X190791664Y-76605567D01*
X190791667Y-76605568D01*
X190791668Y-76605569D01*
X190885925Y-76648616D01*
X190922541Y-76665338D01*
X190989580Y-76685023D01*
X190989584Y-76685024D01*
X191132000Y-76705500D01*
X191132003Y-76705500D01*
X199138990Y-76705500D01*
X199139000Y-76705500D01*
X199246456Y-76693947D01*
X199297967Y-76682741D01*
X199332197Y-76671347D01*
X199400497Y-76648616D01*
X199400501Y-76648613D01*
X199400504Y-76648613D01*
X199521543Y-76570825D01*
X199574347Y-76525070D01*
X199668567Y-76416336D01*
X199709368Y-76326996D01*
X212681435Y-76326996D01*
X212681435Y-76327003D01*
X212701630Y-76506249D01*
X212701631Y-76506254D01*
X212761211Y-76676523D01*
X212779418Y-76705499D01*
X212857184Y-76829262D01*
X212984738Y-76956816D01*
X213137478Y-77052789D01*
X213226148Y-77083816D01*
X213307745Y-77112368D01*
X213307750Y-77112369D01*
X213486996Y-77132565D01*
X213487000Y-77132565D01*
X213487004Y-77132565D01*
X213666249Y-77112369D01*
X213666252Y-77112368D01*
X213666255Y-77112368D01*
X213836522Y-77052789D01*
X213989262Y-76956816D01*
X214116816Y-76829262D01*
X214212789Y-76676522D01*
X214272368Y-76506255D01*
X214272369Y-76506249D01*
X214278256Y-76453996D01*
X221317435Y-76453996D01*
X221317435Y-76454003D01*
X221337630Y-76633249D01*
X221337631Y-76633254D01*
X221397211Y-76803523D01*
X221445909Y-76881025D01*
X221493184Y-76956262D01*
X221620738Y-77083816D01*
X221773478Y-77179789D01*
X221943745Y-77239368D01*
X221943750Y-77239369D01*
X222122996Y-77259565D01*
X222123000Y-77259565D01*
X222123004Y-77259565D01*
X222302249Y-77239369D01*
X222302252Y-77239368D01*
X222302255Y-77239368D01*
X222472522Y-77179789D01*
X222625262Y-77083816D01*
X222752816Y-76956262D01*
X222848789Y-76803522D01*
X222908368Y-76633255D01*
X222908369Y-76633249D01*
X222928565Y-76454003D01*
X222928565Y-76453996D01*
X222908369Y-76274750D01*
X222908368Y-76274745D01*
X222876427Y-76183462D01*
X222848789Y-76104478D01*
X222752816Y-75951738D01*
X222625262Y-75824184D01*
X222472523Y-75728211D01*
X222302254Y-75668631D01*
X222302249Y-75668630D01*
X222123004Y-75648435D01*
X222122996Y-75648435D01*
X221943750Y-75668630D01*
X221943745Y-75668631D01*
X221773476Y-75728211D01*
X221620737Y-75824184D01*
X221493184Y-75951737D01*
X221397211Y-76104476D01*
X221337631Y-76274745D01*
X221337630Y-76274750D01*
X221317435Y-76453996D01*
X214278256Y-76453996D01*
X214292565Y-76327003D01*
X214292565Y-76326996D01*
X214272369Y-76147750D01*
X214272368Y-76147745D01*
X214257228Y-76104478D01*
X214212789Y-75977478D01*
X214196615Y-75951738D01*
X214170257Y-75909789D01*
X214116816Y-75824738D01*
X213989262Y-75697184D01*
X213943822Y-75668632D01*
X213836523Y-75601211D01*
X213666254Y-75541631D01*
X213666249Y-75541630D01*
X213487004Y-75521435D01*
X213486996Y-75521435D01*
X213307750Y-75541630D01*
X213307745Y-75541631D01*
X213137476Y-75601211D01*
X212984737Y-75697184D01*
X212857184Y-75824737D01*
X212761211Y-75977476D01*
X212701631Y-76147745D01*
X212701630Y-76147750D01*
X212681435Y-76326996D01*
X199709368Y-76326996D01*
X199728338Y-76285459D01*
X199748023Y-76218420D01*
X199748024Y-76218416D01*
X199768500Y-76076000D01*
X199768500Y-75183996D01*
X219869635Y-75183996D01*
X219869635Y-75184003D01*
X219889830Y-75363249D01*
X219889831Y-75363254D01*
X219949411Y-75533523D01*
X219991943Y-75601211D01*
X220045384Y-75686262D01*
X220172938Y-75813816D01*
X220325678Y-75909789D01*
X220495945Y-75969368D01*
X220495950Y-75969369D01*
X220675196Y-75989565D01*
X220675200Y-75989565D01*
X220675204Y-75989565D01*
X220854449Y-75969369D01*
X220854452Y-75969368D01*
X220854455Y-75969368D01*
X221024722Y-75909789D01*
X221177462Y-75813816D01*
X221305016Y-75686262D01*
X221400989Y-75533522D01*
X221460568Y-75363255D01*
X221480765Y-75184000D01*
X221460568Y-75004745D01*
X221400989Y-74834478D01*
X221305016Y-74681738D01*
X221177462Y-74554184D01*
X221024723Y-74458211D01*
X220854454Y-74398631D01*
X220854449Y-74398630D01*
X220675204Y-74378435D01*
X220675196Y-74378435D01*
X220495950Y-74398630D01*
X220495945Y-74398631D01*
X220325676Y-74458211D01*
X220172937Y-74554184D01*
X220045384Y-74681737D01*
X219949411Y-74834476D01*
X219889831Y-75004745D01*
X219889830Y-75004750D01*
X219869635Y-75183996D01*
X199768500Y-75183996D01*
X199768500Y-74416500D01*
X199788185Y-74349461D01*
X199840989Y-74303706D01*
X199892500Y-74292500D01*
X203529640Y-74292500D01*
X203539786Y-74291955D01*
X203583678Y-74289603D01*
X203583686Y-74289602D01*
X203583688Y-74289602D01*
X203583689Y-74289602D01*
X203590682Y-74288849D01*
X203610036Y-74286769D01*
X203610046Y-74286767D01*
X203610049Y-74286767D01*
X203619648Y-74285211D01*
X203663448Y-74278114D01*
X203798257Y-74227832D01*
X203859580Y-74194347D01*
X203974762Y-74108123D01*
X205405065Y-72677818D01*
X205466388Y-72644334D01*
X205492746Y-72641500D01*
X216915449Y-72641500D01*
X216915463Y-72641500D01*
X216964364Y-72639129D01*
X216982113Y-72637403D01*
X216988225Y-72636810D01*
X216988228Y-72636809D01*
X216988244Y-72636808D01*
X217036694Y-72629716D01*
X217172501Y-72582196D01*
X217234495Y-72549969D01*
X217321401Y-72487637D01*
X217387348Y-72464561D01*
X217448524Y-72479181D01*
X217449205Y-72477769D01*
X217455470Y-72480786D01*
X217455477Y-72480788D01*
X217455478Y-72480789D01*
X217555945Y-72515944D01*
X217625745Y-72540368D01*
X217625750Y-72540369D01*
X217804996Y-72560565D01*
X217805000Y-72560565D01*
X217805004Y-72560565D01*
X217984249Y-72540369D01*
X217984251Y-72540368D01*
X217984255Y-72540368D01*
X217984258Y-72540366D01*
X217984262Y-72540366D01*
X218079987Y-72506869D01*
X218154522Y-72480789D01*
X218154525Y-72480786D01*
X218160795Y-72477768D01*
X218161718Y-72479685D01*
X218219053Y-72463470D01*
X218285893Y-72483823D01*
X218299019Y-72493751D01*
X218354201Y-72541567D01*
X218354205Y-72541569D01*
X218449073Y-72584895D01*
X218485078Y-72601338D01*
X218552117Y-72621023D01*
X218552121Y-72621024D01*
X218694537Y-72641500D01*
X218694540Y-72641500D01*
X218934892Y-72641500D01*
X218934893Y-72641500D01*
X218934894Y-72641499D01*
X218934910Y-72641499D01*
X218965690Y-72638902D01*
X219019561Y-72634359D01*
X219060516Y-72627401D01*
X219123178Y-72611235D01*
X219140248Y-72608089D01*
X219188117Y-72602695D01*
X219215871Y-72602695D01*
X219263765Y-72608091D01*
X219280820Y-72611236D01*
X219343484Y-72627401D01*
X219343498Y-72627403D01*
X219343501Y-72627404D01*
X219357104Y-72629715D01*
X219384439Y-72634359D01*
X219432323Y-72638397D01*
X219469089Y-72641499D01*
X219469105Y-72641499D01*
X219469107Y-72641500D01*
X219469108Y-72641500D01*
X221072579Y-72641500D01*
X221090561Y-72641179D01*
X221090571Y-72641178D01*
X221090606Y-72641178D01*
X221099452Y-72640862D01*
X221117469Y-72639896D01*
X221258061Y-72609312D01*
X221323525Y-72584895D01*
X221449800Y-72515944D01*
X221551540Y-72414207D01*
X221593412Y-72358274D01*
X221593418Y-72358266D01*
X221631012Y-72289415D01*
X221680415Y-72240011D01*
X221748687Y-72225158D01*
X221814152Y-72249573D01*
X221844159Y-72281802D01*
X221916610Y-72394537D01*
X221916619Y-72394548D01*
X221962363Y-72447340D01*
X221962366Y-72447343D01*
X221962370Y-72447347D01*
X222071104Y-72541567D01*
X222071107Y-72541568D01*
X222071108Y-72541569D01*
X222165976Y-72584895D01*
X222201981Y-72601338D01*
X222269020Y-72621023D01*
X222269024Y-72621024D01*
X222411440Y-72641500D01*
X222411443Y-72641500D01*
X223055436Y-72641500D01*
X223122475Y-72661185D01*
X223168230Y-72713989D01*
X223179436Y-72765500D01*
X223179436Y-98851206D01*
X223159751Y-98918245D01*
X223106947Y-98964000D01*
X223037789Y-98973944D01*
X222974233Y-98944919D01*
X222945881Y-98909289D01*
X222795781Y-98626172D01*
X222594966Y-98329992D01*
X222467557Y-98179995D01*
X222467556Y-98179994D01*
X221258250Y-99389299D01*
X221184412Y-99287670D01*
X221006330Y-99109588D01*
X220904697Y-99035747D01*
X222116743Y-97823703D01*
X222116742Y-97823702D01*
X222103514Y-97811171D01*
X222103513Y-97811170D01*
X221818632Y-97594611D01*
X221818629Y-97594609D01*
X221512009Y-97410123D01*
X221187260Y-97259877D01*
X221187255Y-97259876D01*
X220848144Y-97145616D01*
X220498660Y-97068688D01*
X220142924Y-97030000D01*
X219785075Y-97030000D01*
X219429339Y-97068688D01*
X219079855Y-97145616D01*
X218740744Y-97259876D01*
X218740739Y-97259877D01*
X218415990Y-97410123D01*
X218109370Y-97594609D01*
X218109367Y-97594611D01*
X217824491Y-97811166D01*
X217811256Y-97823703D01*
X217811255Y-97823703D01*
X219023301Y-99035748D01*
X218921670Y-99109588D01*
X218743588Y-99287670D01*
X218669748Y-99389301D01*
X217460442Y-98179994D01*
X217460441Y-98179995D01*
X217333040Y-98329983D01*
X217333033Y-98329993D01*
X217132218Y-98626172D01*
X216964606Y-98942322D01*
X216964597Y-98942340D01*
X216832149Y-99274760D01*
X216832147Y-99274767D01*
X216736421Y-99619542D01*
X216736415Y-99619568D01*
X216678527Y-99972668D01*
X216678526Y-99972685D01*
X216659153Y-100329997D01*
X216659153Y-100330002D01*
X216678526Y-100687314D01*
X216678527Y-100687331D01*
X216736415Y-101040431D01*
X216736421Y-101040457D01*
X216832147Y-101385232D01*
X216832149Y-101385239D01*
X216964597Y-101717659D01*
X216964606Y-101717677D01*
X217132218Y-102033827D01*
X217333033Y-102330007D01*
X217460441Y-102480003D01*
X217460442Y-102480004D01*
X218669748Y-101270698D01*
X218743588Y-101372330D01*
X218921670Y-101550412D01*
X219023300Y-101624251D01*
X217811255Y-102836295D01*
X217811256Y-102836296D01*
X217824485Y-102848828D01*
X217824486Y-102848829D01*
X218109367Y-103065388D01*
X218109370Y-103065390D01*
X218415990Y-103249876D01*
X218740739Y-103400122D01*
X218740744Y-103400123D01*
X219079855Y-103514383D01*
X219429339Y-103591311D01*
X219785075Y-103629999D01*
X219785085Y-103630000D01*
X220142915Y-103630000D01*
X220142924Y-103629999D01*
X220498660Y-103591311D01*
X220848144Y-103514383D01*
X221187255Y-103400123D01*
X221187260Y-103400122D01*
X221512009Y-103249876D01*
X221818629Y-103065390D01*
X221818632Y-103065388D01*
X222103504Y-102848836D01*
X222116742Y-102836294D01*
X220904698Y-101624251D01*
X221006330Y-101550412D01*
X221184412Y-101372330D01*
X221258251Y-101270698D01*
X222467556Y-102480003D01*
X222515729Y-102478045D01*
X222583512Y-102494991D01*
X222631374Y-102545893D01*
X222644118Y-102614591D01*
X222621895Y-102673698D01*
X222546302Y-102780238D01*
X222537634Y-102791107D01*
X222497252Y-102836296D01*
X222328682Y-103024927D01*
X222318850Y-103034759D01*
X222172379Y-103165655D01*
X222085030Y-103243715D01*
X222074163Y-103252382D01*
X221818414Y-103433848D01*
X221806640Y-103441246D01*
X221532193Y-103592930D01*
X221519665Y-103598964D01*
X221229943Y-103718974D01*
X221216818Y-103723566D01*
X220915504Y-103810376D01*
X220901947Y-103813471D01*
X220592791Y-103866002D01*
X220578973Y-103867559D01*
X220263046Y-103885305D01*
X220256092Y-103885500D01*
X191767389Y-103885500D01*
X191700350Y-103865815D01*
X191654595Y-103813011D01*
X191644651Y-103743853D01*
X191673676Y-103680297D01*
X191726434Y-103644458D01*
X191727272Y-103644164D01*
X191865522Y-103595789D01*
X192018262Y-103499816D01*
X192145816Y-103372262D01*
X192241789Y-103219522D01*
X192301368Y-103049255D01*
X192301369Y-103049249D01*
X192321565Y-102870003D01*
X192321565Y-102869996D01*
X192301369Y-102690750D01*
X192301368Y-102690745D01*
X192295403Y-102673698D01*
X192241789Y-102520478D01*
X192240740Y-102518809D01*
X192145815Y-102367737D01*
X192018262Y-102240184D01*
X191865523Y-102144211D01*
X191695254Y-102084631D01*
X191695249Y-102084630D01*
X191516004Y-102064435D01*
X191515996Y-102064435D01*
X191336750Y-102084630D01*
X191336745Y-102084631D01*
X191166476Y-102144211D01*
X191013737Y-102240184D01*
X190886184Y-102367737D01*
X190790211Y-102520476D01*
X190730631Y-102690745D01*
X190730630Y-102690750D01*
X190710435Y-102869996D01*
X190710435Y-102870003D01*
X190730630Y-103049249D01*
X190730631Y-103049254D01*
X190790211Y-103219523D01*
X190810858Y-103252382D01*
X190886184Y-103372262D01*
X191013738Y-103499816D01*
X191166478Y-103595789D01*
X191303763Y-103643827D01*
X191305566Y-103644458D01*
X191362342Y-103685180D01*
X191388089Y-103750133D01*
X191374633Y-103818694D01*
X191326246Y-103869097D01*
X191264611Y-103885500D01*
X184915481Y-103885500D01*
X184908528Y-103885305D01*
X184591959Y-103867527D01*
X184578141Y-103865970D01*
X184268996Y-103813443D01*
X184255439Y-103810349D01*
X183954108Y-103723537D01*
X183940984Y-103718944D01*
X183651278Y-103598945D01*
X183638749Y-103592912D01*
X183364295Y-103441226D01*
X183352521Y-103433828D01*
X183096772Y-103252365D01*
X183085900Y-103243694D01*
X182852087Y-103034744D01*
X182842255Y-103024912D01*
X182633305Y-102791099D01*
X182624634Y-102780227D01*
X182443171Y-102524478D01*
X182435773Y-102512704D01*
X182334800Y-102330007D01*
X182284083Y-102238243D01*
X182278054Y-102225721D01*
X182158055Y-101936015D01*
X182153462Y-101922891D01*
X182066650Y-101621560D01*
X182063556Y-101608003D01*
X182023513Y-101372330D01*
X182016658Y-101331985D01*
X182024835Y-101262598D01*
X182069228Y-101208644D01*
X182135744Y-101187256D01*
X182203264Y-101205225D01*
X182250350Y-101256845D01*
X182258386Y-101278042D01*
X182288148Y-101385237D01*
X182288149Y-101385239D01*
X182420597Y-101717659D01*
X182420606Y-101717677D01*
X182588218Y-102033827D01*
X182789033Y-102330007D01*
X182916441Y-102480003D01*
X182916442Y-102480004D01*
X184125748Y-101270698D01*
X184199588Y-101372330D01*
X184377670Y-101550412D01*
X184479300Y-101624251D01*
X183267255Y-102836295D01*
X183267256Y-102836296D01*
X183280485Y-102848828D01*
X183280486Y-102848829D01*
X183565367Y-103065388D01*
X183565370Y-103065390D01*
X183871990Y-103249876D01*
X184196739Y-103400122D01*
X184196744Y-103400123D01*
X184535855Y-103514383D01*
X184885339Y-103591311D01*
X185241075Y-103629999D01*
X185241085Y-103630000D01*
X185598915Y-103630000D01*
X185598924Y-103629999D01*
X185954660Y-103591311D01*
X186304144Y-103514383D01*
X186643255Y-103400123D01*
X186643260Y-103400122D01*
X186968009Y-103249876D01*
X187274629Y-103065390D01*
X187274632Y-103065388D01*
X187559504Y-102848836D01*
X187572742Y-102836294D01*
X186360698Y-101624251D01*
X186462330Y-101550412D01*
X186640412Y-101372330D01*
X186714251Y-101270698D01*
X187923556Y-102480003D01*
X188050964Y-102330008D01*
X188050975Y-102329994D01*
X188251781Y-102033827D01*
X188419393Y-101717677D01*
X188419402Y-101717659D01*
X188551850Y-101385239D01*
X188551852Y-101385232D01*
X188562746Y-101345996D01*
X214332435Y-101345996D01*
X214332435Y-101346003D01*
X214352630Y-101525249D01*
X214352631Y-101525254D01*
X214412211Y-101695523D01*
X214508184Y-101848262D01*
X214635738Y-101975816D01*
X214788478Y-102071789D01*
X214931278Y-102121757D01*
X214958745Y-102131368D01*
X214958750Y-102131369D01*
X215137996Y-102151565D01*
X215138000Y-102151565D01*
X215138004Y-102151565D01*
X215317249Y-102131369D01*
X215317252Y-102131368D01*
X215317255Y-102131368D01*
X215487522Y-102071789D01*
X215640262Y-101975816D01*
X215767816Y-101848262D01*
X215863789Y-101695522D01*
X215923368Y-101525255D01*
X215939145Y-101385232D01*
X215943565Y-101346003D01*
X215943565Y-101345996D01*
X215923369Y-101166750D01*
X215923368Y-101166745D01*
X215863788Y-100996476D01*
X215767815Y-100843737D01*
X215640262Y-100716184D01*
X215487523Y-100620211D01*
X215317254Y-100560631D01*
X215317249Y-100560630D01*
X215138004Y-100540435D01*
X215137996Y-100540435D01*
X214958750Y-100560630D01*
X214958745Y-100560631D01*
X214788476Y-100620211D01*
X214635737Y-100716184D01*
X214508184Y-100843737D01*
X214412211Y-100996476D01*
X214352631Y-101166745D01*
X214352630Y-101166750D01*
X214332435Y-101345996D01*
X188562746Y-101345996D01*
X188647578Y-101040457D01*
X188647584Y-101040431D01*
X188705472Y-100687331D01*
X188705473Y-100687314D01*
X188724847Y-100330002D01*
X188724847Y-100329997D01*
X188705473Y-99972685D01*
X188705472Y-99972668D01*
X188647584Y-99619568D01*
X188647578Y-99619542D01*
X188551852Y-99274767D01*
X188551850Y-99274760D01*
X188525448Y-99208496D01*
X206966435Y-99208496D01*
X206966435Y-99208503D01*
X206986630Y-99387749D01*
X206986631Y-99387754D01*
X207046211Y-99558023D01*
X207084883Y-99619568D01*
X207142184Y-99710762D01*
X207269738Y-99838316D01*
X207422478Y-99934289D01*
X207542956Y-99976446D01*
X207592745Y-99993868D01*
X207592750Y-99993869D01*
X207771996Y-100014065D01*
X207772000Y-100014065D01*
X207772004Y-100014065D01*
X207951249Y-99993869D01*
X207951252Y-99993868D01*
X207951255Y-99993868D01*
X208121522Y-99934289D01*
X208274262Y-99838316D01*
X208401816Y-99710762D01*
X208497789Y-99558022D01*
X208557368Y-99387755D01*
X208570099Y-99274762D01*
X208577565Y-99208503D01*
X208577565Y-99208496D01*
X208557369Y-99029250D01*
X208557368Y-99029245D01*
X208527861Y-98944919D01*
X208497789Y-98858978D01*
X208401816Y-98706238D01*
X208274262Y-98578684D01*
X208121523Y-98482711D01*
X207951254Y-98423131D01*
X207951249Y-98423130D01*
X207772004Y-98402935D01*
X207771996Y-98402935D01*
X207592750Y-98423130D01*
X207592745Y-98423131D01*
X207422476Y-98482711D01*
X207269737Y-98578684D01*
X207142184Y-98706237D01*
X207046211Y-98858976D01*
X206986631Y-99029245D01*
X206986630Y-99029250D01*
X206966435Y-99208496D01*
X188525448Y-99208496D01*
X188419402Y-98942340D01*
X188419393Y-98942322D01*
X188251781Y-98626172D01*
X188050966Y-98329992D01*
X187923557Y-98179995D01*
X187923556Y-98179994D01*
X186714250Y-99389300D01*
X186640412Y-99287670D01*
X186462330Y-99109588D01*
X186360697Y-99035747D01*
X187572743Y-97823703D01*
X187572742Y-97823702D01*
X187559514Y-97811171D01*
X187559513Y-97811170D01*
X187274632Y-97594611D01*
X187274629Y-97594609D01*
X186968009Y-97410123D01*
X186643260Y-97259877D01*
X186643255Y-97259876D01*
X186304144Y-97145616D01*
X185954660Y-97068688D01*
X185598924Y-97030000D01*
X185241075Y-97030000D01*
X184885339Y-97068688D01*
X184535855Y-97145616D01*
X184196744Y-97259876D01*
X184196739Y-97259877D01*
X183871990Y-97410123D01*
X183565370Y-97594609D01*
X183565367Y-97594611D01*
X183280491Y-97811166D01*
X183267256Y-97823703D01*
X183267255Y-97823703D01*
X184479301Y-99035748D01*
X184377670Y-99109588D01*
X184199588Y-99287670D01*
X184125748Y-99389301D01*
X182916442Y-98179994D01*
X182916441Y-98179995D01*
X182789040Y-98329983D01*
X182789033Y-98329993D01*
X182588218Y-98626172D01*
X182420606Y-98942322D01*
X182420597Y-98942340D01*
X182288149Y-99274760D01*
X182288148Y-99274762D01*
X182234980Y-99466260D01*
X182198078Y-99525589D01*
X182134958Y-99555550D01*
X182065660Y-99546629D01*
X182012186Y-99501659D01*
X181991514Y-99434918D01*
X181991500Y-99433086D01*
X181991500Y-96773996D01*
X201378435Y-96773996D01*
X201378435Y-96774003D01*
X201398630Y-96953249D01*
X201398631Y-96953254D01*
X201458211Y-97123523D01*
X201543888Y-97259876D01*
X201554184Y-97276262D01*
X201681738Y-97403816D01*
X201834478Y-97499789D01*
X202004745Y-97559368D01*
X202004750Y-97559369D01*
X202183996Y-97579565D01*
X202184000Y-97579565D01*
X202184004Y-97579565D01*
X202363249Y-97559369D01*
X202363252Y-97559368D01*
X202363255Y-97559368D01*
X202533522Y-97499789D01*
X202686262Y-97403816D01*
X202813816Y-97276262D01*
X202909789Y-97123522D01*
X202969368Y-96953255D01*
X202989565Y-96774000D01*
X202969368Y-96594745D01*
X202909789Y-96424478D01*
X202813816Y-96271738D01*
X202686262Y-96144184D01*
X202533523Y-96048211D01*
X202363254Y-95988631D01*
X202363249Y-95988630D01*
X202184004Y-95968435D01*
X202183996Y-95968435D01*
X202004750Y-95988630D01*
X202004745Y-95988631D01*
X201834476Y-96048211D01*
X201681737Y-96144184D01*
X201554184Y-96271737D01*
X201458211Y-96424476D01*
X201398631Y-96594745D01*
X201398630Y-96594750D01*
X201378435Y-96773996D01*
X181991500Y-96773996D01*
X181991500Y-96012000D01*
X183896000Y-96012000D01*
X193040000Y-96012000D01*
X193040000Y-95427796D01*
X194926835Y-95427796D01*
X194926835Y-95427803D01*
X194947030Y-95607049D01*
X194947031Y-95607054D01*
X195006611Y-95777323D01*
X195102584Y-95930062D01*
X195230138Y-96057616D01*
X195382878Y-96153589D01*
X195553145Y-96213168D01*
X195553150Y-96213169D01*
X195732396Y-96233365D01*
X195732400Y-96233365D01*
X195732404Y-96233365D01*
X195911649Y-96213169D01*
X195911652Y-96213168D01*
X195911655Y-96213168D01*
X196081922Y-96153589D01*
X196234662Y-96057616D01*
X196362216Y-95930062D01*
X196458189Y-95777322D01*
X196464951Y-95757996D01*
X204502435Y-95757996D01*
X204502435Y-95758003D01*
X204522630Y-95937249D01*
X204522631Y-95937254D01*
X204582211Y-96107523D01*
X204648593Y-96213168D01*
X204678184Y-96260262D01*
X204805738Y-96387816D01*
X204958478Y-96483789D01*
X205128745Y-96543368D01*
X205128750Y-96543369D01*
X205307996Y-96563565D01*
X205308000Y-96563565D01*
X205308004Y-96563565D01*
X205487249Y-96543369D01*
X205487252Y-96543368D01*
X205487255Y-96543368D01*
X205657522Y-96483789D01*
X205810262Y-96387816D01*
X205937816Y-96260262D01*
X206033789Y-96107522D01*
X206093368Y-95937255D01*
X206093369Y-95937249D01*
X206113565Y-95758003D01*
X206113565Y-95757996D01*
X206093369Y-95578750D01*
X206093368Y-95578745D01*
X206033789Y-95408478D01*
X205937816Y-95255738D01*
X205810262Y-95128184D01*
X205657523Y-95032211D01*
X205487254Y-94972631D01*
X205487249Y-94972630D01*
X205308004Y-94952435D01*
X205307996Y-94952435D01*
X205128750Y-94972630D01*
X205128745Y-94972631D01*
X204958476Y-95032211D01*
X204805737Y-95128184D01*
X204678184Y-95255737D01*
X204582211Y-95408476D01*
X204522631Y-95578745D01*
X204522630Y-95578750D01*
X204502435Y-95757996D01*
X196464951Y-95757996D01*
X196517768Y-95607055D01*
X196517769Y-95607049D01*
X196537965Y-95427803D01*
X196537965Y-95427796D01*
X196517769Y-95248550D01*
X196517768Y-95248545D01*
X196458188Y-95078276D01*
X196391807Y-94972632D01*
X196362216Y-94925538D01*
X196234662Y-94797984D01*
X196146360Y-94742500D01*
X196081923Y-94702011D01*
X195911654Y-94642431D01*
X195911649Y-94642430D01*
X195732404Y-94622235D01*
X195732396Y-94622235D01*
X195553150Y-94642430D01*
X195553145Y-94642431D01*
X195382876Y-94702011D01*
X195230137Y-94797984D01*
X195102584Y-94925537D01*
X195006611Y-95078276D01*
X194947031Y-95248545D01*
X194947030Y-95248550D01*
X194926835Y-95427796D01*
X193040000Y-95427796D01*
X193040000Y-92455996D01*
X201759435Y-92455996D01*
X201759435Y-92456003D01*
X201779630Y-92635249D01*
X201779631Y-92635254D01*
X201839211Y-92805523D01*
X201892969Y-92891077D01*
X201935184Y-92958262D01*
X202062738Y-93085816D01*
X202215478Y-93181789D01*
X202215480Y-93181790D01*
X202347421Y-93227959D01*
X202404197Y-93268680D01*
X202429944Y-93333633D01*
X202416488Y-93402195D01*
X202368100Y-93452597D01*
X202347421Y-93462041D01*
X202215480Y-93508209D01*
X202062737Y-93604184D01*
X201935184Y-93731737D01*
X201839211Y-93884476D01*
X201779631Y-94054745D01*
X201779630Y-94054750D01*
X201759435Y-94233996D01*
X201759435Y-94234003D01*
X201779630Y-94413249D01*
X201779631Y-94413254D01*
X201839211Y-94583523D01*
X201913663Y-94702011D01*
X201935184Y-94736262D01*
X202062738Y-94863816D01*
X202215478Y-94959789D01*
X202385745Y-95019368D01*
X202385750Y-95019369D01*
X202564996Y-95039565D01*
X202565000Y-95039565D01*
X202565004Y-95039565D01*
X202744249Y-95019369D01*
X202744252Y-95019368D01*
X202744255Y-95019368D01*
X202914522Y-94959789D01*
X203067262Y-94863816D01*
X203194816Y-94736262D01*
X203290789Y-94583522D01*
X203350368Y-94413255D01*
X203350369Y-94413249D01*
X203370565Y-94234003D01*
X203370565Y-94233996D01*
X203350369Y-94054750D01*
X203350368Y-94054745D01*
X203290788Y-93884476D01*
X203194815Y-93731737D01*
X203067262Y-93604184D01*
X202914521Y-93508210D01*
X202782579Y-93462042D01*
X202725802Y-93421320D01*
X202700055Y-93356367D01*
X202713511Y-93287806D01*
X202761898Y-93237403D01*
X202782579Y-93227958D01*
X202821716Y-93214262D01*
X202914522Y-93181789D01*
X203067262Y-93085816D01*
X203194816Y-92958262D01*
X203290789Y-92805522D01*
X203350368Y-92635255D01*
X203350369Y-92635249D01*
X203370565Y-92456003D01*
X203370565Y-92455996D01*
X203357720Y-92341994D01*
X214383754Y-92341994D01*
X214383754Y-92342005D01*
X214402718Y-92643446D01*
X214402719Y-92643453D01*
X214402720Y-92643457D01*
X214433635Y-92805522D01*
X214459320Y-92940164D01*
X214552659Y-93227431D01*
X214552661Y-93227436D01*
X214681265Y-93500732D01*
X214681268Y-93500738D01*
X214843111Y-93755763D01*
X215035652Y-93988505D01*
X215255836Y-94195272D01*
X215255846Y-94195280D01*
X215500193Y-94372808D01*
X215500198Y-94372810D01*
X215500205Y-94372816D01*
X215764896Y-94518332D01*
X215764901Y-94518334D01*
X215764903Y-94518335D01*
X215764904Y-94518336D01*
X216045734Y-94629524D01*
X216045737Y-94629525D01*
X216143259Y-94654564D01*
X216338302Y-94704642D01*
X216485039Y-94723179D01*
X216637963Y-94742499D01*
X216637969Y-94742499D01*
X216637973Y-94742500D01*
X216637975Y-94742500D01*
X216940025Y-94742500D01*
X216940027Y-94742500D01*
X216940032Y-94742499D01*
X216940036Y-94742499D01*
X217019591Y-94732448D01*
X217239698Y-94704642D01*
X217532262Y-94629525D01*
X217532265Y-94629524D01*
X217813095Y-94518336D01*
X217813096Y-94518335D01*
X217813094Y-94518335D01*
X217813104Y-94518332D01*
X218077795Y-94372816D01*
X218322162Y-94195274D01*
X218542349Y-93988504D01*
X218734885Y-93755768D01*
X218896733Y-93500736D01*
X219025341Y-93227430D01*
X219118681Y-92940160D01*
X219175280Y-92643457D01*
X219175796Y-92635254D01*
X219194246Y-92342005D01*
X219194246Y-92341994D01*
X219175281Y-92040553D01*
X219175280Y-92040546D01*
X219175280Y-92040543D01*
X219118681Y-91743840D01*
X219025341Y-91456570D01*
X218896733Y-91183264D01*
X218833650Y-91083861D01*
X218734888Y-90928236D01*
X218734885Y-90928232D01*
X218542349Y-90695496D01*
X218466636Y-90624397D01*
X218322163Y-90488727D01*
X218322153Y-90488719D01*
X218077806Y-90311191D01*
X218077799Y-90311186D01*
X218077795Y-90311184D01*
X217813104Y-90165668D01*
X217813101Y-90165666D01*
X217813096Y-90165664D01*
X217813095Y-90165663D01*
X217532265Y-90054475D01*
X217532262Y-90054474D01*
X217239695Y-89979357D01*
X216940036Y-89941500D01*
X216940027Y-89941500D01*
X216637973Y-89941500D01*
X216637963Y-89941500D01*
X216338304Y-89979357D01*
X216045737Y-90054474D01*
X216045734Y-90054475D01*
X215764904Y-90165663D01*
X215764903Y-90165664D01*
X215500205Y-90311184D01*
X215500193Y-90311191D01*
X215255846Y-90488719D01*
X215255836Y-90488727D01*
X215035652Y-90695494D01*
X214843111Y-90928236D01*
X214681268Y-91183261D01*
X214681265Y-91183267D01*
X214552661Y-91456563D01*
X214552659Y-91456568D01*
X214459320Y-91743835D01*
X214402719Y-92040546D01*
X214402718Y-92040553D01*
X214383754Y-92341994D01*
X203357720Y-92341994D01*
X203350369Y-92276750D01*
X203350368Y-92276745D01*
X203290789Y-92106478D01*
X203194816Y-91953738D01*
X203067262Y-91826184D01*
X202914523Y-91730211D01*
X202744254Y-91670631D01*
X202744249Y-91670630D01*
X202565004Y-91650435D01*
X202564996Y-91650435D01*
X202385750Y-91670630D01*
X202385745Y-91670631D01*
X202215476Y-91730211D01*
X202062737Y-91826184D01*
X201935184Y-91953737D01*
X201839211Y-92106476D01*
X201779631Y-92276745D01*
X201779630Y-92276750D01*
X201759435Y-92455996D01*
X193040000Y-92455996D01*
X193040000Y-91056000D01*
X193059685Y-90988961D01*
X193112489Y-90943206D01*
X193164000Y-90932000D01*
X195834000Y-90932000D01*
X195834000Y-88645996D01*
X204426435Y-88645996D01*
X204426435Y-88646003D01*
X204446630Y-88825249D01*
X204446631Y-88825254D01*
X204506211Y-88995523D01*
X204509363Y-89000539D01*
X204602184Y-89148262D01*
X204729738Y-89275816D01*
X204820080Y-89332582D01*
X204880921Y-89370811D01*
X204882478Y-89371789D01*
X205043188Y-89428024D01*
X205052745Y-89431368D01*
X205052750Y-89431369D01*
X205231996Y-89451565D01*
X205232000Y-89451565D01*
X205232004Y-89451565D01*
X205411249Y-89431369D01*
X205411252Y-89431368D01*
X205411255Y-89431368D01*
X205581522Y-89371789D01*
X205734262Y-89275816D01*
X205861816Y-89148262D01*
X205957789Y-88995522D01*
X206017368Y-88825255D01*
X206037565Y-88646000D01*
X206036678Y-88638132D01*
X206017369Y-88466750D01*
X206017368Y-88466745D01*
X205957788Y-88296476D01*
X205861815Y-88143737D01*
X205734262Y-88016184D01*
X205581523Y-87920211D01*
X205411254Y-87860631D01*
X205411249Y-87860630D01*
X205232004Y-87840435D01*
X205231996Y-87840435D01*
X205052750Y-87860630D01*
X205052745Y-87860631D01*
X204882476Y-87920211D01*
X204729737Y-88016184D01*
X204602184Y-88143737D01*
X204506211Y-88296476D01*
X204446631Y-88466745D01*
X204446630Y-88466750D01*
X204426435Y-88645996D01*
X195834000Y-88645996D01*
X195834000Y-87757000D01*
X192532000Y-87757000D01*
X192532000Y-88138000D01*
X195202000Y-88138000D01*
X195269039Y-88157685D01*
X195314794Y-88210489D01*
X195326000Y-88262000D01*
X195326000Y-90300000D01*
X195306315Y-90367039D01*
X195253511Y-90412794D01*
X195202000Y-90424000D01*
X192532000Y-90424000D01*
X192532000Y-95380000D01*
X192512315Y-95447039D01*
X192459511Y-95492794D01*
X192408000Y-95504000D01*
X184528000Y-95504000D01*
X184460961Y-95484315D01*
X184415206Y-95431511D01*
X184404000Y-95380000D01*
X184404000Y-91711497D01*
X188464723Y-91711497D01*
X188464723Y-91711502D01*
X188483793Y-91929475D01*
X188483793Y-91929479D01*
X188540422Y-92140822D01*
X188540424Y-92140826D01*
X188540425Y-92140830D01*
X188586661Y-92239984D01*
X188632897Y-92339138D01*
X188632898Y-92339139D01*
X188758402Y-92518377D01*
X188913123Y-92673098D01*
X189092361Y-92798602D01*
X189290670Y-92891075D01*
X189502023Y-92947707D01*
X189684926Y-92963708D01*
X189719998Y-92966777D01*
X189720000Y-92966777D01*
X189720002Y-92966777D01*
X189748254Y-92964305D01*
X189937977Y-92947707D01*
X190149330Y-92891075D01*
X190347639Y-92798602D01*
X190526877Y-92673098D01*
X190681598Y-92518377D01*
X190807102Y-92339139D01*
X190899575Y-92140830D01*
X190956207Y-91929477D01*
X190975277Y-91711500D01*
X190956207Y-91493523D01*
X190899575Y-91282170D01*
X190807102Y-91083862D01*
X190807100Y-91083859D01*
X190807099Y-91083857D01*
X190681599Y-90904624D01*
X190681596Y-90904621D01*
X190526877Y-90749902D01*
X190347639Y-90624398D01*
X190347640Y-90624398D01*
X190347638Y-90624397D01*
X190248484Y-90578161D01*
X190149330Y-90531925D01*
X190149326Y-90531924D01*
X190149322Y-90531922D01*
X189937977Y-90475293D01*
X189720002Y-90456223D01*
X189719998Y-90456223D01*
X189574682Y-90468936D01*
X189502023Y-90475293D01*
X189502020Y-90475293D01*
X189290677Y-90531922D01*
X189290668Y-90531926D01*
X189092361Y-90624398D01*
X189092357Y-90624400D01*
X188913121Y-90749902D01*
X188758402Y-90904621D01*
X188632900Y-91083857D01*
X188632898Y-91083861D01*
X188540426Y-91282168D01*
X188540422Y-91282177D01*
X188483793Y-91493520D01*
X188483793Y-91493524D01*
X188464723Y-91711497D01*
X184404000Y-91711497D01*
X184404000Y-86831497D01*
X188464723Y-86831497D01*
X188464723Y-86831502D01*
X188483793Y-87049475D01*
X188483793Y-87049479D01*
X188540422Y-87260822D01*
X188540424Y-87260826D01*
X188540425Y-87260830D01*
X188586661Y-87359984D01*
X188632897Y-87459138D01*
X188632898Y-87459139D01*
X188758402Y-87638377D01*
X188913123Y-87793098D01*
X189092361Y-87918602D01*
X189290670Y-88011075D01*
X189502023Y-88067707D01*
X189684926Y-88083708D01*
X189719998Y-88086777D01*
X189720000Y-88086777D01*
X189720002Y-88086777D01*
X189748254Y-88084305D01*
X189937977Y-88067707D01*
X190149330Y-88011075D01*
X190347639Y-87918602D01*
X190526877Y-87793098D01*
X190681598Y-87638377D01*
X190807102Y-87459139D01*
X190899575Y-87260830D01*
X190956207Y-87049477D01*
X190975277Y-86831500D01*
X190973157Y-86807273D01*
X190971569Y-86789118D01*
X190956207Y-86613523D01*
X190899575Y-86402170D01*
X190807102Y-86203862D01*
X190807100Y-86203859D01*
X190807099Y-86203857D01*
X190681599Y-86024624D01*
X190638471Y-85981496D01*
X190526877Y-85869902D01*
X190349740Y-85745869D01*
X190347638Y-85744397D01*
X190248484Y-85698161D01*
X190149330Y-85651925D01*
X190149326Y-85651924D01*
X190149322Y-85651922D01*
X189937977Y-85595293D01*
X189720002Y-85576223D01*
X189719998Y-85576223D01*
X189574682Y-85588936D01*
X189502023Y-85595293D01*
X189502020Y-85595293D01*
X189290677Y-85651922D01*
X189290668Y-85651926D01*
X189092361Y-85744398D01*
X189092357Y-85744400D01*
X188913121Y-85869902D01*
X188758402Y-86024621D01*
X188632900Y-86203857D01*
X188632898Y-86203861D01*
X188540426Y-86402168D01*
X188540422Y-86402177D01*
X188483793Y-86613520D01*
X188483793Y-86613523D01*
X188482049Y-86633462D01*
X188464723Y-86831497D01*
X184404000Y-86831497D01*
X184404000Y-83436000D01*
X184423685Y-83368961D01*
X184476489Y-83323206D01*
X184528000Y-83312000D01*
X192408000Y-83312000D01*
X192475039Y-83331685D01*
X192520794Y-83384489D01*
X192532000Y-83436000D01*
X192532000Y-86995000D01*
X193040000Y-86995000D01*
X193040000Y-82804000D01*
X183896000Y-82804000D01*
X183896000Y-96012000D01*
X181991500Y-96012000D01*
X181991500Y-82295996D01*
X201607035Y-82295996D01*
X201607035Y-82296003D01*
X201627230Y-82475249D01*
X201627231Y-82475254D01*
X201686811Y-82645523D01*
X201782784Y-82798262D01*
X201910338Y-82925816D01*
X202063078Y-83021789D01*
X202233345Y-83081368D01*
X202233350Y-83081369D01*
X202412596Y-83101565D01*
X202412600Y-83101565D01*
X202412604Y-83101565D01*
X202591849Y-83081369D01*
X202591852Y-83081368D01*
X202591855Y-83081368D01*
X202762122Y-83021789D01*
X202914862Y-82925816D01*
X203042416Y-82798262D01*
X203138389Y-82645522D01*
X203197968Y-82475255D01*
X203212818Y-82343457D01*
X203218165Y-82296003D01*
X203218165Y-82295996D01*
X203197969Y-82116750D01*
X203197968Y-82116745D01*
X203171815Y-82042005D01*
X203138389Y-81946478D01*
X203042416Y-81793738D01*
X202914862Y-81666184D01*
X202762123Y-81570211D01*
X202591854Y-81510631D01*
X202591849Y-81510630D01*
X202412604Y-81490435D01*
X202412596Y-81490435D01*
X202233350Y-81510630D01*
X202233345Y-81510631D01*
X202063076Y-81570211D01*
X201910337Y-81666184D01*
X201782784Y-81793737D01*
X201686811Y-81946476D01*
X201627231Y-82116745D01*
X201627230Y-82116750D01*
X201607035Y-82295996D01*
X181991500Y-82295996D01*
X181991500Y-80360796D01*
X195790435Y-80360796D01*
X195790435Y-80360803D01*
X195810630Y-80540049D01*
X195810631Y-80540054D01*
X195870211Y-80710323D01*
X195955931Y-80846745D01*
X195966184Y-80863062D01*
X196093738Y-80990616D01*
X196246478Y-81086589D01*
X196416745Y-81146168D01*
X196416750Y-81146169D01*
X196595996Y-81166365D01*
X196596000Y-81166365D01*
X196596004Y-81166365D01*
X196775249Y-81146169D01*
X196775252Y-81146168D01*
X196775255Y-81146168D01*
X196945522Y-81086589D01*
X197041955Y-81025996D01*
X204324835Y-81025996D01*
X204324835Y-81026003D01*
X204345030Y-81205249D01*
X204345031Y-81205254D01*
X204404611Y-81375523D01*
X204447535Y-81443835D01*
X204500584Y-81528262D01*
X204628138Y-81655816D01*
X204780878Y-81751789D01*
X204951145Y-81811368D01*
X204951150Y-81811369D01*
X205084923Y-81826441D01*
X205149337Y-81853507D01*
X205188892Y-81911102D01*
X205191030Y-81980939D01*
X205155072Y-82040845D01*
X205109344Y-82064922D01*
X205110118Y-82067132D01*
X204933276Y-82129011D01*
X204780537Y-82224984D01*
X204652984Y-82352537D01*
X204557011Y-82505276D01*
X204497431Y-82675545D01*
X204497430Y-82675550D01*
X204477235Y-82854796D01*
X204477235Y-82854803D01*
X204497430Y-83034049D01*
X204497431Y-83034054D01*
X204557011Y-83204323D01*
X204652984Y-83357062D01*
X204780538Y-83484616D01*
X204933278Y-83580589D01*
X205103545Y-83640168D01*
X205103550Y-83640169D01*
X205282796Y-83660365D01*
X205282800Y-83660365D01*
X205282804Y-83660365D01*
X205462049Y-83640169D01*
X205462052Y-83640168D01*
X205462055Y-83640168D01*
X205632322Y-83580589D01*
X205785062Y-83484616D01*
X205912616Y-83357062D01*
X206008589Y-83204322D01*
X206068168Y-83034055D01*
X206080182Y-82927430D01*
X206088365Y-82854803D01*
X206088365Y-82854796D01*
X206068169Y-82675550D01*
X206068168Y-82675545D01*
X206008588Y-82505276D01*
X205912615Y-82352537D01*
X205785062Y-82224984D01*
X205632323Y-82129011D01*
X205462054Y-82069431D01*
X205462050Y-82069430D01*
X205328275Y-82054358D01*
X205298851Y-82041994D01*
X214383754Y-82041994D01*
X214383754Y-82042005D01*
X214402718Y-82343446D01*
X214402719Y-82343453D01*
X214459320Y-82640164D01*
X214552659Y-82927431D01*
X214552661Y-82927436D01*
X214681265Y-83200732D01*
X214681268Y-83200738D01*
X214843111Y-83455763D01*
X214843114Y-83455767D01*
X214843115Y-83455768D01*
X215012372Y-83660365D01*
X215035652Y-83688505D01*
X215229099Y-83870164D01*
X215264494Y-83930405D01*
X215261701Y-84000219D01*
X215221607Y-84057440D01*
X215210192Y-84065547D01*
X215194538Y-84075383D01*
X215066984Y-84202937D01*
X214971011Y-84355676D01*
X214911431Y-84525945D01*
X214911430Y-84525950D01*
X214891235Y-84705196D01*
X214891235Y-84705203D01*
X214911430Y-84884449D01*
X214911431Y-84884454D01*
X214971011Y-85054723D01*
X215066984Y-85207462D01*
X215194538Y-85335016D01*
X215347278Y-85430989D01*
X215493205Y-85482051D01*
X215517545Y-85490568D01*
X215517550Y-85490569D01*
X215696796Y-85510765D01*
X215703764Y-85510765D01*
X215703764Y-85512988D01*
X215762125Y-85523195D01*
X215813518Y-85570530D01*
X215831160Y-85638135D01*
X215825878Y-85670370D01*
X215802975Y-85745869D01*
X215783659Y-85942000D01*
X215802975Y-86138129D01*
X215860188Y-86326733D01*
X215955961Y-86505911D01*
X215954205Y-86506849D01*
X215972344Y-86564797D01*
X215955101Y-86627629D01*
X215955961Y-86628089D01*
X215953935Y-86631877D01*
X215953854Y-86632176D01*
X215953393Y-86632892D01*
X215860188Y-86807266D01*
X215802975Y-86995870D01*
X215783659Y-87192000D01*
X215802975Y-87388129D01*
X215860188Y-87576733D01*
X215955961Y-87755911D01*
X215954205Y-87756849D01*
X215972344Y-87814797D01*
X215955101Y-87877629D01*
X215955961Y-87878089D01*
X215953935Y-87881877D01*
X215953854Y-87882176D01*
X215953393Y-87882892D01*
X215860188Y-88057266D01*
X215802975Y-88245870D01*
X215783659Y-88442000D01*
X215802975Y-88638129D01*
X215805363Y-88646000D01*
X215859739Y-88825255D01*
X215860188Y-88826733D01*
X215953086Y-89000532D01*
X215953090Y-89000539D01*
X216078116Y-89152883D01*
X216230460Y-89277909D01*
X216230467Y-89277913D01*
X216404266Y-89370811D01*
X216404269Y-89370811D01*
X216404273Y-89370814D01*
X216592868Y-89428024D01*
X216789000Y-89447341D01*
X216985132Y-89428024D01*
X217173727Y-89370814D01*
X217347538Y-89277910D01*
X217347540Y-89277908D01*
X217352910Y-89275038D01*
X217353851Y-89276799D01*
X217411765Y-89258654D01*
X217474634Y-89275889D01*
X217475090Y-89275038D01*
X217478840Y-89277042D01*
X217479148Y-89277127D01*
X217479888Y-89277602D01*
X217480457Y-89277906D01*
X217480462Y-89277910D01*
X217654273Y-89370814D01*
X217842868Y-89428024D01*
X218039000Y-89447341D01*
X218235132Y-89428024D01*
X218423727Y-89370814D01*
X218597538Y-89277910D01*
X218749883Y-89152883D01*
X218874910Y-89000538D01*
X218967814Y-88826727D01*
X219025024Y-88638132D01*
X219044341Y-88442000D01*
X219025024Y-88245868D01*
X218967814Y-88057273D01*
X218874910Y-87883462D01*
X218874908Y-87883459D01*
X218872038Y-87878090D01*
X218873799Y-87877148D01*
X218855654Y-87819235D01*
X218872889Y-87756365D01*
X218872038Y-87755910D01*
X218874042Y-87752159D01*
X218874127Y-87751852D01*
X218874602Y-87751111D01*
X218874905Y-87750544D01*
X218874910Y-87750538D01*
X218967814Y-87576727D01*
X219025024Y-87388132D01*
X219044341Y-87192000D01*
X219025024Y-86995868D01*
X218967814Y-86807273D01*
X218967811Y-86807269D01*
X218967811Y-86807266D01*
X218872039Y-86628089D01*
X218873661Y-86627221D01*
X218855353Y-86568780D01*
X218872533Y-86506119D01*
X218871622Y-86505632D01*
X218873767Y-86501618D01*
X218873828Y-86501397D01*
X218874170Y-86500863D01*
X218967348Y-86326539D01*
X219024531Y-86138032D01*
X219043838Y-85942000D01*
X219024531Y-85745967D01*
X218967348Y-85557462D01*
X218901075Y-85433476D01*
X218333855Y-86000696D01*
X218339000Y-85981496D01*
X218339000Y-85902504D01*
X218318556Y-85826204D01*
X218279060Y-85757795D01*
X218223205Y-85701940D01*
X218154796Y-85662444D01*
X218078496Y-85642000D01*
X217999504Y-85642000D01*
X217980300Y-85647145D01*
X218547523Y-85079922D01*
X218423539Y-85013651D01*
X218235030Y-84956468D01*
X218235034Y-84956468D01*
X218039000Y-84937161D01*
X217842967Y-84956468D01*
X217654460Y-85013651D01*
X217475369Y-85109378D01*
X217474402Y-85107570D01*
X217416652Y-85125646D01*
X217353288Y-85108255D01*
X217352911Y-85108961D01*
X217349800Y-85107298D01*
X217349274Y-85107154D01*
X217348006Y-85106339D01*
X217173733Y-85013188D01*
X217173727Y-85013186D01*
X216985132Y-84955976D01*
X216985129Y-84955975D01*
X216789000Y-84936659D01*
X216788999Y-84936659D01*
X216625311Y-84952780D01*
X216556665Y-84939761D01*
X216505955Y-84891696D01*
X216489281Y-84823845D01*
X216489938Y-84815493D01*
X216502365Y-84705202D01*
X216502365Y-84705196D01*
X216488033Y-84577993D01*
X216500088Y-84509171D01*
X216547437Y-84457792D01*
X216615047Y-84440168D01*
X216626794Y-84441087D01*
X216637973Y-84442500D01*
X216637975Y-84442500D01*
X216940025Y-84442500D01*
X216940027Y-84442500D01*
X216940032Y-84442499D01*
X216940036Y-84442499D01*
X217019591Y-84432448D01*
X217239698Y-84404642D01*
X217532262Y-84329525D01*
X217532265Y-84329524D01*
X217813095Y-84218336D01*
X217813096Y-84218335D01*
X217813094Y-84218335D01*
X217813104Y-84218332D01*
X218077795Y-84072816D01*
X218322162Y-83895274D01*
X218542349Y-83688504D01*
X218734885Y-83455768D01*
X218896733Y-83200736D01*
X219025341Y-82927430D01*
X219118681Y-82640160D01*
X219175280Y-82343457D01*
X219189543Y-82116750D01*
X219194246Y-82042005D01*
X219194246Y-82041994D01*
X219175281Y-81740553D01*
X219175280Y-81740546D01*
X219175280Y-81740543D01*
X219118681Y-81443840D01*
X219025341Y-81156570D01*
X218992410Y-81086589D01*
X218947249Y-80990616D01*
X218896733Y-80883264D01*
X218868828Y-80839293D01*
X218734888Y-80628236D01*
X218679733Y-80561565D01*
X218542349Y-80395496D01*
X218322162Y-80188726D01*
X218322159Y-80188724D01*
X218322153Y-80188719D01*
X218077806Y-80011191D01*
X218077799Y-80011186D01*
X218077795Y-80011184D01*
X217813104Y-79865668D01*
X217813101Y-79865666D01*
X217813096Y-79865664D01*
X217813095Y-79865663D01*
X217532265Y-79754475D01*
X217532262Y-79754474D01*
X217239695Y-79679357D01*
X216940036Y-79641500D01*
X216940027Y-79641500D01*
X216637973Y-79641500D01*
X216637963Y-79641500D01*
X216338304Y-79679357D01*
X216045737Y-79754474D01*
X216045734Y-79754475D01*
X215764904Y-79865663D01*
X215764903Y-79865664D01*
X215500205Y-80011184D01*
X215500193Y-80011191D01*
X215255846Y-80188719D01*
X215255836Y-80188727D01*
X215035652Y-80395494D01*
X214843111Y-80628236D01*
X214681268Y-80883261D01*
X214681265Y-80883267D01*
X214552661Y-81156563D01*
X214552659Y-81156568D01*
X214459320Y-81443835D01*
X214402719Y-81740546D01*
X214402718Y-81740553D01*
X214383754Y-82041994D01*
X205298851Y-82041994D01*
X205263861Y-82027291D01*
X205224306Y-81969697D01*
X205222169Y-81899860D01*
X205258127Y-81839953D01*
X205303860Y-81815891D01*
X205303082Y-81813668D01*
X205309655Y-81811368D01*
X205479922Y-81751789D01*
X205632662Y-81655816D01*
X205760216Y-81528262D01*
X205856189Y-81375522D01*
X205915768Y-81205255D01*
X205920150Y-81166365D01*
X205935965Y-81026003D01*
X205935965Y-81025996D01*
X205915769Y-80846750D01*
X205915768Y-80846745D01*
X205868032Y-80710323D01*
X205856189Y-80676478D01*
X205760216Y-80523738D01*
X205632662Y-80396184D01*
X205631564Y-80395494D01*
X205479923Y-80300211D01*
X205309654Y-80240631D01*
X205309649Y-80240630D01*
X205130404Y-80220435D01*
X205130396Y-80220435D01*
X204951150Y-80240630D01*
X204951145Y-80240631D01*
X204780876Y-80300211D01*
X204628137Y-80396184D01*
X204500584Y-80523737D01*
X204404611Y-80676476D01*
X204345031Y-80846745D01*
X204345030Y-80846750D01*
X204324835Y-81025996D01*
X197041955Y-81025996D01*
X197098262Y-80990616D01*
X197225816Y-80863062D01*
X197321789Y-80710322D01*
X197381368Y-80540055D01*
X197381369Y-80540049D01*
X197401565Y-80360803D01*
X197401565Y-80360796D01*
X197381369Y-80181550D01*
X197381368Y-80181545D01*
X197321788Y-80011276D01*
X197282582Y-79948880D01*
X197225816Y-79858538D01*
X197098262Y-79730984D01*
X197016100Y-79679358D01*
X196945523Y-79635011D01*
X196775254Y-79575431D01*
X196775249Y-79575430D01*
X196596004Y-79555235D01*
X196595996Y-79555235D01*
X196416750Y-79575430D01*
X196416745Y-79575431D01*
X196246476Y-79635011D01*
X196093737Y-79730984D01*
X195966184Y-79858537D01*
X195870211Y-80011276D01*
X195810631Y-80181545D01*
X195810630Y-80181550D01*
X195790435Y-80360796D01*
X181991500Y-80360796D01*
X181991500Y-77724000D01*
X182247644Y-77724000D01*
X182267013Y-77908286D01*
X182267014Y-77908288D01*
X182324274Y-78084514D01*
X182397343Y-78211074D01*
X182416923Y-78244987D01*
X182460112Y-78292954D01*
X182540906Y-78382686D01*
X182540909Y-78382688D01*
X182540912Y-78382691D01*
X182683099Y-78485996D01*
X182690822Y-78491607D01*
X182860095Y-78566973D01*
X182860098Y-78566973D01*
X182860101Y-78566975D01*
X183041351Y-78605500D01*
X183226649Y-78605500D01*
X183407899Y-78566975D01*
X183407902Y-78566973D01*
X183407904Y-78566973D01*
X183464922Y-78541586D01*
X183577178Y-78491607D01*
X183584901Y-78485996D01*
X192107435Y-78485996D01*
X192107435Y-78486003D01*
X192127630Y-78665249D01*
X192127631Y-78665254D01*
X192187211Y-78835523D01*
X192283184Y-78988262D01*
X192410738Y-79115816D01*
X192501080Y-79172582D01*
X192558531Y-79208681D01*
X192563478Y-79211789D01*
X192733745Y-79271368D01*
X192733750Y-79271369D01*
X192912996Y-79291565D01*
X192913000Y-79291565D01*
X192913004Y-79291565D01*
X193092249Y-79271369D01*
X193092252Y-79271368D01*
X193092255Y-79271368D01*
X193262522Y-79211789D01*
X193415262Y-79115816D01*
X193542816Y-78988262D01*
X193638789Y-78835522D01*
X193698368Y-78665255D01*
X193705101Y-78605499D01*
X193718565Y-78486003D01*
X193718565Y-78485996D01*
X201632435Y-78485996D01*
X201632435Y-78486003D01*
X201652630Y-78665249D01*
X201652631Y-78665254D01*
X201712211Y-78835523D01*
X201808184Y-78988262D01*
X201808185Y-78988263D01*
X201853241Y-79033320D01*
X201886725Y-79094643D01*
X201881740Y-79164335D01*
X201853241Y-79208680D01*
X201808184Y-79253737D01*
X201712211Y-79406476D01*
X201652631Y-79576745D01*
X201652630Y-79576750D01*
X201632435Y-79755996D01*
X201632435Y-79756003D01*
X201652630Y-79935249D01*
X201652631Y-79935254D01*
X201712211Y-80105523D01*
X201764492Y-80188727D01*
X201808184Y-80258262D01*
X201935738Y-80385816D01*
X202088478Y-80481789D01*
X202254976Y-80540049D01*
X202258745Y-80541368D01*
X202258750Y-80541369D01*
X202437996Y-80561565D01*
X202438000Y-80561565D01*
X202438004Y-80561565D01*
X202617249Y-80541369D01*
X202617252Y-80541368D01*
X202617255Y-80541368D01*
X202787522Y-80481789D01*
X202940262Y-80385816D01*
X203067816Y-80258262D01*
X203163789Y-80105522D01*
X203223368Y-79935255D01*
X203223369Y-79935249D01*
X203243565Y-79756003D01*
X203243565Y-79755996D01*
X203223369Y-79576750D01*
X203223368Y-79576745D01*
X203163788Y-79406476D01*
X203078894Y-79271369D01*
X203067816Y-79253738D01*
X203022758Y-79208680D01*
X202989274Y-79147358D01*
X202994258Y-79077666D01*
X203022759Y-79033319D01*
X203067816Y-78988262D01*
X203163789Y-78835522D01*
X203223368Y-78665255D01*
X203230101Y-78605499D01*
X203243565Y-78486003D01*
X203243565Y-78485996D01*
X203223369Y-78306750D01*
X203223368Y-78306745D01*
X203163788Y-78136476D01*
X203067815Y-77983737D01*
X202940262Y-77856184D01*
X202787523Y-77760211D01*
X202617254Y-77700631D01*
X202617249Y-77700630D01*
X202438004Y-77680435D01*
X202437996Y-77680435D01*
X202258750Y-77700630D01*
X202258745Y-77700631D01*
X202088476Y-77760211D01*
X201935737Y-77856184D01*
X201808184Y-77983737D01*
X201712211Y-78136476D01*
X201652631Y-78306745D01*
X201652630Y-78306750D01*
X201632435Y-78485996D01*
X193718565Y-78485996D01*
X193698369Y-78306750D01*
X193698368Y-78306745D01*
X193638788Y-78136476D01*
X193542815Y-77983737D01*
X193415262Y-77856184D01*
X193262523Y-77760211D01*
X193092254Y-77700631D01*
X193092249Y-77700630D01*
X192913004Y-77680435D01*
X192912996Y-77680435D01*
X192733750Y-77700630D01*
X192733745Y-77700631D01*
X192563476Y-77760211D01*
X192410737Y-77856184D01*
X192283184Y-77983737D01*
X192187211Y-78136476D01*
X192127631Y-78306745D01*
X192127630Y-78306750D01*
X192107435Y-78485996D01*
X183584901Y-78485996D01*
X183727088Y-78382691D01*
X183851077Y-78244987D01*
X183943726Y-78084513D01*
X184000987Y-77908284D01*
X184020356Y-77724000D01*
X184000987Y-77539716D01*
X183943726Y-77363487D01*
X183851077Y-77203013D01*
X183802514Y-77149078D01*
X183727093Y-77065313D01*
X183727090Y-77065311D01*
X183727089Y-77065310D01*
X183727088Y-77065309D01*
X183627148Y-76992698D01*
X183577177Y-76956392D01*
X183407904Y-76881026D01*
X183407896Y-76881024D01*
X183226649Y-76842500D01*
X183041351Y-76842500D01*
X182860103Y-76881024D01*
X182860095Y-76881026D01*
X182690822Y-76956392D01*
X182540909Y-77065311D01*
X182540906Y-77065313D01*
X182416922Y-77203014D01*
X182324274Y-77363485D01*
X182267014Y-77539711D01*
X182267013Y-77539713D01*
X182247644Y-77724000D01*
X181991500Y-77724000D01*
X181991500Y-74168000D01*
X182247644Y-74168000D01*
X182267013Y-74352286D01*
X182267014Y-74352288D01*
X182324274Y-74528514D01*
X182339095Y-74554184D01*
X182416923Y-74688987D01*
X182460112Y-74736954D01*
X182540906Y-74826686D01*
X182540909Y-74826688D01*
X182540912Y-74826691D01*
X182690822Y-74935607D01*
X182860095Y-75010973D01*
X182860098Y-75010973D01*
X182860101Y-75010975D01*
X183041351Y-75049500D01*
X183226649Y-75049500D01*
X183407899Y-75010975D01*
X183407902Y-75010973D01*
X183407904Y-75010973D01*
X183464922Y-74985586D01*
X183577178Y-74935607D01*
X183727088Y-74826691D01*
X183851077Y-74688987D01*
X183943726Y-74528513D01*
X184000987Y-74352284D01*
X184020356Y-74168000D01*
X184000987Y-73983716D01*
X183943726Y-73807487D01*
X183851077Y-73647013D01*
X183802514Y-73593078D01*
X183727093Y-73509313D01*
X183727090Y-73509311D01*
X183727089Y-73509310D01*
X183727088Y-73509309D01*
X183577178Y-73400393D01*
X183577177Y-73400392D01*
X183407904Y-73325026D01*
X183407896Y-73325024D01*
X183226649Y-73286500D01*
X183041351Y-73286500D01*
X182860103Y-73325024D01*
X182860095Y-73325026D01*
X182690822Y-73400392D01*
X182540909Y-73509311D01*
X182540906Y-73509313D01*
X182416922Y-73647014D01*
X182324274Y-73807485D01*
X182267014Y-73983711D01*
X182267013Y-73983713D01*
X182247644Y-74168000D01*
X181991500Y-74168000D01*
X181991500Y-70612000D01*
X182247644Y-70612000D01*
X182267013Y-70796286D01*
X182267014Y-70796288D01*
X182324274Y-70972514D01*
X182397343Y-71099074D01*
X182416923Y-71132987D01*
X182460112Y-71180954D01*
X182540906Y-71270686D01*
X182540909Y-71270688D01*
X182540912Y-71270691D01*
X182690822Y-71379607D01*
X182860095Y-71454973D01*
X182860098Y-71454973D01*
X182860101Y-71454975D01*
X183041351Y-71493500D01*
X183226649Y-71493500D01*
X183407899Y-71454975D01*
X183407902Y-71454973D01*
X183407904Y-71454973D01*
X183464922Y-71429586D01*
X183577178Y-71379607D01*
X183727088Y-71270691D01*
X183851077Y-71132987D01*
X183943726Y-70972513D01*
X184000987Y-70796284D01*
X184020356Y-70612000D01*
X184000987Y-70427716D01*
X183943726Y-70251487D01*
X183851077Y-70091013D01*
X183802514Y-70037078D01*
X183727093Y-69953313D01*
X183727090Y-69953311D01*
X183727089Y-69953310D01*
X183727088Y-69953309D01*
X183577178Y-69844393D01*
X183577177Y-69844392D01*
X183407904Y-69769026D01*
X183407896Y-69769024D01*
X183226649Y-69730500D01*
X183041351Y-69730500D01*
X182860103Y-69769024D01*
X182860095Y-69769026D01*
X182690822Y-69844392D01*
X182540909Y-69953311D01*
X182540906Y-69953313D01*
X182416922Y-70091014D01*
X182324274Y-70251485D01*
X182267014Y-70427711D01*
X182267013Y-70427713D01*
X182247644Y-70612000D01*
X181991500Y-70612000D01*
X181991500Y-68071996D01*
X186138435Y-68071996D01*
X186138435Y-68072003D01*
X186158630Y-68251249D01*
X186158631Y-68251254D01*
X186218211Y-68421523D01*
X186314184Y-68574262D01*
X186441738Y-68701816D01*
X186594478Y-68797789D01*
X186764745Y-68857368D01*
X186764750Y-68857369D01*
X186943996Y-68877565D01*
X186944000Y-68877565D01*
X186944004Y-68877565D01*
X187123249Y-68857369D01*
X187123252Y-68857368D01*
X187123255Y-68857368D01*
X187293522Y-68797789D01*
X187446262Y-68701816D01*
X187573816Y-68574262D01*
X187669789Y-68421522D01*
X187729368Y-68251255D01*
X187749565Y-68072000D01*
X187729368Y-67892745D01*
X187669789Y-67722478D01*
X187573816Y-67569738D01*
X187446262Y-67442184D01*
X187293523Y-67346211D01*
X187123254Y-67286631D01*
X187123249Y-67286630D01*
X186944004Y-67266435D01*
X186943996Y-67266435D01*
X186764750Y-67286630D01*
X186764745Y-67286631D01*
X186594476Y-67346211D01*
X186441737Y-67442184D01*
X186314184Y-67569737D01*
X186218211Y-67722476D01*
X186158631Y-67892745D01*
X186158630Y-67892750D01*
X186138435Y-68071996D01*
X181991500Y-68071996D01*
X181991500Y-66564000D01*
X182517644Y-66564000D01*
X182537013Y-66748286D01*
X182537014Y-66748288D01*
X182594274Y-66924514D01*
X182667343Y-67051074D01*
X182686923Y-67084987D01*
X182730112Y-67132954D01*
X182810906Y-67222686D01*
X182810909Y-67222688D01*
X182810912Y-67222691D01*
X182960822Y-67331607D01*
X183130095Y-67406973D01*
X183130098Y-67406973D01*
X183130101Y-67406975D01*
X183311351Y-67445500D01*
X183496649Y-67445500D01*
X183677899Y-67406975D01*
X183677902Y-67406973D01*
X183677904Y-67406973D01*
X183734922Y-67381586D01*
X183847178Y-67331607D01*
X183997088Y-67222691D01*
X184121077Y-67084987D01*
X184213726Y-66924513D01*
X184270987Y-66748284D01*
X184290356Y-66564000D01*
X184270987Y-66379716D01*
X184213726Y-66203487D01*
X184121077Y-66043013D01*
X184072514Y-65989078D01*
X183997093Y-65905313D01*
X183997090Y-65905311D01*
X183997089Y-65905310D01*
X183997088Y-65905309D01*
X183847178Y-65796393D01*
X183847177Y-65796392D01*
X183677904Y-65721026D01*
X183677896Y-65721024D01*
X183496649Y-65682500D01*
X183311351Y-65682500D01*
X183130103Y-65721024D01*
X183130095Y-65721026D01*
X182960822Y-65796392D01*
X182810909Y-65905311D01*
X182810906Y-65905313D01*
X182686922Y-66043014D01*
X182594274Y-66203485D01*
X182537014Y-66379711D01*
X182537013Y-66379713D01*
X182517644Y-66564000D01*
X181991500Y-66564000D01*
X181991500Y-59316913D01*
X182011185Y-59249874D01*
X182063989Y-59204119D01*
X182133147Y-59194175D01*
X182196703Y-59223200D01*
X182234477Y-59281978D01*
X182234980Y-59283740D01*
X182288147Y-59475232D01*
X182288149Y-59475239D01*
X182420597Y-59807659D01*
X182420606Y-59807677D01*
X182588218Y-60123827D01*
X182789033Y-60420007D01*
X182916441Y-60570003D01*
X182916442Y-60570004D01*
X184125748Y-59360698D01*
X184199588Y-59462330D01*
X184377670Y-59640412D01*
X184479300Y-59714251D01*
X183267255Y-60926295D01*
X183267256Y-60926296D01*
X183280485Y-60938828D01*
X183280486Y-60938829D01*
X183565367Y-61155388D01*
X183565370Y-61155390D01*
X183871990Y-61339876D01*
X184196739Y-61490122D01*
X184196744Y-61490123D01*
X184535855Y-61604383D01*
X184885339Y-61681311D01*
X185241075Y-61719999D01*
X185241085Y-61720000D01*
X185598915Y-61720000D01*
X185598924Y-61719999D01*
X185954660Y-61681311D01*
X186304144Y-61604383D01*
X186643255Y-61490123D01*
X186643260Y-61490122D01*
X186968009Y-61339876D01*
X187274629Y-61155390D01*
X187274632Y-61155388D01*
X187559504Y-60938836D01*
X187572742Y-60926294D01*
X186360698Y-59714251D01*
X186462330Y-59640412D01*
X186640412Y-59462330D01*
X186714251Y-59360698D01*
X187923556Y-60570003D01*
X188050964Y-60420008D01*
X188050975Y-60419994D01*
X188251781Y-60123827D01*
X188419393Y-59807677D01*
X188419402Y-59807659D01*
X188551850Y-59475239D01*
X188551852Y-59475232D01*
X188647578Y-59130457D01*
X188647584Y-59130431D01*
X188705472Y-58777331D01*
X188705473Y-58777314D01*
X188724847Y-58420002D01*
X188724847Y-58419997D01*
X188705473Y-58062685D01*
X188705472Y-58062668D01*
X188647584Y-57709568D01*
X188647578Y-57709542D01*
X188551852Y-57364767D01*
X188551850Y-57364760D01*
X188419402Y-57032340D01*
X188419393Y-57032322D01*
X188251781Y-56716172D01*
X188050966Y-56419992D01*
X187923557Y-56269995D01*
X187923556Y-56269994D01*
X186714250Y-57479300D01*
X186640412Y-57377670D01*
X186462330Y-57199588D01*
X186360697Y-57125747D01*
X187572743Y-55913703D01*
X187572742Y-55913702D01*
X187559514Y-55901171D01*
X187559513Y-55901170D01*
X187274632Y-55684611D01*
X187274629Y-55684609D01*
X186968009Y-55500123D01*
X186643260Y-55349877D01*
X186643255Y-55349876D01*
X186304144Y-55235616D01*
X185954660Y-55158688D01*
X185598924Y-55120000D01*
X185241075Y-55120000D01*
X184885339Y-55158688D01*
X184535855Y-55235616D01*
X184196744Y-55349876D01*
X184196739Y-55349877D01*
X183871990Y-55500123D01*
X183565370Y-55684609D01*
X183565367Y-55684611D01*
X183280491Y-55901166D01*
X183267256Y-55913703D01*
X183267255Y-55913703D01*
X184479301Y-57125748D01*
X184377670Y-57199588D01*
X184199588Y-57377670D01*
X184125748Y-57479301D01*
X182916442Y-56269994D01*
X182916441Y-56269995D01*
X182789040Y-56419983D01*
X182789033Y-56419993D01*
X182588218Y-56716172D01*
X182420606Y-57032322D01*
X182420597Y-57032340D01*
X182288149Y-57364760D01*
X182288148Y-57364763D01*
X182258386Y-57471957D01*
X182221484Y-57531287D01*
X182158364Y-57561247D01*
X182089066Y-57552326D01*
X182035592Y-57507356D01*
X182014920Y-57440614D01*
X182016657Y-57418019D01*
X182063556Y-57141994D01*
X182066650Y-57128439D01*
X182153462Y-56827108D01*
X182158055Y-56813984D01*
X182198570Y-56716172D01*
X182278057Y-56524269D01*
X182284079Y-56511763D01*
X182435776Y-56237289D01*
X182443171Y-56225521D01*
X182624643Y-55969759D01*
X182633294Y-55958912D01*
X182842256Y-55725085D01*
X182852087Y-55715255D01*
X183085912Y-55506294D01*
X183096759Y-55497643D01*
X183352526Y-55316167D01*
X183364289Y-55308776D01*
X183638763Y-55157079D01*
X183651269Y-55151057D01*
X183940984Y-55031055D01*
X183954104Y-55026463D01*
X184255440Y-54939649D01*
X184268996Y-54936556D01*
X184578154Y-54884027D01*
X184591949Y-54882473D01*
X184871843Y-54866755D01*
X184908529Y-54864695D01*
X184915481Y-54864500D01*
X184956875Y-54864500D01*
X190378500Y-54864500D01*
X190445539Y-54884185D01*
G37*
G04 #@! TD.AperFunction*
G04 #@! TA.AperFunction,Conductor*
G36*
X220262404Y-54864694D02*
G01*
X220578975Y-54882476D01*
X220592781Y-54884032D01*
X220901942Y-54936563D01*
X220915493Y-54939657D01*
X221216811Y-55026468D01*
X221229928Y-55031057D01*
X221460866Y-55126718D01*
X221519650Y-55151068D01*
X221532178Y-55157102D01*
X221683719Y-55240857D01*
X221806621Y-55308783D01*
X221818393Y-55316180D01*
X222048039Y-55479125D01*
X222074136Y-55497642D01*
X222085007Y-55506312D01*
X222318823Y-55715265D01*
X222328656Y-55725098D01*
X222537607Y-55958917D01*
X222546277Y-55969788D01*
X222727734Y-56225530D01*
X222735132Y-56237304D01*
X222886817Y-56511760D01*
X222892850Y-56524289D01*
X223012847Y-56813990D01*
X223017440Y-56827114D01*
X223041006Y-56908913D01*
X223040649Y-56978782D01*
X223002576Y-57037367D01*
X222938873Y-57066067D01*
X222869766Y-57055771D01*
X222817196Y-57009748D01*
X222812296Y-57001323D01*
X222795779Y-56970168D01*
X222594966Y-56673992D01*
X222467557Y-56523995D01*
X222467556Y-56523994D01*
X221258250Y-57733299D01*
X221184412Y-57631670D01*
X221006330Y-57453588D01*
X220904697Y-57379747D01*
X222116743Y-56167703D01*
X222116742Y-56167702D01*
X222103514Y-56155171D01*
X222103513Y-56155170D01*
X221818632Y-55938611D01*
X221818629Y-55938609D01*
X221512009Y-55754123D01*
X221187260Y-55603877D01*
X221187255Y-55603876D01*
X220848144Y-55489616D01*
X220498660Y-55412688D01*
X220142924Y-55374000D01*
X219785075Y-55374000D01*
X219429339Y-55412688D01*
X219079855Y-55489616D01*
X218740744Y-55603876D01*
X218740739Y-55603877D01*
X218415990Y-55754123D01*
X218109370Y-55938609D01*
X218109367Y-55938611D01*
X217824491Y-56155166D01*
X217811256Y-56167703D01*
X217811255Y-56167703D01*
X219023301Y-57379748D01*
X218921670Y-57453588D01*
X218743588Y-57631670D01*
X218669748Y-57733301D01*
X217460442Y-56523994D01*
X217460441Y-56523995D01*
X217333040Y-56673983D01*
X217333033Y-56673993D01*
X217132218Y-56970172D01*
X216964606Y-57286322D01*
X216964597Y-57286340D01*
X216832149Y-57618760D01*
X216832147Y-57618767D01*
X216736421Y-57963542D01*
X216736415Y-57963568D01*
X216678527Y-58316668D01*
X216678526Y-58316685D01*
X216659153Y-58673997D01*
X216659153Y-58674002D01*
X216678526Y-59031314D01*
X216678527Y-59031331D01*
X216736415Y-59384431D01*
X216736421Y-59384457D01*
X216832147Y-59729232D01*
X216832149Y-59729239D01*
X216964597Y-60061659D01*
X216964606Y-60061677D01*
X217132218Y-60377827D01*
X217333033Y-60674007D01*
X217460441Y-60824003D01*
X217460442Y-60824004D01*
X218669748Y-59614698D01*
X218743588Y-59716330D01*
X218921670Y-59894412D01*
X219023300Y-59968251D01*
X217811255Y-61180295D01*
X217811256Y-61180296D01*
X217824485Y-61192828D01*
X217824486Y-61192829D01*
X218109367Y-61409388D01*
X218109370Y-61409390D01*
X218415990Y-61593876D01*
X218740749Y-61744126D01*
X218804901Y-61765741D01*
X218862146Y-61805800D01*
X218888646Y-61870449D01*
X218875988Y-61939162D01*
X218852992Y-61970930D01*
X218826183Y-61997739D01*
X218730211Y-62150476D01*
X218670631Y-62320745D01*
X218670630Y-62320750D01*
X218650435Y-62499996D01*
X218650435Y-62500003D01*
X218670630Y-62679249D01*
X218670631Y-62679254D01*
X218730211Y-62849523D01*
X218826184Y-63002262D01*
X218953738Y-63129816D01*
X219044080Y-63186582D01*
X219101453Y-63222632D01*
X219106478Y-63225789D01*
X219267723Y-63282211D01*
X219276745Y-63285368D01*
X219276750Y-63285369D01*
X219455996Y-63305565D01*
X219456000Y-63305565D01*
X219456004Y-63305565D01*
X219635249Y-63285369D01*
X219635252Y-63285368D01*
X219635255Y-63285368D01*
X219805522Y-63225789D01*
X219958262Y-63129816D01*
X220085816Y-63002262D01*
X220181789Y-62849522D01*
X220241368Y-62679255D01*
X220261565Y-62500000D01*
X220241368Y-62320745D01*
X220181789Y-62150478D01*
X220180956Y-62149153D01*
X220180679Y-62148171D01*
X220178769Y-62144205D01*
X220179463Y-62143870D01*
X220161953Y-62081919D01*
X220182317Y-62015082D01*
X220235582Y-61969865D01*
X220272541Y-61959903D01*
X220498661Y-61935311D01*
X220848144Y-61858383D01*
X221187255Y-61744123D01*
X221187260Y-61744122D01*
X221512009Y-61593876D01*
X221818629Y-61409390D01*
X221818632Y-61409388D01*
X222103504Y-61192836D01*
X222116742Y-61180294D01*
X220904698Y-59968251D01*
X221006330Y-59894412D01*
X221184412Y-59716330D01*
X221258251Y-59614698D01*
X222467556Y-60824003D01*
X222594964Y-60674008D01*
X222594975Y-60673994D01*
X222795777Y-60377834D01*
X222945880Y-60094710D01*
X222994674Y-60044701D01*
X223062759Y-60029009D01*
X223128519Y-60052619D01*
X223171076Y-60108032D01*
X223179436Y-60152793D01*
X223179436Y-63770635D01*
X223159751Y-63837674D01*
X223106947Y-63883429D01*
X223037789Y-63893373D01*
X222989464Y-63875629D01*
X222853523Y-63790211D01*
X222683254Y-63730631D01*
X222683249Y-63730630D01*
X222504004Y-63710435D01*
X222503996Y-63710435D01*
X222324750Y-63730630D01*
X222324745Y-63730631D01*
X222154476Y-63790211D01*
X222001737Y-63886184D01*
X221874184Y-64013737D01*
X221778211Y-64166476D01*
X221718631Y-64336745D01*
X221718630Y-64336750D01*
X221698435Y-64515996D01*
X221698435Y-64516003D01*
X221718630Y-64695249D01*
X221718631Y-64695254D01*
X221778211Y-64865523D01*
X221825749Y-64941178D01*
X221874184Y-65018262D01*
X222001738Y-65145816D01*
X222154478Y-65241789D01*
X222294246Y-65290696D01*
X222324745Y-65301368D01*
X222324750Y-65301369D01*
X222503996Y-65321565D01*
X222504000Y-65321565D01*
X222504004Y-65321565D01*
X222683249Y-65301369D01*
X222683252Y-65301368D01*
X222683255Y-65301368D01*
X222853522Y-65241789D01*
X222989464Y-65156370D01*
X223056700Y-65137370D01*
X223123535Y-65157737D01*
X223168750Y-65211005D01*
X223179436Y-65261364D01*
X223179436Y-65802635D01*
X223159751Y-65869674D01*
X223106947Y-65915429D01*
X223037789Y-65925373D01*
X222989464Y-65907629D01*
X222853523Y-65822211D01*
X222683254Y-65762631D01*
X222683249Y-65762630D01*
X222504004Y-65742435D01*
X222503996Y-65742435D01*
X222324750Y-65762630D01*
X222324745Y-65762631D01*
X222154476Y-65822211D01*
X222001737Y-65918184D01*
X221874184Y-66045737D01*
X221778211Y-66198476D01*
X221718631Y-66368745D01*
X221718630Y-66368750D01*
X221698435Y-66547996D01*
X221698435Y-66548003D01*
X221718630Y-66727249D01*
X221718631Y-66727254D01*
X221778211Y-66897523D01*
X221828564Y-66977658D01*
X221874184Y-67050262D01*
X222001738Y-67177816D01*
X222154478Y-67273789D01*
X222324745Y-67333368D01*
X222324750Y-67333369D01*
X222503996Y-67353565D01*
X222504000Y-67353565D01*
X222504004Y-67353565D01*
X222683249Y-67333369D01*
X222683252Y-67333368D01*
X222683255Y-67333368D01*
X222853522Y-67273789D01*
X222989464Y-67188370D01*
X223056700Y-67169370D01*
X223123535Y-67189737D01*
X223168750Y-67243005D01*
X223179436Y-67293364D01*
X223179436Y-67834635D01*
X223159751Y-67901674D01*
X223106947Y-67947429D01*
X223037789Y-67957373D01*
X222989464Y-67939629D01*
X222853523Y-67854211D01*
X222683254Y-67794631D01*
X222683249Y-67794630D01*
X222504004Y-67774435D01*
X222503996Y-67774435D01*
X222324750Y-67794630D01*
X222324745Y-67794631D01*
X222154476Y-67854211D01*
X222001737Y-67950184D01*
X221874184Y-68077737D01*
X221778211Y-68230476D01*
X221718631Y-68400745D01*
X221718630Y-68400750D01*
X221698435Y-68579996D01*
X221698435Y-68580003D01*
X221718630Y-68759249D01*
X221718631Y-68759254D01*
X221778211Y-68929523D01*
X221809454Y-68979245D01*
X221874184Y-69082262D01*
X222001738Y-69209816D01*
X222154478Y-69305789D01*
X222245829Y-69337754D01*
X222324745Y-69365368D01*
X222324750Y-69365369D01*
X222503996Y-69385565D01*
X222504000Y-69385565D01*
X222504004Y-69385565D01*
X222683249Y-69365369D01*
X222683252Y-69365368D01*
X222683255Y-69365368D01*
X222853522Y-69305789D01*
X222989464Y-69220370D01*
X223056700Y-69201370D01*
X223123535Y-69221737D01*
X223168750Y-69275005D01*
X223179436Y-69325364D01*
X223179436Y-69866635D01*
X223159751Y-69933674D01*
X223106947Y-69979429D01*
X223037789Y-69989373D01*
X222989464Y-69971629D01*
X222853523Y-69886211D01*
X222683254Y-69826631D01*
X222683249Y-69826630D01*
X222504004Y-69806435D01*
X222503996Y-69806435D01*
X222324750Y-69826630D01*
X222324745Y-69826631D01*
X222154476Y-69886211D01*
X222001737Y-69982184D01*
X221874184Y-70109737D01*
X221778210Y-70262478D01*
X221718630Y-70432750D01*
X221713917Y-70474582D01*
X221686850Y-70538996D01*
X221629254Y-70578550D01*
X221604582Y-70583917D01*
X221562748Y-70588630D01*
X221432612Y-70634166D01*
X221362833Y-70637727D01*
X221302206Y-70602997D01*
X221269980Y-70541004D01*
X221268439Y-70531006D01*
X221257369Y-70432750D01*
X221257368Y-70432745D01*
X221197788Y-70262476D01*
X221158582Y-70200080D01*
X221101816Y-70109738D01*
X220974262Y-69982184D01*
X220913284Y-69943869D01*
X220821523Y-69886211D01*
X220651254Y-69826631D01*
X220651249Y-69826630D01*
X220472004Y-69806435D01*
X220471996Y-69806435D01*
X220292750Y-69826630D01*
X220292745Y-69826631D01*
X220122476Y-69886211D01*
X219969737Y-69982184D01*
X219842184Y-70109737D01*
X219746211Y-70262476D01*
X219686631Y-70432745D01*
X219686630Y-70432750D01*
X219666435Y-70611996D01*
X219666435Y-70612003D01*
X219686630Y-70791249D01*
X219686631Y-70791254D01*
X219746211Y-70961523D01*
X219788743Y-71029211D01*
X219842184Y-71114262D01*
X219969738Y-71241816D01*
X220122478Y-71337789D01*
X220225963Y-71374000D01*
X220292745Y-71397368D01*
X220292750Y-71397369D01*
X220471996Y-71417565D01*
X220472000Y-71417565D01*
X220472004Y-71417565D01*
X220651249Y-71397369D01*
X220651251Y-71397368D01*
X220651255Y-71397368D01*
X220651258Y-71397366D01*
X220651262Y-71397366D01*
X220781385Y-71351834D01*
X220851164Y-71348272D01*
X220911791Y-71383000D01*
X220944019Y-71444994D01*
X220945560Y-71454992D01*
X220956630Y-71553249D01*
X220956631Y-71553254D01*
X221016211Y-71723523D01*
X221112184Y-71876262D01*
X221160241Y-71924319D01*
X221193726Y-71985642D01*
X221188742Y-72055334D01*
X221146870Y-72111267D01*
X221081406Y-72135684D01*
X221072560Y-72136000D01*
X219469107Y-72136000D01*
X219428152Y-72129042D01*
X219381254Y-72112631D01*
X219381249Y-72112630D01*
X219202004Y-72092435D01*
X219201996Y-72092435D01*
X219022750Y-72112630D01*
X219022745Y-72112631D01*
X218975848Y-72129042D01*
X218934893Y-72136000D01*
X218694537Y-72136000D01*
X218627498Y-72116315D01*
X218581743Y-72063511D01*
X218571799Y-71994353D01*
X218577495Y-71971046D01*
X218590367Y-71934257D01*
X218590368Y-71934255D01*
X218596735Y-71877749D01*
X218610565Y-71755003D01*
X218610565Y-71754996D01*
X218590369Y-71575753D01*
X218590368Y-71575752D01*
X218590368Y-71575745D01*
X218578864Y-71542870D01*
X218575302Y-71473097D01*
X218610030Y-71412469D01*
X218654952Y-71384877D01*
X218686037Y-71374000D01*
X218789522Y-71337789D01*
X218942262Y-71241816D01*
X219069816Y-71114262D01*
X219165789Y-70961522D01*
X219225368Y-70791255D01*
X219241485Y-70648211D01*
X219245565Y-70612003D01*
X219245565Y-70611996D01*
X219225369Y-70432750D01*
X219225368Y-70432745D01*
X219165788Y-70262476D01*
X219126582Y-70200080D01*
X219069816Y-70109738D01*
X218942262Y-69982184D01*
X218881284Y-69943869D01*
X218789523Y-69886211D01*
X218619254Y-69826631D01*
X218619249Y-69826630D01*
X218440004Y-69806435D01*
X218439996Y-69806435D01*
X218260750Y-69826630D01*
X218260745Y-69826631D01*
X218090476Y-69886211D01*
X217937737Y-69982184D01*
X217810184Y-70109737D01*
X217714211Y-70262476D01*
X217654631Y-70432745D01*
X217654630Y-70432750D01*
X217634435Y-70611996D01*
X217634435Y-70612003D01*
X217654631Y-70791252D01*
X217666134Y-70824127D01*
X217669695Y-70893906D01*
X217634966Y-70954533D01*
X217590047Y-70982122D01*
X217455480Y-71029209D01*
X217302737Y-71125184D01*
X217175184Y-71252737D01*
X217079211Y-71405476D01*
X217019631Y-71575745D01*
X217019630Y-71575750D01*
X216999435Y-71754996D01*
X216999435Y-71755003D01*
X217019630Y-71934249D01*
X217019632Y-71934257D01*
X217032505Y-71971046D01*
X217036066Y-72040825D01*
X217001337Y-72101452D01*
X216939343Y-72133679D01*
X216915463Y-72136000D01*
X205231999Y-72136000D01*
X203617319Y-73750681D01*
X203555996Y-73784166D01*
X203529638Y-73787000D01*
X199263000Y-73787000D01*
X199263000Y-76076000D01*
X199243315Y-76143039D01*
X199190511Y-76188794D01*
X199139000Y-76200000D01*
X191132000Y-76200000D01*
X191064961Y-76180315D01*
X191019206Y-76127511D01*
X191008000Y-76076000D01*
X191008000Y-71698496D01*
X194139435Y-71698496D01*
X194139435Y-71698503D01*
X194159630Y-71877749D01*
X194159631Y-71877754D01*
X194219211Y-72048023D01*
X194274491Y-72136000D01*
X194315184Y-72200762D01*
X194442738Y-72328316D01*
X194595478Y-72424289D01*
X194756946Y-72480789D01*
X194765745Y-72483868D01*
X194765750Y-72483869D01*
X194944996Y-72504065D01*
X194945000Y-72504065D01*
X194945004Y-72504065D01*
X195124249Y-72483869D01*
X195124252Y-72483868D01*
X195124255Y-72483868D01*
X195294522Y-72424289D01*
X195447262Y-72328316D01*
X195574816Y-72200762D01*
X195670789Y-72048022D01*
X195730368Y-71877755D01*
X195730369Y-71877749D01*
X195750565Y-71698503D01*
X195750565Y-71698496D01*
X195730369Y-71519250D01*
X195730368Y-71519245D01*
X195704386Y-71444994D01*
X195670789Y-71348978D01*
X195670345Y-71348272D01*
X195610087Y-71252371D01*
X195574816Y-71196238D01*
X195447262Y-71068684D01*
X195294523Y-70972711D01*
X195124254Y-70913131D01*
X195124249Y-70913130D01*
X194945004Y-70892935D01*
X194944996Y-70892935D01*
X194765750Y-70913130D01*
X194765745Y-70913131D01*
X194595476Y-70972711D01*
X194442737Y-71068684D01*
X194315184Y-71196237D01*
X194219211Y-71348976D01*
X194159631Y-71519245D01*
X194159630Y-71519250D01*
X194139435Y-71698496D01*
X191008000Y-71698496D01*
X191008000Y-69158496D01*
X194139435Y-69158496D01*
X194139435Y-69158503D01*
X194159630Y-69337749D01*
X194159631Y-69337754D01*
X194219211Y-69508023D01*
X194315184Y-69660762D01*
X194442738Y-69788316D01*
X194595478Y-69884289D01*
X194736612Y-69933674D01*
X194765745Y-69943868D01*
X194765750Y-69943869D01*
X194944996Y-69964065D01*
X194945000Y-69964065D01*
X194945004Y-69964065D01*
X195124249Y-69943869D01*
X195124252Y-69943868D01*
X195124255Y-69943868D01*
X195294522Y-69884289D01*
X195447262Y-69788316D01*
X195574816Y-69660762D01*
X195670789Y-69508022D01*
X195730368Y-69337755D01*
X195744783Y-69209816D01*
X195750565Y-69158503D01*
X195750565Y-69158496D01*
X195730369Y-68979250D01*
X195730368Y-68979245D01*
X195670789Y-68808978D01*
X195574816Y-68656238D01*
X195498574Y-68579996D01*
X217634435Y-68579996D01*
X217634435Y-68580003D01*
X217654630Y-68759249D01*
X217654631Y-68759254D01*
X217714211Y-68929523D01*
X217745454Y-68979245D01*
X217810184Y-69082262D01*
X217937738Y-69209816D01*
X218090478Y-69305789D01*
X218181829Y-69337754D01*
X218260745Y-69365368D01*
X218260750Y-69365369D01*
X218439996Y-69385565D01*
X218440000Y-69385565D01*
X218440004Y-69385565D01*
X218619249Y-69365369D01*
X218619252Y-69365368D01*
X218619255Y-69365368D01*
X218789522Y-69305789D01*
X218942262Y-69209816D01*
X219069816Y-69082262D01*
X219165789Y-68929522D01*
X219225368Y-68759255D01*
X219236975Y-68656238D01*
X219245565Y-68580003D01*
X219245565Y-68579996D01*
X219666435Y-68579996D01*
X219666435Y-68580003D01*
X219686630Y-68759249D01*
X219686631Y-68759254D01*
X219746211Y-68929523D01*
X219777454Y-68979245D01*
X219842184Y-69082262D01*
X219969738Y-69209816D01*
X220122478Y-69305789D01*
X220213829Y-69337754D01*
X220292745Y-69365368D01*
X220292750Y-69365369D01*
X220471996Y-69385565D01*
X220472000Y-69385565D01*
X220472004Y-69385565D01*
X220651249Y-69365369D01*
X220651252Y-69365368D01*
X220651255Y-69365368D01*
X220821522Y-69305789D01*
X220974262Y-69209816D01*
X221101816Y-69082262D01*
X221197789Y-68929522D01*
X221257368Y-68759255D01*
X221268975Y-68656238D01*
X221277565Y-68580003D01*
X221277565Y-68579996D01*
X221257369Y-68400750D01*
X221257368Y-68400745D01*
X221247705Y-68373130D01*
X221197789Y-68230478D01*
X221101816Y-68077738D01*
X220974262Y-67950184D01*
X220897059Y-67901674D01*
X220821523Y-67854211D01*
X220651254Y-67794631D01*
X220651249Y-67794630D01*
X220472004Y-67774435D01*
X220471996Y-67774435D01*
X220292750Y-67794630D01*
X220292745Y-67794631D01*
X220122476Y-67854211D01*
X219969737Y-67950184D01*
X219842184Y-68077737D01*
X219746211Y-68230476D01*
X219686631Y-68400745D01*
X219686630Y-68400750D01*
X219666435Y-68579996D01*
X219245565Y-68579996D01*
X219225369Y-68400750D01*
X219225368Y-68400745D01*
X219215705Y-68373130D01*
X219165789Y-68230478D01*
X219069816Y-68077738D01*
X218942262Y-67950184D01*
X218865059Y-67901674D01*
X218789523Y-67854211D01*
X218619254Y-67794631D01*
X218619249Y-67794630D01*
X218440004Y-67774435D01*
X218439996Y-67774435D01*
X218260750Y-67794630D01*
X218260745Y-67794631D01*
X218090476Y-67854211D01*
X217937737Y-67950184D01*
X217810184Y-68077737D01*
X217714211Y-68230476D01*
X217654631Y-68400745D01*
X217654630Y-68400750D01*
X217634435Y-68579996D01*
X195498574Y-68579996D01*
X195447262Y-68528684D01*
X195294523Y-68432711D01*
X195124254Y-68373131D01*
X195124249Y-68373130D01*
X194945004Y-68352935D01*
X194944996Y-68352935D01*
X194765750Y-68373130D01*
X194765745Y-68373131D01*
X194595476Y-68432711D01*
X194442737Y-68528684D01*
X194315184Y-68656237D01*
X194219211Y-68808976D01*
X194159631Y-68979245D01*
X194159630Y-68979250D01*
X194139435Y-69158496D01*
X191008000Y-69158496D01*
X191008000Y-66547996D01*
X217634435Y-66547996D01*
X217634435Y-66548003D01*
X217654630Y-66727249D01*
X217654631Y-66727254D01*
X217714211Y-66897523D01*
X217764564Y-66977658D01*
X217810184Y-67050262D01*
X217937738Y-67177816D01*
X218090478Y-67273789D01*
X218260745Y-67333368D01*
X218260750Y-67333369D01*
X218439996Y-67353565D01*
X218440000Y-67353565D01*
X218440004Y-67353565D01*
X218619249Y-67333369D01*
X218619252Y-67333368D01*
X218619255Y-67333368D01*
X218789522Y-67273789D01*
X218942262Y-67177816D01*
X219069816Y-67050262D01*
X219165789Y-66897522D01*
X219225368Y-66727255D01*
X219245565Y-66548000D01*
X219245565Y-66547996D01*
X219666435Y-66547996D01*
X219666435Y-66548003D01*
X219686630Y-66727249D01*
X219686631Y-66727254D01*
X219746211Y-66897523D01*
X219796564Y-66977658D01*
X219842184Y-67050262D01*
X219969738Y-67177816D01*
X220122478Y-67273789D01*
X220292745Y-67333368D01*
X220292750Y-67333369D01*
X220471996Y-67353565D01*
X220472000Y-67353565D01*
X220472004Y-67353565D01*
X220651249Y-67333369D01*
X220651252Y-67333368D01*
X220651255Y-67333368D01*
X220821522Y-67273789D01*
X220974262Y-67177816D01*
X221101816Y-67050262D01*
X221197789Y-66897522D01*
X221257368Y-66727255D01*
X221277565Y-66548000D01*
X221257368Y-66368745D01*
X221197789Y-66198478D01*
X221101816Y-66045738D01*
X220974262Y-65918184D01*
X220897059Y-65869674D01*
X220821523Y-65822211D01*
X220651254Y-65762631D01*
X220651249Y-65762630D01*
X220472004Y-65742435D01*
X220471996Y-65742435D01*
X220292750Y-65762630D01*
X220292745Y-65762631D01*
X220122476Y-65822211D01*
X219969737Y-65918184D01*
X219842184Y-66045737D01*
X219746211Y-66198476D01*
X219686631Y-66368745D01*
X219686630Y-66368750D01*
X219666435Y-66547996D01*
X219245565Y-66547996D01*
X219225368Y-66368745D01*
X219165789Y-66198478D01*
X219069816Y-66045738D01*
X218942262Y-65918184D01*
X218865059Y-65869674D01*
X218789523Y-65822211D01*
X218619254Y-65762631D01*
X218619249Y-65762630D01*
X218440004Y-65742435D01*
X218439996Y-65742435D01*
X218260750Y-65762630D01*
X218260745Y-65762631D01*
X218090476Y-65822211D01*
X217937737Y-65918184D01*
X217810184Y-66045737D01*
X217714211Y-66198476D01*
X217654631Y-66368745D01*
X217654630Y-66368750D01*
X217634435Y-66547996D01*
X191008000Y-66547996D01*
X191008000Y-65290696D01*
X215208735Y-65290696D01*
X215208735Y-65290703D01*
X215228930Y-65469949D01*
X215228931Y-65469954D01*
X215288511Y-65640223D01*
X215352736Y-65742435D01*
X215384484Y-65792962D01*
X215512038Y-65920516D01*
X215664778Y-66016489D01*
X215748364Y-66045737D01*
X215835045Y-66076068D01*
X215835050Y-66076069D01*
X216014296Y-66096265D01*
X216014300Y-66096265D01*
X216014304Y-66096265D01*
X216193549Y-66076069D01*
X216193552Y-66076068D01*
X216193555Y-66076068D01*
X216363822Y-66016489D01*
X216516562Y-65920516D01*
X216644116Y-65792962D01*
X216740089Y-65640222D01*
X216799668Y-65469955D01*
X216799669Y-65469949D01*
X216819865Y-65290703D01*
X216819865Y-65290696D01*
X216799669Y-65111450D01*
X216799668Y-65111445D01*
X216767062Y-65018262D01*
X216740089Y-64941178D01*
X216644116Y-64788438D01*
X216516562Y-64660884D01*
X216478968Y-64637262D01*
X216363823Y-64564911D01*
X216224033Y-64515996D01*
X219666435Y-64515996D01*
X219666435Y-64516003D01*
X219686630Y-64695249D01*
X219686631Y-64695254D01*
X219746211Y-64865523D01*
X219793749Y-64941178D01*
X219842184Y-65018262D01*
X219969738Y-65145816D01*
X220122478Y-65241789D01*
X220262246Y-65290696D01*
X220292745Y-65301368D01*
X220292750Y-65301369D01*
X220471996Y-65321565D01*
X220472000Y-65321565D01*
X220472004Y-65321565D01*
X220651249Y-65301369D01*
X220651252Y-65301368D01*
X220651255Y-65301368D01*
X220821522Y-65241789D01*
X220974262Y-65145816D01*
X221101816Y-65018262D01*
X221197789Y-64865522D01*
X221257368Y-64695255D01*
X221263840Y-64637815D01*
X221277565Y-64516003D01*
X221277565Y-64515996D01*
X221257369Y-64336750D01*
X221257368Y-64336745D01*
X221197788Y-64166476D01*
X221158582Y-64104080D01*
X221101816Y-64013738D01*
X220974262Y-63886184D01*
X220897059Y-63837674D01*
X220821523Y-63790211D01*
X220651254Y-63730631D01*
X220651249Y-63730630D01*
X220472004Y-63710435D01*
X220471996Y-63710435D01*
X220292750Y-63730630D01*
X220292745Y-63730631D01*
X220122476Y-63790211D01*
X219969737Y-63886184D01*
X219842184Y-64013737D01*
X219746211Y-64166476D01*
X219686631Y-64336745D01*
X219686630Y-64336750D01*
X219666435Y-64515996D01*
X216224033Y-64515996D01*
X216193554Y-64505331D01*
X216193549Y-64505330D01*
X216014304Y-64485135D01*
X216014296Y-64485135D01*
X215835050Y-64505330D01*
X215835045Y-64505331D01*
X215664776Y-64564911D01*
X215512037Y-64660884D01*
X215384484Y-64788437D01*
X215288511Y-64941176D01*
X215228931Y-65111445D01*
X215228930Y-65111450D01*
X215208735Y-65290696D01*
X191008000Y-65290696D01*
X191008000Y-64810440D01*
X191027685Y-64743401D01*
X191044319Y-64722759D01*
X191071829Y-64695249D01*
X191129816Y-64637262D01*
X191225789Y-64484522D01*
X191285368Y-64314255D01*
X191285369Y-64314249D01*
X191305565Y-64135003D01*
X191305565Y-64134996D01*
X192234435Y-64134996D01*
X192234435Y-64135003D01*
X192254630Y-64314249D01*
X192254631Y-64314254D01*
X192314211Y-64484523D01*
X192364723Y-64564911D01*
X192410184Y-64637262D01*
X192537738Y-64764816D01*
X192690478Y-64860789D01*
X192860745Y-64920368D01*
X192860750Y-64920369D01*
X193039996Y-64940565D01*
X193040000Y-64940565D01*
X193040004Y-64940565D01*
X193219249Y-64920369D01*
X193219252Y-64920368D01*
X193219255Y-64920368D01*
X193389522Y-64860789D01*
X193542262Y-64764816D01*
X193669816Y-64637262D01*
X193765789Y-64484522D01*
X193825368Y-64314255D01*
X193825369Y-64314249D01*
X193845565Y-64135003D01*
X193845565Y-64134996D01*
X193831256Y-64007996D01*
X199854435Y-64007996D01*
X199854435Y-64008003D01*
X199874630Y-64187249D01*
X199874631Y-64187254D01*
X199934211Y-64357523D01*
X200014010Y-64484522D01*
X200030184Y-64510262D01*
X200157738Y-64637816D01*
X200310478Y-64733789D01*
X200399148Y-64764816D01*
X200480745Y-64793368D01*
X200480750Y-64793369D01*
X200659996Y-64813565D01*
X200660000Y-64813565D01*
X200660004Y-64813565D01*
X200839249Y-64793369D01*
X200839252Y-64793368D01*
X200839255Y-64793368D01*
X201009522Y-64733789D01*
X201162262Y-64637816D01*
X201289816Y-64510262D01*
X201385789Y-64357522D01*
X201445368Y-64187255D01*
X201447709Y-64166478D01*
X201465565Y-64008003D01*
X201465565Y-64007996D01*
X201445369Y-63828750D01*
X201445368Y-63828745D01*
X201430228Y-63785478D01*
X201385789Y-63658478D01*
X201369615Y-63632738D01*
X201289815Y-63505737D01*
X201162262Y-63378184D01*
X201009523Y-63282211D01*
X200839254Y-63222631D01*
X200839249Y-63222630D01*
X200660004Y-63202435D01*
X200659996Y-63202435D01*
X200480750Y-63222630D01*
X200480745Y-63222631D01*
X200310476Y-63282211D01*
X200157737Y-63378184D01*
X200030184Y-63505737D01*
X199934211Y-63658476D01*
X199874631Y-63828745D01*
X199874630Y-63828750D01*
X199854435Y-64007996D01*
X193831256Y-64007996D01*
X193825369Y-63955750D01*
X193825368Y-63955745D01*
X193803543Y-63893373D01*
X193765789Y-63785478D01*
X193669816Y-63632738D01*
X193542262Y-63505184D01*
X193389523Y-63409211D01*
X193219254Y-63349631D01*
X193219249Y-63349630D01*
X193040004Y-63329435D01*
X193039996Y-63329435D01*
X192860750Y-63349630D01*
X192860745Y-63349631D01*
X192690476Y-63409211D01*
X192537737Y-63505184D01*
X192410184Y-63632737D01*
X192314211Y-63785476D01*
X192254631Y-63955745D01*
X192254630Y-63955750D01*
X192234435Y-64134996D01*
X191305565Y-64134996D01*
X191285369Y-63955750D01*
X191285368Y-63955745D01*
X191263543Y-63893373D01*
X191225789Y-63785478D01*
X191129816Y-63632738D01*
X191044319Y-63547241D01*
X191010834Y-63485918D01*
X191008000Y-63459560D01*
X191008000Y-60727496D01*
X205645635Y-60727496D01*
X205645635Y-60727503D01*
X205665830Y-60906749D01*
X205665831Y-60906754D01*
X205725411Y-61077023D01*
X205790301Y-61180294D01*
X205821384Y-61229762D01*
X205948938Y-61357316D01*
X206101678Y-61453289D01*
X206271945Y-61512868D01*
X206271950Y-61512869D01*
X206451196Y-61533065D01*
X206451200Y-61533065D01*
X206451204Y-61533065D01*
X206630449Y-61512869D01*
X206630452Y-61512868D01*
X206630455Y-61512868D01*
X206800722Y-61453289D01*
X206953462Y-61357316D01*
X207081016Y-61229762D01*
X207176989Y-61077022D01*
X207236568Y-60906755D01*
X207256765Y-60727500D01*
X207250736Y-60673994D01*
X207236569Y-60548250D01*
X207236568Y-60548245D01*
X207176988Y-60377976D01*
X207081015Y-60225237D01*
X206953462Y-60097684D01*
X206800723Y-60001711D01*
X206630454Y-59942131D01*
X206630449Y-59942130D01*
X206451204Y-59921935D01*
X206451196Y-59921935D01*
X206271950Y-59942130D01*
X206271945Y-59942131D01*
X206101676Y-60001711D01*
X205948937Y-60097684D01*
X205821384Y-60225237D01*
X205725411Y-60377976D01*
X205665831Y-60548245D01*
X205665830Y-60548250D01*
X205645635Y-60727496D01*
X191008000Y-60727496D01*
X191008000Y-54988500D01*
X191027685Y-54921461D01*
X191080489Y-54875706D01*
X191132000Y-54864500D01*
X220255451Y-54864500D01*
X220262404Y-54864694D01*
G37*
G04 #@! TD.AperFunction*
M02*
